<?xml version="1.0" standalone="no"?>
<!DOCTYPE svg PUBLIC "-//W3C//DTD SVG 1.1//EN" "http://www.w3.org/Graphics/SVG/1.1/DTD/svg11.dtd" >
<svg xmlns="http://www.w3.org/2000/svg" xmlns:xlink="http://www.w3.org/1999/xlink" version="1.1">
<metadata>
Created by FontForge 20170731 at Fri Sep  7 16:57:26 2018
 By Aleksey,,,
Copyright 2018 The Sarabun Project Authors (https://github.com/cadsondemak/Sarabun)
</metadata>
<defs>
<font id="Sarabun-BoldItalic" horiz-adv-x="0" >
  <font-face 
    font-family="Sarabun"
    font-weight="700"
    font-style="italic"
    font-stretch="normal"
    units-per-em="1000"
    panose-1="0 0 8 0 0 0 0 0 0 0"
    ascent="800"
    descent="-200"
    x-height="500"
    cap-height="700"
    bbox="-634 -559 1332 1281"
    underline-thickness="50"
    underline-position="-150"
    slope="-10"
    unicode-range="U+000D-FB02"
  />
<missing-glyph horiz-adv-x="700" 
d="M118 750h500v-750h-500v750zM574 41v668h-412v-668h412z" />
    <glyph glyph-name="fi" unicode="fi" horiz-adv-x="615" 
d="M121 413h-81l15 87h82l10 60q13 74 63 115.5t129 41.5q38 0 72 -12t50 -31l-58 -76q-10 10 -25 16.5t-31 6.5q-28 0 -48 -19t-26 -52l-9 -50h141l-15 -87h-141l-73 -413h-127zM501 575q-20 17 -20 43q0 40 27 65t70 25q31 0 50.5 -17t19.5 -43q0 -40 -27 -65t-69 -25
q-31 0 -51 17zM478 500h127l-88 -500h-127z" />
    <glyph glyph-name="fl" unicode="fl" horiz-adv-x="653" 
d="M121 413h-81l15 87h82l10 60q13 74 63 115.5t129 41.5q38 0 72 -12t50 -31l-58 -76q-10 10 -25 16.5t-31 6.5q-28 0 -48 -19t-26 -52l-9 -50h141l-15 -87h-141l-73 -413h-127zM420 15.5q-28 25.5 -28 73.5q0 16 3 34l110 619h127l-110 -620q-1 -4 -1 -12q0 -31 40 -31
q22 0 59 13l7 -68q-51 -34 -124 -34q-55 0 -83 25.5z" />
    <glyph glyph-name="uni0E240E45" unicode="&#xe24;&#xe45;" horiz-adv-x="907" 
d="M823 548.5q52 -37.5 52 -102.5q0 -14 -3 -31l-116 -665h-128l116 657q1 6 1 17q0 29 -19 45.5t-55 16.5q-43 0 -73 -26.5t-40 -70.5q0 -6 -1 -9l-110 -630h-128l109 616q2 9 2 25q0 43 -28 69t-75 26t-88 -20t-60 -52q70 -16 109 -42l-7 -36q-38 -13 -61 -38t-29 -60
l-6 -33h5q41 0 67 -23.5t26 -61.5q0 -58 -39 -94t-100 -36q-49 0 -77.5 26t-28.5 70q0 7 2 21l22 125q7 35 31 64.5t58 44.5q-42 11 -99 18q8 66 48 117.5t103.5 80.5t140.5 29q54 0 96.5 -14.5t70.5 -41.5q67 56 169 56q91 0 143 -37.5zM207.5 132.5q-10.5 9.5 -27.5 9.5
q-24 0 -39 -15t-15 -38q0 -16 10.5 -26t27.5 -10q23 0 38.5 15t15.5 39q0 16 -10.5 25.5z" />
    <glyph glyph-name="uni0E260E45" unicode="&#xe26;&#xe45;" horiz-adv-x="930" 
d="M845.5 549q52.5 -37 52.5 -103q0 -14 -3 -31l-116 -665h-128l116 657q2 12 2 17q0 30 -19.5 46t-55.5 16q-40 0 -70 -24t-41 -65q0 -5 -2 -17l-111 -630h-127l108 616q3 15 3 28q0 43 -26 67.5t-72 24.5q-43 0 -81.5 -18t-59.5 -54q32 -8 63.5 -19.5t49.5 -22.5l-7 -36
q-42 -15 -60.5 -39.5t-18.5 -70.5v-27q0 -108 -39.5 -158.5t-119.5 -50.5q-44 0 -71.5 24t-27.5 62q0 57 35 93t91 36q13 0 22 -4q-2 16 -2 25q0 36 16.5 67.5t41.5 47.5q-48 12 -99 18q8 66 46.5 118t100 80.5t137.5 28.5q53 0 95 -13.5t69 -39.5q65 53 166 53
q90 0 142.5 -37zM127 68.5q15 15.5 15 38.5q0 16 -10.5 26t-27.5 10q-24 0 -39 -15t-15 -39q0 -16 11 -26t28 -10q23 0 38 15.5z" />
    <glyph glyph-name=".notdef" horiz-adv-x="700" 
d="M118 750h500v-750h-500v750zM574 41v668h-412v-668h412z" />
    <glyph glyph-name=".null" 
 />
    <glyph glyph-name="nonmarkingreturn" unicode="&#xd;" horiz-adv-x="233" 
 />
    <glyph glyph-name="NULL" 
 />
    <glyph glyph-name="NULL" 
 />
    <glyph glyph-name="space" unicode=" " horiz-adv-x="233" 
 />
    <glyph glyph-name="exclam" unicode="!" horiz-adv-x="256" 
d="M131 700h153l-100 -481h-123zM25 9.5q-22 19.5 -22 50.5q0 47 30.5 76.5t79.5 29.5q35 0 57 -20t22 -51q0 -47 -30.5 -76t-79.5 -29q-35 0 -57 19.5z" />
    <glyph glyph-name="quotedbl" unicode="&#x22;" horiz-adv-x="405" 
d="M116 710h135l-57 -262h-114zM316 710h135l-56 -262h-114z" />
    <glyph glyph-name="numbersign" unicode="#" horiz-adv-x="707" 
d="M607 414l-38 -128h82l-18 -103h-95l-55 -183h-136l55 183h-154l-55 -183h-136l55 183h-81l18 103h94l38 128h-90l18 103h103l55 183h136l-55 -183h154l55 183h136l-55 -183h73l-18 -103h-86zM471 414h-154l-38 -128h154z" />
    <glyph glyph-name="dollar" unicode="$" horiz-adv-x="541" 
d="M483 324.5q33 -44.5 33 -104.5q0 -97 -61 -157t-170 -71l-12 -71h-110l13 74q-58 11 -103 42t-70 77l98 80q25 -40 66 -64.5t83 -24.5q55 0 87.5 25t32.5 67q0 25 -22.5 47t-83.5 55q-87 47 -126.5 95.5t-39.5 106.5q0 82 55 136.5t149 68.5l11 63h110l-11 -63
q55 -9 96 -36.5t60 -68.5l-103 -68q-39 62 -112 62q-50 0 -79.5 -21.5t-29.5 -57.5q0 -24 28.5 -47.5t105.5 -62.5q72 -37 105 -81.5z" />
    <glyph glyph-name="percent" unicode="%" horiz-adv-x="968" 
d="M122 340.5q-40 43.5 -40 115.5q0 70 29 128t78.5 92t109.5 34q67 0 107 -43.5t40 -115.5q0 -70 -29 -128t-78.5 -92t-108.5 -34q-68 0 -108 43.5zM701 700h147l-553 -713h-147zM285.5 416q18.5 20 30 54t11.5 72q0 31 -12 50t-32 19q-22 0 -40.5 -20t-30 -53.5
t-11.5 -72.5q0 -31 12 -50t32 -19q22 0 40.5 20zM598 34.5q-40 43.5 -40 115.5q0 70 29 128t78.5 92t109.5 34q67 0 107 -43.5t40 -115.5q0 -70 -29 -128t-78.5 -92t-109.5 -34q-67 0 -107 43.5zM761.5 110q18.5 20 30 54t11.5 72q0 31 -12 50t-32 19q-22 0 -41 -20.5
t-30 -54t-11 -71.5q0 -31 12 -50t32 -19q22 0 40.5 20z" />
    <glyph glyph-name="ampersand" unicode="&#x26;" horiz-adv-x="697" 
d="M573 143q38 -35 65 -60l-96 -93l-71 64q-101 -64 -218 -64q-105 0 -167.5 47.5t-62.5 128.5q0 71 45.5 132.5t126.5 100.5q-28 62 -28 111q0 57 29 102.5t79 71.5t112 26q73 0 117 -36.5t44 -95.5q0 -63 -44.5 -119t-130.5 -101q43 -61 119 -136q38 54 56 117h123
q-25 -108 -98 -196zM319 584q-21 -22 -21 -57q0 -41 31 -97q42 31 65.5 66t23.5 66q0 21 -12.5 32.5t-33.5 11.5q-32 0 -53 -22zM201.5 128.5q29.5 -22.5 81.5 -22.5q58 0 109 27q-89 92 -141 167l-9 14q-33 -27 -51.5 -58.5t-18.5 -64.5q0 -40 29.5 -62.5z" />
    <glyph glyph-name="quotesingle" unicode="'" horiz-adv-x="205" 
d="M116 710h135l-57 -262h-114z" />
    <glyph glyph-name="parenleft" unicode="(" horiz-adv-x="354" 
d="M45 217q0 105 30 207t85 186.5t128 139.5h131q-66 -49 -119.5 -135.5t-83.5 -191t-30 -207.5q0 -90 23.5 -162t66.5 -115h-131q-100 102 -100 278z" />
    <glyph glyph-name="parenright" unicode=")" horiz-adv-x="354" 
d="M87 73.5q53 86.5 83.5 191.5t30.5 208q0 90 -23.5 162t-66.5 115h131q100 -101 100 -279q0 -160 -66 -304.5t-177 -227.5h-131q66 48 119 134.5z" />
    <glyph glyph-name="asterisk" unicode="*" horiz-adv-x="448" 
d="M99 399l109 111l-140 -9l15 91l138 -8l-69 111l96 50l41 -127l85 127l80 -50l-109 -111l140 8l-16 -91l-137 9l69 -111l-96 -51l-41 128l-86 -128z" />
    <glyph glyph-name="plus" unicode="+" horiz-adv-x="617" 
d="M241 214h-201l18 96h200l38 214h122l-38 -214h201l-17 -96h-201l-38 -214h-122z" />
    <glyph glyph-name="comma" unicode="," horiz-adv-x="291" 
d="M185.5 133.5q21.5 -22.5 21.5 -58.5q0 -67 -49.5 -142t-126.5 -124l-46 65q28 20 54.5 51.5t43.5 65.5q-3 -1 -10 -1q-24 0 -39 17t-15 43q0 47 31 76.5t80 29.5q34 0 55.5 -22.5z" />
    <glyph glyph-name="hyphen" unicode="-" horiz-adv-x="340" 
d="M34 310h293l-15 -88h-294z" />
    <glyph glyph-name="period" unicode="." horiz-adv-x="291" 
d="M49 10q-20 19 -20 48q0 46 28 75t73 29q31 0 51 -19t20 -49q0 -45 -28.5 -74t-72.5 -29q-31 0 -51 19z" />
    <glyph glyph-name="slash" unicode="/" horiz-adv-x="468" 
d="M442 725h130l-515 -768h-130z" />
    <glyph glyph-name="zero" unicode="0" horiz-adv-x="565" 
d="M134.5 21q-48.5 31 -75.5 86.5t-27 126.5q0 140 41 248t114.5 168t168.5 60q62 0 110 -31t75 -86.5t27 -125.5q0 -140 -41 -248.5t-114.5 -168.5t-167.5 -60q-62 0 -110.5 31zM344 143q39 49 60.5 136.5t21.5 199.5q0 56 -22.5 91.5t-57.5 35.5q-50 0 -89.5 -48.5
t-61 -135.5t-21.5 -200q0 -57 23 -92.5t58 -35.5q50 0 89 49z" />
    <glyph glyph-name="one" unicode="1" horiz-adv-x="565" 
d="M92 107h113l76 432l-143 -77l22 128l199 110h94l-104 -593h112l-19 -107h-369z" />
    <glyph glyph-name="two" unicode="2" horiz-adv-x="565" 
d="M30 104q109 68 194.5 145.5t133.5 150t48 125.5q0 34 -20 52.5t-56 18.5q-45 0 -91 -24t-80 -66l-64 83q44 58 110 89.5t142 31.5q97 0 151.5 -43t54.5 -118q0 -91 -81 -199t-250 -243h281l-19 -107h-472z" />
    <glyph glyph-name="three" unicode="3" horiz-adv-x="565" 
d="M97.5 20q-58.5 29 -80.5 80l84 78q23 -33 62.5 -53t80.5 -20q59 0 95.5 34t36.5 87q0 41 -32 65t-90 24h-60l18 102h59q37 0 68 15.5t49 42t18 58.5q0 30 -21 46t-61 16q-44 0 -87.5 -19t-78.5 -54l-52 79q44 51 110 79.5t140 28.5q58 0 102.5 -19t69.5 -53t25 -78
q0 -60 -37 -109t-105 -78q53 -19 80.5 -55.5t27.5 -86.5q0 -69 -36.5 -123.5t-101 -85t-145.5 -30.5q-80 0 -138.5 29z" />
    <glyph glyph-name="four" unicode="4" horiz-adv-x="565" 
d="M304 109h-309l18 100l386 491h153l-85 -477h74l-20 -114h-73l-20 -109h-144zM324 223l49 282l-223 -282h174z" />
    <glyph glyph-name="five" unicode="5" horiz-adv-x="565" 
d="M94.5 20q-60.5 30 -84.5 79l78 91q29 -42 67 -64t82 -22q42 0 76 22.5t53 61.5t19 88q0 44 -23 68t-64 24q-30 0 -60.5 -17.5t-50.5 -46.5h-119l105 396h413l-21 -114h-285l-41 -152q17 17 50.5 28.5t64.5 11.5q82 0 130 -50t48 -134q0 -86 -39.5 -154.5t-109 -107
t-156.5 -38.5q-72 0 -132.5 30z" />
    <glyph glyph-name="six" unicode="6" horiz-adv-x="565" 
d="M136 17q-49 27 -76 75.5t-27 111.5q0 120 73 234t193 190t252 87l-6 -108q-86 -15 -157 -56t-117 -102q11 6 28.5 10t33.5 4q92 0 145 -50t53 -138q0 -82 -36 -147t-100.5 -101.5t-145.5 -36.5q-64 0 -113 27zM324.5 125.5q28.5 20.5 45.5 55.5t17 77t-22.5 66t-60.5 24
q-34 0 -63 -20.5t-46 -55.5t-17 -76q0 -42 22.5 -66.5t60.5 -24.5q35 0 63.5 20.5z" />
    <glyph glyph-name="seven" unicode="7" horiz-adv-x="565" 
d="M229 324q64 141 178 262h-303l20 114h476l-16 -93q-119 -107 -200.5 -266.5t-113.5 -340.5h-144q39 183 103 324z" />
    <glyph glyph-name="eight" unicode="8" horiz-adv-x="565" 
d="M126 12.5q-51 22.5 -79 62t-28 91.5q0 67 41 123.5t107 81.5q-29 13 -47.5 48t-18.5 79q0 62 32.5 110t91 75t133.5 27q59 0 105.5 -20.5t72 -57t25.5 -83.5q0 -58 -33.5 -108t-86.5 -70q39 -16 62.5 -56t23.5 -89q0 -69 -36 -122.5t-100.5 -83.5t-147.5 -30
q-66 0 -117 22.5zM386.5 451q28.5 30 28.5 77q0 30 -20 49t-51 19q-46 0 -74.5 -30t-28.5 -77q0 -30 20 -49t52 -19q45 0 73.5 30zM350 141.5q36 37.5 36 96.5q0 37 -25 60.5t-65 23.5q-57 0 -93.5 -37t-36.5 -96q0 -38 25.5 -61.5t65.5 -23.5q57 0 93 37.5z" />
    <glyph glyph-name="nine" unicode="9" horiz-adv-x="565" 
d="M57 94q90 16 166.5 59t116.5 99q-39 -14 -70 -14q-90 0 -144 52.5t-54 139.5q0 79 36.5 143t101 100t144.5 36q64 0 112.5 -26.5t75.5 -75.5t27 -113q0 -126 -68 -238t-185 -184.5t-256 -86.5zM359 365q30 22 47.5 59.5t17.5 80.5q0 42 -22.5 66t-61.5 24q-34 0 -63 -21
t-46 -57t-17 -79q0 -44 22 -69.5t59 -25.5q34 0 64 22z" />
    <glyph glyph-name="colon" unicode=":" horiz-adv-x="291" 
d="M108 347q-20 19 -20 48q0 46 28.5 74.5t72.5 28.5q32 0 52 -18.5t20 -48.5q0 -46 -28.5 -74.5t-72.5 -28.5q-32 0 -52 19zM49 9q-20 19 -20 49q0 46 28 74.5t73 28.5q31 0 51 -18.5t20 -48.5q0 -46 -28.5 -75t-72.5 -29q-31 0 -51 19z" />
    <glyph glyph-name="semicolon" unicode=";" horiz-adv-x="291" 
d="M241 479.5q20 -18.5 20 -48.5q0 -46 -28.5 -74.5t-72.5 -28.5q-32 0 -52 19t-20 48q0 46 28.5 74.5t72.5 28.5q32 0 52 -18.5zM183.5 133.5q21.5 -22.5 21.5 -58.5q0 -67 -49.5 -142t-126.5 -124l-46 65q28 19 54.5 50.5t43.5 66.5q-4 -1 -10 -1q-24 0 -39 17t-15 43
q0 47 31 76.5t80 29.5q34 0 55.5 -22.5z" />
    <glyph glyph-name="less" unicode="&#x3c;" horiz-adv-x="617" 
d="M58 265l9 53l554 264l-20 -109l-385 -183l320 -183l-18 -107z" />
    <glyph glyph-name="equal" unicode="=" horiz-adv-x="617" 
d="M86 416h503l-18 -104h-503zM48 200h503l-18 -104h-503z" />
    <glyph glyph-name="greater" unicode="&#x3e;" horiz-adv-x="617" 
d="M30 109l385 183l-320 183l19 107l460 -264l-9 -53l-554 -265z" />
    <glyph glyph-name="question" unicode="?" horiz-adv-x="471" 
d="M160 186q0 41 14.5 74.5t35 58.5t55.5 61q46 46 69 80.5t23 79.5q0 32 -19.5 49t-55.5 17t-74.5 -23.5t-68.5 -63.5l-55 82q37 52 96.5 80.5t130.5 28.5q89 0 139.5 -38.5t50.5 -106.5q0 -45 -17.5 -83t-42.5 -67t-66 -68q-48 -46 -71.5 -78t-23.5 -69v-19h-120v5z
M143.5 7q-19.5 17 -19.5 45q0 41 27 66.5t70 25.5q31 0 50.5 -17t19.5 -45q0 -41 -27 -66.5t-70 -25.5q-31 0 -50.5 17z" />
    <glyph glyph-name="at" unicode="@" horiz-adv-x="805" 
d="M156.5 -116q-65.5 35 -101.5 99t-36 148q0 129 61.5 236t167 169.5t231.5 62.5q89 0 156.5 -33.5t104 -94t36.5 -139.5q0 -84 -33 -154.5t-89.5 -112t-124.5 -42.5h-30l-15 60q-31 -29 -73.5 -47t-79.5 -18q-57 0 -91 30t-34 80q0 47 26 84.5t72.5 58.5t103.5 21h77l3 14
q1 4 1 13q0 25 -17 40.5t-45 15.5q-35 0 -72.5 -15.5t-62.5 -40.5l-36 50q34 34 86 56t99 22q60 0 95.5 -33.5t35.5 -88.5q0 -15 -3 -32l-21 -122q-2 -9 -2 -27q0 -32 9 -47q34 8 63 40.5t46.5 79.5t17.5 99q0 58 -26.5 102t-75.5 68.5t-114 24.5q-95 0 -175 -48.5
t-126 -132t-46 -182.5q0 -63 26 -110.5t74.5 -74t112.5 -26.5q45 0 93.5 12t79.5 31l22 -71q-37 -27 -97.5 -43.5t-120.5 -16.5q-87 0 -152.5 35zM424.5 110.5q33.5 22.5 37.5 47.5l12 70h-73q-45 0 -74.5 -24.5t-29.5 -62.5q0 -24 15 -38.5t42 -14.5q37 0 70.5 22.5z" />
    <glyph glyph-name="A" unicode="A" horiz-adv-x="641" 
d="M423 116h-240l-55 -116h-157l365 700h127l119 -700h-144zM408 231l-37 278l-133 -278h170z" />
    <glyph glyph-name="B" unicode="B" horiz-adv-x="606" 
d="M147 700h225q106 0 163.5 -38.5t57.5 -108.5q0 -59 -30 -101.5t-93 -73.5l-1 -3q96 -39 96 -133q0 -114 -66.5 -178t-186.5 -64h-288zM338 421q46 0 76.5 28t30.5 74q0 31 -24 48.5t-72 17.5h-77l-30 -168h96zM304 111q52 0 85.5 34.5t33.5 90.5q0 80 -116 80h-83
l-36 -205h116z" />
    <glyph glyph-name="C" unicode="C" horiz-adv-x="620" 
d="M176 24q-65 34 -100 97t-35 148q0 128 48 228t134.5 156.5t196.5 56.5q86 0 149.5 -33.5t85.5 -89.5l-95 -72q-19 39 -55.5 59.5t-85.5 20.5q-68 0 -121 -41.5t-83 -115t-30 -167.5q0 -79 38 -122.5t108 -43.5q106 0 171 80l72 -72q-84 -123 -245 -123q-88 0 -153 34z
" />
    <glyph glyph-name="D" unicode="D" horiz-adv-x="642" 
d="M147 700h240q121 0 184.5 -61.5t63.5 -179.5q0 -223 -95.5 -341t-276.5 -118h-239zM283 115q62 0 109.5 41t73 116t25.5 174q0 71 -28.5 105t-88.5 34h-103l-82 -470h94z" />
    <glyph glyph-name="E" unicode="E" horiz-adv-x="571" 
d="M147 700h465l-20 -115h-321l-28 -160h286l-20 -115h-287l-33 -195h320l-20 -115h-465z" />
    <glyph glyph-name="F" unicode="F" horiz-adv-x="574" 
d="M147 700h470l-20 -115h-326l-33 -187h304l-20 -115h-304l-50 -283h-144z" />
    <glyph glyph-name="G" unicode="G" horiz-adv-x="653" 
d="M333 380h293l-66 -380h-109l-6 35q-64 -45 -150 -45q-78 0 -136 32t-89 91.5t-31 138.5q0 134 48 238t134 162t197 58q89 0 154 -34t83 -89l-94 -72q-18 39 -55 59.5t-89 20.5q-67 0 -120 -43t-83 -119.5t-30 -174.5q0 -80 33.5 -121t98.5 -41q66 0 124 32l26 150h-151z
" />
    <glyph glyph-name="H" unicode="H" horiz-adv-x="692" 
d="M147 700h144l-50 -286h268l51 286h143l-123 -700h-143l53 299h-269l-53 -299h-144z" />
    <glyph glyph-name="I" unicode="I" horiz-adv-x="323" 
d="M169 700h143l-123 -700h-143z" />
    <glyph glyph-name="J" unicode="J" horiz-adv-x="492" 
d="M52 10.5q-50 20.5 -79 56.5l73 92q22 -25 53.5 -39.5t64.5 -14.5q49 0 76 32t40 104l80 459h144l-84 -475q-21 -121 -84 -178t-176 -57q-58 0 -108 20.5z" />
    <glyph glyph-name="K" unicode="K" horiz-adv-x="656" 
d="M419 423l174 -423h-152l-130 313l-107 -108l-36 -205h-144l124 700h144l-54 -304l285 304h169z" />
    <glyph glyph-name="L" unicode="L" horiz-adv-x="565" 
d="M147 700h144l-103 -585h330l-20 -115h-474z" />
    <glyph glyph-name="M" unicode="M" horiz-adv-x="816" 
d="M827 700l-124 -700h-142l73 414l-221 -414h-101l-74 407l-72 -407h-142l124 700h145l94 -541l283 541h157z" />
    <glyph glyph-name="N" unicode="N" horiz-adv-x="699" 
d="M710 700l-123 -700h-133l-205 465l-82 -465h-143l123 700h139l200 -457l81 457h143z" />
    <glyph glyph-name="O" unicode="O" horiz-adv-x="690" 
d="M170 24.5q-62 34.5 -96 96.5t-34 143q0 129 47.5 230.5t132.5 158.5t193 57q81 0 143 -34.5t96 -96.5t34 -143q0 -129 -47.5 -230.5t-132.5 -158.5t-193 -57q-81 0 -143 34.5zM435.5 145q49.5 41 77.5 114.5t28 166.5q0 76 -38 123t-99 47q-63 0 -112.5 -41t-77.5 -114
t-28 -166q0 -76 38 -123.5t99 -47.5q63 0 112.5 41z" />
    <glyph glyph-name="P" unicode="P" horiz-adv-x="590" 
d="M147 700h224q108 0 167.5 -46t59.5 -129q0 -134 -78 -209.5t-216 -75.5h-94l-42 -240h-144zM326 354q57 0 93 41.5t36 106.5q0 41 -24.5 62t-70.5 21h-89l-41 -231h96z" />
    <glyph glyph-name="Q" unicode="Q" horiz-adv-x="690" 
d="M650 232.5q-36 -91.5 -101.5 -152t-151.5 -80.5q80 -28 204 -32l-40 -98q-98 5 -198 44t-149 88l8 1q-84 25 -133 94.5t-49 166.5q0 129 47.5 230.5t132.5 158.5t193 57q81 0 143 -34.5t96 -96.5t34 -143q0 -112 -36 -203.5zM291.5 555q-49.5 -41 -77.5 -114t-28 -166
q0 -76 38 -123.5t99 -47.5q63 0 112.5 41t77.5 114.5t28 166.5q0 76 -38 123t-99 47q-63 0 -112.5 -41z" />
    <glyph glyph-name="R" unicode="R" horiz-adv-x="596" 
d="M147 700h238q105 0 161 -43t56 -123q0 -165 -151 -218v-2q16 -13 24 -25.5t12 -29.5l58 -259h-153l-42 213q-7 32 -24 42.5t-64 10.5h-47l-47 -266h-144zM323 380q61 0 97.5 36.5t36.5 95.5q0 73 -100 73h-86l-36 -205h88z" />
    <glyph glyph-name="S" unicode="S" horiz-adv-x="549" 
d="M96 23q-62 33 -93 91l98 80q25 -40 66 -64.5t83 -24.5q55 0 87.5 25t32.5 67q0 25 -22.5 47t-83.5 55q-87 47 -126.5 95.5t-39.5 106.5q0 62 32.5 109.5t92 73.5t137.5 26q73 0 128.5 -29.5t79.5 -79.5l-103 -68q-39 62 -112 62q-50 0 -79.5 -21.5t-29.5 -57.5
q0 -24 28.5 -47.5t105.5 -62.5q72 -37 105 -81.5t33 -104.5q0 -107 -74.5 -168.5t-204.5 -61.5q-79 0 -141 33z" />
    <glyph glyph-name="T" unicode="T" horiz-adv-x="590" 
d="M284 594h-208l19 106h560l-19 -106h-208l-105 -594h-144z" />
    <glyph glyph-name="U" unicode="U" horiz-adv-x="662" 
d="M117.5 43.5q-60.5 53.5 -60.5 156.5q0 37 7 73l75 427h144l-75 -425q-6 -31 -6 -58q0 -112 104 -112q63 0 102.5 43t54.5 127l75 425h144l-75 -427q-50 -283 -314 -283q-115 0 -175.5 53.5z" />
    <glyph glyph-name="V" unicode="V" horiz-adv-x="647" 
d="M711 700l-367 -700h-130l-120 700h147l67 -517l250 517h153z" />
    <glyph glyph-name="W" unicode="W" horiz-adv-x="874" 
d="M928 700l-271 -700h-134l-36 521l-220 -521h-139l-24 700h151l-6 -463l197 463h136l34 -461l157 461h155z" />
    <glyph glyph-name="X" unicode="X" horiz-adv-x="655" 
d="M264 358l-149 342h156l89 -225l169 225h170l-269 -342l155 -358h-151l-100 239l-181 -239h-171z" />
    <glyph glyph-name="Y" unicode="Y" horiz-adv-x="628" 
d="M247 280l-153 420h152l95 -275l191 275h160l-301 -420l-49 -280h-144z" />
    <glyph glyph-name="Z" unicode="Z" horiz-adv-x="592" 
d="M-6 70l435 515h-315l20 115h497l-12 -72l-430 -513h353l-21 -115h-539z" />
    <glyph glyph-name="bracketleft" unicode="[" horiz-adv-x="332" 
d="M125 700h250l-18 -100h-109l-106 -605h109l-18 -100h-251z" />
    <glyph glyph-name="backslash" unicode="\" horiz-adv-x="385" 
d="M63 725h130l245 -768h-130z" />
    <glyph glyph-name="bracketright" unicode="]" horiz-adv-x="332" 
d="M-8 -5h110l106 605h-109l18 100h250l-142 -805h-251z" />
    <glyph glyph-name="asciicircum" unicode="^" horiz-adv-x="599" 
d="M327 700h105l129 -477h-125l-81 334l-198 -334h-128z" />
    <glyph glyph-name="underscore" unicode="_" horiz-adv-x="358" 
d="M-83 -223h358l-17 -96h-358z" />
    <glyph glyph-name="grave" unicode="`" horiz-adv-x="400" 
d="M155 731h123l63 -176h-102z" />
    <glyph glyph-name="a" unicode="a" horiz-adv-x="558" 
d="M69.5 43q-47.5 53 -47.5 144q0 94 32.5 167.5t90.5 114.5t133 41q52 0 90 -19t54 -54h2l20 63h107l-65 -367q-18 -105 -21 -133h-120q6 41 11 66h-2q-30 -35 -71.5 -55.5t-84.5 -20.5q-81 0 -128.5 53zM324 118.5q37 30.5 46 80.5l18 103q2 14 2 22q0 40 -27.5 65.5
t-70.5 25.5q-40 0 -72.5 -28.5t-51 -78.5t-18.5 -112q0 -52 21.5 -80t62.5 -28q53 0 90 30.5z" />
    <glyph glyph-name="b" unicode="b" horiz-adv-x="558" 
d="M196 11.5q-40 21.5 -56 54.5h-2q-2 -8 -4 -22l-9 -44h-120q12 50 26 133l108 609h127l-52 -293h2q59 61 150 61q80 0 126.5 -48.5t46.5 -133.5q0 -96 -34 -173t-93 -121t-132 -44q-44 0 -84 21.5zM339 117.5q33 29.5 52 80.5t19 113q0 51 -22 77.5t-64 26.5
q-49 0 -88 -32.5t-47 -80.5l-19 -103q-2 -16 -2 -23q0 -40 26.5 -64t71.5 -24q40 0 73 29.5z" />
    <glyph glyph-name="c" unicode="c" horiz-adv-x="492" 
d="M79 44q-58 54 -58 148q0 93 37 165.5t104 112.5t154 40q71 0 121 -26.5t69 -73.5l-88 -67q-14 32 -42.5 50.5t-64.5 18.5q-45 0 -82 -27t-58 -75t-21 -107q0 -55 27 -85t77 -30q37 0 71 18.5t60 50.5l65 -67q-37 -49 -91 -74.5t-122 -25.5q-100 0 -158 54z" />
    <glyph glyph-name="d" unicode="d" horiz-adv-x="558" 
d="M69.5 43q-47.5 53 -47.5 144q0 93 33 166.5t92 115t134 41.5q93 0 131 -61h2l52 293h127l-107 -609l-11 -70q-9 -56 -10 -63h-120q6 39 11 66h-2q-30 -35 -71.5 -55.5t-84.5 -20.5q-81 0 -128.5 53zM324 118.5q37 30.5 46 80.5l18 103q2 14 2 22q0 40 -27.5 65.5
t-70.5 25.5q-40 0 -72.5 -28.5t-51 -78.5t-18.5 -112q0 -52 21.5 -80t62.5 -28q53 0 90 30.5z" />
    <glyph glyph-name="e" unicode="e" horiz-adv-x="542" 
d="M464.5 457q53.5 -53 53.5 -145q0 -33 -7 -67l-9 -42h-348q1 -52 27.5 -79t77.5 -27q44 0 79.5 15t72.5 50l58 -66q-38 -49 -100 -77.5t-130 -28.5q-98 0 -156 54t-58 147t37 165.5t103.5 113t151.5 40.5q94 0 147.5 -53zM377 378q-24 28 -74 28q-47 0 -84 -30.5
t-53 -85.5h232v6q3 54 -21 82z" />
    <glyph glyph-name="f" unicode="f" horiz-adv-x="377" 
d="M121 413h-81l15 87h82l10 60q13 74 63 115.5t129 41.5q38 0 72 -12t50 -31l-58 -76q-10 10 -25 16.5t-31 6.5q-28 0 -48 -19t-26 -52l-9 -50h141l-15 -87h-141l-73 -413h-127z" />
    <glyph glyph-name="g" unicode="g" horiz-adv-x="555" 
d="M550 500l-84 -480q-22 -127 -94.5 -191.5t-194.5 -64.5q-59 0 -111 14t-87 40l58 87q32 -18 71 -28.5t75 -10.5q133 0 163 171l2 13q-48 -53 -140 -53q-87 0 -136.5 50.5t-49.5 139.5q0 95 32 168.5t90 114t133 40.5q53 0 91 -19t54 -54h2l20 63h106zM387 319
q0 47 -23.5 71.5t-67.5 24.5q-43 0 -76 -28t-51.5 -76.5t-18.5 -110.5q0 -51 23.5 -77.5t69.5 -26.5q52 0 86 31.5t44 89.5l11 64q3 21 3 38z" />
    <glyph glyph-name="h" unicode="h" horiz-adv-x="567" 
d="M135 742h128l-53 -301q26 32 69 50.5t92 18.5q75 0 118.5 -43.5t43.5 -117.5q0 -21 -5 -49l-53 -300h-128l51 291q4 26 4 37q0 41 -20 64t-57 23q-55 0 -94 -38.5t-51 -104.5l-48 -272h-128z" />
    <glyph glyph-name="i" unicode="i" horiz-adv-x="273" 
d="M140 575q-20 17 -20 43q0 40 27 65t70 25q31 0 50.5 -17t19.5 -43q0 -40 -27 -65t-69 -25q-31 0 -51 17zM117 500h127l-88 -500h-127z" />
    <glyph glyph-name="j" unicode="j" horiz-adv-x="279" 
d="M154 575q-20 17 -20 44q0 39 27.5 64t70.5 25q31 0 50.5 -17t19.5 -44q0 -40 -27 -64.5t-70 -24.5q-31 0 -51 17zM-96 -201.5q-28 3.5 -47 8.5l22 89q30 -3 64 -3q43 0 67 19.5t31 61.5l93 526h128l-93 -524q-16 -92 -68 -136.5t-144 -44.5q-25 0 -53 3.5z" />
    <glyph glyph-name="k" unicode="k" horiz-adv-x="533" 
d="M339 319l147 -319h-140l-107 236l-74 -62l-31 -174h-128l131 742h128l-75 -412l205 170h160z" />
    <glyph glyph-name="l" unicode="l" horiz-adv-x="301" 
d="M59 15.5q-28 25.5 -28 73.5q0 16 3 34l110 619h127l-110 -620q-1 -4 -1 -12q0 -31 40 -31q22 0 59 13l7 -68q-51 -34 -124 -34q-55 0 -83 25.5z" />
    <glyph glyph-name="m" unicode="m" horiz-adv-x="846" 
d="M69 367l8 51q10 55 11 82h112q-1 -33 -10 -87h2q22 46 66.5 71.5t100.5 25.5q54 0 89 -24t40 -64q28 42 72 65t95 23q72 0 112.5 -40.5t40.5 -111.5q0 -21 -5 -49l-54 -309h-127l51 295q3 18 3 33q0 38 -19 58.5t-54 20.5q-43 0 -73 -30.5t-39 -82.5l-52 -294h-126
l52 291q3 20 3 35q0 39 -18.5 60t-52.5 21q-43 0 -74 -31.5t-40 -84.5l-52 -291h-127z" />
    <glyph glyph-name="n" unicode="n" horiz-adv-x="563" 
d="M69 368l4 25q13 79 14 107h120q-2 -43 -10 -87h2q27 46 73 71.5t104 25.5q73 0 110 -40.5t37 -117.5q0 -35 -7 -71l-50 -281h-127l50 282q4 21 4 44q0 81 -74 81q-53 0 -91.5 -36.5t-48.5 -97.5l-48 -273h-128z" />
    <glyph glyph-name="o" unicode="o" horiz-adv-x="579" 
d="M86.5 45q-60.5 55 -60.5 149q0 93 38 165t106.5 111.5t158.5 39.5q103 0 163.5 -55t60.5 -149q0 -93 -38 -165t-107 -111.5t-158 -39.5q-103 0 -163.5 55zM345 112q37 27 58 75t21 108q0 56 -28.5 88t-79.5 32q-46 0 -83 -27t-58 -75t-21 -108q0 -56 29 -88t79 -32
q46 0 83 27z" />
    <glyph glyph-name="p" unicode="p" horiz-adv-x="565" 
d="M74 367q11 67 19 133h120q-2 -29 -8 -66h2q49 76 158 76q80 0 127.5 -52.5t47.5 -140.5q0 -94 -31.5 -168.5t-88.5 -116.5t-130 -42q-48 0 -85.5 16t-55.5 45h-3l-52 -293h-128zM343 113.5q32 28.5 50 79.5t18 114q0 51 -22 78t-63 27q-52 0 -89.5 -30.5t-46.5 -80.5
l-18 -103q-2 -14 -2 -20q0 -40 28.5 -66.5t72.5 -26.5q40 0 72 28.5z" />
    <glyph glyph-name="q" unicode="q" horiz-adv-x="565" 
d="M349 56h-3q-24 -32 -62 -49t-84 -17q-79 0 -127 55.5t-48 145.5q0 94 32 166.5t90 112.5t132 40q51 0 90.5 -19.5t54.5 -52.5h2l13 62h121q-15 -61 -28 -133l-107 -609h-128zM327.5 117.5q38.5 32.5 46.5 80.5l19 103q2 16 2 22q0 40 -27 64.5t-72 24.5q-40 0 -72.5 -28
t-51 -78t-18.5 -112q0 -53 22.5 -81t63.5 -28q49 0 87.5 32.5z" />
    <glyph glyph-name="r" unicode="r" horiz-adv-x="397" 
d="M77 378q15 87 18 122h121q-1 -45 -11 -88l-2 -10h4q28 50 80.5 79t115.5 29q12 0 29 -3l-17 -101q-4 2 -24 2q-48 0 -94 -26t-78.5 -69.5t-41.5 -93.5l-39 -219h-128z" />
    <glyph glyph-name="s" unicode="s" horiz-adv-x="441" 
d="M60.5 16.5q-49.5 26.5 -62.5 68.5l90 55q13 -25 38 -40t55 -15q40 0 64.5 16.5t24.5 44.5q0 19 -17 34.5t-56 31.5q-72 30 -105.5 65t-33.5 79q0 71 54 112.5t147 41.5q59 0 104.5 -22t64.5 -61l-83 -55q-28 43 -88 43q-33 0 -52 -13t-19 -35q0 -16 17 -28t70 -34
q66 -28 96.5 -60.5t30.5 -73.5q0 -53 -28.5 -94.5t-79.5 -64t-117 -22.5q-65 0 -114.5 26.5z" />
    <glyph glyph-name="t" unicode="t" horiz-adv-x="420" 
d="M120.5 22q-37.5 32 -37.5 91q0 17 3 36l45 256h-91l17 95h91l22 129l130 36h4l-28 -165h145l-17 -95h-145l-42 -236q-2 -18 -2 -24q0 -59 68 -59q39 0 75 12l-9 -87q-48 -21 -123 -21q-68 0 -105.5 32z" />
    <glyph glyph-name="u" unicode="u" horiz-adv-x="561" 
d="M73 29.5q-37 39.5 -37 116.5q0 35 7 71l49 283h128l-49 -283q-5 -30 -5 -48q0 -39 17 -57.5t52 -18.5q52 0 93.5 40t52.5 101l46 266h128l-65 -373q-8 -40 -15 -127h-121q1 48 7 88h-2q-27 -46 -74.5 -72t-103.5 -26q-71 0 -108 39.5z" />
    <glyph glyph-name="v" unicode="v" horiz-adv-x="528" 
d="M559 500l-284 -500h-110l-108 500h128l58 -344l180 344h136z" />
    <glyph glyph-name="w" unicode="w" horiz-adv-x="707" 
d="M738 500l-216 -500h-112l-35 363l-165 -363h-113l-40 500h131l8 -311l143 311h113l34 -311l117 311h135z" />
    <glyph glyph-name="x" unicode="x" horiz-adv-x="520" 
d="M195 254l-124 246h137l66 -148l118 148h145l-209 -246l135 -254h-138l-76 163l-133 -163h-147z" />
    <glyph glyph-name="y" unicode="y" horiz-adv-x="505" 
d="M536 500l-283 -523q-92 -169 -246 -169q-39 0 -80 11l18 101q11 -4 29 -7t32 -3q43 0 80 30.5t74 96.5l-104 463h132l54 -321l156 321h138z" />
    <glyph glyph-name="z" unicode="z" horiz-adv-x="476" 
d="M-12 68l326 336h-252l17 96h409l-11 -62l-321 -342h272l-17 -96h-434z" />
    <glyph glyph-name="braceleft" unicode="{" horiz-adv-x="350" 
d="M56 3q0 21 4 41l28 159l1 9q0 21 -14.5 34.5t-40.5 16.5l13 71q29 1 49 17.5t25 41.5l28 159q29 158 194 158h61l-17 -101h-58q-16 0 -26 -10t-14 -28l-31 -179q-13 -67 -87 -94q56 -23 56 -74q0 -6 -2 -20l-32 -179q-1 -4 -1 -11q0 -12 7 -19.5t20 -7.5h58l-18 -101h-61
q-142 0 -142 117z" />
    <glyph glyph-name="bar" unicode="|" horiz-adv-x="257" 
d="M145 700h127l-152 -860h-127z" />
    <glyph glyph-name="braceright" unicode="}" horiz-adv-x="350" 
d="M-19 -13h58q15 0 25 10t14 28l31 179q13 69 89 94q-29 12 -43 30t-14 44q0 6 2 20l31 179q1 4 1 11q0 27 -26 27h-58l17 101h61q71 0 107 -29.5t36 -87.5q0 -21 -4 -41l-28 -159q-1 -4 -1 -11q0 -21 14.5 -34t40.5 -14l-13 -71q-30 -4 -50.5 -20t-24.5 -40l-27 -159
q-13 -78 -62.5 -118t-132.5 -40h-61z" />
    <glyph glyph-name="asciitilde" unicode="~" horiz-adv-x="617" 
d="M49 212q12 64 60 104t112 40q27 0 55.5 -11.5t63.5 -32.5q30 -16 44 -22.5t27 -6.5q22 0 38.5 20.5t21.5 52.5h110l-5 -31q-11 -64 -58.5 -105t-111.5 -41q-28 0 -57 12t-66 33q-25 14 -41 21t-27 7q-20 0 -37.5 -20t-24.5 -53h-110z" />
    <glyph glyph-name="uni00A0" unicode="&#xa0;" horiz-adv-x="233" 
 />
    <glyph glyph-name="exclamdown" unicode="&#xa1;" horiz-adv-x="256" 
d="M87 354q-22 20 -22 51q0 46 30.5 75.5t78.5 29.5q35 0 57 -19.5t22 -50.5q0 -47 -30.5 -76.5t-79.5 -29.5q-34 0 -56 20zM72 281h123l-70 -481h-153z" />
    <glyph glyph-name="cent" unicode="&#xa2;" horiz-adv-x="489" 
d="M337 176.5q34 18.5 60 50.5l65 -67q-67 -88 -185 -99l-16 -89h-79l16 92q-77 13 -121 65t-44 133q0 86 32 154.5t90 110.5t134 51l16 90h79l-16 -90q56 -7 95 -32.5t55 -65.5l-88 -67q-14 32 -42.5 50.5t-64.5 18.5q-45 0 -82 -27t-58 -75t-21 -107q0 -55 27 -85t77 -30
q37 0 71 18.5z" />
    <glyph glyph-name="sterling" unicode="&#xa3;" horiz-adv-x="551" 
d="M506 692q43 -18 66 -48l-62 -94q-18 21 -44 34t-52 13q-39 0 -66 -26t-35 -69q-6 -37 -6 -121h158l-15 -85h-144q-2 -31 -4 -44q-16 -94 -92 -149h264l-18 -103h-452l15 81q55 22 96 69t49 93q4 24 5 53h-93l15 85h79q2 96 7 127q16 92 81.5 147t158.5 55q46 0 89 -18z
" />
    <glyph glyph-name="currency" unicode="&#xa4;" horiz-adv-x="631" 
d="M210 73q-36 11 -64 30l-69 -58l-68 79l64 56q-24 45 -24 110q0 54 24.5 107t53.5 85l-45 56l96 79l49 -58q33 20 72 30.5t76 10.5q36 0 73.5 -11t64.5 -30l71 58l66 -87l-64 -48q12 -19 18 -46.5t6 -57.5q0 -55 -23 -110t-54 -88l46 -56l-95 -78l-52 57
q-33 -19 -73.5 -30t-77.5 -11q-35 0 -71 11zM394 199q42 26 67 70.5t25 96.5q0 57 -34.5 91.5t-93.5 34.5q-50 0 -92 -26.5t-67 -71t-25 -96.5q0 -56 35 -90.5t93 -34.5q50 0 92 26z" />
    <glyph glyph-name="yen" unicode="&#xa5;" horiz-adv-x="638" 
d="M480 395h112l-17 -94h-162l-15 -21l-9 -52h174l-16 -92h-174l-24 -136h-144l24 136h-176l16 92h176l9 52l-8 21h-165l17 93h114l-111 306h152l95 -275l191 275h160z" />
    <glyph glyph-name="brokenbar" unicode="&#xa6;" horiz-adv-x="257" 
d="M145 700h127l-69 -392h-127zM62 232h127l-69 -392h-127z" />
    <glyph glyph-name="section" unicode="&#xa7;" horiz-adv-x="546" 
d="M449 168q26 -28 26 -70q0 -59 -34.5 -106t-95 -73.5t-136.5 -26.5q-73 0 -129.5 27t-83.5 73l92 79q28 -37 63.5 -55.5t73.5 -18.5q44 0 74 22.5t30 54.5q0 25 -23 42.5t-75 42.5q-9 5 -27 13q-57 28 -84.5 45t-43.5 39.5t-16 55.5q0 76 70 130q-33 35 -33 79
q0 53 33.5 96.5t91.5 68t130 24.5q75 0 125 -26.5t69 -75.5l-83 -55q-16 25 -48.5 38.5t-71.5 13.5q-44 0 -72.5 -19t-28.5 -47q0 -23 23 -42t92 -53q71 -35 111.5 -70.5t40.5 -87.5q0 -63 -60 -118zM367 221q22 29 22 45t-24.5 35t-98.5 55q-31 15 -55 28q-24 -22 -24 -46
q0 -16 20 -30t74 -42l42 -22z" />
    <glyph glyph-name="dieresis" unicode="&#xa8;" horiz-adv-x="400" 
d="M108 570q-16 15 -16 39q0 35 22 56.5t58 21.5q25 0 40.5 -15t15.5 -39q0 -34 -22 -56t-57 -22q-25 0 -41 15zM318.5 570q-15.5 15 -15.5 39q0 35 22 56.5t58 21.5q24 0 40 -15t16 -39q0 -34 -22.5 -56t-57.5 -22q-25 0 -40.5 15z" />
    <glyph glyph-name="copyright" unicode="&#xa9;" horiz-adv-x="810" 
d="M197 26q-70 36 -108 101t-38 150q0 120 57.5 219.5t156.5 156.5t220 57q93 0 163 -36t108 -101t38 -150q0 -121 -57.5 -220t-156.5 -156t-220 -57q-93 0 -163 36zM540.5 114q75.5 45 119 122.5t43.5 171.5q0 66 -28.5 117t-80.5 78.5t-121 27.5q-92 0 -167.5 -45
t-119 -122.5t-43.5 -171.5q0 -66 28.5 -116.5t80.5 -78.5t121 -28q92 0 167.5 45zM282 187q-41 44 -41 117t30 132t82 93t117 34q47 0 82.5 -22.5t44.5 -57.5l-60 -52q-25 50 -81 50q-33 0 -60 -22t-42.5 -60t-15.5 -84q0 -41 18.5 -66t50.5 -25q29 0 53.5 13.5t49.5 40.5
l41 -55q-23 -33 -67 -56.5t-91 -23.5q-70 0 -111 44z" />
    <glyph glyph-name="ordfeminine" unicode="&#xaa;" horiz-adv-x="362" 
d="M92 385q-26 24 -26 62q0 57 40.5 89t111.5 32h64l2 13q2 12 2 15q0 19 -12.5 29.5t-35.5 10.5q-52 0 -92 -40l-38 53q58 58 149 58q62 0 95 -24.5t33 -70.5q0 -17 -2 -26l-26 -147q-6 -49 -5 -72h-90q-1 11 -1 39q-14 -20 -42 -32.5t-60 -12.5q-41 0 -67 24zM242.5 442.5
q18.5 17.5 24.5 42.5l5 25h-41q-32 0 -50 -14t-18 -39q0 -15 9.5 -23.5t25.5 -8.5q26 0 44.5 17.5z" />
    <glyph glyph-name="guillemotleft" unicode="&#xab;" horiz-adv-x="585" 
d="M34 260l185 200h138l-182 -200l112 -200h-138zM267 260l185 200h138l-182 -200l112 -200h-138z" />
    <glyph glyph-name="logicalnot" unicode="&#xac;" horiz-adv-x="615" 
d="M462 320h-406l16 88h531l-50 -287h-126z" />
    <glyph glyph-name="uni00AD" unicode="&#xad;" horiz-adv-x="340" 
d="M34 310h293l-15 -88h-294z" />
    <glyph glyph-name="registered" unicode="&#xae;" horiz-adv-x="530" 
d="M482.5 662q51.5 -48 51.5 -127q0 -73 -35 -133t-95 -95t-133 -35q-86 0 -137.5 48t-51.5 127q0 73 35 133t95.5 95t133.5 35q85 0 136.5 -48zM379 349.5q46 26.5 72.5 72.5t26.5 103q0 60 -37.5 97t-100.5 37q-57 0 -103 -26.5t-72.5 -72.5t-26.5 -103q0 -60 37.5 -97
t100.5 -37q57 0 103 26.5zM392 600q19 -15 19 -44q0 -36 -17 -60.5t-49 -33.5l33 -92h-58l-31 87h-24l-15 -87h-54l43 245h98q36 0 55 -15zM358 548q0 12 -10 16.5t-31 4.5h-32l-12 -66h34q51 0 51 45z" />
    <glyph glyph-name="macron" unicode="&#xaf;" horiz-adv-x="400" 
d="M92 640h353l-11 -66h-354z" />
    <glyph glyph-name="degree" unicode="&#xb0;" horiz-adv-x="322" 
d="M109 469.5q-32 29.5 -32 78.5q0 45 22 82t60 58.5t84 21.5q53 0 85 -29.5t32 -78.5q0 -45 -22 -82t-59.5 -58.5t-83.5 -21.5q-54 0 -86 29.5zM266.5 528.5q24.5 24.5 24.5 61.5q0 26 -16 41t-44 15q-36 0 -60.5 -24.5t-24.5 -61.5q0 -26 16 -41t44 -15q36 0 60.5 24.5z
" />
    <glyph glyph-name="plusminus" unicode="&#xb1;" horiz-adv-x="617" 
d="M379 306l-29 -165h-122l29 165h-200l15 89h201l29 166h122l-29 -166h201l-16 -89h-201zM26 89h509l-16 -89h-508z" />
    <glyph glyph-name="uni00B2" unicode="&#xb2;" horiz-adv-x="430" 
d="M54 289q68 41 126.5 93t92.5 101t34 82q0 18 -13 28.5t-36 10.5q-54 0 -108 -60l-56 67q33 45 83 69.5t108 24.5q73 0 113.5 -30.5t40.5 -84.5q0 -60 -50.5 -129t-159.5 -159h175l-16 -94h-349z" />
    <glyph glyph-name="uni00B3" unicode="&#xb3;" horiz-adv-x="430" 
d="M109 219.5q-42 21.5 -63 58.5l74 68q20 -22 44.5 -34.5t49.5 -12.5q30 0 50.5 20t20.5 49q0 23 -17.5 36.5t-45.5 13.5h-55l15 87h55q28 0 47.5 19t19.5 45q0 16 -12.5 25.5t-34.5 9.5q-24 0 -53 -12.5t-54 -34.5l-47 71q35 37 84 57t103 20q66 0 106.5 -30.5t40.5 -80.5
q0 -37 -22.5 -70.5t-63.5 -56.5q29 -15 45.5 -42.5t16.5 -59.5q0 -48 -26.5 -86t-73.5 -59.5t-106 -21.5q-56 0 -98 21.5z" />
    <glyph glyph-name="acute" unicode="&#xb4;" horiz-adv-x="400" 
d="M285 731h123l-146 -176h-101z" />
    <glyph glyph-name="uni00B5" unicode="&#xb5;" horiz-adv-x="561" 
d="M92 500h128l-50 -283q-4 -23 -4 -45q0 -40 17.5 -59.5t53.5 -19.5q52 0 92.5 41t51.5 101l46 265h128l-65 -373q-9 -61 -15 -127h-120l-1 24q0 23 4 47h-2q-27 -41 -59 -61t-80 -20q-49 0 -83 28l-39 -222h-127z" />
    <glyph glyph-name="paragraph" unicode="&#xb6;" horiz-adv-x="544" 
d="M270 267h-6q-90 0 -139.5 41.5t-49.5 117.5q0 84 38.5 146t111 95t171.5 33h137l-140 -793h-65l132 747h-64l-132 -747h-58z" />
    <glyph glyph-name="periodcentered" unicode="&#xb7;" horiz-adv-x="291" 
d="M81 195q-20 19 -20 49q0 45 28.5 74t72.5 29q31 0 51 -19t20 -49q0 -45 -28 -74t-73 -29q-31 0 -51 19z" />
    <glyph glyph-name="cedilla" unicode="&#xb8;" horiz-adv-x="400" 
d="M48 -251q-26 6 -40 15l30 64q12 -7 29 -11.5t32 -4.5q19 0 32.5 10.5t13.5 25.5q0 13 -17 21t-44 6l-28 36l74 102h87l-58 -79q35 0 56.5 -20.5t21.5 -52.5q0 -50 -38.5 -84t-99.5 -34q-25 0 -51 6z" />
    <glyph glyph-name="uni00B9" unicode="&#xb9;" horiz-adv-x="430" 
d="M98 302h76l45 253l-96 -51l20 114l144 80h87l-70 -396h75l-17 -94h-280z" />
    <glyph glyph-name="ordmasculine" unicode="&#xba;" horiz-adv-x="390" 
d="M109 397.5q-40 36.5 -40 99.5q0 62 25.5 109.5t71.5 74t105 26.5q70 0 110 -36.5t40 -99.5q0 -62 -25.5 -109.5t-71.5 -74t-106 -26.5q-69 0 -109 36.5zM294 470q27 40 27 98q0 34 -15 52t-43 18q-40 0 -67 -38.5t-27 -96.5q0 -34 15 -53.5t43 -19.5q40 0 67 40z" />
    <glyph glyph-name="guillemotright" unicode="&#xbb;" horiz-adv-x="585" 
d="M180 260l-111 200h137l115 -200l-185 -200h-138zM414 260l-112 200h138l114 -200l-185 -200h-138z" />
    <glyph glyph-name="onequarter" unicode="&#xbc;" horiz-adv-x="1022" 
d="M747 719h105l-520 -757h-104zM109 351h68l40 226l-85 -46l17 101l128 72h77l-62 -353h66l-14 -83h-249zM770 62h-186l14 77l233 296h121l-52 -292h43l-14 -81h-43l-11 -62h-116zM785 143l27 157l-121 -157h94z" />
    <glyph glyph-name="onehalf" unicode="&#xbd;" horiz-adv-x="1022" 
d="M717 719h105l-519 -757h-105zM109 351h68l40 226l-85 -46l17 101l128 72h77l-62 -353h66l-14 -83h-249zM619 72q61 36 112.5 82t82 89.5t30.5 73.5q0 17 -11.5 26t-32.5 9q-47 0 -95 -54l-50 60q29 40 73.5 62t95.5 22q65 0 101.5 -27t36.5 -76q0 -53 -44.5 -114.5
t-142.5 -141.5h156l-15 -83h-310z" />
    <glyph glyph-name="threequarters" unicode="&#xbe;" horiz-adv-x="1022" 
d="M729 719h104l-519 -757h-105zM128 279q-37 19 -55 52l66 61q17 -20 39 -31t44 -11q27 0 45 17.5t18 43.5q0 20 -15.5 32.5t-40.5 12.5h-49l14 77h48q25 0 42.5 17t17.5 40q0 14 -11.5 22.5t-30.5 8.5q-21 0 -47.5 -11.5t-47.5 -30.5l-42 63q31 33 75 51t92 18
q58 0 94 -27.5t36 -71.5q0 -34 -20 -63.5t-56 -49.5q25 -13 39.5 -37.5t14.5 -53.5q0 -42 -23.5 -76t-65 -53t-93.5 -19q-51 0 -88 19zM753 62h-186l14 77l234 296h120l-51 -292h42l-14 -81h-43l-11 -62h-116zM768 143l27 157l-121 -157h94z" />
    <glyph glyph-name="questiondown" unicode="&#xbf;" horiz-adv-x="471" 
d="M202.5 373.5q-19.5 17.5 -19.5 44.5q0 39 28 65.5t69 26.5q32 0 51 -17t19 -45q0 -38 -28 -65t-69 -27q-31 0 -50.5 17.5zM20 -172q-49 38 -49 106q0 45 16 81t39.5 63t61.5 63q45 43 69 74t31 70q3 30 3 34h120v-5q0 -41 -14.5 -74.5t-35 -59t-54.5 -60.5
q-46 -46 -69 -80.5t-23 -79.5q0 -31 19.5 -48.5t54.5 -17.5q36 0 74 23t70 64l54 -79q-37 -52 -98.5 -82t-131.5 -30q-88 0 -137 38z" />
    <glyph glyph-name="Agrave" unicode="&#xc0;" horiz-adv-x="641" 
d="M423 116h-240l-55 -116h-157l365 700h127l119 -700h-144zM408 231l-37 278l-133 -278h170zM279 917h124l56 -162h-102z" />
    <glyph glyph-name="Aacute" unicode="&#xc1;" horiz-adv-x="641" 
d="M423 116h-240l-55 -116h-157l365 700h127l119 -700h-144zM408 231l-37 278l-133 -278h170zM473 917h124l-136 -162h-102z" />
    <glyph glyph-name="Acircumflex" unicode="&#xc2;" horiz-adv-x="641" 
d="M423 116h-240l-55 -116h-157l365 700h127l119 -700h-144zM408 231l-37 278l-133 -278h170zM402 917h73l106 -162h-106l-46 78l-73 -78h-117z" />
    <glyph glyph-name="Atilde" unicode="&#xc3;" horiz-adv-x="641" 
d="M423 116h-240l-55 -116h-157l365 700h127l119 -700h-144zM408 231l-37 278l-133 -278h170zM284.5 848q35.5 33 80.5 33q20 0 36 -7t37 -21q14 -9 23.5 -14t18.5 -5q27 0 36 51h80q-9 -65 -43 -97.5t-82 -32.5q-20 0 -37.5 7.5t-39.5 21.5q-27 18 -39 18q-11 0 -21 -13
t-14 -34h-80q9 60 44.5 93z" />
    <glyph glyph-name="Adieresis" unicode="&#xc4;" horiz-adv-x="641" 
d="M423 116h-240l-55 -116h-157l365 700h127l119 -700h-144zM408 231l-37 278l-133 -278h170zM264 770q-16 15 -16 39q0 35 22 56.5t58 21.5q25 0 40.5 -15t15.5 -39q0 -34 -22 -56t-57 -22q-25 0 -41 15zM474.5 770q-15.5 15 -15.5 39q0 35 22 56.5t58 21.5q24 0 40 -15
t16 -39q0 -34 -22.5 -56t-57.5 -22q-25 0 -40.5 15z" />
    <glyph glyph-name="Aring" unicode="&#xc5;" horiz-adv-x="641" 
d="M423 116h-240l-55 -116h-157l365 700h127l119 -700h-144zM408 231l-37 278l-133 -278h170zM345 742.5q-25 22.5 -25 58.5q0 53 35 86t90 33q40 0 65 -22.5t25 -58.5q0 -52 -35 -85.5t-90 -33.5q-40 0 -65 22.5zM461 786q17 17 17 45q0 18 -11.5 29t-30.5 11
q-26 0 -42.5 -17t-16.5 -45q0 -18 11.5 -29t29.5 -11q26 0 43 17z" />
    <glyph glyph-name="AE" unicode="&#xc6;" horiz-adv-x="827" 
d="M580 585l-29 -164h235l-19 -113h-236l-34 -193h268l-20 -115h-411l17 98h-163l-58 -98h-159l435 700h462l-20 -115h-268zM370 206l50 285l-168 -285h118z" />
    <glyph glyph-name="Ccedilla" unicode="&#xc7;" horiz-adv-x="620" 
d="M502 185l72 -72q-78 -115 -222 -122l-42 -57q37 0 59 -18t22 -47q0 -47 -39 -79t-97 -32q-25 0 -50.5 6t-39.5 15l23 55q28 -12 64 -12q21 0 34.5 10.5t13.5 26.5q0 14 -16.5 20.5t-44.5 5.5l-23 33l56 76q-108 16 -169.5 88.5t-61.5 186.5q0 128 48 228t134.5 156.5
t196.5 56.5q86 0 149.5 -33.5t85.5 -89.5l-95 -72q-19 39 -55.5 59.5t-85.5 20.5q-68 0 -121 -41.5t-83 -115t-30 -167.5q0 -79 38 -122.5t108 -43.5q106 0 171 80z" />
    <glyph glyph-name="Egrave" unicode="&#xc8;" horiz-adv-x="571" 
d="M147 700h465l-20 -115h-321l-28 -160h286l-20 -115h-287l-33 -195h320l-20 -115h-465zM261 917h124l56 -162h-102z" />
    <glyph glyph-name="Eacute" unicode="&#xc9;" horiz-adv-x="571" 
d="M147 700h465l-20 -115h-321l-28 -160h286l-20 -115h-287l-33 -195h320l-20 -115h-465zM455 917h124l-136 -162h-102z" />
    <glyph glyph-name="Ecircumflex" unicode="&#xca;" horiz-adv-x="571" 
d="M147 700h465l-20 -115h-321l-28 -160h286l-20 -115h-287l-33 -195h320l-20 -115h-465zM384 917h73l106 -162h-106l-46 78l-73 -78h-117z" />
    <glyph glyph-name="Edieresis" unicode="&#xcb;" horiz-adv-x="571" 
d="M147 700h465l-20 -115h-321l-28 -160h286l-20 -115h-287l-33 -195h320l-20 -115h-465zM246 770q-16 15 -16 39q0 35 22 56.5t58 21.5q25 0 40.5 -15t15.5 -39q0 -34 -22 -56t-57 -22q-25 0 -41 15zM456.5 770q-15.5 15 -15.5 39q0 35 22 56.5t58 21.5q24 0 40 -15t16 -39
q0 -34 -22.5 -56t-57.5 -22q-25 0 -40.5 15z" />
    <glyph glyph-name="Igrave" unicode="&#xcc;" horiz-adv-x="323" 
d="M169 700h143l-123 -700h-143zM120 917h124l56 -162h-102z" />
    <glyph glyph-name="Iacute" unicode="&#xcd;" horiz-adv-x="323" 
d="M169 700h143l-123 -700h-143zM314 917h124l-136 -162h-102z" />
    <glyph glyph-name="Icircumflex" unicode="&#xce;" horiz-adv-x="323" 
d="M169 700h143l-123 -700h-143zM243 917h73l106 -162h-106l-46 78l-73 -78h-117z" />
    <glyph glyph-name="Idieresis" unicode="&#xcf;" horiz-adv-x="323" 
d="M169 700h143l-123 -700h-143zM105 770q-16 15 -16 39q0 35 22 56.5t58 21.5q25 0 40.5 -15t15.5 -39q0 -34 -22 -56t-57 -22q-25 0 -41 15zM315.5 770q-15.5 15 -15.5 39q0 35 22 56.5t58 21.5q24 0 40 -15t16 -39q0 -34 -22.5 -56t-57.5 -22q-25 0 -40.5 15z" />
    <glyph glyph-name="Eth" unicode="&#xd0;" horiz-adv-x="648" 
d="M576.5 638.5q63.5 -61.5 63.5 -179.5q0 -223 -95 -341t-276 -118h-239l50 286h-64l18 104h65l54 310h240q120 0 183.5 -61.5zM397.5 156q47.5 41 73.5 116t26 174q0 71 -28.5 105t-88.5 34h-103l-34 -195h159l-19 -104h-159l-30 -171h94q62 0 109.5 41z" />
    <glyph glyph-name="Ntilde" unicode="&#xd1;" horiz-adv-x="699" 
d="M710 700l-123 -700h-133l-205 465l-82 -465h-143l123 700h139l200 -457l81 457h143zM312.5 848q35.5 33 80.5 33q20 0 36 -7t37 -21q14 -9 23.5 -14t18.5 -5q27 0 36 51h80q-9 -65 -43 -97.5t-82 -32.5q-20 0 -37.5 7.5t-39.5 21.5q-27 18 -39 18q-11 0 -21 -13t-14 -34
h-80q9 60 44.5 93z" />
    <glyph glyph-name="Ograve" unicode="&#xd2;" horiz-adv-x="690" 
d="M170 24.5q-62 34.5 -96 96.5t-34 143q0 129 47.5 230.5t132.5 158.5t193 57q81 0 143 -34.5t96 -96.5t34 -143q0 -129 -47.5 -230.5t-132.5 -158.5t-193 -57q-81 0 -143 34.5zM435.5 145q49.5 41 77.5 114.5t28 166.5q0 76 -38 123t-99 47q-63 0 -112.5 -41t-77.5 -114
t-28 -166q0 -76 38 -123.5t99 -47.5q63 0 112.5 41zM293 917h124l56 -162h-102z" />
    <glyph glyph-name="Oacute" unicode="&#xd3;" horiz-adv-x="690" 
d="M170 24.5q-62 34.5 -96 96.5t-34 143q0 129 47.5 230.5t132.5 158.5t193 57q81 0 143 -34.5t96 -96.5t34 -143q0 -129 -47.5 -230.5t-132.5 -158.5t-193 -57q-81 0 -143 34.5zM435.5 145q49.5 41 77.5 114.5t28 166.5q0 76 -38 123t-99 47q-63 0 -112.5 -41t-77.5 -114
t-28 -166q0 -76 38 -123.5t99 -47.5q63 0 112.5 41zM487 917h124l-136 -162h-102z" />
    <glyph glyph-name="Ocircumflex" unicode="&#xd4;" horiz-adv-x="690" 
d="M170 24.5q-62 34.5 -96 96.5t-34 143q0 129 47.5 230.5t132.5 158.5t193 57q81 0 143 -34.5t96 -96.5t34 -143q0 -129 -47.5 -230.5t-132.5 -158.5t-193 -57q-81 0 -143 34.5zM435.5 145q49.5 41 77.5 114.5t28 166.5q0 76 -38 123t-99 47q-63 0 -112.5 -41t-77.5 -114
t-28 -166q0 -76 38 -123.5t99 -47.5q63 0 112.5 41zM416 917h73l106 -162h-106l-46 78l-73 -78h-117z" />
    <glyph glyph-name="Otilde" unicode="&#xd5;" horiz-adv-x="690" 
d="M170 24.5q-62 34.5 -96 96.5t-34 143q0 129 47.5 230.5t132.5 158.5t193 57q81 0 143 -34.5t96 -96.5t34 -143q0 -129 -47.5 -230.5t-132.5 -158.5t-193 -57q-81 0 -143 34.5zM435.5 145q49.5 41 77.5 114.5t28 166.5q0 76 -38 123t-99 47q-63 0 -112.5 -41t-77.5 -114
t-28 -166q0 -76 38 -123.5t99 -47.5q63 0 112.5 41zM298.5 848q35.5 33 80.5 33q20 0 36 -7t37 -21q14 -9 23.5 -14t18.5 -5q27 0 36 51h80q-9 -65 -43 -97.5t-82 -32.5q-20 0 -37.5 7.5t-39.5 21.5q-27 18 -39 18q-11 0 -21 -13t-14 -34h-80q9 60 44.5 93z" />
    <glyph glyph-name="Odieresis" unicode="&#xd6;" horiz-adv-x="690" 
d="M170 24.5q-62 34.5 -96 96.5t-34 143q0 129 47.5 230.5t132.5 158.5t193 57q81 0 143 -34.5t96 -96.5t34 -143q0 -129 -47.5 -230.5t-132.5 -158.5t-193 -57q-81 0 -143 34.5zM435.5 145q49.5 41 77.5 114.5t28 166.5q0 76 -38 123t-99 47q-63 0 -112.5 -41t-77.5 -114
t-28 -166q0 -76 38 -123.5t99 -47.5q63 0 112.5 41zM278 770q-16 15 -16 39q0 35 22 56.5t58 21.5q25 0 40.5 -15t15.5 -39q0 -34 -22 -56t-57 -22q-25 0 -41 15zM488.5 770q-15.5 15 -15.5 39q0 35 22 56.5t58 21.5q24 0 40 -15t16 -39q0 -34 -22.5 -56t-57.5 -22
q-25 0 -40.5 15z" />
    <glyph glyph-name="multiply" unicode="&#xd7;" horiz-adv-x="617" 
d="M296 185l-206 -183l-67 72l211 189l-145 187l92 73l143 -182l207 182l67 -73l-210 -187l144 -189l-93 -72z" />
    <glyph glyph-name="Oslash" unicode="&#xd8;" horiz-adv-x="690" 
d="M665.5 550q20.5 -52 20.5 -114q0 -129 -47.5 -230.5t-132.5 -158.5t-193 -57q-79 0 -142 34l-47 -67h-111l88 125q-61 74 -61 182q0 129 47.5 230.5t132.5 158.5t193 57q64 0 115 -21l25 36h115l-61 -87q38 -36 58.5 -88zM194 214l261 372q-25 10 -51 10
q-63 0 -112.5 -41t-77.5 -114t-28 -166q0 -31 8 -61zM435.5 145q49.5 41 77.5 114.5t28 166.5q0 52 -19 93l-276 -389q34 -26 77 -26q63 0 112.5 41z" />
    <glyph glyph-name="Ugrave" unicode="&#xd9;" horiz-adv-x="662" 
d="M117.5 43.5q-60.5 53.5 -60.5 156.5q0 37 7 73l75 427h144l-75 -425q-6 -31 -6 -58q0 -112 104 -112q63 0 102.5 43t54.5 127l75 425h144l-75 -427q-50 -283 -314 -283q-115 0 -175.5 53.5zM289 917h124l56 -162h-102z" />
    <glyph glyph-name="Uacute" unicode="&#xda;" horiz-adv-x="662" 
d="M117.5 43.5q-60.5 53.5 -60.5 156.5q0 37 7 73l75 427h144l-75 -425q-6 -31 -6 -58q0 -112 104 -112q63 0 102.5 43t54.5 127l75 425h144l-75 -427q-50 -283 -314 -283q-115 0 -175.5 53.5zM483 917h124l-136 -162h-102z" />
    <glyph glyph-name="Ucircumflex" unicode="&#xdb;" horiz-adv-x="662" 
d="M117.5 43.5q-60.5 53.5 -60.5 156.5q0 37 7 73l75 427h144l-75 -425q-6 -31 -6 -58q0 -112 104 -112q63 0 102.5 43t54.5 127l75 425h144l-75 -427q-50 -283 -314 -283q-115 0 -175.5 53.5zM412 917h73l106 -162h-106l-46 78l-73 -78h-117z" />
    <glyph glyph-name="Udieresis" unicode="&#xdc;" horiz-adv-x="662" 
d="M117.5 43.5q-60.5 53.5 -60.5 156.5q0 37 7 73l75 427h144l-75 -425q-6 -31 -6 -58q0 -112 104 -112q63 0 102.5 43t54.5 127l75 425h144l-75 -427q-50 -283 -314 -283q-115 0 -175.5 53.5zM274 770q-16 15 -16 39q0 35 22 56.5t58 21.5q25 0 40.5 -15t15.5 -39
q0 -34 -22 -56t-57 -22q-25 0 -41 15zM484.5 770q-15.5 15 -15.5 39q0 35 22 56.5t58 21.5q24 0 40 -15t16 -39q0 -34 -22.5 -56t-57.5 -22q-25 0 -40.5 15z" />
    <glyph glyph-name="Yacute" unicode="&#xdd;" horiz-adv-x="628" 
d="M247 280l-153 420h152l95 -275l191 275h160l-301 -420l-49 -280h-144zM463 917h124l-136 -162h-102z" />
    <glyph glyph-name="Thorn" unicode="&#xde;" horiz-adv-x="574" 
d="M147 700h143l-15 -92h66q106 0 165.5 -46t59.5 -128q0 -128 -77.5 -201t-213.5 -73h-79l-29 -160h-143zM297 274q56 0 91.5 39t35.5 101q0 40 -24.5 60.5t-71.5 20.5h-74l-38 -221h81z" />
    <glyph glyph-name="germandbls" unicode="&#xdf;" horiz-adv-x="575" 
d="M226.5 15q-43.5 25 -58.5 73l88 52q26 -55 75 -55q30 0 52.5 23t22.5 55q0 21 -15 35t-49 28q-42 18 -63.5 47.5t-21.5 65.5q0 33 11.5 56t27.5 38t44 35q34 24 51 43t17 50q0 26 -18 40t-52 14q-103 0 -127 -136l-84 -479h-126l85 484q20 108 85 167t169 59
q89 0 142 -37t53 -98q0 -41 -15 -71t-35 -48.5t-51 -40.5q-27 -18 -39.5 -31t-12.5 -29q0 -14 13.5 -25.5t56.5 -33.5q40 -21 61 -52.5t21 -69.5q0 -54 -25.5 -96t-72 -65t-105.5 -23q-61 0 -104.5 25z" />
    <glyph glyph-name="agrave" unicode="&#xe0;" horiz-adv-x="558" 
d="M69.5 43q-47.5 53 -47.5 144q0 94 32.5 167.5t90.5 114.5t133 41q52 0 90 -19t54 -54h2l20 63h107l-65 -367q-18 -105 -21 -133h-120q6 41 11 66h-2q-30 -35 -71.5 -55.5t-84.5 -20.5q-81 0 -128.5 53zM324 118.5q37 30.5 46 80.5l18 103q2 14 2 22q0 40 -27.5 65.5
t-70.5 25.5q-40 0 -72.5 -28.5t-51 -78.5t-18.5 -112q0 -52 21.5 -80t62.5 -28q53 0 90 30.5zM191 717h124l56 -162h-102z" />
    <glyph glyph-name="aacute" unicode="&#xe1;" horiz-adv-x="558" 
d="M69.5 43q-47.5 53 -47.5 144q0 94 32.5 167.5t90.5 114.5t133 41q52 0 90 -19t54 -54h2l20 63h107l-65 -367q-18 -105 -21 -133h-120q6 41 11 66h-2q-30 -35 -71.5 -55.5t-84.5 -20.5q-81 0 -128.5 53zM324 118.5q37 30.5 46 80.5l18 103q2 14 2 22q0 40 -27.5 65.5
t-70.5 25.5q-40 0 -72.5 -28.5t-51 -78.5t-18.5 -112q0 -52 21.5 -80t62.5 -28q53 0 90 30.5zM385 717h124l-136 -162h-102z" />
    <glyph glyph-name="acircumflex" unicode="&#xe2;" horiz-adv-x="558" 
d="M69.5 43q-47.5 53 -47.5 144q0 94 32.5 167.5t90.5 114.5t133 41q52 0 90 -19t54 -54h2l20 63h107l-65 -367q-18 -105 -21 -133h-120q6 41 11 66h-2q-30 -35 -71.5 -55.5t-84.5 -20.5q-81 0 -128.5 53zM324 118.5q37 30.5 46 80.5l18 103q2 14 2 22q0 40 -27.5 65.5
t-70.5 25.5q-40 0 -72.5 -28.5t-51 -78.5t-18.5 -112q0 -52 21.5 -80t62.5 -28q53 0 90 30.5zM314 717h73l106 -162h-106l-46 78l-73 -78h-117z" />
    <glyph glyph-name="atilde" unicode="&#xe3;" horiz-adv-x="558" 
d="M69.5 43q-47.5 53 -47.5 144q0 94 32.5 167.5t90.5 114.5t133 41q52 0 90 -19t54 -54h2l20 63h107l-65 -367q-18 -105 -21 -133h-120q6 41 11 66h-2q-30 -35 -71.5 -55.5t-84.5 -20.5q-81 0 -128.5 53zM324 118.5q37 30.5 46 80.5l18 103q2 14 2 22q0 40 -27.5 65.5
t-70.5 25.5q-40 0 -72.5 -28.5t-51 -78.5t-18.5 -112q0 -52 21.5 -80t62.5 -28q53 0 90 30.5zM196.5 648q35.5 33 80.5 33q20 0 36 -7t37 -21q14 -9 23.5 -14t18.5 -5q27 0 36 51h80q-9 -65 -43 -97.5t-82 -32.5q-20 0 -37.5 7.5t-39.5 21.5q-27 18 -39 18q-11 0 -21 -13
t-14 -34h-80q9 60 44.5 93z" />
    <glyph glyph-name="adieresis" unicode="&#xe4;" horiz-adv-x="558" 
d="M69.5 43q-47.5 53 -47.5 144q0 94 32.5 167.5t90.5 114.5t133 41q52 0 90 -19t54 -54h2l20 63h107l-65 -367q-18 -105 -21 -133h-120q6 41 11 66h-2q-30 -35 -71.5 -55.5t-84.5 -20.5q-81 0 -128.5 53zM324 118.5q37 30.5 46 80.5l18 103q2 14 2 22q0 40 -27.5 65.5
t-70.5 25.5q-40 0 -72.5 -28.5t-51 -78.5t-18.5 -112q0 -52 21.5 -80t62.5 -28q53 0 90 30.5zM176 570q-16 15 -16 39q0 35 22 56.5t58 21.5q25 0 40.5 -15t15.5 -39q0 -34 -22 -56t-57 -22q-25 0 -41 15zM386.5 570q-15.5 15 -15.5 39q0 35 22 56.5t58 21.5q24 0 40 -15
t16 -39q0 -34 -22.5 -56t-57.5 -22q-25 0 -40.5 15z" />
    <glyph glyph-name="aring" unicode="&#xe5;" horiz-adv-x="558" 
d="M69.5 43q-47.5 53 -47.5 144q0 94 32.5 167.5t90.5 114.5t133 41q52 0 90 -19t54 -54h2l20 63h107l-65 -367q-18 -105 -21 -133h-120q6 41 11 66h-2q-30 -35 -71.5 -55.5t-84.5 -20.5q-81 0 -128.5 53zM324 118.5q37 30.5 46 80.5l18 103q2 14 2 22q0 40 -27.5 65.5
t-70.5 25.5q-40 0 -72.5 -28.5t-51 -78.5t-18.5 -112q0 -52 21.5 -80t62.5 -28q53 0 90 30.5zM257 573.5q-25 22.5 -25 58.5q0 53 35 86t90 33q40 0 65 -22.5t25 -58.5q0 -52 -35 -85.5t-90 -33.5q-40 0 -65 22.5zM373 617q17 17 17 45q0 18 -11.5 29t-30.5 11
q-26 0 -42.5 -17t-16.5 -45q0 -18 11.5 -29t29.5 -11q26 0 43 17z" />
    <glyph glyph-name="ae" unicode="&#xe6;" horiz-adv-x="818" 
d="M742.5 460.5q52.5 -49.5 52.5 -140.5q0 -29 -6 -62l-8 -44h-335v-15q0 -102 98 -102q41 0 74.5 15t70.5 50l56 -66q-36 -49 -94.5 -77.5t-125.5 -28.5q-52 0 -93.5 17t-68.5 49q-37 -31 -85 -48.5t-99 -17.5q-82 0 -127 37.5t-45 98.5q0 85 62.5 129t179.5 44h85l5 30
q2 16 2 21q0 62 -71 62q-91 0 -157 -60l-44 76q94 82 216 82q105 0 152 -56q68 56 160 56q93 0 145.5 -49.5zM657 379q-22 27 -70 27q-41 0 -74 -29t-51 -78h215v7q2 46 -20 73zM271.5 111q33.5 25 39.5 62l8 41h-76q-52 0 -81.5 -19.5t-29.5 -60.5q0 -23 16 -35.5t46 -12.5
q44 0 77.5 25z" />
    <glyph glyph-name="ccedilla" unicode="&#xe7;" horiz-adv-x="492" 
d="M325 106.5q34 18.5 60 50.5l65 -67q-64 -84 -173 -98l-44 -58q37 0 59.5 -18t22.5 -47q0 -47 -39.5 -79t-97.5 -32q-25 0 -50.5 6t-39.5 15l23 55q28 -12 64 -12q21 0 35 10.5t14 26.5q0 13 -16.5 20.5t-45.5 5.5l-23 33l55 75q-81 11 -127 63.5t-46 135.5q0 93 37 165.5
t104 112.5t154 40q71 0 121 -26.5t69 -73.5l-88 -67q-14 32 -42.5 50.5t-64.5 18.5q-45 0 -82 -27t-58 -75t-21 -107q0 -55 27 -85t77 -30q37 0 71 18.5z" />
    <glyph glyph-name="egrave" unicode="&#xe8;" horiz-adv-x="542" 
d="M464.5 457q53.5 -53 53.5 -145q0 -33 -7 -67l-9 -42h-348q1 -52 27.5 -79t77.5 -27q44 0 79.5 15t72.5 50l58 -66q-38 -49 -100 -77.5t-130 -28.5q-98 0 -156 54t-58 147t37 165.5t103.5 113t151.5 40.5q94 0 147.5 -53zM377 378q-24 28 -74 28q-47 0 -84 -30.5
t-53 -85.5h232v6q3 54 -21 82zM197 717h124l56 -162h-102z" />
    <glyph glyph-name="eacute" unicode="&#xe9;" horiz-adv-x="542" 
d="M464.5 457q53.5 -53 53.5 -145q0 -33 -7 -67l-9 -42h-348q1 -52 27.5 -79t77.5 -27q44 0 79.5 15t72.5 50l58 -66q-38 -49 -100 -77.5t-130 -28.5q-98 0 -156 54t-58 147t37 165.5t103.5 113t151.5 40.5q94 0 147.5 -53zM377 378q-24 28 -74 28q-47 0 -84 -30.5
t-53 -85.5h232v6q3 54 -21 82zM391 717h124l-136 -162h-102z" />
    <glyph glyph-name="ecircumflex" unicode="&#xea;" horiz-adv-x="542" 
d="M464.5 457q53.5 -53 53.5 -145q0 -33 -7 -67l-9 -42h-348q1 -52 27.5 -79t77.5 -27q44 0 79.5 15t72.5 50l58 -66q-38 -49 -100 -77.5t-130 -28.5q-98 0 -156 54t-58 147t37 165.5t103.5 113t151.5 40.5q94 0 147.5 -53zM377 378q-24 28 -74 28q-47 0 -84 -30.5
t-53 -85.5h232v6q3 54 -21 82zM320 717h73l106 -162h-106l-46 78l-73 -78h-117z" />
    <glyph glyph-name="edieresis" unicode="&#xeb;" horiz-adv-x="542" 
d="M464.5 457q53.5 -53 53.5 -145q0 -33 -7 -67l-9 -42h-348q1 -52 27.5 -79t77.5 -27q44 0 79.5 15t72.5 50l58 -66q-38 -49 -100 -77.5t-130 -28.5q-98 0 -156 54t-58 147t37 165.5t103.5 113t151.5 40.5q94 0 147.5 -53zM377 378q-24 28 -74 28q-47 0 -84 -30.5
t-53 -85.5h232v6q3 54 -21 82zM182 570q-16 15 -16 39q0 35 22 56.5t58 21.5q25 0 40.5 -15t15.5 -39q0 -34 -22 -56t-57 -22q-25 0 -41 15zM392.5 570q-15.5 15 -15.5 39q0 35 22 56.5t58 21.5q24 0 40 -15t16 -39q0 -34 -22.5 -56t-57.5 -22q-25 0 -40.5 15z" />
    <glyph glyph-name="igrave" unicode="&#xec;" horiz-adv-x="279" 
d="M121 500h126l-88 -500h-126zM63 717h124l56 -162h-102z" />
    <glyph glyph-name="iacute" unicode="&#xed;" horiz-adv-x="279" 
d="M121 500h126l-88 -500h-126zM257 717h124l-136 -162h-102z" />
    <glyph glyph-name="icircumflex" unicode="&#xee;" horiz-adv-x="279" 
d="M121 500h126l-88 -500h-126zM186 717h73l106 -162h-106l-46 78l-73 -78h-117z" />
    <glyph glyph-name="idieresis" unicode="&#xef;" horiz-adv-x="279" 
d="M121 500h126l-88 -500h-126zM48 570q-16 15 -16 39q0 35 22 56.5t58 21.5q25 0 40.5 -15t15.5 -39q0 -34 -22 -56t-57 -22q-25 0 -41 15zM258.5 570q-15.5 15 -15.5 39q0 35 22 56.5t58 21.5q24 0 40 -15t16 -39q0 -34 -22.5 -56t-57.5 -22q-25 0 -40.5 15z" />
    <glyph glyph-name="eth" unicode="&#xf0;" horiz-adv-x="511" 
d="M461.5 471.5q26.5 -66.5 26.5 -143.5q0 -96 -36.5 -173t-101 -121t-144.5 -44q-85 0 -136 48.5t-51 129.5q0 75 35.5 139t95.5 102t130 38q36 0 67 -18q-18 59 -59 103l-140 -82l-35 68l112 65q-47 28 -96 36l24 76q97 -11 168 -56l133 77l33 -69l-102 -59
q50 -50 76.5 -116.5zM291.5 111q29.5 22 46 60.5t16.5 85.5q0 44 -21.5 68.5t-60.5 24.5q-34 0 -63 -22.5t-45.5 -61.5t-16.5 -85q0 -43 21 -67.5t58 -24.5q36 0 65.5 22z" />
    <glyph glyph-name="ntilde" unicode="&#xf1;" horiz-adv-x="563" 
d="M69 368l4 25q13 79 14 107h120q-2 -43 -10 -87h2q27 46 73 71.5t104 25.5q73 0 110 -40.5t37 -117.5q0 -35 -7 -71l-50 -281h-127l50 282q4 21 4 44q0 81 -74 81q-53 0 -91.5 -36.5t-48.5 -97.5l-48 -273h-128zM207.5 648q35.5 33 80.5 33q20 0 36 -7t37 -21
q14 -9 23.5 -14t18.5 -5q27 0 36 51h80q-9 -65 -43 -97.5t-82 -32.5q-20 0 -37.5 7.5t-39.5 21.5q-27 18 -39 18q-11 0 -21 -13t-14 -34h-80q9 60 44.5 93z" />
    <glyph glyph-name="ograve" unicode="&#xf2;" horiz-adv-x="579" 
d="M86.5 45q-60.5 55 -60.5 149q0 93 38 165t106.5 111.5t158.5 39.5q103 0 163.5 -55t60.5 -149q0 -93 -38 -165t-107 -111.5t-158 -39.5q-103 0 -163.5 55zM345 112q37 27 58 75t21 108q0 56 -28.5 88t-79.5 32q-46 0 -83 -27t-58 -75t-21 -108q0 -56 29 -88t79 -32
q46 0 83 27zM212 717h124l56 -162h-102z" />
    <glyph glyph-name="oacute" unicode="&#xf3;" horiz-adv-x="579" 
d="M86.5 45q-60.5 55 -60.5 149q0 93 38 165t106.5 111.5t158.5 39.5q103 0 163.5 -55t60.5 -149q0 -93 -38 -165t-107 -111.5t-158 -39.5q-103 0 -163.5 55zM345 112q37 27 58 75t21 108q0 56 -28.5 88t-79.5 32q-46 0 -83 -27t-58 -75t-21 -108q0 -56 29 -88t79 -32
q46 0 83 27zM406 717h124l-136 -162h-102z" />
    <glyph glyph-name="ocircumflex" unicode="&#xf4;" horiz-adv-x="579" 
d="M86.5 45q-60.5 55 -60.5 149q0 93 38 165t106.5 111.5t158.5 39.5q103 0 163.5 -55t60.5 -149q0 -93 -38 -165t-107 -111.5t-158 -39.5q-103 0 -163.5 55zM345 112q37 27 58 75t21 108q0 56 -28.5 88t-79.5 32q-46 0 -83 -27t-58 -75t-21 -108q0 -56 29 -88t79 -32
q46 0 83 27zM335 717h73l106 -162h-106l-46 78l-73 -78h-117z" />
    <glyph glyph-name="otilde" unicode="&#xf5;" horiz-adv-x="579" 
d="M86.5 45q-60.5 55 -60.5 149q0 93 38 165t106.5 111.5t158.5 39.5q103 0 163.5 -55t60.5 -149q0 -93 -38 -165t-107 -111.5t-158 -39.5q-103 0 -163.5 55zM345 112q37 27 58 75t21 108q0 56 -28.5 88t-79.5 32q-46 0 -83 -27t-58 -75t-21 -108q0 -56 29 -88t79 -32
q46 0 83 27zM217.5 648q35.5 33 80.5 33q20 0 36 -7t37 -21q14 -9 23.5 -14t18.5 -5q27 0 36 51h80q-9 -65 -43 -97.5t-82 -32.5q-20 0 -37.5 7.5t-39.5 21.5q-27 18 -39 18q-11 0 -21 -13t-14 -34h-80q9 60 44.5 93z" />
    <glyph glyph-name="odieresis" unicode="&#xf6;" horiz-adv-x="579" 
d="M86.5 45q-60.5 55 -60.5 149q0 93 38 165t106.5 111.5t158.5 39.5q103 0 163.5 -55t60.5 -149q0 -93 -38 -165t-107 -111.5t-158 -39.5q-103 0 -163.5 55zM345 112q37 27 58 75t21 108q0 56 -28.5 88t-79.5 32q-46 0 -83 -27t-58 -75t-21 -108q0 -56 29 -88t79 -32
q46 0 83 27zM197 570q-16 15 -16 39q0 35 22 56.5t58 21.5q25 0 40.5 -15t15.5 -39q0 -34 -22 -56t-57 -22q-25 0 -41 15zM407.5 570q-15.5 15 -15.5 39q0 35 22 56.5t58 21.5q24 0 40 -15t16 -39q0 -34 -22.5 -56t-57.5 -22q-25 0 -40.5 15z" />
    <glyph glyph-name="divide" unicode="&#xf7;" horiz-adv-x="617" 
d="M282.5 387q-18.5 16 -18.5 42q0 37 27 61.5t65 24.5q30 0 48 -16t18 -42q0 -37 -26.5 -61.5t-64.5 -24.5q-30 0 -48.5 16zM58 310h523l-17 -96h-524zM218.5 25.5q-18.5 16.5 -18.5 42.5q0 36 27 60.5t65 24.5q30 0 48 -15.5t18 -41.5q0 -37 -26 -62t-65 -25
q-30 0 -48.5 16.5z" />
    <glyph glyph-name="oslash" unicode="&#xf8;" horiz-adv-x="579" 
d="M534.5 396q18.5 -40 18.5 -90q0 -93 -38 -165t-107 -111.5t-158 -39.5q-51 0 -93 14l-34 -47h-88l58 82q-67 56 -67 155q0 93 38 165t106.5 111.5t158.5 39.5q47 0 86 -12l26 37h92l-51 -72q34 -27 52.5 -67zM166 143l187 267q-18 5 -37 5q-46 0 -83 -27t-58 -75
t-21 -108q0 -35 12 -62zM345 112q37 27 58 75t21 108q0 37 -14 67l-191 -270q23 -7 43 -7q46 0 83 27z" />
    <glyph glyph-name="ugrave" unicode="&#xf9;" horiz-adv-x="561" 
d="M73 29.5q-37 39.5 -37 116.5q0 35 7 71l49 283h128l-49 -283q-5 -30 -5 -48q0 -39 17 -57.5t52 -18.5q52 0 93.5 40t52.5 101l46 266h128l-65 -373q-8 -40 -15 -127h-121q1 48 7 88h-2q-27 -46 -74.5 -72t-103.5 -26q-71 0 -108 39.5zM211 717h124l56 -162h-102z" />
    <glyph glyph-name="uacute" unicode="&#xfa;" horiz-adv-x="561" 
d="M73 29.5q-37 39.5 -37 116.5q0 35 7 71l49 283h128l-49 -283q-5 -30 -5 -48q0 -39 17 -57.5t52 -18.5q52 0 93.5 40t52.5 101l46 266h128l-65 -373q-8 -40 -15 -127h-121q1 48 7 88h-2q-27 -46 -74.5 -72t-103.5 -26q-71 0 -108 39.5zM405 717h124l-136 -162h-102z" />
    <glyph glyph-name="ucircumflex" unicode="&#xfb;" horiz-adv-x="561" 
d="M73 29.5q-37 39.5 -37 116.5q0 35 7 71l49 283h128l-49 -283q-5 -30 -5 -48q0 -39 17 -57.5t52 -18.5q52 0 93.5 40t52.5 101l46 266h128l-65 -373q-8 -40 -15 -127h-121q1 48 7 88h-2q-27 -46 -74.5 -72t-103.5 -26q-71 0 -108 39.5zM334 717h73l106 -162h-106l-46 78
l-73 -78h-117z" />
    <glyph glyph-name="udieresis" unicode="&#xfc;" horiz-adv-x="561" 
d="M73 29.5q-37 39.5 -37 116.5q0 35 7 71l49 283h128l-49 -283q-5 -30 -5 -48q0 -39 17 -57.5t52 -18.5q52 0 93.5 40t52.5 101l46 266h128l-65 -373q-8 -40 -15 -127h-121q1 48 7 88h-2q-27 -46 -74.5 -72t-103.5 -26q-71 0 -108 39.5zM196 570q-16 15 -16 39
q0 35 22 56.5t58 21.5q25 0 40.5 -15t15.5 -39q0 -34 -22 -56t-57 -22q-25 0 -41 15zM406.5 570q-15.5 15 -15.5 39q0 35 22 56.5t58 21.5q24 0 40 -15t16 -39q0 -34 -22.5 -56t-57.5 -22q-25 0 -40.5 15z" />
    <glyph glyph-name="yacute" unicode="&#xfd;" horiz-adv-x="505" 
d="M536 500l-283 -523q-92 -169 -246 -169q-39 0 -80 11l18 101q11 -4 29 -7t32 -3q43 0 80 30.5t74 96.5l-104 463h132l54 -321l156 321h138zM372 717h124l-136 -162h-102z" />
    <glyph glyph-name="thorn" unicode="&#xfe;" horiz-adv-x="542" 
d="M136 742h126l-50 -280q22 22 59.5 35t78.5 13q79 0 124 -50.5t45 -139.5q0 -94 -34 -169.5t-94 -118t-136 -42.5q-39 0 -72 10.5t-47 28.5l-44 -251h-126zM319.5 115.5q33.5 30.5 53 82.5t19.5 112q0 51 -21.5 78t-62.5 27q-47 0 -81 -32.5t-44 -86.5l-13 -77
q-4 -28 -4 -40q0 -44 21 -69t60 -25t72.5 30.5z" />
    <glyph glyph-name="ydieresis" unicode="&#xff;" horiz-adv-x="505" 
d="M536 500l-283 -523q-92 -169 -246 -169q-39 0 -80 11l18 101q11 -4 29 -7t32 -3q43 0 80 30.5t74 96.5l-104 463h132l54 -321l156 321h138zM163 570q-16 15 -16 39q0 35 22 56.5t58 21.5q25 0 40.5 -15t15.5 -39q0 -34 -22 -56t-57 -22q-25 0 -41 15zM373.5 570
q-15.5 15 -15.5 39q0 35 22 56.5t58 21.5q24 0 40 -15t16 -39q0 -34 -22.5 -56t-57.5 -22q-25 0 -40.5 15z" />
    <glyph glyph-name="Amacron" unicode="&#x100;" horiz-adv-x="641" 
d="M423 116h-240l-55 -116h-157l365 700h127l119 -700h-144zM408 231l-37 278l-133 -278h170zM256 855h342l-14 -83h-343z" />
    <glyph glyph-name="amacron" unicode="&#x101;" horiz-adv-x="558" 
d="M69.5 43q-47.5 53 -47.5 144q0 94 32.5 167.5t90.5 114.5t133 41q52 0 90 -19t54 -54h2l20 63h107l-65 -367q-18 -105 -21 -133h-120q6 41 11 66h-2q-30 -35 -71.5 -55.5t-84.5 -20.5q-81 0 -128.5 53zM324 118.5q37 30.5 46 80.5l18 103q2 14 2 22q0 40 -27.5 65.5
t-70.5 25.5q-40 0 -72.5 -28.5t-51 -78.5t-18.5 -112q0 -52 21.5 -80t62.5 -28q53 0 90 30.5zM168 655h342l-14 -83h-343z" />
    <glyph glyph-name="Abreve" unicode="&#x102;" horiz-adv-x="641" 
d="M423 116h-240l-55 -116h-157l365 700h127l119 -700h-144zM408 231l-37 278l-133 -278h170zM309.5 786.5q-38.5 31.5 -38.5 88.5q0 16 3 32h83q-1 -5 -1 -15q0 -27 17 -42t48 -15q36 0 59.5 19t30.5 53h88q-13 -74 -59.5 -113t-122.5 -39q-69 0 -107.5 31.5z" />
    <glyph glyph-name="abreve" unicode="&#x103;" horiz-adv-x="558" 
d="M69.5 43q-47.5 53 -47.5 144q0 94 32.5 167.5t90.5 114.5t133 41q52 0 90 -19t54 -54h2l20 63h107l-65 -367q-18 -105 -21 -133h-120q6 41 11 66h-2q-30 -35 -71.5 -55.5t-84.5 -20.5q-81 0 -128.5 53zM324 118.5q37 30.5 46 80.5l18 103q2 14 2 22q0 40 -27.5 65.5
t-70.5 25.5q-40 0 -72.5 -28.5t-51 -78.5t-18.5 -112q0 -52 21.5 -80t62.5 -28q53 0 90 30.5zM221.5 586.5q-38.5 31.5 -38.5 88.5q0 16 3 32h83q-1 -5 -1 -15q0 -27 17 -42t48 -15q36 0 59.5 19t30.5 53h88q-13 -74 -59.5 -113t-122.5 -39q-69 0 -107.5 31.5z" />
    <glyph glyph-name="Aogonek" unicode="&#x104;" horiz-adv-x="641" 
d="M557 -134l8 -60q-22 -19 -52.5 -29.5t-61.5 -10.5q-47 0 -72 20.5t-25 58.5q0 48 30 87t89 68h-35l-15 116h-240l-55 -116h-157l365 700h127l119 -700h-22q-53 -32 -81.5 -63.5t-28.5 -56.5q0 -14 11.5 -22t31.5 -8t64 16zM408 231l-37 278l-133 -278h170z" />
    <glyph glyph-name="aogonek" unicode="&#x105;" horiz-adv-x="558" 
d="M380.5 -64q-28.5 -31 -28.5 -56q0 -14 11 -22t31 -8t65 16l8 -60q-23 -19 -53.5 -29.5t-61.5 -10.5q-46 0 -71.5 20.5t-25.5 58.5q0 48 30.5 87.5t89.5 67.5h-30q6 41 11 66h-2q-30 -35 -71.5 -55.5t-84.5 -20.5q-81 0 -128.5 53t-47.5 144q0 94 32.5 167.5t90.5 114.5
t133 41q52 0 90 -19t54 -54h2l20 63h107l-65 -367q-18 -105 -21 -133h-4q-52 -33 -80.5 -64zM324 118.5q37 30.5 46 80.5l18 103q2 14 2 22q0 40 -27.5 65.5t-70.5 25.5q-40 0 -72.5 -28.5t-51 -78.5t-18.5 -112q0 -52 21.5 -80t62.5 -28q53 0 90 30.5z" />
    <glyph glyph-name="Cacute" unicode="&#x106;" horiz-adv-x="620" 
d="M176 24q-65 34 -100 97t-35 148q0 128 48 228t134.5 156.5t196.5 56.5q86 0 149.5 -33.5t85.5 -89.5l-95 -72q-19 39 -55.5 59.5t-85.5 20.5q-68 0 -121 -41.5t-83 -115t-30 -167.5q0 -79 38 -122.5t108 -43.5q106 0 171 80l72 -72q-84 -123 -245 -123q-88 0 -153 34z
M510 917h124l-136 -162h-102z" />
    <glyph glyph-name="cacute" unicode="&#x107;" horiz-adv-x="492" 
d="M79 44q-58 54 -58 148q0 93 37 165.5t104 112.5t154 40q71 0 121 -26.5t69 -73.5l-88 -67q-14 32 -42.5 50.5t-64.5 18.5q-45 0 -82 -27t-58 -75t-21 -107q0 -55 27 -85t77 -30q37 0 71 18.5t60 50.5l65 -67q-37 -49 -91 -74.5t-122 -25.5q-100 0 -158 54zM400 717h124
l-136 -162h-102z" />
    <glyph glyph-name="Ccircumflex" unicode="&#x108;" horiz-adv-x="620" 
d="M176 24q-65 34 -100 97t-35 148q0 128 48 228t134.5 156.5t196.5 56.5q86 0 149.5 -33.5t85.5 -89.5l-95 -72q-19 39 -55.5 59.5t-85.5 20.5q-68 0 -121 -41.5t-83 -115t-30 -167.5q0 -79 38 -122.5t108 -43.5q106 0 171 80l72 -72q-84 -123 -245 -123q-88 0 -153 34z
M439 917h73l106 -162h-106l-46 78l-73 -78h-117z" />
    <glyph glyph-name="ccircumflex" unicode="&#x109;" horiz-adv-x="492" 
d="M79 44q-58 54 -58 148q0 93 37 165.5t104 112.5t154 40q71 0 121 -26.5t69 -73.5l-88 -67q-14 32 -42.5 50.5t-64.5 18.5q-45 0 -82 -27t-58 -75t-21 -107q0 -55 27 -85t77 -30q37 0 71 18.5t60 50.5l65 -67q-37 -49 -91 -74.5t-122 -25.5q-100 0 -158 54zM329 717h73
l106 -162h-106l-46 78l-73 -78h-117z" />
    <glyph glyph-name="Cdotaccent" unicode="&#x10a;" horiz-adv-x="620" 
d="M176 24q-65 34 -100 97t-35 148q0 128 48 228t134.5 156.5t196.5 56.5q86 0 149.5 -33.5t85.5 -89.5l-95 -72q-19 39 -55.5 59.5t-85.5 20.5q-68 0 -121 -41.5t-83 -115t-30 -167.5q0 -79 38 -122.5t108 -43.5q106 0 171 80l72 -72q-84 -123 -245 -123q-88 0 -153 34z
M406 770q-16 15 -16 39q0 34 22.5 56t57.5 22q25 0 40.5 -15t15.5 -39q0 -35 -22 -56.5t-57 -21.5q-25 0 -41 15z" />
    <glyph glyph-name="cdotaccent" unicode="&#x10b;" horiz-adv-x="492" 
d="M79 44q-58 54 -58 148q0 93 37 165.5t104 112.5t154 40q71 0 121 -26.5t69 -73.5l-88 -67q-14 32 -42.5 50.5t-64.5 18.5q-45 0 -82 -27t-58 -75t-21 -107q0 -55 27 -85t77 -30q37 0 71 18.5t60 50.5l65 -67q-37 -49 -91 -74.5t-122 -25.5q-100 0 -158 54zM296 570
q-16 15 -16 39q0 34 22.5 56t57.5 22q25 0 40.5 -15t15.5 -39q0 -35 -22 -56.5t-57 -21.5q-25 0 -41 15z" />
    <glyph glyph-name="Ccaron" unicode="&#x10c;" horiz-adv-x="620" 
d="M176 24q-65 34 -100 97t-35 148q0 128 48 228t134.5 156.5t196.5 56.5q86 0 149.5 -33.5t85.5 -89.5l-95 -72q-19 39 -55.5 59.5t-85.5 20.5q-68 0 -121 -41.5t-83 -115t-30 -167.5q0 -79 38 -122.5t108 -43.5q106 0 171 80l72 -72q-84 -123 -245 -123q-88 0 -153 34z
M304 917h108l45 -78l74 78h115l-163 -162h-73z" />
    <glyph glyph-name="ccaron" unicode="&#x10d;" horiz-adv-x="492" 
d="M79 44q-58 54 -58 148q0 93 37 165.5t104 112.5t154 40q71 0 121 -26.5t69 -73.5l-88 -67q-14 32 -42.5 50.5t-64.5 18.5q-45 0 -82 -27t-58 -75t-21 -107q0 -55 27 -85t77 -30q37 0 71 18.5t60 50.5l65 -67q-37 -49 -91 -74.5t-122 -25.5q-100 0 -158 54zM194 717h108
l45 -78l74 78h115l-163 -162h-73z" />
    <glyph glyph-name="Dcaron" unicode="&#x10e;" horiz-adv-x="642" 
d="M147 700h240q121 0 184.5 -61.5t63.5 -179.5q0 -223 -95.5 -341t-276.5 -118h-239zM283 115q62 0 109.5 41t73 116t25.5 174q0 71 -28.5 105t-88.5 34h-103l-82 -470h94zM267 917h108l45 -78l74 78h115l-163 -162h-73z" />
    <glyph glyph-name="dcaron" unicode="&#x10f;" horiz-adv-x="742" 
d="M69.5 43q-47.5 53 -47.5 144q0 93 33 166.5t92 115t134 41.5q93 0 131 -61h2l52 293h127l-107 -609l-11 -70q-9 -56 -10 -63h-120q6 39 11 66h-2q-30 -35 -71.5 -55.5t-84.5 -20.5q-81 0 -128.5 53zM324 118.5q37 30.5 46 80.5l18 103q2 14 2 22q0 40 -27.5 65.5
t-70.5 25.5q-40 0 -72.5 -28.5t-51 -78.5t-18.5 -112q0 -52 21.5 -80t62.5 -28q53 0 90 30.5zM790 746.5q19 -17.5 19 -45.5q0 -41 -30.5 -89.5t-78.5 -83.5l-43 38q5 6 22.5 23.5t31.5 37.5q-23 3 -37.5 18t-14.5 37q0 37 23 59.5t60 22.5q29 0 48 -17.5z" />
    <glyph glyph-name="Dcroat" unicode="&#x110;" horiz-adv-x="648" 
d="M576.5 638.5q63.5 -61.5 63.5 -179.5q0 -223 -95 -341t-276 -118h-239l50 286h-64l18 104h65l54 310h240q120 0 183.5 -61.5zM397.5 156q47.5 41 73.5 116t26 174q0 71 -28.5 105t-88.5 34h-103l-34 -195h159l-19 -104h-159l-30 -171h94q62 0 109.5 41z" />
    <glyph glyph-name="dcroat" unicode="&#x111;" horiz-adv-x="586" 
d="M625 584h-60l-79 -451l-11 -70q-9 -56 -10 -63h-120q6 39 11 66h-2q-30 -35 -71.5 -55.5t-84.5 -20.5q-81 0 -128.5 53t-47.5 144q0 93 33 166.5t92 115t134 41.5q93 0 131 -61h2l24 135h-140l16 87h139l13 71h127l-12 -71h59zM390 324q0 40 -27.5 65.5t-70.5 25.5
q-40 0 -72.5 -28.5t-51 -78.5t-18.5 -112q0 -52 21.5 -80t62.5 -28q53 0 90 30.5t46 80.5l18 103q2 14 2 22z" />
    <glyph glyph-name="Emacron" unicode="&#x112;" horiz-adv-x="571" 
d="M147 700h465l-20 -115h-321l-28 -160h286l-20 -115h-287l-33 -195h320l-20 -115h-465zM238 855h342l-14 -83h-343z" />
    <glyph glyph-name="emacron" unicode="&#x113;" horiz-adv-x="542" 
d="M464.5 457q53.5 -53 53.5 -145q0 -33 -7 -67l-9 -42h-348q1 -52 27.5 -79t77.5 -27q44 0 79.5 15t72.5 50l58 -66q-38 -49 -100 -77.5t-130 -28.5q-98 0 -156 54t-58 147t37 165.5t103.5 113t151.5 40.5q94 0 147.5 -53zM377 378q-24 28 -74 28q-47 0 -84 -30.5
t-53 -85.5h232v6q3 54 -21 82zM174 655h342l-14 -83h-343z" />
    <glyph glyph-name="Ebreve" unicode="&#x114;" horiz-adv-x="571" 
d="M147 700h465l-20 -115h-321l-28 -160h286l-20 -115h-287l-33 -195h320l-20 -115h-465zM291.5 786.5q-38.5 31.5 -38.5 88.5q0 16 3 32h83q-1 -5 -1 -15q0 -27 17 -42t48 -15q36 0 59.5 19t30.5 53h88q-13 -74 -59.5 -113t-122.5 -39q-69 0 -107.5 31.5z" />
    <glyph glyph-name="ebreve" unicode="&#x115;" horiz-adv-x="542" 
d="M464.5 457q53.5 -53 53.5 -145q0 -33 -7 -67l-9 -42h-348q1 -52 27.5 -79t77.5 -27q44 0 79.5 15t72.5 50l58 -66q-38 -49 -100 -77.5t-130 -28.5q-98 0 -156 54t-58 147t37 165.5t103.5 113t151.5 40.5q94 0 147.5 -53zM377 378q-24 28 -74 28q-47 0 -84 -30.5
t-53 -85.5h232v6q3 54 -21 82zM227.5 586.5q-38.5 31.5 -38.5 88.5q0 16 3 32h83q-1 -5 -1 -15q0 -27 17 -42t48 -15q36 0 59.5 19t30.5 53h88q-13 -74 -59.5 -113t-122.5 -39q-69 0 -107.5 31.5z" />
    <glyph glyph-name="Edotaccent" unicode="&#x116;" horiz-adv-x="571" 
d="M147 700h465l-20 -115h-321l-28 -160h286l-20 -115h-287l-33 -195h320l-20 -115h-465zM351 770q-16 15 -16 39q0 34 22.5 56t57.5 22q25 0 40.5 -15t15.5 -39q0 -35 -22 -56.5t-57 -21.5q-25 0 -41 15z" />
    <glyph glyph-name="edotaccent" unicode="&#x117;" horiz-adv-x="542" 
d="M464.5 457q53.5 -53 53.5 -145q0 -33 -7 -67l-9 -42h-348q1 -52 27.5 -79t77.5 -27q44 0 79.5 15t72.5 50l58 -66q-38 -49 -100 -77.5t-130 -28.5q-98 0 -156 54t-58 147t37 165.5t103.5 113t151.5 40.5q94 0 147.5 -53zM377 378q-24 28 -74 28q-47 0 -84 -30.5
t-53 -85.5h232v6q3 54 -21 82zM287 570q-16 15 -16 39q0 34 22.5 56t57.5 22q25 0 40.5 -15t15.5 -39q0 -35 -22 -56.5t-57 -21.5q-25 0 -41 15z" />
    <glyph glyph-name="Eogonek" unicode="&#x118;" horiz-adv-x="571" 
d="M271 585l-28 -160h286l-20 -115h-287l-33 -195h320l-20 -115q-53 -32 -81.5 -63.5t-28.5 -56.5q0 -14 11.5 -22t31.5 -8t64 16l8 -60q-22 -19 -52.5 -29.5t-61.5 -10.5q-47 0 -72 20.5t-25 58.5q0 48 30 87t89 68h-378l123 700h465l-20 -115h-321z" />
    <glyph glyph-name="eogonek" unicode="&#x119;" horiz-adv-x="542" 
d="M464.5 457q53.5 -53 53.5 -145q0 -33 -7 -67l-9 -42h-348q1 -52 27.5 -79t77.5 -27q44 0 79.5 15t72.5 50l58 -66q-34 -44 -88 -72q-63 -50 -63 -89q0 -14 11.5 -22t31.5 -8q16 0 64 17l8 -60q-23 -19 -53.5 -30t-61.5 -11q-46 0 -71 21t-25 59q0 49 32 89h-15
q-98 0 -156 54t-58 147t37 165.5t103.5 113t151.5 40.5q94 0 147.5 -53zM377 378q-24 28 -74 28q-47 0 -84 -30.5t-53 -85.5h232v6q3 54 -21 82z" />
    <glyph glyph-name="Ecaron" unicode="&#x11a;" horiz-adv-x="571" 
d="M147 700h465l-20 -115h-321l-28 -160h286l-20 -115h-287l-33 -195h320l-20 -115h-465zM250 917h108l45 -78l74 78h115l-163 -162h-73z" />
    <glyph glyph-name="ecaron" unicode="&#x11b;" horiz-adv-x="542" 
d="M464.5 457q53.5 -53 53.5 -145q0 -33 -7 -67l-9 -42h-348q1 -52 27.5 -79t77.5 -27q44 0 79.5 15t72.5 50l58 -66q-38 -49 -100 -77.5t-130 -28.5q-98 0 -156 54t-58 147t37 165.5t103.5 113t151.5 40.5q94 0 147.5 -53zM377 378q-24 28 -74 28q-47 0 -84 -30.5
t-53 -85.5h232v6q3 54 -21 82zM185 717h108l45 -78l74 78h115l-163 -162h-73z" />
    <glyph glyph-name="Gcircumflex" unicode="&#x11c;" horiz-adv-x="653" 
d="M333 380h293l-66 -380h-109l-6 35q-64 -45 -150 -45q-78 0 -136 32t-89 91.5t-31 138.5q0 134 48 238t134 162t197 58q89 0 154 -34t83 -89l-94 -72q-18 39 -55 59.5t-89 20.5q-67 0 -120 -43t-83 -119.5t-30 -174.5q0 -80 33.5 -121t98.5 -41q66 0 124 32l26 150h-151z
M429 917h73l106 -162h-106l-46 78l-73 -78h-117z" />
    <glyph glyph-name="gcircumflex" unicode="&#x11d;" horiz-adv-x="555" 
d="M550 500l-84 -480q-22 -127 -94.5 -191.5t-194.5 -64.5q-59 0 -111 14t-87 40l58 87q32 -18 71 -28.5t75 -10.5q133 0 163 171l2 13q-48 -53 -140 -53q-87 0 -136.5 50.5t-49.5 139.5q0 95 32 168.5t90 114t133 40.5q53 0 91 -19t54 -54h2l20 63h106zM387 319
q0 47 -23.5 71.5t-67.5 24.5q-43 0 -76 -28t-51.5 -76.5t-18.5 -110.5q0 -51 23.5 -77.5t69.5 -26.5q52 0 86 31.5t44 89.5l11 64q3 21 3 38zM311 717h73l106 -162h-106l-46 78l-73 -78h-117z" />
    <glyph glyph-name="Gbreve" unicode="&#x11e;" horiz-adv-x="653" 
d="M333 380h293l-66 -380h-109l-6 35q-64 -45 -150 -45q-78 0 -136 32t-89 91.5t-31 138.5q0 134 48 238t134 162t197 58q89 0 154 -34t83 -89l-94 -72q-18 39 -55 59.5t-89 20.5q-67 0 -120 -43t-83 -119.5t-30 -174.5q0 -80 33.5 -121t98.5 -41q66 0 124 32l26 150h-151z
M336.5 786.5q-38.5 31.5 -38.5 88.5q0 16 3 32h83q-1 -5 -1 -15q0 -27 17 -42t48 -15q36 0 59.5 19t30.5 53h88q-13 -74 -59.5 -113t-122.5 -39q-69 0 -107.5 31.5z" />
    <glyph glyph-name="gbreve" unicode="&#x11f;" horiz-adv-x="555" 
d="M550 500l-84 -480q-22 -127 -94.5 -191.5t-194.5 -64.5q-59 0 -111 14t-87 40l58 87q32 -18 71 -28.5t75 -10.5q133 0 163 171l2 13q-48 -53 -140 -53q-87 0 -136.5 50.5t-49.5 139.5q0 95 32 168.5t90 114t133 40.5q53 0 91 -19t54 -54h2l20 63h106zM387 319
q0 47 -23.5 71.5t-67.5 24.5q-43 0 -76 -28t-51.5 -76.5t-18.5 -110.5q0 -51 23.5 -77.5t69.5 -26.5q52 0 86 31.5t44 89.5l11 64q3 21 3 38zM218.5 586.5q-38.5 31.5 -38.5 88.5q0 16 3 32h83q-1 -5 -1 -15q0 -27 17 -42t48 -15q36 0 59.5 19t30.5 53h88
q-13 -74 -59.5 -113t-122.5 -39q-69 0 -107.5 31.5z" />
    <glyph glyph-name="Gdotaccent" unicode="&#x120;" horiz-adv-x="653" 
d="M333 380h293l-66 -380h-109l-6 35q-64 -45 -150 -45q-78 0 -136 32t-89 91.5t-31 138.5q0 134 48 238t134 162t197 58q89 0 154 -34t83 -89l-94 -72q-18 39 -55 59.5t-89 20.5q-67 0 -120 -43t-83 -119.5t-30 -174.5q0 -80 33.5 -121t98.5 -41q66 0 124 32l26 150h-151z
M396 770q-16 15 -16 39q0 34 22.5 56t57.5 22q25 0 40.5 -15t15.5 -39q0 -35 -22 -56.5t-57 -21.5q-25 0 -41 15z" />
    <glyph glyph-name="gdotaccent" unicode="&#x121;" horiz-adv-x="555" 
d="M550 500l-84 -480q-22 -127 -94.5 -191.5t-194.5 -64.5q-59 0 -111 14t-87 40l58 87q32 -18 71 -28.5t75 -10.5q133 0 163 171l2 13q-48 -53 -140 -53q-87 0 -136.5 50.5t-49.5 139.5q0 95 32 168.5t90 114t133 40.5q53 0 91 -19t54 -54h2l20 63h106zM387 319
q0 47 -23.5 71.5t-67.5 24.5q-43 0 -76 -28t-51.5 -76.5t-18.5 -110.5q0 -51 23.5 -77.5t69.5 -26.5q52 0 86 31.5t44 89.5l11 64q3 21 3 38zM278 570q-16 15 -16 39q0 34 22.5 56t57.5 22q25 0 40.5 -15t15.5 -39q0 -35 -22 -56.5t-57 -21.5q-25 0 -41 15z" />
    <glyph glyph-name="uni0122" unicode="&#x122;" horiz-adv-x="653" 
d="M333 380h293l-66 -380h-109l-6 35q-64 -45 -150 -45q-78 0 -136 32t-89 91.5t-31 138.5q0 134 48 238t134 162t197 58q89 0 154 -34t83 -89l-94 -72q-18 39 -55 59.5t-89 20.5q-67 0 -120 -43t-83 -119.5t-30 -174.5q0 -80 33.5 -121t98.5 -41q66 0 124 32l26 150h-151z
M333 -90q19 -18 19 -46q0 -41 -30 -89t-79 -84l-43 39q5 6 22.5 23.5t31.5 37.5q-23 2 -37.5 17t-14.5 37q0 37 23 60t60 23q29 0 48 -18z" />
    <glyph glyph-name="uni0123" unicode="&#x123;" horiz-adv-x="555" 
d="M550 500l-84 -480q-22 -127 -94.5 -191.5t-194.5 -64.5q-59 0 -111 14t-87 40l58 87q32 -18 71 -28.5t75 -10.5q133 0 163 171l2 13q-48 -53 -140 -53q-87 0 -136.5 50.5t-49.5 139.5q0 95 32 168.5t90 114t133 40.5q53 0 91 -19t54 -54h2l20 63h106zM387 319
q0 47 -23.5 71.5t-67.5 24.5q-43 0 -76 -28t-51.5 -76.5t-18.5 -110.5q0 -51 23.5 -77.5t69.5 -26.5q52 0 86 31.5t44 89.5l11 64q3 21 3 38zM395.5 674.5q14.5 -14.5 14.5 -36.5q0 -37 -23.5 -60t-60.5 -23q-29 0 -47.5 18t-18.5 46q0 41 30 89t78 84l43 -39
q-37 -37 -54 -61q24 -3 38.5 -17.5z" />
    <glyph glyph-name="Hcircumflex" unicode="&#x124;" horiz-adv-x="692" 
d="M147 700h144l-50 -286h268l51 286h143l-123 -700h-143l53 299h-269l-53 -299h-144zM428 917h73l106 -162h-106l-46 78l-73 -78h-117z" />
    <glyph glyph-name="hcircumflex" unicode="&#x125;" horiz-adv-x="567" 
d="M135 742h128l-53 -301q26 32 69 50.5t92 18.5q75 0 118.5 -43.5t43.5 -117.5q0 -21 -5 -49l-53 -300h-128l51 291q4 26 4 37q0 41 -20 64t-57 23q-55 0 -94 -38.5t-51 -104.5l-48 -272h-128zM310 959h73l106 -162h-106l-46 78l-73 -78h-117z" />
    <glyph glyph-name="Hbar" unicode="&#x126;" horiz-adv-x="709" 
d="M736 496h-60l-87 -496h-144l53 299h-269l-53 -299h-143l87 496h-60l16 90h60l20 114h143l-20 -114h269l20 114h144l-20 -114h60zM532 496h-269l-14 -82h269z" />
    <glyph glyph-name="hbar" unicode="&#x127;" horiz-adv-x="567" 
d="M489.5 466.5q43.5 -43.5 43.5 -117.5q0 -21 -5 -49l-53 -300h-128l51 291q4 26 4 37q0 41 -20 64t-57 23q-55 0 -94 -38.5t-51 -104.5l-48 -272h-128l103 584h-59l15 87h59l13 71h128l-13 -71h132l-15 -87h-132l-25 -143q26 32 69 50.5t92 18.5q75 0 118.5 -43.5z" />
    <glyph glyph-name="Itilde" unicode="&#x128;" horiz-adv-x="323" 
d="M169 700h143l-123 -700h-143zM125.5 848q35.5 33 80.5 33q20 0 36 -7t37 -21q14 -9 23.5 -14t18.5 -5q27 0 36 51h80q-9 -65 -43 -97.5t-82 -32.5q-20 0 -37.5 7.5t-39.5 21.5q-27 18 -39 18q-11 0 -21 -13t-14 -34h-80q9 60 44.5 93z" />
    <glyph glyph-name="itilde" unicode="&#x129;" horiz-adv-x="279" 
d="M121 500h126l-88 -500h-126zM68.5 648q35.5 33 80.5 33q20 0 36 -7t37 -21q14 -9 23.5 -14t18.5 -5q27 0 36 51h80q-9 -65 -43 -97.5t-82 -32.5q-20 0 -37.5 7.5t-39.5 21.5q-27 18 -39 18q-11 0 -21 -13t-14 -34h-80q9 60 44.5 93z" />
    <glyph glyph-name="Imacron" unicode="&#x12a;" horiz-adv-x="323" 
d="M169 700h143l-123 -700h-143zM97 855h342l-14 -83h-343z" />
    <glyph glyph-name="imacron" unicode="&#x12b;" horiz-adv-x="279" 
d="M121 500h126l-88 -500h-126zM40 655h342l-14 -83h-343z" />
    <glyph glyph-name="Ibreve" unicode="&#x12c;" horiz-adv-x="323" 
d="M169 700h143l-123 -700h-143zM150.5 786.5q-38.5 31.5 -38.5 88.5q0 16 3 32h83q-1 -5 -1 -15q0 -27 17 -42t48 -15q36 0 59.5 19t30.5 53h88q-13 -74 -59.5 -113t-122.5 -39q-69 0 -107.5 31.5z" />
    <glyph glyph-name="ibreve" unicode="&#x12d;" horiz-adv-x="279" 
d="M121 500h126l-88 -500h-126zM93.5 586.5q-38.5 31.5 -38.5 88.5q0 16 3 32h83q-1 -5 -1 -15q0 -27 17 -42t48 -15q36 0 59.5 19t30.5 53h88q-13 -74 -59.5 -113t-122.5 -39q-69 0 -107.5 31.5z" />
    <glyph glyph-name="Iogonek" unicode="&#x12e;" horiz-adv-x="323" 
d="M90.5 -63.5q-28.5 -31.5 -28.5 -56.5q0 -14 11.5 -22t31.5 -8t64 16l8 -60q-22 -19 -52.5 -29.5t-61.5 -10.5q-47 0 -72 20.5t-25 58.5q0 48 30 87t89 68h-39l123 700h143l-123 -700h-17q-53 -32 -81.5 -63.5z" />
    <glyph glyph-name="iogonek" unicode="&#x12f;" horiz-adv-x="273" 
d="M267.5 691q19.5 -17 19.5 -43q0 -40 -27 -65t-69 -25q-31 0 -51 17t-20 43q0 40 27 65t70 25q31 0 50.5 -17zM117 500h127l-88 -500h-15q-53 -32 -81.5 -63.5t-28.5 -56.5q0 -14 11.5 -22t31.5 -8t64 16l8 -60q-22 -19 -52.5 -29.5t-61.5 -10.5q-47 0 -72 20.5t-25 58.5
q0 98 119 155h-25z" />
    <glyph glyph-name="Idotaccent" unicode="&#x130;" horiz-adv-x="323" 
d="M169 700h143l-123 -700h-143zM210 770q-16 15 -16 39q0 34 22.5 56t57.5 22q25 0 40.5 -15t15.5 -39q0 -35 -22 -56.5t-57 -21.5q-25 0 -41 15z" />
    <glyph glyph-name="dotlessi" unicode="&#x131;" horiz-adv-x="279" 
d="M121 500h126l-88 -500h-126z" />
    <glyph glyph-name="IJ" unicode="&#x132;" horiz-adv-x="815" 
d="M169 700h143l-123 -700h-143zM375 10.5q-50 20.5 -79 56.5l73 92q22 -25 53.5 -39.5t64.5 -14.5q49 0 76 32t40 104l80 459h144l-84 -475q-21 -121 -84 -178t-176 -57q-58 0 -108 20.5z" />
    <glyph glyph-name="ij" unicode="&#x133;" horiz-adv-x="551" 
d="M140 575q-20 17 -20 43q0 40 27 65t70 25q31 0 50.5 -17t19.5 -43q0 -40 -27 -65t-69 -25q-31 0 -51 17zM117 500h127l-88 -500h-127zM427 575q-20 17 -20 44q0 39 27.5 64t70.5 25q31 0 50.5 -17t19.5 -44q0 -40 -27 -64.5t-70 -24.5q-31 0 -51 17zM177 -201.5
q-28 3.5 -47 8.5l22 89q30 -3 64 -3q43 0 67 19.5t31 61.5l93 526h128l-93 -524q-16 -92 -68 -136.5t-144 -44.5q-25 0 -53 3.5z" />
    <glyph glyph-name="Jcircumflex" unicode="&#x134;" horiz-adv-x="492" 
d="M52 10.5q-50 20.5 -79 56.5l73 92q22 -25 53.5 -39.5t64.5 -14.5q49 0 76 32t40 104l80 459h144l-84 -475q-21 -121 -84 -178t-176 -57q-58 0 -108 20.5zM348 917h73l106 -162h-106l-46 78l-73 -78h-117z" />
    <glyph glyph-name="jcircumflex" unicode="&#x135;" horiz-adv-x="277" 
d="M-143 -193l22 89q27 -3 63 -3q73 0 86 81l93 526h127l-93 -524q-16 -88 -65 -134.5t-139 -46.5q-54 0 -94 12zM188 717h73l106 -162h-106l-46 78l-73 -78h-117z" />
    <glyph glyph-name="uni0136" unicode="&#x136;" horiz-adv-x="656" 
d="M419 423l174 -423h-152l-130 313l-107 -108l-36 -205h-144l124 700h144l-54 -304l285 304h169zM322 -90q19 -18 19 -46q0 -41 -30 -89t-79 -84l-43 39q5 6 22.5 23.5t31.5 37.5q-23 2 -37.5 17t-14.5 37q0 37 23 60t60 23q29 0 48 -18z" />
    <glyph glyph-name="uni0137" unicode="&#x137;" horiz-adv-x="533" 
d="M339 319l147 -319h-140l-107 236l-74 -62l-31 -174h-128l131 742h128l-75 -412l205 170h160zM256 -90q19 -18 19 -46q0 -41 -30 -89t-79 -84l-43 39q5 6 22.5 23.5t31.5 37.5q-23 2 -37.5 17t-14.5 37q0 37 23 60t60 23q29 0 48 -18z" />
    <glyph glyph-name="kgreenlandic" unicode="&#x138;" horiz-adv-x="533" 
d="M345 308l141 -308h-144l-97 215l-88 -80l-23 -135h-128l88 500h128l-37 -210l214 210h156z" />
    <glyph glyph-name="Lacute" unicode="&#x139;" horiz-adv-x="565" 
d="M147 700h144l-103 -585h330l-20 -115h-474zM293 917h124l-136 -162h-102z" />
    <glyph glyph-name="lacute" unicode="&#x13a;" horiz-adv-x="301" 
d="M59 15.5q-28 25.5 -28 73.5q0 16 3 34l110 619h127l-110 -620q-1 -4 -1 -12q0 -31 40 -31q22 0 59 13l7 -68q-51 -34 -124 -34q-55 0 -83 25.5zM281 959h124l-136 -162h-102z" />
    <glyph glyph-name="uni013B" unicode="&#x13b;" horiz-adv-x="565" 
d="M147 700h144l-103 -585h330l-20 -115h-474zM289 -90q19 -18 19 -46q0 -41 -30 -89t-79 -84l-43 39q5 6 22.5 23.5t31.5 37.5q-23 2 -37.5 17t-14.5 37q0 37 23 60t60 23q29 0 48 -18z" />
    <glyph glyph-name="uni013C" unicode="&#x13c;" horiz-adv-x="301" 
d="M59 15.5q-28 25.5 -28 73.5q0 16 3 34l110 619h127l-110 -620q-1 -4 -1 -12q0 -31 40 -31q22 0 59 13l7 -68q-51 -34 -124 -34q-55 0 -83 25.5zM174 -90q19 -18 19 -46q0 -41 -30 -89t-79 -84l-43 39q5 6 22.5 23.5t31.5 37.5q-23 2 -37.5 17t-14.5 37q0 37 23 60t60 23
q29 0 48 -18z" />
    <glyph glyph-name="Lcaron" unicode="&#x13d;" horiz-adv-x="565" 
d="M147 700h144l-103 -585h330l-20 -115h-474zM574 692.5q19 -17.5 19 -45.5q0 -41 -30.5 -89.5t-78.5 -83.5l-43 38q5 6 22.5 23.5t31.5 37.5q-23 3 -37.5 18t-14.5 37q0 37 23 59.5t60 22.5q29 0 48 -17.5z" />
    <glyph glyph-name="lcaron" unicode="&#x13e;" horiz-adv-x="388" 
d="M59 15.5q-28 25.5 -28 73.5q0 16 3 34l110 619h127l-110 -620q-1 -4 -1 -12q0 -31 40 -31q22 0 59 13l7 -68q-51 -34 -124 -34q-55 0 -83 25.5zM460 726.5q19 -17.5 19 -45.5q0 -41 -30.5 -89.5t-78.5 -83.5l-43 38q5 6 22.5 23.5t31.5 37.5q-23 3 -37.5 18t-14.5 37
q0 37 23 59.5t60 22.5q29 0 48 -17.5z" />
    <glyph glyph-name="Ldot" unicode="&#x13f;" horiz-adv-x="565" 
d="M147 700h144l-103 -585h330l-20 -115h-474zM315 280q-20 19 -20 49q0 45 28.5 74t72.5 29q31 0 51 -19t20 -49q0 -45 -28 -74t-73 -29q-31 0 -51 19z" />
    <glyph glyph-name="ldot" unicode="&#x140;" horiz-adv-x="410" 
d="M59 15.5q-28 25.5 -28 73.5q0 16 3 34l110 619h127l-110 -620q-1 -4 -1 -12q0 -31 40 -31q22 0 59 13l7 -68q-51 -34 -124 -34q-55 0 -83 25.5zM254 271q-20 19 -20 49q0 45 28.5 74t72.5 29q31 0 51 -19t20 -49q0 -45 -28 -74t-73 -29q-31 0 -51 19z" />
    <glyph glyph-name="Lslash" unicode="&#x141;" horiz-adv-x="565" 
d="M518 115l-20 -115h-474l45 256l-70 -27l20 112l70 27l58 332h144l-48 -271l167 65l-21 -116l-166 -63l-35 -200h330z" />
    <glyph glyph-name="lslash" unicode="&#x142;" horiz-adv-x="326" 
d="M170 122q-1 -4 -1 -12q0 -31 40 -31q22 0 59 13l7 -68q-51 -34 -124 -34q-55 0 -83 25.5t-28 73.5q0 16 3 34l32 179l-51 -20l17 93l50 20l62 347h127l-52 -294l100 39l-16 -91l-100 -40z" />
    <glyph glyph-name="Nacute" unicode="&#x143;" horiz-adv-x="699" 
d="M710 700l-123 -700h-133l-205 465l-82 -465h-143l123 700h139l200 -457l81 457h143zM501 917h124l-136 -162h-102z" />
    <glyph glyph-name="nacute" unicode="&#x144;" horiz-adv-x="563" 
d="M69 368l4 25q13 79 14 107h120q-2 -43 -10 -87h2q27 46 73 71.5t104 25.5q73 0 110 -40.5t37 -117.5q0 -35 -7 -71l-50 -281h-127l50 282q4 21 4 44q0 81 -74 81q-53 0 -91.5 -36.5t-48.5 -97.5l-48 -273h-128zM396 717h124l-136 -162h-102z" />
    <glyph glyph-name="uni0145" unicode="&#x145;" horiz-adv-x="699" 
d="M710 700l-123 -700h-133l-205 465l-82 -465h-143l123 700h139l200 -457l81 457h143zM339 -90q19 -18 19 -46q0 -41 -30 -89t-79 -84l-43 39q5 6 22.5 23.5t31.5 37.5q-23 2 -37.5 17t-14.5 37q0 37 23 60t60 23q29 0 48 -18z" />
    <glyph glyph-name="uni0146" unicode="&#x146;" horiz-adv-x="563" 
d="M69 368l4 25q13 79 14 107h120q-2 -43 -10 -87h2q27 46 73 71.5t104 25.5q73 0 110 -40.5t37 -117.5q0 -35 -7 -71l-50 -281h-127l50 282q4 21 4 44q0 81 -74 81q-53 0 -91.5 -36.5t-48.5 -97.5l-48 -273h-128zM269 -90q19 -18 19 -46q0 -41 -30 -89t-79 -84l-43 39
q5 6 22.5 23.5t31.5 37.5q-23 2 -37.5 17t-14.5 37q0 37 23 60t60 23q29 0 48 -18z" />
    <glyph glyph-name="Ncaron" unicode="&#x147;" horiz-adv-x="699" 
d="M710 700l-123 -700h-133l-205 465l-82 -465h-143l123 700h139l200 -457l81 457h143zM296 917h108l45 -78l74 78h115l-163 -162h-73z" />
    <glyph glyph-name="ncaron" unicode="&#x148;" horiz-adv-x="563" 
d="M69 368l4 25q13 79 14 107h120q-2 -43 -10 -87h2q27 46 73 71.5t104 25.5q73 0 110 -40.5t37 -117.5q0 -35 -7 -71l-50 -281h-127l50 282q4 21 4 44q0 81 -74 81q-53 0 -91.5 -36.5t-48.5 -97.5l-48 -273h-128zM191 717h108l45 -78l74 78h115l-163 -162h-73z" />
    <glyph glyph-name="napostrophe" unicode="&#x149;" horiz-adv-x="683" 
d="M211 692.5q19 -17.5 19 -45.5q0 -41 -30.5 -89.5t-78.5 -83.5l-43 38q5 6 22.5 23.5t31.5 37.5q-23 3 -37.5 18t-14.5 37q0 37 23 59.5t60 22.5q29 0 48 -17.5zM189 368l4 25q13 79 14 107h120q-2 -43 -10 -87h2q27 46 73 71.5t104 25.5q73 0 110 -40.5t37 -117.5
q0 -35 -7 -71l-50 -281h-127l50 282q4 21 4 44q0 81 -74 81q-53 0 -91.5 -36.5t-48.5 -97.5l-48 -273h-128z" />
    <glyph glyph-name="Eng" unicode="&#x14a;" horiz-adv-x="699" 
d="M147 700h139l200 -458l81 458h143l-134 -765q-17 -101 -78.5 -154t-160.5 -53q-46 0 -83 13t-61 37l61 89q47 -36 89 -36q72 0 91 105l14 79l-199 451l-82 -466h-143z" />
    <glyph glyph-name="eng" unicode="&#x14b;" horiz-adv-x="564" 
d="M69 368l4 25q13 79 14 107h120q-2 -43 -10 -87h2q27 46 73 71.5t104 25.5q73 0 110 -40.5t37 -117.5q0 -35 -7 -71l-53 -306q-31 -180 -206 -180q-53 0 -94 12l22 89q32 -3 63 -3q36 0 56.5 20t28.5 61l56 308q4 21 4 44q0 81 -74 81q-53 0 -91.5 -36.5t-48.5 -97.5
l-48 -273h-128z" />
    <glyph glyph-name="Omacron" unicode="&#x14c;" horiz-adv-x="690" 
d="M170 24.5q-62 34.5 -96 96.5t-34 143q0 129 47.5 230.5t132.5 158.5t193 57q81 0 143 -34.5t96 -96.5t34 -143q0 -129 -47.5 -230.5t-132.5 -158.5t-193 -57q-81 0 -143 34.5zM435.5 145q49.5 41 77.5 114.5t28 166.5q0 76 -38 123t-99 47q-63 0 -112.5 -41t-77.5 -114
t-28 -166q0 -76 38 -123.5t99 -47.5q63 0 112.5 41zM270 855h342l-14 -83h-343z" />
    <glyph glyph-name="omacron" unicode="&#x14d;" horiz-adv-x="579" 
d="M86.5 45q-60.5 55 -60.5 149q0 93 38 165t106.5 111.5t158.5 39.5q103 0 163.5 -55t60.5 -149q0 -93 -38 -165t-107 -111.5t-158 -39.5q-103 0 -163.5 55zM345 112q37 27 58 75t21 108q0 56 -28.5 88t-79.5 32q-46 0 -83 -27t-58 -75t-21 -108q0 -56 29 -88t79 -32
q46 0 83 27zM189 655h342l-14 -83h-343z" />
    <glyph glyph-name="Obreve" unicode="&#x14e;" horiz-adv-x="690" 
d="M170 24.5q-62 34.5 -96 96.5t-34 143q0 129 47.5 230.5t132.5 158.5t193 57q81 0 143 -34.5t96 -96.5t34 -143q0 -129 -47.5 -230.5t-132.5 -158.5t-193 -57q-81 0 -143 34.5zM435.5 145q49.5 41 77.5 114.5t28 166.5q0 76 -38 123t-99 47q-63 0 -112.5 -41t-77.5 -114
t-28 -166q0 -76 38 -123.5t99 -47.5q63 0 112.5 41zM323.5 786.5q-38.5 31.5 -38.5 88.5q0 16 3 32h83q-1 -5 -1 -15q0 -27 17 -42t48 -15q36 0 59.5 19t30.5 53h88q-13 -74 -59.5 -113t-122.5 -39q-69 0 -107.5 31.5z" />
    <glyph glyph-name="obreve" unicode="&#x14f;" horiz-adv-x="579" 
d="M86.5 45q-60.5 55 -60.5 149q0 93 38 165t106.5 111.5t158.5 39.5q103 0 163.5 -55t60.5 -149q0 -93 -38 -165t-107 -111.5t-158 -39.5q-103 0 -163.5 55zM345 112q37 27 58 75t21 108q0 56 -28.5 88t-79.5 32q-46 0 -83 -27t-58 -75t-21 -108q0 -56 29 -88t79 -32
q46 0 83 27zM242.5 586.5q-38.5 31.5 -38.5 88.5q0 16 3 32h83q-1 -5 -1 -15q0 -27 17 -42t48 -15q36 0 59.5 19t30.5 53h88q-13 -74 -59.5 -113t-122.5 -39q-69 0 -107.5 31.5z" />
    <glyph glyph-name="Ohungarumlaut" unicode="&#x150;" horiz-adv-x="690" 
d="M170 24.5q-62 34.5 -96 96.5t-34 143q0 129 47.5 230.5t132.5 158.5t193 57q81 0 143 -34.5t96 -96.5t34 -143q0 -129 -47.5 -230.5t-132.5 -158.5t-193 -57q-81 0 -143 34.5zM435.5 145q49.5 41 77.5 114.5t28 166.5q0 76 -38 123t-99 47q-63 0 -112.5 -41t-77.5 -114
t-28 -166q0 -76 38 -123.5t99 -47.5q63 0 112.5 41zM381 917h124l-136 -162h-102zM556 917h124l-136 -162h-102z" />
    <glyph glyph-name="ohungarumlaut" unicode="&#x151;" horiz-adv-x="579" 
d="M303 704h116l-127 -153h-96zM467 704h116l-127 -153h-96zM86.5 45q-60.5 55 -60.5 149q0 93 38 165t106.5 111.5t158.5 39.5q103 0 163.5 -55t60.5 -149q0 -93 -38 -165t-107 -111.5t-158 -39.5q-103 0 -163.5 55zM345 112q37 27 58 75t21 108q0 56 -28.5 88t-79.5 32
q-46 0 -83 -27t-58 -75t-21 -108q0 -56 29 -88t79 -32q46 0 83 27z" />
    <glyph glyph-name="OE" unicode="&#x152;" horiz-adv-x="887" 
d="M640 585l-29 -165h236l-18 -104h-236l-35 -201h268l-21 -115h-411l6 34q-66 -43 -142 -43q-105 0 -162.5 65t-57.5 184q0 136 42.5 243t118.5 166.5t173 59.5q82 0 139 -48l7 39h411l-21 -115h-268zM383 164q47 60 68 156l8 49q6 41 6 85q0 70 -25 106t-74 36
q-51 0 -93.5 -47.5t-67 -129t-24.5 -179.5q0 -68 24.5 -102t74.5 -34q56 0 103 60z" />
    <glyph glyph-name="oe" unicode="&#x153;" horiz-adv-x="866" 
d="M791.5 461.5q50.5 -48.5 50.5 -138.5q0 -30 -6 -65l-7 -44h-336v-15q0 -102 98 -102q41 0 74 15t71 50l57 -66q-36 -49 -95.5 -77.5t-126.5 -28.5q-52 0 -94.5 19.5t-69.5 55.5q-70 -75 -180 -75q-96 0 -149 50.5t-53 141.5q0 100 34 174t97.5 114t149.5 40
q115 0 160 -70q37 34 84 52t99 18q92 0 142.5 -48.5zM320.5 129q35.5 44 48.5 115l3 19q3 26 3 51q0 101 -80 101q-40 0 -73 -29.5t-51.5 -80.5t-18.5 -115q0 -51 22 -78t64 -27q47 0 82.5 44zM725 304q0 102 -90 102q-41 0 -74.5 -29t-50.5 -78h215v5z" />
    <glyph glyph-name="Racute" unicode="&#x154;" horiz-adv-x="596" 
d="M147 700h238q105 0 161 -43t56 -123q0 -165 -151 -218v-2q16 -13 24 -25.5t12 -29.5l58 -259h-153l-42 213q-7 32 -24 42.5t-64 10.5h-47l-47 -266h-144zM323 380q61 0 97.5 36.5t36.5 95.5q0 73 -100 73h-86l-36 -205h88zM451 917h124l-136 -162h-102z" />
    <glyph glyph-name="racute" unicode="&#x155;" horiz-adv-x="397" 
d="M77 378q15 87 18 122h121q-1 -45 -11 -88l-2 -10h4q28 50 80.5 79t115.5 29q12 0 29 -3l-17 -101q-4 2 -24 2q-48 0 -94 -26t-78.5 -69.5t-41.5 -93.5l-39 -219h-128zM316 717h124l-136 -162h-102z" />
    <glyph glyph-name="uni0156" unicode="&#x156;" horiz-adv-x="596" 
d="M147 700h238q105 0 161 -43t56 -123q0 -165 -151 -218v-2q16 -13 24 -25.5t12 -29.5l58 -259h-153l-42 213q-7 32 -24 42.5t-64 10.5h-47l-47 -266h-144zM323 380q61 0 97.5 36.5t36.5 95.5q0 73 -100 73h-86l-36 -205h88zM289 -90q19 -18 19 -46q0 -41 -30 -89t-79 -84
l-43 39q5 6 22.5 23.5t31.5 37.5q-23 2 -37.5 17t-14.5 37q0 37 23 60t60 23q29 0 48 -18z" />
    <glyph glyph-name="uni0157" unicode="&#x157;" horiz-adv-x="397" 
d="M77 378q15 87 18 122h121q-1 -45 -11 -88l-2 -10h4q28 50 80.5 79t115.5 29q12 0 29 -3l-17 -101q-4 2 -24 2q-48 0 -94 -26t-78.5 -69.5t-41.5 -93.5l-39 -219h-128zM111 -90q19 -18 19 -46q0 -41 -30 -89t-79 -84l-43 39q5 6 22.5 23.5t31.5 37.5q-23 2 -37.5 17
t-14.5 37q0 37 23 60t60 23q29 0 48 -18z" />
    <glyph glyph-name="Rcaron" unicode="&#x158;" horiz-adv-x="596" 
d="M147 700h238q105 0 161 -43t56 -123q0 -165 -151 -218v-2q16 -13 24 -25.5t12 -29.5l58 -259h-153l-42 213q-7 32 -24 42.5t-64 10.5h-47l-47 -266h-144zM323 380q61 0 97.5 36.5t36.5 95.5q0 73 -100 73h-86l-36 -205h88zM245 917h108l45 -78l74 78h115l-163 -162h-73z
" />
    <glyph glyph-name="rcaron" unicode="&#x159;" horiz-adv-x="397" 
d="M77 378q15 87 18 122h121q-1 -45 -11 -88l-2 -10h4q28 50 80.5 79t115.5 29q12 0 29 -3l-17 -101q-4 2 -24 2q-48 0 -94 -26t-78.5 -69.5t-41.5 -93.5l-39 -219h-128zM110 717h108l45 -78l74 78h115l-163 -162h-73z" />
    <glyph glyph-name="Sacute" unicode="&#x15a;" horiz-adv-x="549" 
d="M96 23q-62 33 -93 91l98 80q25 -40 66 -64.5t83 -24.5q55 0 87.5 25t32.5 67q0 25 -22.5 47t-83.5 55q-87 47 -126.5 95.5t-39.5 106.5q0 62 32.5 109.5t92 73.5t137.5 26q73 0 128.5 -29.5t79.5 -79.5l-103 -68q-39 62 -112 62q-50 0 -79.5 -21.5t-29.5 -57.5
q0 -24 28.5 -47.5t105.5 -62.5q72 -37 105 -81.5t33 -104.5q0 -107 -74.5 -168.5t-204.5 -61.5q-79 0 -141 33zM429 917h124l-136 -162h-102z" />
    <glyph glyph-name="sacute" unicode="&#x15b;" horiz-adv-x="441" 
d="M60.5 16.5q-49.5 26.5 -62.5 68.5l90 55q13 -25 38 -40t55 -15q40 0 64.5 16.5t24.5 44.5q0 19 -17 34.5t-56 31.5q-72 30 -105.5 65t-33.5 79q0 71 54 112.5t147 41.5q59 0 104.5 -22t64.5 -61l-83 -55q-28 43 -88 43q-33 0 -52 -13t-19 -35q0 -16 17 -28t70 -34
q66 -28 96.5 -60.5t30.5 -73.5q0 -53 -28.5 -94.5t-79.5 -64t-117 -22.5q-65 0 -114.5 26.5zM339 717h124l-136 -162h-102z" />
    <glyph glyph-name="Scircumflex" unicode="&#x15c;" horiz-adv-x="549" 
d="M96 23q-62 33 -93 91l98 80q25 -40 66 -64.5t83 -24.5q55 0 87.5 25t32.5 67q0 25 -22.5 47t-83.5 55q-87 47 -126.5 95.5t-39.5 106.5q0 62 32.5 109.5t92 73.5t137.5 26q73 0 128.5 -29.5t79.5 -79.5l-103 -68q-39 62 -112 62q-50 0 -79.5 -21.5t-29.5 -57.5
q0 -24 28.5 -47.5t105.5 -62.5q72 -37 105 -81.5t33 -104.5q0 -107 -74.5 -168.5t-204.5 -61.5q-79 0 -141 33zM358 917h73l106 -162h-106l-46 78l-73 -78h-117z" />
    <glyph glyph-name="scircumflex" unicode="&#x15d;" horiz-adv-x="441" 
d="M60.5 16.5q-49.5 26.5 -62.5 68.5l90 55q13 -25 38 -40t55 -15q40 0 64.5 16.5t24.5 44.5q0 19 -17 34.5t-56 31.5q-72 30 -105.5 65t-33.5 79q0 71 54 112.5t147 41.5q59 0 104.5 -22t64.5 -61l-83 -55q-28 43 -88 43q-33 0 -52 -13t-19 -35q0 -16 17 -28t70 -34
q66 -28 96.5 -60.5t30.5 -73.5q0 -53 -28.5 -94.5t-79.5 -64t-117 -22.5q-65 0 -114.5 26.5zM268 717h73l106 -162h-106l-46 78l-73 -78h-117z" />
    <glyph glyph-name="Scedilla" unicode="&#x15e;" horiz-adv-x="549" 
d="M483 324.5q33 -44.5 33 -104.5q0 -100 -65 -160.5t-180 -68.5l-43 -57q37 0 59 -18t22 -47q0 -47 -39 -79t-97 -32q-25 0 -50.5 6t-39.5 15l23 55q28 -12 64 -12q21 0 34.5 10.5t13.5 26.5q0 14 -16.5 20.5t-44.5 5.5l-23 33l55 75q-63 9 -111.5 40.5t-74.5 80.5l98 80
q25 -40 66 -64.5t83 -24.5q55 0 87.5 25t32.5 67q0 25 -22.5 47t-83.5 55q-87 47 -126.5 95.5t-39.5 106.5q0 62 32.5 109.5t92 73.5t137.5 26q73 0 128.5 -29.5t79.5 -79.5l-103 -68q-39 62 -112 62q-50 0 -79.5 -21.5t-29.5 -57.5q0 -24 28.5 -47.5t105.5 -62.5
q72 -37 105 -81.5z" />
    <glyph glyph-name="scedilla" unicode="&#x15f;" horiz-adv-x="441" 
d="M369.5 244.5q30.5 -32.5 30.5 -73.5q0 -72 -49.5 -120t-133.5 -59l-44 -58q37 0 59 -18t22 -47q0 -47 -39 -79t-97 -32q-25 0 -51 6t-40 15l24 55q28 -12 64 -12q21 0 34.5 10.5t13.5 26.5q0 13 -16.5 20.5t-44.5 5.5l-24 33l56 75q-52 8 -89 32.5t-47 59.5l90 55
q13 -25 38 -40t55 -15q40 0 64.5 16.5t24.5 44.5q0 19 -17 34.5t-56 31.5q-72 30 -105.5 65t-33.5 79q0 71 54 112.5t147 41.5q59 0 104.5 -22t64.5 -61l-83 -55q-28 43 -88 43q-33 0 -52 -13t-19 -35q0 -16 17 -28t70 -34q66 -28 96.5 -60.5z" />
    <glyph glyph-name="Scaron" unicode="&#x160;" horiz-adv-x="549" 
d="M96 23q-62 33 -93 91l98 80q25 -40 66 -64.5t83 -24.5q55 0 87.5 25t32.5 67q0 25 -22.5 47t-83.5 55q-87 47 -126.5 95.5t-39.5 106.5q0 62 32.5 109.5t92 73.5t137.5 26q73 0 128.5 -29.5t79.5 -79.5l-103 -68q-39 62 -112 62q-50 0 -79.5 -21.5t-29.5 -57.5
q0 -24 28.5 -47.5t105.5 -62.5q72 -37 105 -81.5t33 -104.5q0 -107 -74.5 -168.5t-204.5 -61.5q-79 0 -141 33zM223 917h108l45 -78l74 78h115l-163 -162h-73z" />
    <glyph glyph-name="scaron" unicode="&#x161;" horiz-adv-x="441" 
d="M60.5 16.5q-49.5 26.5 -62.5 68.5l90 55q13 -25 38 -40t55 -15q40 0 64.5 16.5t24.5 44.5q0 19 -17 34.5t-56 31.5q-72 30 -105.5 65t-33.5 79q0 71 54 112.5t147 41.5q59 0 104.5 -22t64.5 -61l-83 -55q-28 43 -88 43q-33 0 -52 -13t-19 -35q0 -16 17 -28t70 -34
q66 -28 96.5 -60.5t30.5 -73.5q0 -53 -28.5 -94.5t-79.5 -64t-117 -22.5q-65 0 -114.5 26.5zM133 717h108l45 -78l74 78h115l-163 -162h-73z" />
    <glyph glyph-name="uni0162" unicode="&#x162;" horiz-adv-x="590" 
d="M655 700l-19 -106h-208l-105 -594h-28l-49 -66q37 0 59 -18t22 -47q0 -47 -39 -79t-97 -32q-25 0 -51 6t-40 15l24 55q28 -12 64 -12q21 0 34.5 10.5t13.5 26.5q0 13 -16.5 20.5t-44.5 5.5l-24 33l61 82h-33l105 594h-208l19 106h560z" />
    <glyph glyph-name="uni0163" unicode="&#x163;" horiz-adv-x="420" 
d="M217 169q-2 -18 -2 -24q0 -59 68 -59q39 0 75 12l-9 -87q-40 -17 -95 -20l-42 -57q37 0 59.5 -18t22.5 -47q0 -47 -39.5 -79t-97.5 -32q-25 0 -50.5 6t-39.5 15l23 55q28 -12 64 -12q21 0 35 10.5t14 26.5q0 13 -16.5 20.5t-45.5 5.5l-23 33l57 78q-44 11 -68 40.5
t-24 76.5q0 17 3 36l45 256h-91l17 95h91l22 129l130 36h4l-28 -165h145l-17 -95h-145z" />
    <glyph glyph-name="Tcaron" unicode="&#x164;" horiz-adv-x="590" 
d="M284 594h-208l19 106h560l-19 -106h-208l-105 -594h-144zM242 917h108l45 -78l74 78h115l-163 -162h-73z" />
    <glyph glyph-name="tcaron" unicode="&#x165;" horiz-adv-x="540" 
d="M120.5 22q-37.5 32 -37.5 91q0 17 3 36l45 256h-91l17 95h91l22 129l130 36h4l-28 -165h145l-17 -95h-145l-42 -236q-2 -18 -2 -24q0 -59 68 -59q39 0 75 12l-9 -87q-48 -21 -123 -21q-68 0 -105.5 32zM587 731.5q19 -17.5 19 -45.5q0 -41 -30.5 -89.5t-78.5 -83.5
l-43 38q5 6 22.5 23.5t31.5 37.5q-23 3 -37.5 18t-14.5 37q0 37 23 59.5t60 22.5q29 0 48 -17.5z" />
    <glyph glyph-name="Tbar" unicode="&#x166;" horiz-adv-x="590" 
d="M428 594l-37 -209h151l-17 -96h-151l-51 -289h-144l51 289h-150l17 96h150l37 209h-208l19 106h560l-19 -106h-208z" />
    <glyph glyph-name="tbar" unicode="&#x167;" horiz-adv-x="420" 
d="M259 405l-18 -99h104l-15 -82h-103l-10 -55q-2 -18 -2 -24q0 -59 68 -59q39 0 75 12l-9 -87q-48 -21 -123 -21q-68 0 -105.5 32t-37.5 91q0 17 3 36l13 75h-75l15 82h75l17 99h-91l17 95h91l22 129l130 36h4l-28 -165h145l-17 -95h-145z" />
    <glyph glyph-name="Utilde" unicode="&#x168;" horiz-adv-x="662" 
d="M117.5 43.5q-60.5 53.5 -60.5 156.5q0 37 7 73l75 427h144l-75 -425q-6 -31 -6 -58q0 -112 104 -112q63 0 102.5 43t54.5 127l75 425h144l-75 -427q-50 -283 -314 -283q-115 0 -175.5 53.5zM294.5 848q35.5 33 80.5 33q20 0 36 -7t37 -21q14 -9 23.5 -14t18.5 -5
q27 0 36 51h80q-9 -65 -43 -97.5t-82 -32.5q-20 0 -37.5 7.5t-39.5 21.5q-27 18 -39 18q-11 0 -21 -13t-14 -34h-80q9 60 44.5 93z" />
    <glyph glyph-name="utilde" unicode="&#x169;" horiz-adv-x="561" 
d="M73 29.5q-37 39.5 -37 116.5q0 35 7 71l49 283h128l-49 -283q-5 -30 -5 -48q0 -39 17 -57.5t52 -18.5q52 0 93.5 40t52.5 101l46 266h128l-65 -373q-8 -40 -15 -127h-121q1 48 7 88h-2q-27 -46 -74.5 -72t-103.5 -26q-71 0 -108 39.5zM216.5 648q35.5 33 80.5 33
q20 0 36 -7t37 -21q14 -9 23.5 -14t18.5 -5q27 0 36 51h80q-9 -65 -43 -97.5t-82 -32.5q-20 0 -37.5 7.5t-39.5 21.5q-27 18 -39 18q-11 0 -21 -13t-14 -34h-80q9 60 44.5 93z" />
    <glyph glyph-name="Umacron" unicode="&#x16a;" horiz-adv-x="662" 
d="M117.5 43.5q-60.5 53.5 -60.5 156.5q0 37 7 73l75 427h144l-75 -425q-6 -31 -6 -58q0 -112 104 -112q63 0 102.5 43t54.5 127l75 425h144l-75 -427q-50 -283 -314 -283q-115 0 -175.5 53.5zM266 855h342l-14 -83h-343z" />
    <glyph glyph-name="umacron" unicode="&#x16b;" horiz-adv-x="561" 
d="M73 29.5q-37 39.5 -37 116.5q0 35 7 71l49 283h128l-49 -283q-5 -30 -5 -48q0 -39 17 -57.5t52 -18.5q52 0 93.5 40t52.5 101l46 266h128l-65 -373q-8 -40 -15 -127h-121q1 48 7 88h-2q-27 -46 -74.5 -72t-103.5 -26q-71 0 -108 39.5zM188 655h342l-14 -83h-343z" />
    <glyph glyph-name="Ubreve" unicode="&#x16c;" horiz-adv-x="662" 
d="M117.5 43.5q-60.5 53.5 -60.5 156.5q0 37 7 73l75 427h144l-75 -425q-6 -31 -6 -58q0 -112 104 -112q63 0 102.5 43t54.5 127l75 425h144l-75 -427q-50 -283 -314 -283q-115 0 -175.5 53.5zM319.5 786.5q-38.5 31.5 -38.5 88.5q0 16 3 32h83q-1 -5 -1 -15q0 -27 17 -42
t48 -15q36 0 59.5 19t30.5 53h88q-13 -74 -59.5 -113t-122.5 -39q-69 0 -107.5 31.5z" />
    <glyph glyph-name="ubreve" unicode="&#x16d;" horiz-adv-x="561" 
d="M73 29.5q-37 39.5 -37 116.5q0 35 7 71l49 283h128l-49 -283q-5 -30 -5 -48q0 -39 17 -57.5t52 -18.5q52 0 93.5 40t52.5 101l46 266h128l-65 -373q-8 -40 -15 -127h-121q1 48 7 88h-2q-27 -46 -74.5 -72t-103.5 -26q-71 0 -108 39.5zM241.5 586.5q-38.5 31.5 -38.5 88.5
q0 16 3 32h83q-1 -5 -1 -15q0 -27 17 -42t48 -15q36 0 59.5 19t30.5 53h88q-13 -74 -59.5 -113t-122.5 -39q-69 0 -107.5 31.5z" />
    <glyph glyph-name="Uring" unicode="&#x16e;" horiz-adv-x="662" 
d="M117.5 43.5q-60.5 53.5 -60.5 156.5q0 37 7 73l75 427h144l-75 -425q-6 -31 -6 -58q0 -112 104 -112q63 0 102.5 43t54.5 127l75 425h144l-75 -427q-50 -283 -314 -283q-115 0 -175.5 53.5zM355 773.5q-25 22.5 -25 58.5q0 53 35 86t90 33q40 0 65 -22.5t25 -58.5
q0 -52 -35 -85.5t-90 -33.5q-40 0 -65 22.5zM471 817q17 17 17 45q0 18 -11.5 29t-30.5 11q-26 0 -42.5 -17t-16.5 -45q0 -18 11.5 -29t29.5 -11q26 0 43 17z" />
    <glyph glyph-name="uring" unicode="&#x16f;" horiz-adv-x="561" 
d="M73 29.5q-37 39.5 -37 116.5q0 35 7 71l49 283h128l-49 -283q-5 -30 -5 -48q0 -39 17 -57.5t52 -18.5q52 0 93.5 40t52.5 101l46 266h128l-65 -373q-8 -40 -15 -127h-121q1 48 7 88h-2q-27 -46 -74.5 -72t-103.5 -26q-71 0 -108 39.5zM277 573.5q-25 22.5 -25 58.5
q0 53 35 86t90 33q40 0 65 -22.5t25 -58.5q0 -52 -35 -85.5t-90 -33.5q-40 0 -65 22.5zM393 617q17 17 17 45q0 18 -11.5 29t-30.5 11q-26 0 -42.5 -17t-16.5 -45q0 -18 11.5 -29t29.5 -11q26 0 43 17z" />
    <glyph glyph-name="Uhungarumlaut" unicode="&#x170;" horiz-adv-x="662" 
d="M117.5 43.5q-60.5 53.5 -60.5 156.5q0 37 7 73l75 427h144l-75 -425q-6 -31 -6 -58q0 -112 104 -112q63 0 102.5 43t54.5 127l75 425h144l-75 -427q-50 -283 -314 -283q-115 0 -175.5 53.5zM377 917h124l-136 -162h-102zM552 917h124l-136 -162h-102z" />
    <glyph glyph-name="uhungarumlaut" unicode="&#x171;" horiz-adv-x="561" 
d="M73 29.5q-37 39.5 -37 116.5q0 35 7 71l49 283h128l-49 -283q-5 -30 -5 -48q0 -39 17 -57.5t52 -18.5q52 0 93.5 40t52.5 101l46 266h128l-65 -373q-8 -40 -15 -127h-121q1 48 7 88h-2q-27 -46 -74.5 -72t-103.5 -26q-71 0 -108 39.5zM299 717h124l-136 -162h-102z
M474 717h124l-136 -162h-102z" />
    <glyph glyph-name="Uogonek" unicode="&#x172;" horiz-adv-x="662" 
d="M682 700l-75 -427q-45 -255 -263 -280q-47 -31 -72.5 -60t-25.5 -53q0 -14 11.5 -22t31.5 -8q19 0 64 16l8 -60q-23 -19 -53.5 -29.5t-61.5 -10.5q-46 0 -71 20.5t-25 58.5q0 44 26 81.5t77 65.5q-96 9 -146 61.5t-50 145.5q0 38 7 74l75 427h144l-75 -425q-6 -31 -6 -58
q0 -112 104 -112q63 0 102.5 43t54.5 127l75 425h144z" />
    <glyph glyph-name="uogonek" unicode="&#x173;" horiz-adv-x="561" 
d="M555 500l-65 -373q-8 -40 -15 -127h-18q-52 -33 -80.5 -64t-28.5 -56q0 -14 11 -22t31 -8t65 16l7 -60q-22 -19 -52.5 -29.5t-61.5 -10.5q-47 0 -72 20.5t-25 58.5q0 48 30.5 87.5t89.5 67.5h-17q1 48 7 88h-2q-27 -46 -74.5 -72t-103.5 -26q-71 0 -108 39.5t-37 116.5
q0 35 7 71l49 283h128l-49 -283q-5 -30 -5 -48q0 -39 17 -57.5t52 -18.5q52 0 93.5 40t52.5 101l46 266h128z" />
    <glyph glyph-name="Wcircumflex" unicode="&#x174;" horiz-adv-x="874" 
d="M928 700l-271 -700h-134l-36 521l-220 -521h-139l-24 700h151l-6 -463l197 463h136l34 -461l157 461h155zM518 917h73l106 -162h-106l-46 78l-73 -78h-117z" />
    <glyph glyph-name="wcircumflex" unicode="&#x175;" horiz-adv-x="707" 
d="M738 500l-216 -500h-112l-35 363l-165 -363h-113l-40 500h131l8 -311l143 311h113l34 -311l117 311h135zM400 717h73l106 -162h-106l-46 78l-73 -78h-117z" />
    <glyph glyph-name="Ycircumflex" unicode="&#x176;" horiz-adv-x="628" 
d="M247 280l-153 420h152l95 -275l191 275h160l-301 -420l-49 -280h-144zM392 917h73l106 -162h-106l-46 78l-73 -78h-117z" />
    <glyph glyph-name="ycircumflex" unicode="&#x177;" horiz-adv-x="505" 
d="M536 500l-283 -523q-92 -169 -246 -169q-39 0 -80 11l18 101q11 -4 29 -7t32 -3q43 0 80 30.5t74 96.5l-104 463h132l54 -321l156 321h138zM301 717h73l106 -162h-106l-46 78l-73 -78h-117z" />
    <glyph glyph-name="Ydieresis" unicode="&#x178;" horiz-adv-x="628" 
d="M247 280l-153 420h152l95 -275l191 275h160l-301 -420l-49 -280h-144zM254 770q-16 15 -16 39q0 35 22 56.5t58 21.5q25 0 40.5 -15t15.5 -39q0 -34 -22 -56t-57 -22q-25 0 -41 15zM464.5 770q-15.5 15 -15.5 39q0 35 22 56.5t58 21.5q24 0 40 -15t16 -39
q0 -34 -22.5 -56t-57.5 -22q-25 0 -40.5 15z" />
    <glyph glyph-name="Zacute" unicode="&#x179;" horiz-adv-x="592" 
d="M-6 70l435 515h-315l20 115h497l-12 -72l-430 -513h353l-21 -115h-539zM448 917h124l-136 -162h-102z" />
    <glyph glyph-name="zacute" unicode="&#x17a;" horiz-adv-x="476" 
d="M-12 68l326 336h-252l17 96h409l-11 -62l-321 -342h272l-17 -96h-434zM355 717h124l-136 -162h-102z" />
    <glyph glyph-name="Zdotaccent" unicode="&#x17b;" horiz-adv-x="592" 
d="M-6 70l435 515h-315l20 115h497l-12 -72l-430 -513h353l-21 -115h-539zM344 770q-16 15 -16 39q0 34 22.5 56t57.5 22q25 0 40.5 -15t15.5 -39q0 -35 -22 -56.5t-57 -21.5q-25 0 -41 15z" />
    <glyph glyph-name="zdotaccent" unicode="&#x17c;" horiz-adv-x="476" 
d="M-12 68l326 336h-252l17 96h409l-11 -62l-321 -342h272l-17 -96h-434zM251 570q-16 15 -16 39q0 34 22.5 56t57.5 22q25 0 40.5 -15t15.5 -39q0 -35 -22 -56.5t-57 -21.5q-25 0 -41 15z" />
    <glyph glyph-name="Zcaron" unicode="&#x17d;" horiz-adv-x="592" 
d="M-6 70l435 515h-315l20 115h497l-12 -72l-430 -513h353l-21 -115h-539zM242 917h108l45 -78l74 78h115l-163 -162h-73z" />
    <glyph glyph-name="zcaron" unicode="&#x17e;" horiz-adv-x="476" 
d="M-12 68l326 336h-252l17 96h409l-11 -62l-321 -342h272l-17 -96h-434zM149 717h108l45 -78l74 78h115l-163 -162h-73z" />
    <glyph glyph-name="uni018F" unicode="&#x18f;" horiz-adv-x="684" 
d="M606 636.5q74 -72.5 74 -200.5q0 -129 -47.5 -230t-133.5 -158t-196 -57q-127 0 -197 69.5t-70 195.5q0 38 8 86l11 60h480q1 8 1 25q0 82 -37.5 125.5t-108.5 43.5q-59 0 -113 -28t-97 -83l-73 86q47 65 125.5 101.5t169.5 36.5q130 0 204 -72.5zM438.5 156.5
q55.5 52.5 80.5 141.5l-338 -1l-2 -9q-6 -28 -6 -54q0 -61 36.5 -95.5t101.5 -34.5q72 0 127.5 52.5z" />
    <glyph glyph-name="florin" unicode="&#x192;" horiz-adv-x="485" 
d="M496 699q34 -11 50 -27l-61 -86q-8 10 -24 15.5t-34 5.5q-60 0 -85 -66l-15 -41h134l-18 -102h-155l-186 -492h-141l188 492h-88l17 102h110l28 73q24 62 70.5 99.5t138.5 37.5q37 0 71 -11z" />
    <glyph glyph-name="Ohorn" unicode="&#x1a0;" horiz-adv-x="738" 
d="M857 700l-9 -52q-12 -66 -55.5 -119.5t-106.5 -80.5v-12q0 -129 -47.5 -230.5t-132.5 -158.5t-193 -57q-81 0 -143 34.5t-96 96.5t-34 143q0 129 47.5 230.5t132.5 158.5t193 57q97 0 166 -49t94 -133q30 24 45.5 51.5t23.5 68.5l9 52h106zM435.5 145q49.5 41 77.5 114.5
t28 166.5q0 76 -38 123t-99 47q-63 0 -112.5 -41t-77.5 -114t-28 -166q0 -76 38 -123.5t99 -47.5q63 0 112.5 41z" />
    <glyph glyph-name="ohorn" unicode="&#x1a1;" horiz-adv-x="651" 
d="M723 508l-9 -52q-12 -67 -56 -121t-108 -80q-10 -80 -50 -139.5t-104.5 -92.5t-145.5 -33q-103 0 -163.5 55t-60.5 149q0 93 38 165t106.5 111.5t158.5 39.5q91 0 149.5 -44t71.5 -121q24 22 37.5 48t20.5 63l9 52h106zM345 112q37 27 58 75t21 108q0 56 -28.5 88
t-79.5 32q-46 0 -83 -27t-58 -75t-21 -108q0 -56 29 -88t79 -32q46 0 83 27z" />
    <glyph glyph-name="Uhorn" unicode="&#x1af;" horiz-adv-x="743" 
d="M862 700l-9 -52q-14 -80 -74.5 -140.5t-143.5 -77.5l-28 -157q-50 -283 -314 -283q-115 0 -175.5 53.5t-60.5 156.5q0 37 7 73l75 427h144l-75 -425q-6 -31 -6 -58q0 -112 104 -112q63 0 102.5 43t54.5 127l75 425h144l-34 -192q46 28 68 59.5t31 80.5l9 52h106z" />
    <glyph glyph-name="uhorn" unicode="&#x1b0;" horiz-adv-x="649" 
d="M723 501l-9 -52q-13 -77 -70 -136t-135 -79l-19 -107q-8 -40 -15 -127h-121q1 48 7 88h-2q-27 -46 -74.5 -72t-103.5 -26q-71 0 -108 39.5t-37 116.5q0 35 7 71l49 283h128l-49 -283q-5 -30 -5 -48q0 -39 17 -57.5t52 -18.5q52 0 93.5 40t52.5 101l46 266h128l-32 -182
q39 26 58 55.5t27 75.5l9 52h106z" />
    <glyph glyph-name="uni01CD" unicode="&#x1cd;" horiz-adv-x="641" 
d="M423 116h-240l-55 -116h-157l365 700h127l119 -700h-144zM408 231l-37 278l-133 -278h170zM267 917h108l45 -78l74 78h115l-163 -162h-73z" />
    <glyph glyph-name="uni01CE" unicode="&#x1ce;" horiz-adv-x="558" 
d="M69.5 43q-47.5 53 -47.5 144q0 94 32.5 167.5t90.5 114.5t133 41q52 0 90 -19t54 -54h2l20 63h107l-65 -367q-18 -105 -21 -133h-120q6 41 11 66h-2q-30 -35 -71.5 -55.5t-84.5 -20.5q-81 0 -128.5 53zM324 118.5q37 30.5 46 80.5l18 103q2 14 2 22q0 40 -27.5 65.5
t-70.5 25.5q-40 0 -72.5 -28.5t-51 -78.5t-18.5 -112q0 -52 21.5 -80t62.5 -28q53 0 90 30.5zM180 717h108l45 -78l74 78h115l-163 -162h-73z" />
    <glyph glyph-name="uni01CF" unicode="&#x1cf;" horiz-adv-x="323" 
d="M169 700h143l-123 -700h-143zM108 917h108l45 -78l74 78h115l-163 -162h-73z" />
    <glyph glyph-name="uni01D0" unicode="&#x1d0;" horiz-adv-x="279" 
d="M121 500h126l-88 -500h-126zM51 717h108l45 -78l74 78h115l-163 -162h-73z" />
    <glyph glyph-name="uni01D1" unicode="&#x1d1;" horiz-adv-x="690" 
d="M170 24.5q-62 34.5 -96 96.5t-34 143q0 129 47.5 230.5t132.5 158.5t193 57q81 0 143 -34.5t96 -96.5t34 -143q0 -129 -47.5 -230.5t-132.5 -158.5t-193 -57q-81 0 -143 34.5zM435.5 145q49.5 41 77.5 114.5t28 166.5q0 76 -38 123t-99 47q-63 0 -112.5 -41t-77.5 -114
t-28 -166q0 -76 38 -123.5t99 -47.5q63 0 112.5 41zM281 917h108l45 -78l74 78h115l-163 -162h-73z" />
    <glyph glyph-name="uni01D2" unicode="&#x1d2;" horiz-adv-x="579" 
d="M86.5 45q-60.5 55 -60.5 149q0 93 38 165t106.5 111.5t158.5 39.5q103 0 163.5 -55t60.5 -149q0 -93 -38 -165t-107 -111.5t-158 -39.5q-103 0 -163.5 55zM345 112q37 27 58 75t21 108q0 56 -28.5 88t-79.5 32q-46 0 -83 -27t-58 -75t-21 -108q0 -56 29 -88t79 -32
q46 0 83 27zM201 717h108l45 -78l74 78h115l-163 -162h-73z" />
    <glyph glyph-name="uni01D3" unicode="&#x1d3;" horiz-adv-x="662" 
d="M117.5 43.5q-60.5 53.5 -60.5 156.5q0 37 7 73l75 427h144l-75 -425q-6 -31 -6 -58q0 -112 104 -112q63 0 102.5 43t54.5 127l75 425h144l-75 -427q-50 -283 -314 -283q-115 0 -175.5 53.5zM278 917h108l45 -78l74 78h115l-163 -162h-73z" />
    <glyph glyph-name="uni01D4" unicode="&#x1d4;" horiz-adv-x="561" 
d="M73 29.5q-37 39.5 -37 116.5q0 35 7 71l49 283h128l-49 -283q-5 -30 -5 -48q0 -39 17 -57.5t52 -18.5q52 0 93.5 40t52.5 101l46 266h128l-65 -373q-8 -40 -15 -127h-121q1 48 7 88h-2q-27 -46 -74.5 -72t-103.5 -26q-71 0 -108 39.5zM199 717h108l45 -78l74 78h115
l-163 -162h-73z" />
    <glyph glyph-name="uni01D5" unicode="&#x1d5;" horiz-adv-x="662" 
d="M117.5 43.5q-60.5 53.5 -60.5 156.5q0 37 7 73l75 427h144l-75 -425q-6 -31 -6 -58q0 -112 104 -112q63 0 102.5 43t54.5 127l75 425h144l-75 -427q-50 -283 -314 -283q-115 0 -175.5 53.5zM308 1006h298l-10 -66h-297zM270.5 770q-15.5 15 -15.5 39q0 35 22 56.5
t58 21.5q24 0 40 -15t16 -39q0 -34 -22.5 -56t-57.5 -22q-25 0 -40.5 15zM481 770q-16 15 -16 39q0 34 22.5 56t57.5 22q25 0 40.5 -15t15.5 -39q0 -35 -22 -56.5t-57 -21.5q-25 0 -41 15z" />
    <glyph glyph-name="uni01D6" unicode="&#x1d6;" horiz-adv-x="561" 
d="M73 29.5q-37 39.5 -37 116.5q0 35 7 71l49 283h128l-49 -283q-5 -30 -5 -48q0 -39 17 -57.5t52 -18.5q52 0 93.5 40t52.5 101l46 266h128l-65 -373q-8 -40 -15 -127h-121q1 48 7 88h-2q-27 -46 -74.5 -72t-103.5 -26q-71 0 -108 39.5zM230 806h298l-10 -66h-297z
M192.5 570q-15.5 15 -15.5 39q0 35 22 56.5t58 21.5q24 0 40 -15t16 -39q0 -34 -22.5 -56t-57.5 -22q-25 0 -40.5 15zM403 570q-16 15 -16 39q0 34 22.5 56t57.5 22q25 0 40.5 -15t15.5 -39q0 -35 -22 -56.5t-57 -21.5q-25 0 -41 15z" />
    <glyph glyph-name="uni01D7" unicode="&#x1d7;" horiz-adv-x="662" 
d="M117.5 43.5q-60.5 53.5 -60.5 156.5q0 37 7 73l75 427h144l-75 -425q-6 -31 -6 -58q0 -112 104 -112q63 0 102.5 43t54.5 127l75 425h144l-75 -427q-50 -283 -314 -283q-115 0 -175.5 53.5zM471 1036h99l-81 -109h-84zM274 770q-16 15 -16 39q0 35 22 56.5t58 21.5
q25 0 40.5 -15t15.5 -39q0 -34 -22 -56t-57 -22q-25 0 -41 15zM484.5 770q-15.5 15 -15.5 39q0 35 22 56.5t58 21.5q24 0 40 -15t16 -39q0 -34 -22.5 -56t-57.5 -22q-25 0 -40.5 15z" />
    <glyph glyph-name="uni01D8" unicode="&#x1d8;" horiz-adv-x="561" 
d="M73 29.5q-37 39.5 -37 116.5q0 35 7 71l49 283h128l-49 -283q-5 -30 -5 -48q0 -39 17 -57.5t52 -18.5q52 0 93.5 40t52.5 101l46 266h128l-65 -373q-8 -40 -15 -127h-121q1 48 7 88h-2q-27 -46 -74.5 -72t-103.5 -26q-71 0 -108 39.5zM393 836h99l-81 -109h-84zM196 570
q-16 15 -16 39q0 35 22 56.5t58 21.5q25 0 40.5 -15t15.5 -39q0 -34 -22 -56t-57 -22q-25 0 -41 15zM406.5 570q-15.5 15 -15.5 39q0 35 22 56.5t58 21.5q24 0 40 -15t16 -39q0 -34 -22.5 -56t-57.5 -22q-25 0 -40.5 15z" />
    <glyph glyph-name="uni01D9" unicode="&#x1d9;" horiz-adv-x="662" 
d="M117.5 43.5q-60.5 53.5 -60.5 156.5q0 37 7 73l75 427h144l-75 -425q-6 -31 -6 -58q0 -112 104 -112q63 0 102.5 43t54.5 127l75 425h144l-75 -427q-50 -283 -314 -283q-115 0 -175.5 53.5zM312 1036h97l47 -70l71 70h100l-144 -130h-72zM274 770q-16 15 -16 39
q0 35 22 56.5t58 21.5q25 0 40.5 -15t15.5 -39q0 -34 -22 -56t-57 -22q-25 0 -41 15zM484.5 770q-15.5 15 -15.5 39q0 35 22 56.5t58 21.5q24 0 40 -15t16 -39q0 -34 -22.5 -56t-57.5 -22q-25 0 -40.5 15z" />
    <glyph glyph-name="uni01DA" unicode="&#x1da;" horiz-adv-x="561" 
d="M73 29.5q-37 39.5 -37 116.5q0 35 7 71l49 283h128l-49 -283q-5 -30 -5 -48q0 -39 17 -57.5t52 -18.5q52 0 93.5 40t52.5 101l46 266h128l-65 -373q-8 -40 -15 -127h-121q1 48 7 88h-2q-27 -46 -74.5 -72t-103.5 -26q-71 0 -108 39.5zM234 836h97l47 -70l71 70h100
l-144 -130h-72zM196 570q-16 15 -16 39q0 35 22 56.5t58 21.5q25 0 40.5 -15t15.5 -39q0 -34 -22 -56t-57 -22q-25 0 -41 15zM406.5 570q-15.5 15 -15.5 39q0 35 22 56.5t58 21.5q24 0 40 -15t16 -39q0 -34 -22.5 -56t-57.5 -22q-25 0 -40.5 15z" />
    <glyph glyph-name="uni01DB" unicode="&#x1db;" horiz-adv-x="662" 
d="M117.5 43.5q-60.5 53.5 -60.5 156.5q0 37 7 73l75 427h144l-75 -425q-6 -31 -6 -58q0 -112 104 -112q63 0 102.5 43t54.5 127l75 425h144l-75 -427q-50 -283 -314 -283q-115 0 -175.5 53.5zM364 1036h99l29 -109h-84zM274 770q-16 15 -16 39q0 35 22 56.5t58 21.5
q25 0 40.5 -15t15.5 -39q0 -34 -22 -56t-57 -22q-25 0 -41 15zM484.5 770q-15.5 15 -15.5 39q0 35 22 56.5t58 21.5q24 0 40 -15t16 -39q0 -34 -22.5 -56t-57.5 -22q-25 0 -40.5 15z" />
    <glyph glyph-name="uni01DC" unicode="&#x1dc;" horiz-adv-x="561" 
d="M73 29.5q-37 39.5 -37 116.5q0 35 7 71l49 283h128l-49 -283q-5 -30 -5 -48q0 -39 17 -57.5t52 -18.5q52 0 93.5 40t52.5 101l46 266h128l-65 -373q-8 -40 -15 -127h-121q1 48 7 88h-2q-27 -46 -74.5 -72t-103.5 -26q-71 0 -108 39.5zM286 836h99l29 -109h-84zM196 570
q-16 15 -16 39q0 35 22 56.5t58 21.5q25 0 40.5 -15t15.5 -39q0 -34 -22 -56t-57 -22q-25 0 -41 15zM406.5 570q-15.5 15 -15.5 39q0 35 22 56.5t58 21.5q24 0 40 -15t16 -39q0 -34 -22.5 -56t-57.5 -22q-25 0 -40.5 15z" />
    <glyph glyph-name="Gcaron" unicode="&#x1e6;" horiz-adv-x="653" 
d="M333 380h293l-66 -380h-109l-6 35q-64 -45 -150 -45q-78 0 -136 32t-89 91.5t-31 138.5q0 134 48 238t134 162t197 58q89 0 154 -34t83 -89l-94 -72q-18 39 -55 59.5t-89 20.5q-67 0 -120 -43t-83 -119.5t-30 -174.5q0 -80 33.5 -121t98.5 -41q66 0 124 32l26 150h-151z
M295 917h108l45 -78l74 78h115l-163 -162h-73z" />
    <glyph glyph-name="gcaron" unicode="&#x1e7;" horiz-adv-x="555" 
d="M550 500l-84 -480q-22 -127 -94.5 -191.5t-194.5 -64.5q-59 0 -111 14t-87 40l58 87q32 -18 71 -28.5t75 -10.5q133 0 163 171l2 13q-48 -53 -140 -53q-87 0 -136.5 50.5t-49.5 139.5q0 95 32 168.5t90 114t133 40.5q53 0 91 -19t54 -54h2l20 63h106zM387 319
q0 47 -23.5 71.5t-67.5 24.5q-43 0 -76 -28t-51.5 -76.5t-18.5 -110.5q0 -51 23.5 -77.5t69.5 -26.5q52 0 86 31.5t44 89.5l11 64q3 21 3 38zM176 717h108l45 -78l74 78h115l-163 -162h-73z" />
    <glyph glyph-name="Aringacute" unicode="&#x1fa;" horiz-adv-x="641" 
d="M503 946h-93l75 109h108zM344.5 742.5q-24.5 22.5 -24.5 58.5q0 53 34.5 86t89.5 33q40 0 65 -22.5t25 -58.5q0 -53 -35 -86t-90 -33q-40 0 -64.5 22.5zM393.5 854q-16.5 -17 -16.5 -45q0 -18 11.5 -29t29.5 -11q26 0 42.5 17t16.5 45q0 18 -11.5 29t-29.5 11
q-26 0 -42.5 -17zM463 700l119 -700h-144l-15 116h-240l-55 -116h-157l365 700h127zM408 231l-37 278l-133 -278h170z" />
    <glyph glyph-name="aringacute" unicode="&#x1fb;" horiz-adv-x="558" 
d="M387 898h108l-90 -109h-92zM257 573.5q-25 22.5 -25 58.5q0 52 35 85.5t90 33.5q40 0 65 -22.5t25 -58.5q0 -53 -35 -86t-90 -33q-40 0 -65 22.5zM373.5 617q16.5 17 16.5 45q0 18 -11.5 29t-29.5 11q-26 0 -43 -17t-17 -45q0 -18 11.5 -29t30.5 -11q26 0 42.5 17z
M69.5 43q-47.5 53 -47.5 144q0 94 32.5 167.5t90.5 114.5t133 41q52 0 90 -19t54 -54h2l20 63h107l-65 -367q-18 -105 -21 -133h-120q6 41 11 66h-2q-30 -35 -71.5 -55.5t-84.5 -20.5q-81 0 -128.5 53zM324 118.5q37 30.5 46 80.5l18 103q2 14 2 22q0 40 -27.5 65.5
t-70.5 25.5q-40 0 -72.5 -28.5t-51 -78.5t-18.5 -112q0 -52 21.5 -80t62.5 -28q53 0 90 30.5z" />
    <glyph glyph-name="AEacute" unicode="&#x1fc;" horiz-adv-x="827" 
d="M580 585l-29 -164h235l-19 -113h-236l-34 -193h268l-20 -115h-411l17 98h-163l-58 -98h-159l435 700h462l-20 -115h-268zM370 206l50 285l-168 -285h118zM629 917h124l-136 -162h-102z" />
    <glyph glyph-name="aeacute" unicode="&#x1fd;" horiz-adv-x="818" 
d="M742.5 460.5q52.5 -49.5 52.5 -140.5q0 -29 -6 -62l-8 -44h-335v-15q0 -102 98 -102q41 0 74.5 15t70.5 50l56 -66q-36 -49 -94.5 -77.5t-125.5 -28.5q-52 0 -93.5 17t-68.5 49q-37 -31 -85 -48.5t-99 -17.5q-82 0 -127 37.5t-45 98.5q0 85 62.5 129t179.5 44h85l5 30
q2 16 2 21q0 62 -71 62q-91 0 -157 -60l-44 76q94 82 216 82q105 0 152 -56q68 56 160 56q93 0 145.5 -49.5zM657 379q-22 27 -70 27q-41 0 -74 -29t-51 -78h215v7q2 46 -20 73zM271.5 111q33.5 25 39.5 62l8 41h-76q-52 0 -81.5 -19.5t-29.5 -60.5q0 -23 16 -35.5t46 -12.5
q44 0 77.5 25zM526 717h124l-136 -162h-102z" />
    <glyph glyph-name="Oslashacute" unicode="&#x1fe;" horiz-adv-x="690" 
d="M665.5 550q20.5 -52 20.5 -114q0 -129 -47.5 -230.5t-132.5 -158.5t-193 -57q-79 0 -142 34l-47 -67h-111l88 125q-61 74 -61 182q0 129 47.5 230.5t132.5 158.5t193 57q64 0 115 -21l25 36h115l-61 -87q38 -36 58.5 -88zM194 214l261 372q-25 10 -51 10
q-63 0 -112.5 -41t-77.5 -114t-28 -166q0 -31 8 -61zM435.5 145q49.5 41 77.5 114.5t28 166.5q0 52 -19 93l-276 -389q34 -26 77 -26q63 0 112.5 41zM487 917h124l-136 -162h-102z" />
    <glyph glyph-name="oslashacute" unicode="&#x1ff;" horiz-adv-x="579" 
d="M534.5 396q18.5 -40 18.5 -90q0 -93 -38 -165t-107 -111.5t-158 -39.5q-51 0 -93 14l-34 -47h-88l58 82q-67 56 -67 155q0 93 38 165t106.5 111.5t158.5 39.5q47 0 86 -12l26 37h92l-51 -72q34 -27 52.5 -67zM166 143l187 267q-18 5 -37 5q-46 0 -83 -27t-58 -75
t-21 -108q0 -35 12 -62zM345 112q37 27 58 75t21 108q0 37 -14 67l-191 -270q23 -7 43 -7q46 0 83 27zM406 717h124l-136 -162h-102z" />
    <glyph glyph-name="uni0218" unicode="&#x218;" horiz-adv-x="549" 
d="M96 23q-62 33 -93 91l98 80q25 -40 66 -64.5t83 -24.5q55 0 87.5 25t32.5 67q0 25 -22.5 47t-83.5 55q-87 47 -126.5 95.5t-39.5 106.5q0 62 32.5 109.5t92 73.5t137.5 26q73 0 128.5 -29.5t79.5 -79.5l-103 -68q-39 62 -112 62q-50 0 -79.5 -21.5t-29.5 -57.5
q0 -24 28.5 -47.5t105.5 -62.5q72 -37 105 -81.5t33 -104.5q0 -107 -74.5 -168.5t-204.5 -61.5q-79 0 -141 33zM267 -90q19 -18 19 -46q0 -41 -30 -89t-79 -84l-43 39q5 6 22.5 23.5t31.5 37.5q-23 2 -37.5 17t-14.5 37q0 37 23 60t60 23q29 0 48 -18z" />
    <glyph glyph-name="uni0219" unicode="&#x219;" horiz-adv-x="441" 
d="M60.5 16.5q-49.5 26.5 -62.5 68.5l90 55q13 -25 38 -40t55 -15q40 0 64.5 16.5t24.5 44.5q0 19 -17 34.5t-56 31.5q-72 30 -105.5 65t-33.5 79q0 71 54 112.5t147 41.5q59 0 104.5 -22t64.5 -61l-83 -55q-28 43 -88 43q-33 0 -52 -13t-19 -35q0 -16 17 -28t70 -34
q66 -28 96.5 -60.5t30.5 -73.5q0 -53 -28.5 -94.5t-79.5 -64t-117 -22.5q-65 0 -114.5 26.5zM212 -90q19 -18 19 -46q0 -41 -30 -89t-79 -84l-43 39q5 6 22.5 23.5t31.5 37.5q-23 2 -37.5 17t-14.5 37q0 37 23 60t60 23q29 0 48 -18z" />
    <glyph glyph-name="uni021A" unicode="&#x21a;" horiz-adv-x="590" 
d="M284 594h-208l19 106h560l-19 -106h-208l-105 -594h-144zM285 -90q19 -18 19 -46q0 -41 -30 -89t-79 -84l-43 39q5 6 22.5 23.5t31.5 37.5q-23 2 -37.5 17t-14.5 37q0 37 23 60t60 23q29 0 48 -18z" />
    <glyph glyph-name="uni021B" unicode="&#x21b;" horiz-adv-x="420" 
d="M120.5 22q-37.5 32 -37.5 91q0 17 3 36l45 256h-91l17 95h91l22 129l130 36h4l-28 -165h145l-17 -95h-145l-42 -236q-2 -18 -2 -24q0 -59 68 -59q39 0 75 12l-9 -87q-48 -21 -123 -21q-68 0 -105.5 32zM251 -90q19 -18 19 -46q0 -41 -30 -89t-79 -84l-43 39
q5 6 22.5 23.5t31.5 37.5q-23 2 -37.5 17t-14.5 37q0 37 23 60t60 23q29 0 48 -18z" />
    <glyph glyph-name="uni0237" unicode="&#x237;" horiz-adv-x="277" 
d="M-143 -193l22 89q27 -3 63 -3q73 0 86 81l93 526h127l-93 -524q-16 -88 -65 -134.5t-139 -46.5q-54 0 -94 12z" />
    <glyph glyph-name="uni0251" unicode="&#x251;" horiz-adv-x="542" 
d="M67 42.5q-45 52.5 -45 141.5q0 94 32 168.5t89 116t129 41.5q92 0 125 -61h2l9 51h126l-64 -367l-6 -35q-3 -18 -8.5 -49.5t-6.5 -48.5h-119q5 40 10 66h-2q-27 -35 -66.5 -55.5t-81.5 -20.5q-78 0 -123 52.5zM310 118q36 30 45 81l18 103q2 16 2 23q0 39 -25.5 64.5
t-65.5 25.5q-38 0 -69 -29t-48.5 -80t-17.5 -114q0 -51 19.5 -77.5t57.5 -26.5q48 0 84 30z" />
    <glyph glyph-name="uni0259" unicode="&#x259;" horiz-adv-x="542" 
d="M457.5 456q57.5 -54 57.5 -147t-37 -165.5t-103 -113t-151 -40.5q-94 0 -147.5 53.5t-53.5 144.5q0 33 7 67l8 42h349q-1 52 -27.5 79t-78.5 27q-43 0 -78.5 -15t-72.5 -49l-58 65q38 49 99.5 77.5t129.5 28.5q99 0 156.5 -54zM322 124.5q37 30.5 53 85.5h-232v-6
q-3 -54 21 -82t74 -28q47 0 84 30.5z" />
    <glyph glyph-name="uni02BB" unicode="&#x2bb;" horiz-adv-x="200" 
d="M230.5 674.5q14.5 -14.5 14.5 -36.5q0 -37 -23.5 -60t-60.5 -23q-29 0 -47.5 18t-18.5 46q0 41 30 89t78 84l43 -39q-37 -37 -54 -61q24 -3 38.5 -17.5z" />
    <glyph glyph-name="uni02BC" unicode="&#x2bc;" horiz-adv-x="200" 
d="M236 734.5q19 -17.5 19 -45.5q0 -41 -30.5 -89.5t-78.5 -83.5l-43 38q5 6 22.5 23.5t31.5 37.5q-23 3 -37.5 18t-14.5 37q0 37 23 59.5t60 22.5q29 0 48 -17.5z" />
    <glyph glyph-name="uni02BE" unicode="&#x2be;" 
d="M62 602q26 0 42.5 17t16.5 44q0 18 -11.5 29.5t-29.5 11.5l9 47q39 0 64 -24t25 -62q0 -51 -34.5 -82.5t-90.5 -31.5z" />
    <glyph glyph-name="uni02BF" unicode="&#x2bf;" 
d="M-12 575q-25 24 -25 63q0 50 35 81.5t90 31.5l-8 -50q-26 0 -42.5 -17t-16.5 -44q0 -19 11.5 -30t29.5 -11l-9 -48q-40 0 -65 24z" />
    <glyph glyph-name="circumflex" unicode="&#x2c6;" horiz-adv-x="400" 
d="M246 717h73l106 -162h-107l-45 78l-74 -78h-116z" />
    <glyph glyph-name="caron" unicode="&#x2c7;" horiz-adv-x="400" 
d="M112 717h109l46 -78l73 78h114l-163 -162h-73z" />
    <glyph glyph-name="uni02C8" unicode="&#x2c8;" 
d="M33 760h113l-31 -180h-113z" />
    <glyph glyph-name="uni02C9" unicode="&#x2c9;" horiz-adv-x="525" 
d="M136 695h410l-15 -87h-411z" />
    <glyph glyph-name="uni02CA" unicode="&#x2ca;" 
d="M-55 621l134 108q35 29 73 29q23 0 37 -11.5t14 -31.5q0 -46 -64 -79l-159 -80z" />
    <glyph glyph-name="uni02CB" unicode="&#x2cb;" 
d="M-1 636q-40 25 -40 58q0 28 20.5 46t50.5 18q18 0 34.5 -7.5t28.5 -20.5l95 -109l-58 -65z" />
    <glyph glyph-name="uni02CC" unicode="&#x2cc;" 
d="M-108 -40h114l-32 -180h-113z" />
    <glyph glyph-name="breve" unicode="&#x2d8;" horiz-adv-x="400" 
d="M153 585.5q-37 30.5 -37 87.5q0 16 3 34h83q-1 -5 -1 -15q0 -27 17 -42t48 -15q36 0 59 19t30 53h88q-14 -74 -60.5 -113t-123.5 -39q-69 0 -106 30.5z" />
    <glyph glyph-name="dotaccent" unicode="&#x2d9;" horiz-adv-x="400" 
d="M213 570q-16 15 -16 39q0 34 22.5 56t57.5 22q25 0 40.5 -15t15.5 -39q0 -35 -22 -56.5t-57 -21.5q-25 0 -41 15z" />
    <glyph glyph-name="ring" unicode="&#x2da;" horiz-adv-x="400" 
d="M178.5 571.5q-28.5 25.5 -28.5 66.5q0 60 40 98t102 38q46 0 74 -25.5t28 -66.5q0 -61 -39.5 -98.5t-102.5 -37.5q-45 0 -73.5 25.5zM306.5 625.5q16.5 17.5 16.5 45.5q0 18 -11.5 29t-30.5 11q-26 0 -42.5 -17t-16.5 -45q0 -18 11.5 -29.5t29.5 -11.5q27 0 43.5 17.5z
" />
    <glyph glyph-name="ogonek" unicode="&#x2db;" horiz-adv-x="400" 
d="M44 -213.5q-25 20.5 -25 58.5q0 101 132 159h88q-61 -35 -92.5 -66.5t-31.5 -57.5q0 -14 11.5 -22t31.5 -8q19 0 64 16l8 -60q-23 -19 -53.5 -29.5t-61.5 -10.5q-46 0 -71 20.5z" />
    <glyph glyph-name="tilde" unicode="&#x2dc;" horiz-adv-x="400" 
d="M136 648q34 33 79 33q20 0 35.5 -7t36.5 -21q15 -10 23.5 -14.5t17.5 -4.5q27 0 36 51h74q-11 -66 -44.5 -98t-76.5 -32q-21 0 -37 7.5t-38 21.5q-25 18 -39 18q-10 0 -20 -13.5t-15 -33.5h-76q10 60 44 93z" />
    <glyph glyph-name="hungarumlaut" unicode="&#x2dd;" horiz-adv-x="400" 
d="M193 731h123l-153 -176h-102zM371 731h124l-154 -176h-102z" />
    <glyph glyph-name="gravecomb" unicode="&#x300;" 
d="M-77 717h124l56 -162h-102z" />
    <glyph glyph-name="acutecomb" unicode="&#x301;" 
d="M117 717h124l-136 -162h-102z" />
    <glyph glyph-name="uni0302" unicode="&#x302;" 
d="M46 717h73l106 -162h-106l-46 78l-73 -78h-117z" />
    <glyph glyph-name="tildecomb" unicode="&#x303;" 
d="M-71.5 648q35.5 33 80.5 33q20 0 36 -7t37 -21q14 -9 23.5 -14t18.5 -5q27 0 36 51h80q-9 -65 -43 -97.5t-82 -32.5q-20 0 -37.5 7.5t-39.5 21.5q-27 18 -39 18q-11 0 -21 -13t-14 -34h-80q9 60 44.5 93z" />
    <glyph glyph-name="uni0304" unicode="&#x304;" 
d="M-100 655h342l-14 -83h-343z" />
    <glyph glyph-name="uni0306" unicode="&#x306;" 
d="M-46.5 586.5q-38.5 31.5 -38.5 88.5q0 16 3 32h83q-1 -5 -1 -15q0 -27 17 -42t48 -15q36 0 59.5 19t30.5 53h88q-13 -74 -59.5 -113t-122.5 -39q-69 0 -107.5 31.5z" />
    <glyph glyph-name="uni0307" unicode="&#x307;" 
d="M13 570q-16 15 -16 39q0 34 22.5 56t57.5 22q25 0 40.5 -15t15.5 -39q0 -35 -22 -56.5t-57 -21.5q-25 0 -41 15z" />
    <glyph glyph-name="uni0308" unicode="&#x308;" 
d="M-92 570q-16 15 -16 39q0 35 22 56.5t58 21.5q25 0 40.5 -15t15.5 -39q0 -34 -22 -56t-57 -22q-25 0 -41 15zM118.5 570q-15.5 15 -15.5 39q0 35 22 56.5t58 21.5q24 0 40 -15t16 -39q0 -34 -22.5 -56t-57.5 -22q-25 0 -40.5 15z" />
    <glyph glyph-name="hookabovecomb" unicode="&#x309;" 
d="M26.5 601.5q14.5 17.5 38.5 36.5q20 16 29 27t9 28q0 10 -7.5 15.5t-21.5 5.5q-38 0 -73 -50l-43 52q24 34 61 52.5t76 18.5q48 0 75 -22t27 -57q0 -33 -14 -52.5t-40 -40.5q-21 -18 -31.5 -30t-13.5 -30h-91q5 29 19.5 46.5z" />
    <glyph glyph-name="uni030A" unicode="&#x30a;" 
d="M-11 573.5q-25 22.5 -25 58.5q0 53 35 86t90 33q40 0 65 -22.5t25 -58.5q0 -52 -35 -85.5t-90 -33.5q-40 0 -65 22.5zM105 617q17 17 17 45q0 18 -11.5 29t-30.5 11q-26 0 -42.5 -17t-16.5 -45q0 -18 11.5 -29t29.5 -11q26 0 43 17z" />
    <glyph glyph-name="uni030B" unicode="&#x30b;" 
d="M11 717h124l-136 -162h-102zM186 717h124l-136 -162h-102z" />
    <glyph glyph-name="uni030C" unicode="&#x30c;" 
d="M-88 717h108l45 -78l74 78h115l-163 -162h-73z" />
    <glyph glyph-name="uni031B" unicode="&#x31b;" 
d="M-82 377q57 32 82.5 65t35.5 87l9 52h106l-9 -52q-10 -56 -43.5 -104t-84 -79t-109.5 -38z" />
    <glyph glyph-name="dotbelowcomb" unicode="&#x323;" 
d="M-121 -189q-16 15 -16 39q0 35 22 56.5t58 21.5q25 0 40.5 -15t15.5 -39q0 -34 -22 -56t-57 -22q-25 0 -41 15z" />
    <glyph glyph-name="uni0324" unicode="&#x324;" 
d="M-227.5 -189q-15.5 15 -15.5 39q0 35 22 56.5t58 21.5q24 0 40 -15t16 -39q0 -34 -22.5 -56t-57.5 -22q-25 0 -40.5 15zM-13 -189q-16 15 -16 39q0 35 22 56.5t58 21.5q25 0 40.5 -15t15.5 -39q0 -34 -22 -56t-57 -22q-25 0 -41 15z" />
    <glyph glyph-name="uni0326" unicode="&#x326;" 
d="M-10 -90q19 -18 19 -46q0 -41 -30 -89t-79 -84l-43 39q5 6 22.5 23.5t31.5 37.5q-23 2 -37.5 17t-14.5 37q0 37 23 60t60 23q29 0 48 -18z" />
    <glyph glyph-name="uni0327" unicode="&#x327;" 
d="M-155 -236q-26 6 -40 15l24 55q28 -12 64 -12q21 0 34.5 10.5t13.5 26.5q0 13 -16.5 20.5t-44.5 5.5l-24 33l71 95h83l-59 -79q37 0 59 -18t22 -47q0 -47 -39 -79t-97 -32q-25 0 -51 6z" />
    <glyph glyph-name="uni0328" unicode="&#x328;" 
d="M-177 -213.5q-25 20.5 -25 58.5q0 50 34 91.5t99 69.5h74l-1 -6q-52 -33 -80.5 -64t-28.5 -56q0 -14 11 -22t31 -8t65 16l8 -60q-22 -19 -53 -29.5t-62 -10.5q-47 0 -72 20.5z" />
    <glyph glyph-name="uni032E" unicode="&#x32e;" 
d="M-185 -193q-37 31 -37 88q0 15 3 33h82q-1 -5 -1 -15q0 -28 16.5 -42.5t47.5 -14.5q36 0 59.5 19t30.5 53h89q-13 -74 -60.5 -113t-124.5 -39q-68 0 -105 31z" />
    <glyph glyph-name="uni0331" unicode="&#x331;" 
d="M-228 -72h342l-14 -83h-342z" />
    <glyph glyph-name="uni0394" unicode="&#x394;" horiz-adv-x="656" 
d="M-25 57l397 643h72l168 -643l-10 -57h-637zM476 102l-94 399l-236 -399h330z" />
    <glyph glyph-name="uni03A9" unicode="&#x3a9;" horiz-adv-x="776" 
d="M8 106h146q-40 37 -61.5 93t-21.5 123q0 114 49.5 202t138 137t203.5 49q91 0 157.5 -30t102 -86t35.5 -132q0 -100 -51.5 -199t-132.5 -157h145l-19 -106h-312l20 111q54 13 100.5 62.5t74 119.5t27.5 143q0 76 -42 117.5t-117 41.5q-71 0 -125.5 -37t-84 -104
t-29.5 -156q0 -76 29 -124.5t82 -61.5l-20 -112h-313z" />
    <glyph glyph-name="uni03BC" unicode="&#x3bc;" horiz-adv-x="561" 
d="M92 500h128l-50 -283q-4 -23 -4 -45q0 -40 17.5 -59.5t53.5 -19.5q52 0 92.5 41t51.5 101l46 265h128l-65 -373q-9 -61 -15 -127h-120l-1 24q0 23 4 47h-2q-27 -41 -59 -61t-80 -20q-49 0 -83 28l-39 -222h-127z" />
    <glyph glyph-name="pi" unicode="&#x3c0;" horiz-adv-x="663" 
d="M414 10q-27 20 -27 61q0 7 2 23l55 310h-181l-72 -405h-127l71 405h-90l18 96h616l-17 -96h-90l-48 -269q-1 -4 -1 -11q0 -29 33 -29q19 0 48 8l-16 -90q-51 -23 -101 -23q-46 0 -73 20z" />
    <glyph glyph-name="uni0E01" unicode="&#xe01;" horiz-adv-x="597" 
d="M63 232q7 36 31 65.5t58 43.5q-38 11 -99 18q8 66 48 117.5t103 80.5t140 29q65 0 114 -21.5t75.5 -60t26.5 -89.5q0 -17 -3 -35l-67 -380h-128l64 366q2 9 2 26q0 43 -27.5 68.5t-74.5 25.5q-46 0 -87 -20t-60 -52q33 -7 62.5 -18.5t46.5 -23.5l-6 -36q-38 -13 -61 -38
t-29 -60l-42 -238h-128z" />
    <glyph glyph-name="uni0E02" unicode="&#xe02;" horiz-adv-x="632" 
d="M626 576l-77 -434q-13 -74 -64 -113t-140 -39q-81 0 -126.5 32.5t-45.5 90.5q0 14 3 29l12 68q5 33 21 57t43 52q31 33 46.5 59.5t15.5 67.5q0 28 -18.5 42.5t-50.5 14.5t-55 -9q34 -1 55 -23t21 -54q0 -56 -36.5 -92t-94.5 -36q-42 0 -69 28.5t-27 72.5q0 58 27 102.5
t76.5 69t115.5 24.5q79 0 126 -32t47 -87q0 -50 -15.5 -82t-46.5 -70q-23 -29 -35 -49t-17 -47l-14 -78q-1 -4 -1 -11q0 -20 13.5 -30t38.5 -10q29 0 46 13t21 38l77 435h128zM183.5 364q14.5 15 14.5 38q0 16 -10 25.5t-27 9.5q-24 0 -38.5 -15t-14.5 -38q0 -16 10 -25.5
t27 -9.5q24 0 38.5 15z" />
    <glyph glyph-name="uni0E03" unicode="&#xe03;" horiz-adv-x="656" 
d="M650 576l-76 -434q-14 -74 -65 -113t-140 -39q-81 0 -126.5 32.5t-45.5 90.5q0 14 3 29l10 60q6 34 22 59.5t44 58.5q32 37 48 65.5t16 68.5q0 32 -18 46l-65 -43l-55 42q-22 -11 -39 -41h6q38 0 62 -23t24 -60q0 -54 -35 -88t-91 -34q-42 0 -68.5 31t-26.5 80
q0 52 23.5 99t64.5 79.5t92 43.5l53 -51l72 51q50 -10 84.5 -43.5t34.5 -81.5q0 -51 -16 -83t-47 -68q-24 -28 -37 -48.5t-18 -49.5l-12 -71q-1 -4 -1 -12q0 -39 51 -39q29 0 46.5 13t21.5 38l76 435h128zM181 390.5q-10 9.5 -27 9.5q-23 0 -37.5 -15t-14.5 -39
q0 -16 10 -25.5t27 -9.5q23 0 37.5 15t14.5 39q0 16 -10 25.5z" />
    <glyph glyph-name="uni0E04" unicode="&#xe04;" horiz-adv-x="624" 
d="M524 542.5q64 -43.5 64 -118.5q0 -16 -3 -34l-68 -390h-128l66 377q2 16 2 22q0 41 -30 64t-85 23q-72 0 -117 -34.5t-52 -97.5q-3 -22 -4 -48.5t-1 -34.5q27 60 67.5 92t88.5 32q40 0 65 -21t25 -55q0 -50 -32 -81.5t-83 -31.5q-23 0 -42 8.5t-26 22.5
q-20 -23 -36 -56.5t-21 -66.5l-21 -114h-124l26 150q2 16 2 27q0 18 -4 64q-1 10 -3 35.5t-2 46.5q0 78 36.5 137.5t105 92.5t160.5 33q110 0 174 -43.5zM285 327.5q-14 -13.5 -14 -35.5q0 -14 9.5 -23t25.5 -9q21 0 34.5 14t13.5 36q0 14 -9.5 22.5t-24.5 8.5
q-21 0 -35 -13.5z" />
    <glyph glyph-name="uni0E05" unicode="&#xe05;" horiz-adv-x="628" 
d="M557 534.5q36 -42.5 36 -105.5q0 -22 -4 -41l-68 -388h-128l69 388q3 20 3 36q0 40 -24 60l-105 -58l-92 63q-32 -19 -48.5 -51.5t-22.5 -89.5q-1 -9 -6 -73l-1 -22q29 58 69 89t87 31q40 0 65 -20.5t25 -53.5q0 -51 -32 -83t-84 -32q-22 0 -40 9.5t-26 23.5
q-22 -24 -38 -56t-22 -64l-17 -97h-124l26 150q2 16 2 27q0 18 -4 64q-1 10 -3 35.5t-2 46.5q0 101 56 172.5t152 90.5l90 -69l115 69q60 -9 96 -51.5zM283 305.5q-14 -13.5 -14 -35.5q0 -14 10 -23t24 -9q22 0 35.5 14t13.5 36q0 14 -9.5 22.5t-24.5 8.5q-21 0 -35 -13.5z
" />
    <glyph glyph-name="uni0E06" unicode="&#xe06;" horiz-adv-x="679" 
d="M673 577l-102 -577h-117q-9 35 -36.5 65.5t-65.5 48.5q-2 -55 -42.5 -89.5t-105.5 -34.5q-49 0 -81.5 27.5t-32.5 70.5q0 58 35 93.5t93 37.5q6 28 19.5 48.5t38.5 48.5q31 35 46.5 63.5t15.5 71.5q0 33 -21 49l-63 -43l-52 42q-25 -15 -39 -41h6q38 0 62 -23t24 -60
q0 -54 -35 -88t-91 -34q-43 0 -69 30.5t-26 80.5q0 51 23 98t64 80t91 44l51 -51l71 51q50 -9 84.5 -38.5t34.5 -77.5q0 -53 -16 -85.5t-46 -67.5q-21 -25 -32 -43t-15 -42l-3 -16q85 -20 127 -77l77 438h128zM181 390.5q-10 9.5 -27 9.5q-23 0 -37.5 -15t-14.5 -39
q0 -16 10 -25.5t27 -9.5q23 0 37.5 15t14.5 39q0 16 -10 25.5zM247 75q15 15 15 39q0 16 -10 25.5t-27 9.5q-24 0 -39 -15t-15 -39q0 -16 10 -25.5t27 -9.5q24 0 39 15z" />
    <glyph glyph-name="uni0E07" unicode="&#xe07;" horiz-adv-x="482" 
d="M430.5 560.5q28.5 -25.5 28.5 -67.5q0 -7 -2 -23l-83 -470h-127l-226 295l82 72l169 -225l40 229h-5q-41 0 -66.5 24t-25.5 62q0 57 39 93t100 36q48 0 76.5 -25.5zM356.5 448q14.5 15 14.5 39q0 16 -10.5 26t-26.5 10q-24 0 -39 -15t-15 -39q0 -16 10.5 -26t27.5 -10
q24 0 38.5 15z" />
    <glyph glyph-name="uni0E08" unicode="&#xe08;" horiz-adv-x="571" 
d="M215 15q-37 25 -36 70v79q-12 -2 -20 -2q-41 0 -67.5 24t-26.5 61q0 53 35 85.5t93 32.5q40 0 67 -22t28 -56l1 -172q0 -13 8 -20t22 -7q32 0 38 30l51 287q1 4 1 13q0 31 -26.5 49.5t-71.5 18.5q-49 0 -86.5 -22t-51.5 -57h-126q8 54 45 94.5t96.5 62.5t133.5 22
q98 0 158 -38.5t60 -103.5q0 -8 -2 -24l-54 -305q-11 -62 -52.5 -93.5t-116.5 -31.5q-63 0 -100 25zM202 237.5q14 14.5 14 36.5q0 14 -10 23.5t-26 9.5q-22 0 -36.5 -14t-14.5 -37q0 -14 10 -23.5t26 -9.5q23 0 37 14.5z" />
    <glyph glyph-name="uni0E09" unicode="&#xe09;" horiz-adv-x="594" 
d="M448 567.5q50 -18.5 78 -52t28 -76.5q0 -9 -2 -25l-24 -136q-12 -59 -53 -92q17 -10 27.5 -29.5t10.5 -40.5q0 -56 -37 -91t-96 -35q-47 0 -76.5 24.5t-29.5 62.5v4q-56 -30 -97 -81h-120l20 118q6 27 22 48q-29 5 -47.5 26t-18.5 52q0 52 34.5 85t90.5 33q41 0 66 -20.5
t25 -53.5q0 -25 -7 -43.5t-20 -40.5q-17 -28 -20 -47l-7 -40q25 26 66.5 48.5t78.5 35.5q22 7 38.5 25t21.5 47l24 133q1 4 1 11q0 31 -28 50t-75 19q-52 0 -92.5 -22t-53.5 -58h-125q8 52 46.5 93t100 64t135.5 23q65 0 115 -18.5zM168 236.5q14 14.5 14 36.5q0 14 -10 23
t-26 9q-22 0 -36 -14t-14 -36q0 -14 10 -23.5t26 -9.5q22 0 36 14.5zM424 67.5q15 15.5 15 38.5q0 16 -10.5 25.5t-27.5 9.5q-23 0 -38 -15t-15 -38q0 -16 10.5 -26t26.5 -10q24 0 39 15.5z" />
    <glyph glyph-name="uni0E0A" unicode="&#xe0a;" horiz-adv-x="650" 
d="M629 516.5q-35 -42.5 -69 -59.5q47 -19 47 -75q0 -15 -2 -24l-38 -216q-12 -73 -66.5 -112.5t-146.5 -39.5q-83 0 -131.5 33t-48.5 92q0 18 2 27l12 68q5 33 21 57t43 52q31 33 46.5 59.5t15.5 67.5q0 28 -18.5 42.5t-50.5 14.5t-55 -9q34 -1 55 -23t21 -54
q0 -56 -36.5 -92t-94.5 -36q-42 0 -69 28.5t-27 72.5q0 58 27 102.5t76.5 69t115.5 24.5q75 0 120.5 -34t45.5 -90q0 -51 -14.5 -82t-42.5 -66q-22 -28 -33.5 -47.5t-16.5 -47.5l-14 -78l-1 -8q0 -20 16 -31.5t45 -11.5q32 0 52 13t24 38l38 210q2 16 2 21q0 20 -10 31.5
t-33 18.5l11 62q42 17 65.5 46t34.5 81h131q-14 -52 -49 -94.5zM184 364q15 15 15 39q0 15 -10.5 24.5t-27.5 9.5q-24 0 -38.5 -15t-14.5 -38q0 -16 10 -25.5t27 -9.5q24 0 39 15z" />
    <glyph glyph-name="uni0E0B" unicode="&#xe0b;" horiz-adv-x="667" 
d="M646.5 516.5q-35.5 -42.5 -69.5 -59.5q48 -22 48 -76q0 -7 -2 -23l-38 -216q-26 -152 -210 -152q-83 0 -130.5 32.5t-47.5 91.5q0 13 3 28l10 60q6 34 21.5 59t44.5 59q32 38 47 65t15 66q0 34 -20 49l-63 -43l-53 42q-22 -11 -39 -41h6q38 0 62 -23t24 -60
q0 -54 -35 -88t-91 -34q-42 0 -68.5 31t-26.5 80q0 52 23.5 99t65 79.5t91.5 43.5l51 -51l71 51q51 -10 84.5 -40t33.5 -77q0 -55 -15.5 -88t-46.5 -72q-22 -27 -34.5 -47.5t-17.5 -49.5l-12 -71q-1 -4 -1 -11q0 -19 16 -29.5t41 -10.5q64 0 73 51l37 210q3 18 3 30
q0 16 -7.5 25.5t-27.5 15.5l11 62q40 17 60 45.5t32 81.5h131q-14 -52 -49.5 -94.5zM181 390.5q-10 9.5 -27 9.5q-23 0 -37.5 -15t-14.5 -39q0 -16 10 -25.5t27 -9.5q23 0 37.5 15t14.5 39q0 16 -10 25.5z" />
    <glyph glyph-name="uni0E0C" unicode="&#xe0c;" horiz-adv-x="832" 
d="M826 577l-102 -577h-113q-10 32 -35 60t-61 47q-5 -53 -42.5 -85t-92.5 -32q-45 0 -73.5 26t-28.5 67q0 42 28 77.5t73 48.5l28 158q3 17 3 30q0 43 -24 66t-68 23q-45 0 -82 -19t-56 -53q73 -17 108 -42l-6 -36q-38 -13 -61 -38t-29 -60l-6 -34q30 -5 48.5 -27.5
t18.5 -56.5q0 -57 -37.5 -93.5t-97.5 -36.5q-44 0 -72 24.5t-28 63.5q0 22 8.5 43.5t23.5 38.5l13 72q6 35 29.5 64.5t59.5 44.5q-44 12 -99 18q8 67 46.5 118.5t99.5 80t136 28.5q95 0 150.5 -45t55.5 -122q0 -12 -4 -38l-31 -172q29 -8 59.5 -25.5t56.5 -41.5l76 435h128z
M425 75q15 15 15 39q0 16 -10.5 25.5t-27.5 9.5q-23 0 -38.5 -15t-15.5 -38q0 -16 11 -26t28 -10q23 0 38 15zM166.5 68.5q15.5 15.5 15.5 38.5q0 16 -10.5 26t-27.5 10q-23 0 -38.5 -15t-15.5 -39q0 -16 10.5 -26t27.5 -10q23 0 38.5 15.5z" />
    <glyph glyph-name="uni0E0D" unicode="&#xe0d;" horiz-adv-x="849" 
d="M843 576l-79 -445q-11 -65 -70 -103t-149 -38q-84 0 -137 33t-53 89q0 6 2 20l42 234q3 17 3 31q0 42 -24 65.5t-66 23.5q-43 0 -78.5 -19t-54.5 -53q31 -7 60.5 -18.5t48.5 -23.5l-7 -36q-78 -29 -90 -98l-6 -33h5q41 0 67 -23.5t26 -61.5q0 -58 -39 -94t-100 -36
q-49 0 -77.5 26t-28.5 70q0 7 2 21l22 125q7 35 31 64.5t58 44.5q-49 12 -99 18q14 106 88 166.5t189 60.5q96 0 150 -43.5t54 -121.5q0 -13 -4 -41l-43 -239q-4 -24 14.5 -37.5t52.5 -13.5t57.5 13.5t27.5 37.5l77 435h128zM207.5 132.5q-10.5 9.5 -27.5 9.5q-24 0 -39 -15
t-15 -38q0 -16 10.5 -26t27.5 -10q23 0 38.5 15t15.5 39q0 16 -10.5 25.5zM574 -171.5q40 42.5 52 108.5h104q-19 -105 -85.5 -164t-173.5 -59q-75 0 -124.5 31.5t-49.5 79.5q0 51 32 82.5t84 31.5q38 0 62 -19t24 -50q0 -27 -10.5 -48.5t-28.5 -32.5q11 -3 22 -3
q52 0 92 42.5zM367.5 -183.5q8.5 -8.5 22.5 -8.5q20 0 32.5 13t12.5 33q0 13 -9 21.5t-23 8.5q-20 0 -32 -12.5t-12 -32.5q0 -14 8.5 -22.5z" />
    <glyph glyph-name="uni0E0E" unicode="&#xe0e;" horiz-adv-x="622" 
d="M529 540.5q57 -45.5 57 -122.5q0 -12 -4 -38l-123 -696h-124q-10 30 -34 57.5t-56 48.5q-22 -51 -66 -81t-99 -30q-48 0 -81 24.5t-33 65.5q0 58 48 91t129 33q31 0 64 -11q10 20 21 32.5t26 22.5l61 -24q-15 -9 -25 -22t-20 -36q53 -31 80 -65l102 576q3 15 3 27
q0 43 -26.5 68t-72.5 25q-42 0 -80.5 -18.5t-59.5 -53.5q31 -7 63 -19t50 -23l-7 -36q-43 -14 -61.5 -39.5t-18.5 -70.5v-27q0 -105 -39 -157t-119 -52q-44 0 -71.5 24t-27.5 62q0 57 35 93t90 36q13 0 22 -4q-2 16 -2 25q0 35 16 66.5t43 48.5q-32 10 -100 18
q8 67 47 118.5t101 80t137 28.5q98 0 155 -45.5zM127 68.5q15 15.5 15 38.5q0 16 -10.5 26t-26.5 10q-24 0 -39 -15t-15 -39q0 -16 10.5 -26t27.5 -10q23 0 38 15.5zM141.5 -236.5q22.5 19.5 38.5 55.5q-29 8 -56 8q-34 0 -54 -14.5t-20 -38.5q0 -14 11 -22t32 -8
q26 0 48.5 19.5z" />
    <glyph glyph-name="uni0E0F" unicode="&#xe0f;" horiz-adv-x="622" 
d="M528.5 541q56.5 -45 56.5 -122q0 -13 -4 -39l-123 -696h-117l-58 92l-67 -92q-25 46 -47 75q-19 -37 -53.5 -59.5t-75.5 -22.5q-49 0 -77 25t-28 64q0 54 39 85.5t103 31.5q28 0 58 -10q25 48 73 71l49 -32q-51 -30 -66 -75q23 -22 39 -50l62 79l57 -80l102 580
q3 15 3 28q0 43 -27 67.5t-71 24.5q-42 0 -81 -18.5t-60 -53.5q34 -8 65 -19t48 -23l-7 -36q-42 -15 -60.5 -39.5t-18.5 -70.5v-27q0 -106 -39 -157.5t-120 -51.5q-44 0 -71.5 24t-27.5 62q0 57 35 93t90 36q12 0 23 -4q-3 14 -3 25q0 34 16.5 66t42.5 49q-48 12 -100 18
q8 67 47 118.5t101 80t137 28.5q99 0 155.5 -45zM126.5 68.5q15.5 15.5 15.5 38.5q0 16 -10.5 26t-27.5 10q-24 0 -39 -15t-15 -39q0 -16 10.5 -26t27.5 -10q23 0 38.5 15.5zM93 -244.5q17 16.5 24 50.5q-21 12 -46 12q-27 0 -43.5 -13.5t-16.5 -35.5q0 -14 10 -22t28 -8
q27 0 44 16.5z" />
    <glyph glyph-name="uni0E10" unicode="&#xe10;" horiz-adv-x="573" 
d="M222.5 491.5q-13.5 -9.5 -20.5 -24.5q49 -5 122 -21t105 -28q39 -14 59.5 -36.5t20.5 -51.5q0 -10 -1 -15l-35 -199q-10 -58 -60.5 -92t-127.5 -34q-72 0 -117.5 29.5t-45.5 77.5q0 7 2 19l5 27q-39 1 -63 23t-24 57q0 55 37 90t96 35q42 0 67 -24.5t25 -64.5
q0 -6 -2 -22l-18 -106q-1 -3 -1 -8q0 -16 12 -24.5t31 -8.5q24 0 40 11t20 30l27 157q1 3 1 9q0 21 -25 31q-38 17 -127.5 35t-167.5 24q6 57 33 102.5t70 71t95 25.5q23 0 62.5 -6t74.5 -13q50 -9 60 -9q37 0 47 33l84 -20q-14 -51 -50 -81.5t-90 -30.5q-22 0 -98 22
q-27 8 -53 14t-39 6q-17 0 -30.5 -9.5zM177 219.5q14 14.5 14 36.5q0 14 -9.5 23.5t-25.5 9.5q-22 0 -36 -14.5t-14 -36.5q0 -14 9.5 -23.5t25.5 -9.5q22 0 36 14.5zM409 -88q23 -16 23 -43q0 -6 -1 -10l-30 -169h-99l-49 36l-76 -40q-27 51 -46 71q-21 -34 -51 -53.5
t-77 -19.5q-38 0 -60.5 21.5t-22.5 52.5q0 43 37 67.5t99 24.5q27 0 47 -7q11 34 25 57t38 35l59 -35q-22 -11 -36 -32.5t-30 -56.5q22 -19 44 -56l65 32l50 -36l7 41q-3 -1 -13 -1q-28 0 -45 15.5t-17 40.5q0 36 27 58.5t71 22.5q38 0 61 -16zM338.5 -157.5
q8.5 9.5 8.5 24.5q0 10 -6 16.5t-16 6.5q-14 0 -23 -9.5t-9 -25.5q0 -10 6.5 -16t16.5 -6q14 0 22.5 9.5zM62 -241.5q13 11.5 22 32.5q-16 6 -37 6t-34 -8.5t-13 -21.5q0 -9 7.5 -14.5t20.5 -5.5q21 0 34 11.5z" />
    <glyph glyph-name="uni0E11" unicode="&#xe11;" horiz-adv-x="761" 
d="M738 495q0 -10 -4 -38l-81 -457h-128l82 458q1 4 1 12q0 16 -14 16t-25 -20l-259 -466h-135l35 202q7 36 22 65.5t43 72.5q26 40 38.5 65.5t12.5 52.5q0 25 -21 42l-54 -43l-49 42q-22 -11 -39 -41h6q38 0 62 -23t24 -60q0 -54 -35 -88t-90 -34q-43 0 -69.5 31t-26.5 80
q0 52 22.5 99t62 79.5t90.5 43.5l53 -51l71 51q50 -9 79.5 -36t29.5 -72q0 -39 -12.5 -68.5t-37.5 -69.5q-21 -34 -32.5 -58t-16.5 -53q-5 -30 -10.5 -52.5t-16.5 -58.5l61 150l108 217q25 51 61.5 76t87.5 25q104 0 104 -91zM181 390.5q-10 9.5 -27 9.5q-23 0 -37.5 -15
t-14.5 -39q0 -16 10 -25.5t27 -9.5q23 0 37.5 15t14.5 39q0 16 -10 25.5z" />
    <glyph glyph-name="uni0E12" unicode="&#xe12;" horiz-adv-x="876" 
d="M871 577l-102 -577h-114q-10 33 -34.5 61t-59.5 47q-5 -53 -42.5 -85.5t-93.5 -32.5q-44 0 -72.5 26t-28.5 66q0 42 28.5 77t72.5 49l32 180q4 28 4 37q0 38 -24 59l-103 -58l-90 63q-33 -20 -53 -62t-20 -96q0 -28 5 -65q1 -8 3 -28.5t2 -37.5q0 -4 -5 -47q15 14 51 40
q7 5 16.5 11.5t20.5 15.5q-24 4 -39 22t-15 44q0 48 32.5 78t84.5 30q36 0 58.5 -20.5t22.5 -53.5t-15.5 -59.5t-39 -47t-63.5 -50.5q-60 -44 -92.5 -78.5t-43.5 -84.5h-124l26 145q1 6 1 22q0 17 -4 67q-5 73 -5 90q0 67 26 122.5t73 92t107 47.5l89 -69l112 69
q60 -9 96 -53t36 -107q0 -18 -3 -38l-31 -179q29 -8 59 -25.5t54 -42.5l77 436h128zM280.5 330.5q-13.5 -13.5 -13.5 -35.5q0 -14 10 -23t24 -9q22 0 35.5 13.5t13.5 35.5q0 14 -9.5 23t-25.5 9q-21 0 -34.5 -13.5zM471 75q15 15 15 39q0 16 -10 25.5t-27 9.5q-24 0 -39 -15
t-15 -38q0 -16 10.5 -26t27.5 -10q23 0 38 15z" />
    <glyph glyph-name="uni0E13" unicode="&#xe13;" horiz-adv-x="884" 
d="M799.5 236.5q-15.5 -23.5 -35.5 -34.5q23 -10 37.5 -32t14.5 -45q0 -60 -38.5 -97.5t-99.5 -37.5q-43 0 -70.5 25t-27.5 65l2 20q-28 -14 -57.5 -40.5t-55.5 -59.5h-120l65 367q3 15 3 29q0 43 -25 66.5t-70 23.5q-47 0 -85.5 -19.5t-57.5 -52.5q68 -15 109 -42l-7 -36
q-38 -13 -61 -38t-29 -60l-6 -33h5q41 0 67 -23.5t26 -61.5q0 -58 -39 -94t-100 -36q-49 0 -77.5 26t-28.5 70q0 7 2 21l22 125q8 36 31 65t58 44q-44 11 -99 18q8 66 47.5 117.5t101.5 80.5t137 29q96 0 152.5 -45.5t56.5 -121.5q0 -12 -4 -38l-44 -250q39 44 94 67
q52 24 73.5 43t25.5 45l51 291h128l-51 -288q-5 -29 -20.5 -52.5zM727 68.5q15 15.5 15 38.5q0 16 -10.5 26t-26.5 10q-24 0 -39 -15t-15 -39q0 -16 10.5 -26t26.5 -10q24 0 39 15.5zM207.5 132.5q-10.5 9.5 -27.5 9.5q-24 0 -39 -15t-15 -38q0 -16 10.5 -26t27.5 -10
q23 0 38.5 15t15.5 39q0 16 -10.5 25.5z" />
    <glyph glyph-name="uni0E14" unicode="&#xe14;" horiz-adv-x="614" 
d="M465 564.5q53 -21.5 82.5 -60.5t29.5 -91q0 -16 -3 -33l-68 -380h-127l66 373q2 14 2 21q0 42 -30 67t-81 25q-74 0 -117.5 -40t-43.5 -115q0 -19 1 -34t2 -25q4 -40 4 -60q0 -16 -6 -56q15 15 61 50l29 22q-26 3 -43 22t-17 47q0 48 32 79t82 31q37 0 61 -21.5t24 -54.5
q0 -32 -15.5 -59t-38 -48.5t-61.5 -52.5q-59 -47 -92 -83.5t-44 -87.5h-124l26 148q2 12 2 23q0 17 -4 69q-5 75 -5 91q0 80 39.5 138t106.5 87.5t148 29.5q69 0 122 -21.5zM273.5 284q9.5 -9 24.5 -9q22 0 35.5 14t13.5 36q0 14 -9.5 22.5t-25.5 8.5q-21 0 -34.5 -13.5
t-13.5 -35.5q0 -14 9.5 -23z" />
    <glyph glyph-name="uni0E15" unicode="&#xe15;" horiz-adv-x="628" 
d="M557 534.5q36 -42.5 36 -105.5q0 -13 -4 -41l-68 -388h-128l69 388q3 20 3 36q0 40 -24 60l-105 -58l-92 63q-34 -20 -53.5 -62t-19.5 -96q0 -30 5 -67q4 -44 4 -64q0 -16 -5 -48q11 10 27 22.5t23 17.5q30 22 35 26q-23 4 -36.5 21t-13.5 42q0 48 32 78t84 30
q36 0 59 -20.5t23 -54.5q0 -32 -15.5 -58t-38 -46t-62.5 -48q-60 -43 -93.5 -77t-44.5 -85h-124l26 148q1 6 1 21q0 16 -4 66q-5 73 -5 89q0 100 55.5 171.5t151.5 90.5l90 -69l116 69q60 -9 96 -51.5zM280.5 325q-13.5 -14 -13.5 -36q0 -14 9.5 -22.5t24.5 -8.5
q22 0 35.5 13.5t13.5 35.5q0 14 -9.5 23t-24.5 9q-22 0 -35.5 -14z" />
    <glyph glyph-name="uni0E16" unicode="&#xe16;" horiz-adv-x="598" 
d="M501.5 539.5q58.5 -46.5 58.5 -123.5q0 -18 -3 -36l-66 -380h-128l65 366q2 9 2 25q0 43 -28 69t-75 26t-88 -20t-60 -52q69 -15 109 -42l-7 -36q-38 -13 -61 -38t-29 -60l-6 -33h5q41 0 67 -23.5t26 -61.5q0 -58 -39 -94t-100 -36q-49 0 -77.5 26t-28.5 70q0 7 2 21
l22 125q7 35 31 64.5t58 44.5q-40 10 -99 18q8 66 48 117.5t103.5 80.5t140.5 29q99 0 157.5 -46.5zM207.5 132.5q-10.5 9.5 -27.5 9.5q-24 0 -39 -15t-15 -38q0 -16 10.5 -26t27.5 -10q23 0 38.5 15t15.5 39q0 16 -10.5 25.5z" />
    <glyph glyph-name="uni0E17" unicode="&#xe17;" horiz-adv-x="678" 
d="M623.5 559.5q30.5 -26.5 30.5 -74.5q0 -13 -3 -30l-80 -455h-128l80 453q1 4 1 11q0 21 -16 21q-19 0 -29 -19l-262 -466h-133l65 371h-5q-41 0 -66.5 24t-25.5 62q0 57 39 93t100 36q48 0 76.5 -25.5t28.5 -67.5q0 -7 -2 -23l-40 -230q-4 -24 -10.5 -50.5t-18.5 -67.5
l60 147l110 217q25 51 60.5 75.5t82.5 24.5q55 0 85.5 -26.5zM193 448.5q15 15.5 15 38.5q0 16 -10.5 26t-26.5 10q-24 0 -39 -15t-15 -39q0 -16 10.5 -26t26.5 -10q24 0 39 15.5z" />
    <glyph glyph-name="uni0E18" unicode="&#xe18;" horiz-adv-x="584" 
d="M97.5 23q-56.5 32 -56.5 86q0 6 2 18l30 176h127l-28 -161q-5 -24 16.5 -37.5t64.5 -13.5t68.5 13.5t30.5 37.5l23 131q2 10 2 15q0 14 -13.5 23t-50.5 17q-42 9 -119.5 20t-132.5 13q13 105 72 165t146 60q28 0 50.5 -4.5t54.5 -13.5q43 -13 63 -13q39 0 53 33l84 -23
q-47 -111 -137 -111q-17 0 -34.5 4t-43.5 12t-43.5 12t-35.5 4q-28 0 -49 -12t-26 -31q62 -5 126 -17t102 -25q36 -12 51.5 -29t15.5 -45q0 -6 -2 -24l-31 -176q-10 -63 -72.5 -99.5t-159.5 -36.5q-91 0 -147.5 32z" />
    <glyph glyph-name="uni0E19" unicode="&#xe19;" horiz-adv-x="650" 
d="M565 237q-15 -23 -35 -35q23 -10 37.5 -32t14.5 -45q0 -60 -38.5 -97.5t-100.5 -37.5q-43 0 -70 25t-27 65l2 22q-41 -17 -79.5 -44t-63.5 -58h-121l65 371h-5q-41 0 -66.5 24t-25.5 62q0 57 39 93t100 36q48 0 76.5 -25t28.5 -67q0 -16 -2 -24l-60 -342q24 28 117 68
q55 24 78.5 43.5t28.5 46.5l51 291h128l-51 -288q-6 -29 -21 -52zM193 448.5q15 15.5 15 38.5q0 16 -10.5 26t-26.5 10q-24 0 -39 -15t-15 -39q0 -16 10.5 -26t26.5 -10q24 0 39 15.5zM493 68.5q15 15.5 15 38.5q0 16 -10.5 26t-27.5 10q-23 0 -38 -15t-15 -39
q0 -16 10.5 -26t26.5 -10q24 0 39 15.5z" />
    <glyph glyph-name="uni0E1A" unicode="&#xe1a;" horiz-adv-x="651" 
d="M646 577l-80 -447q-11 -66 -75 -103t-169 -37q-100 0 -159 32.5t-59 88.5q0 7 2 19l43 241h-5q-41 0 -66.5 24t-25.5 62q0 57 39 93t100 36q48 0 76.5 -25t28.5 -67q0 -16 -2 -24l-56 -321q-1 -3 -1 -9q0 -23 25 -36.5t69 -13.5q46 0 76.5 16t34.5 43l76 428h128z
M193 448.5q15 15.5 15 38.5q0 16 -10.5 26t-26.5 10q-24 0 -39 -15t-15 -39q0 -16 10.5 -26t26.5 -10q24 0 39 15.5z" />
    <glyph glyph-name="uni0E1B" unicode="&#xe1b;" horiz-adv-x="669" 
d="M706 818l-122 -688q-12 -66 -78 -103t-176 -37q-103 0 -164.5 33t-61.5 89q0 6 2 18l43 241h-5q-41 0 -66.5 24t-25.5 62q0 57 39 93t100 36q48 0 76.5 -25t28.5 -67q0 -16 -2 -24l-56 -320q-1 -3 -1 -8q0 -24 27 -38t75 -14q51 0 83.5 16t37.5 44l118 668h128z
M193 448.5q15 15.5 15 38.5q0 16 -10.5 26t-26.5 10q-24 0 -39 -15t-15 -39q0 -16 10.5 -26t26.5 -10q24 0 39 15.5z" />
    <glyph glyph-name="uni0E1C" unicode="&#xe1c;" horiz-adv-x="649" 
d="M644 576l-102 -576h-121l-96 213l-171 -213h-135l82 470q10 52 50 84t94 32q45 0 73.5 -24.5t28.5 -63.5q0 -56 -36.5 -91.5t-93.5 -35.5h-6l-33 -194l114 134h87l66 -134l71 399h128zM205 508q-15 -15 -15 -39q0 -16 10.5 -26t27.5 -10q23 0 38.5 15.5t15.5 38.5
q0 16 -10.5 26t-27.5 10q-24 0 -39 -15z" />
    <glyph glyph-name="uni0E1D" unicode="&#xe1d;" horiz-adv-x="649" 
d="M686 818l-144 -818h-121l-96 213l-171 -213h-135l82 470q10 52 50 84t94 32q45 0 73.5 -24.5t28.5 -63.5q0 -56 -36.5 -91.5t-93.5 -35.5h-6l-33 -194l114 134h87l66 -134l113 641h128zM205 508q-15 -15 -15 -39q0 -16 10.5 -26t27.5 -10q23 0 38.5 15.5t15.5 38.5
q0 16 -10.5 26t-27.5 10q-24 0 -39 -15z" />
    <glyph glyph-name="uni0E1E" unicode="&#xe1e;" horiz-adv-x="739" 
d="M733 576l-102 -576h-140l-57 427l-208 -427h-141l65 371h-6q-41 0 -66.5 24t-25.5 62q0 57 39 93t100 36q48 0 76.5 -25t28.5 -67q0 -16 -2 -24l-37 -211q-6 -30 -19 -82l36 86l134 309h93l35 -309l6 -86q4 53 9 82l56 317h126zM193 448.5q15 15.5 15 38.5q0 16 -10.5 26
t-26.5 10q-24 0 -39 -15t-15 -39q0 -16 10.5 -26t26.5 -10q24 0 39 15.5z" />
    <glyph glyph-name="uni0E1F" unicode="&#xe1f;" horiz-adv-x="739" 
d="M776 818l-145 -818h-140l-57 427l-208 -427h-141l65 371h-6q-41 0 -66.5 24t-25.5 62q0 57 39 93t100 36q48 0 76.5 -25t28.5 -67q0 -16 -2 -24l-37 -211q-6 -30 -19 -82l36 86l134 309h93l35 -309l6 -86q4 53 9 82l99 559h126zM193 448.5q15 15.5 15 38.5q0 16 -10.5 26
t-26.5 10q-24 0 -39 -15t-15 -39q0 -16 10.5 -26t26.5 -10q24 0 39 15.5z" />
    <glyph glyph-name="uni0E20" unicode="&#xe20;" horiz-adv-x="630" 
d="M534.5 541.5q58.5 -44.5 58.5 -122.5q0 -11 -4 -39l-66 -380h-128l65 366q2 9 2 27q0 44 -27 68.5t-75 24.5q-43 0 -84 -18.5t-61 -53.5q32 -8 63.5 -19.5t49.5 -22.5l-7 -36q-42 -15 -60.5 -39.5t-18.5 -70.5v-27q0 -108 -39.5 -158.5t-119.5 -50.5q-44 0 -71.5 24
t-27.5 62q0 57 35 93t91 36q13 0 22 -4q-2 16 -2 25q0 36 16 67t42 48q-47 12 -99 18q8 66 47 117.5t102 80.5t139 29q99 0 157.5 -44.5zM127 68.5q15 15.5 15 38.5q0 16 -10.5 26t-27.5 10q-24 0 -39 -15t-15 -39q0 -16 11 -26t28 -10q23 0 38 15.5z" />
    <glyph glyph-name="uni0E21" unicode="&#xe21;" horiz-adv-x="630" 
d="M623 577l-101 -578h-111q-29 31 -68.5 56.5t-80.5 41.5q-9 -49 -49.5 -78t-100.5 -29q-46 0 -76 27t-30 68q0 57 37 94t98 41l26 151h-5q-41 0 -66.5 24t-25.5 61q0 58 38.5 94t100.5 36q49 0 77 -25t28 -67q0 -16 -2 -24l-46 -264q41 -15 82.5 -35.5t68.5 -42.5l79 449
h127zM211 448.5q15 15.5 15 38.5q0 16 -10.5 26t-27.5 10q-23 0 -38 -15t-15 -39q0 -16 10.5 -26t27.5 -10q23 0 38 15.5zM156.5 75.5q15.5 15.5 15.5 39.5q0 16 -11 25.5t-28 9.5q-23 0 -38.5 -15t-15.5 -39q0 -16 10.5 -26t27.5 -10q24 0 39.5 15.5z" />
    <glyph glyph-name="uni0E22" unicode="&#xe22;" horiz-adv-x="587" 
d="M581 576l-76 -431q-13 -73 -79 -114t-175 -41q-98 0 -159 36t-61 97q0 8 2 22l10 56q12 64 81 95q-51 28 -51 100q0 55 21.5 98.5t59.5 67.5t87 24q43 0 70.5 -22.5t27.5 -57.5q0 -53 -35 -86.5t-91 -33.5q-12 0 -21 3q-2 -26 10 -37.5t33 -11.5h108l-17 -92h-108
q-18 0 -30.5 -12t-16.5 -31l-8 -48q-1 -4 -1 -12q0 -26 25.5 -40.5t72.5 -14.5q51 0 82.5 17.5t36.5 49.5l75 419h127zM198.5 516q-14.5 -15 -14.5 -38q0 -16 10 -25.5t27 -9.5q23 0 37.5 15t14.5 38q0 16 -10 25.5t-27 9.5q-23 0 -37.5 -15z" />
    <glyph glyph-name="uni0E23" unicode="&#xe23;" horiz-adv-x="498" 
d="M215.5 474q-18.5 -12 -22.5 -31q116 -11 179.5 -43t63.5 -78q0 -8 -1 -12l-36 -203q-9 -52 -49 -84.5t-95 -32.5q-44 0 -72.5 24.5t-28.5 63.5q0 56 36.5 91.5t93.5 35.5h4l15 84q5 29 -76 50.5t-182 26.5q13 103 66.5 161.5t130.5 58.5q27 0 48 -4.5t46 -12.5
q15 -5 29.5 -8.5t27.5 -3.5q15 0 29.5 9.5t21.5 24.5l84 -27q-22 -51 -57 -80.5t-73 -29.5q-17 0 -32 4t-37 12q-23 8 -39 12t-34 4q-22 0 -40.5 -12zM295 68.5q15 15.5 15 38.5q0 16 -10.5 26t-27.5 10q-23 0 -38 -15t-15 -39q0 -16 10.5 -26t27.5 -10q23 0 38 15.5z" />
    <glyph glyph-name="uni0E24" unicode="&#xe24;" horiz-adv-x="598" 
d="M458 564.5q49 -21.5 75.5 -60t26.5 -88.5q0 -18 -3 -36l-110 -630h-128l109 616q2 9 2 25q0 43 -28 69t-75 26t-88 -20t-60 -52q69 -15 109 -42l-7 -36q-38 -13 -61 -38t-29 -60l-6 -33h5q41 0 67 -23.5t26 -61.5q0 -58 -39 -94t-100 -36q-49 0 -77.5 26t-28.5 70
q0 7 2 21l22 125q7 35 31 64.5t58 44.5q-40 10 -99 18q8 66 48 117.5t103.5 80.5t140.5 29q65 0 114 -21.5zM207.5 132.5q-10.5 9.5 -27.5 9.5q-24 0 -39 -15t-15 -38q0 -16 10.5 -26t27.5 -10q23 0 38.5 15t15.5 39q0 16 -10.5 25.5z" />
    <glyph glyph-name="uni0E25" unicode="&#xe25;" horiz-adv-x="600" 
d="M504 545q62 -41 62 -110q0 -18 -2 -27l-71 -408h-128l39 219q1 4 1 12q0 31 -27.5 50.5t-71.5 19.5q-47 0 -79.5 -20.5t-38.5 -54.5l-4 -21h4q41 0 67 -23.5t26 -61.5q0 -58 -39 -94t-100 -36q-48 0 -76.5 25.5t-28.5 67.5q0 16 2 24l21 118q14 74 78 120.5t155 46.5
q42 0 79 -12.5t54 -32.5l12 64q1 4 1 10q0 30 -30 47.5t-81 17.5q-54 0 -95 -21.5t-54 -57.5h-124q13 82 89.5 130.5t192.5 48.5q105 0 167 -41zM205.5 133q-10.5 10 -27.5 10q-23 0 -38.5 -15t-15.5 -39q0 -16 10.5 -26t27.5 -10q23 0 38.5 15.5t15.5 38.5q0 16 -10.5 26z
" />
    <glyph glyph-name="uni0E26" unicode="&#xe26;" horiz-adv-x="622" 
d="M528 541q57 -45 57 -122q0 -13 -4 -39l-111 -630h-127l108 616q3 15 3 28q0 43 -26 67.5t-72 24.5q-43 0 -81.5 -18t-59.5 -54q32 -8 63.5 -19.5t49.5 -22.5l-7 -36q-42 -15 -60.5 -39.5t-18.5 -70.5v-27q0 -108 -39.5 -158.5t-119.5 -50.5q-44 0 -71.5 24t-27.5 62
q0 57 35 93t91 36q13 0 22 -4q-2 16 -2 25q0 36 16.5 67.5t41.5 47.5q-48 12 -99 18q8 66 46.5 118t100 80.5t137.5 28.5q98 0 155 -45zM127 68.5q15 15.5 15 38.5q0 16 -10.5 26t-27.5 10q-24 0 -39 -15t-15 -39q0 -16 11 -26t28 -10q23 0 38 15.5z" />
    <glyph glyph-name="uni0E27" unicode="&#xe27;" horiz-adv-x="535" 
d="M448.5 547q53.5 -39 53.5 -109q0 -15 -3 -32l-53 -299q-10 -52 -50 -84.5t-95 -32.5q-45 0 -73 24.5t-28 63.5q0 56 36.5 91.5t93.5 35.5h5l35 194q2 14 2 20q0 33 -21 50t-62 17q-45 0 -77 -25.5t-45 -70.5h-127q13 91 83 143.5t176 52.5q96 0 149.5 -39zM341.5 68
q14.5 15 14.5 39q0 16 -10.5 26t-26.5 10q-24 0 -39 -15t-15 -39q0 -16 10.5 -26t27.5 -10q24 0 38.5 15z" />
    <glyph glyph-name="uni0E28" unicode="&#xe28;" horiz-adv-x="624" 
d="M563 504q25 -34 25 -81q0 -16 -3 -33l-69 -390h-127l66 377q2 8 2 22q0 13 -2 19q-38 -24 -69 -41q28 -23 28 -57q0 -50 -32 -82t-84 -32q-23 0 -41.5 8.5t-25.5 22.5q-20 -23 -36 -56.5t-21 -66.5l-21 -114h-124l26 150q2 16 2 27q0 18 -4 64q-1 10 -3 35.5t-2 46.5
q0 78 36.5 137.5t104.5 92.5t160 33q75 0 133 -22q20 31 32 68h140q-24 -63 -91 -128zM224.5 353q33.5 31 73.5 39q64 45 106 84q-28 10 -62 10q-72 0 -117 -34.5t-52 -97.5q-3 -22 -4 -48.5t-1 -34.5q23 51 56.5 82zM340.5 274q13.5 14 13.5 36q0 14 -9.5 22.5t-24.5 8.5
q-21 0 -35 -13.5t-14 -35.5q0 -14 9.5 -23t25.5 -9q21 0 34.5 14z" />
    <glyph glyph-name="uni0E29" unicode="&#xe29;" horiz-adv-x="718" 
d="M614 247l-21 -117q-12 -66 -78.5 -103t-179.5 -37q-105 0 -168 33t-63 89q0 6 2 18l43 241h-5q-41 0 -66.5 24t-25.5 62q0 57 39 93t100 36q48 0 76.5 -25t28.5 -67q0 -16 -2 -24l-56 -321q-5 -27 24 -43t82 -16t86.5 15.5t38.5 43.5l10 59q-9 -1 -28 -1q-73 0 -118 30.5
t-45 80.5q0 49 32 80.5t82 31.5q36 0 59 -19.5t23 -49.5q0 -24 -9 -43.5t-24 -30.5q14 -2 22 -2q13 0 20 1l51 291h128l-40 -224q32 29 56 68l58 -53q-50 -78 -132 -121zM193 448.5q15 15.5 15 38.5q0 16 -10.5 26t-26.5 10q-24 0 -39 -15t-15 -39q0 -16 10.5 -26t26.5 -10
q24 0 39 15.5zM410.5 313q12.5 13 12.5 33q0 14 -9 22.5t-23 8.5q-19 0 -31 -13t-12 -33q0 -14 8.5 -22.5t21.5 -8.5q20 0 32.5 13z" />
    <glyph glyph-name="uni0E2A" unicode="&#xe2a;" horiz-adv-x="600" 
d="M542 510q24 -31 24 -75q0 -18 -2 -27l-71 -408h-128l38 209q1 4 1 13q0 32 -28 51t-71 19q-48 0 -79.5 -17.5t-38.5 -50.5l-3 -19h4q41 0 67 -23.5t26 -61.5q0 -58 -39 -94t-100 -36q-48 0 -76.5 25.5t-28.5 67.5q0 16 2 24l21 116q10 60 58 100.5t118 53.5
q86 55 141 104q-23 5 -49 5q-54 0 -95 -21.5t-54 -57.5h-124q13 81 89.5 130t192.5 49q70 0 124 -20q26 35 36 66h137q-19 -59 -92 -122zM439 421q0 5 -2 13q-43 -27 -96 -55q55 -9 84 -41l13 73zM205.5 133q-10.5 10 -27.5 10q-23 0 -38.5 -15t-15.5 -39q0 -16 10.5 -26
t27.5 -10q23 0 38.5 15.5t15.5 38.5q0 16 -10.5 26z" />
    <glyph glyph-name="uni0E2B" unicode="&#xe2b;" horiz-adv-x="645" 
d="M618 438.5q-14 -27.5 -40 -44.5q17 -22 17 -57q0 -7 -2 -23l-55 -314h-128l53 298q1 5 1 13q0 18 -15 18q-14 0 -32 -25l-220 -304h-113l65 371h-5q-41 0 -66.5 24t-25.5 62q0 57 39 93t100 36q48 0 76.5 -25t28.5 -67q0 -16 -2 -24l-36 -205q-7 -40 -26 -101l134 188
q17 21 31 34t30 20q-17 22 -17 53q0 56 36 91.5t93 35.5q41 0 67 -24t26 -62q0 -34 -14 -61.5zM193 448.5q15 15.5 15 38.5q0 16 -10.5 26t-26.5 10q-24 0 -39 -15t-15 -39q0 -16 10.5 -26t26.5 -10q24 0 39 15.5zM490.5 508q-15.5 -15 -15.5 -39q0 -16 10.5 -26t27.5 -10
q23 0 38.5 15.5t15.5 38.5q0 16 -10.5 26t-27.5 10q-23 0 -38.5 -15z" />
    <glyph glyph-name="uni0E2C" unicode="&#xe2c;" horiz-adv-x="739" 
d="M716 542q4 -11 4 -27q0 -7 -2 -23l-87 -492h-148l-76 275l-173 -275h-149l65 371h-6q-41 0 -66.5 24t-25.5 62q0 57 39 93t100 36q48 0 76.5 -25.5t28.5 -67.5q0 -7 -2 -23l-40 -229q-5 -26 -21 -91l143 233h92l69 -233q5 51 11 91l26 152h-5q-41 0 -67 23.5t-26 61.5
q0 58 38.5 94t100.5 36q20 0 33 -4q22 19 27 47h121q-19 -66 -80 -109zM617.5 470.5q15.5 15.5 15.5 38.5q0 16 -10.5 26t-27.5 10q-24 0 -39 -15t-15 -39q0 -16 10.5 -26t27.5 -10q23 0 38.5 15.5zM193 448.5q15 15.5 15 38.5q0 16 -10.5 26t-26.5 10q-24 0 -39 -15
t-15 -39q0 -16 10.5 -26t26.5 -10q24 0 39 15.5z" />
    <glyph glyph-name="uni0E2D" unicode="&#xe2d;" horiz-adv-x="601" 
d="M461 567q51 -19 79 -53t28 -79q0 -18 -2 -27l-48 -268q-12 -71 -76.5 -110.5t-168.5 -39.5q-97 0 -153.5 34.5t-56.5 93.5q0 6 2 22l23 130q8 51 47.5 83t94.5 32q44 0 72 -23.5t28 -61.5q0 -56 -35.5 -90.5t-92.5 -34.5h-5l-5 -28q-4 -26 21 -41.5t71 -15.5
q48 0 76.5 17t32.5 48l44 248q1 4 1 13q0 32 -28.5 51t-76.5 19q-53 0 -94 -21.5t-54 -57.5h-124q9 53 48 93.5t99.5 63t134.5 22.5q67 0 118 -19zM191.5 308.5q-14.5 -14.5 -14.5 -37.5q0 -16 10 -25.5t27 -9.5q23 0 37.5 14.5t14.5 38.5q0 15 -10.5 24.5t-26.5 9.5
q-23 0 -37.5 -14.5z" />
    <glyph glyph-name="uni0E2E" unicode="&#xe2e;" horiz-adv-x="584" 
d="M535 460q5 -15 5 -38q0 -18 -2 -27l-45 -254q-13 -71 -77.5 -111t-168.5 -40q-98 0 -154.5 34.5t-56.5 93.5q0 7 2 23l20 114q10 51 49.5 83t92.5 32q44 0 72 -24t28 -62q0 -55 -35.5 -89.5t-92.5 -34.5h-5l-2 -13q-4 -26 20.5 -41.5t71.5 -15.5q48 0 77 17t34 48l42 245
q-63 -17 -136 -17q-86 0 -134.5 23t-48.5 64q0 53 61 84.5t164 31.5q52 0 95 -13t72 -37q16 21 22 53h113q-16 -76 -83 -129zM279 461q70 0 123 17q-26 36 -98 36q-44 0 -73 -9t-29 -23q0 -21 77 -21zM161 293.5q-15 -14.5 -15 -38.5q0 -15 10.5 -25t26.5 -10q23 0 37.5 15
t14.5 38q0 16 -10 25.5t-26 9.5q-23 0 -38 -14.5z" />
    <glyph glyph-name="uni0E2F" unicode="&#xe2f;" horiz-adv-x="574" 
d="M532 556.5q22 -19.5 22 -52.5q0 -5 -2 -19l-86 -485h-127l80 453v3q0 15 -15 16q-42 -55 -102.5 -88.5t-122.5 -33.5q-56 0 -89.5 28.5t-33.5 73.5q0 60 38.5 97t101.5 37q45 0 73.5 -24.5t28.5 -63.5q0 -17 -6 -37q60 35 87 115h94q37 0 59 -19.5zM207 448.5
q15 15.5 15 38.5q0 16 -10.5 26t-27.5 10q-23 0 -38 -15t-15 -39q0 -16 10.5 -26t27.5 -10q23 0 38 15.5z" />
    <glyph glyph-name="uni0E30" unicode="&#xe30;" horiz-adv-x="548" 
d="M126.5 347q-50.5 33 -50.5 87q0 59 39.5 96t102.5 37q44 0 72.5 -26t28.5 -66q0 -17 -6.5 -35.5t-17.5 -33.5q59 11 95 50t50 114h127q-14 -76 -57 -134t-107.5 -90t-140.5 -32q-85 0 -135.5 33zM168 486q-15 -15 -15 -38q0 -16 10 -25.5t27 -9.5q23 0 38 15t15 38
q0 16 -10 25.5t-27 9.5q-23 0 -38 -15zM337.5 155.5q35.5 38.5 48.5 113.5h128q-14 -76 -57 -134t-108 -90.5t-141 -32.5q-84 0 -135 33.5t-51 87.5q0 59 40 96t103 37q44 0 72 -26t28 -67q0 -17 -6 -35.5t-17 -32.5q60 12 95.5 50.5zM175 126.5q15 15.5 15 38.5
q0 16 -10.5 25.5t-27.5 9.5q-23 0 -37.5 -15t-14.5 -39q0 -16 10 -25.5t27 -9.5q23 0 38 15.5z" />
    <glyph glyph-name="uni0E31" unicode="&#xe31;" 
d="M203 927q-14 -74 -59 -131.5t-113 -89.5t-150 -32t-133.5 32.5t-51.5 84.5q0 56 36 90.5t94 34.5q41 0 66.5 -23t25.5 -60q0 -50 -30 -85q81 1 139.5 50.5t72.5 128.5h103zM-228 779q11 -10 28 -10q23 0 38 15t15 39q0 15 -10.5 24.5t-27.5 9.5q-24 0 -39 -14.5
t-15 -37.5q0 -16 11 -26z" />
    <glyph glyph-name="uni0E32" unicode="&#xe32;" horiz-adv-x="510" 
d="M347 408q1 6 1 16q0 29 -19 45.5t-54 16.5q-45 0 -75 -25.5t-38 -70.5h-122q10 91 74.5 143.5t168.5 52.5q91 0 143 -37t52 -102q0 -14 -3 -31l-73 -416h-127z" />
    <glyph glyph-name="uni0E33" unicode="&#xe33;" horiz-adv-x="510" 
d="M-136 687q-31 28 -31 72q0 65 42.5 106.5t110.5 41.5q50 0 81.5 -28t31.5 -73q0 -65 -43.5 -106t-111.5 -41q-49 0 -80 28zM3 745.5q20 19.5 20 48.5q0 20 -13 32.5t-35 12.5q-28 0 -47.5 -19t-19.5 -49q0 -20 12.5 -32.5t34.5 -12.5q28 0 48 19.5zM347 408q1 6 1 16
q0 29 -19 45.5t-54 16.5q-45 0 -75 -25.5t-38 -70.5h-122q10 91 74.5 143.5t168.5 52.5q91 0 143 -37t52 -102q0 -14 -3 -31l-73 -416h-127z" />
    <glyph glyph-name="uni0E34" unicode="&#xe34;" 
d="M-153.5 697q-107.5 18 -207.5 18q-58 0 -106 -8q8 61 44 107t93 71.5t126 25.5q104 0 162.5 -55.5t58.5 -154.5q0 -23 -3 -49q-60 27 -167.5 45zM-122 813.5q-34 23.5 -85 23.5q-45 0 -81.5 -16.5t-52.5 -45.5q14 1 46 1q58 0 116.5 -8t102.5 -22q-12 44 -46 67.5z" />
    <glyph glyph-name="uni0E35" unicode="&#xe35;" 
d="M17 708q1 -26 -3 -56q-60 27 -167.5 45t-207.5 18q-58 0 -106 -8q8 61 44 107t93 71.5t126 25.5q88 0 143 -40l15 83h106zM-178.5 768q58.5 -8 102.5 -22q-12 44 -46 67.5t-85 23.5q-45 0 -81.5 -16.5t-52.5 -45.5q14 1 46 1q58 0 116.5 -8z" />
    <glyph glyph-name="uni0E36" unicode="&#xe36;" 
d="M67 824.5q-24 -28.5 -65 -34.5q15 -39 15 -89q0 -23 -3 -49q-60 27 -167.5 45t-207.5 18q-58 0 -106 -8q8 61 44 107t93 71.5t126 25.5q65 0 114 -23q9 36 37 57t67 21q34 0 55.5 -20t21.5 -51q0 -42 -24 -70.5zM22.5 854q11.5 12 11.5 31q0 12 -8 20t-21 8
q-19 0 -30.5 -12t-11.5 -31q0 -12 8 -20t21 -8q19 0 30.5 12zM-178.5 768q58.5 -8 102.5 -22q-12 44 -46 67.5t-85 23.5q-45 0 -81.5 -16.5t-52.5 -45.5q14 1 46 1q58 0 116.5 -8z" />
    <glyph glyph-name="uni0E37" unicode="&#xe37;" 
d="M17 708q1 -26 -3 -56q-60 27 -167.5 45t-207.5 18q-58 0 -106 -8q8 61 44 107t93 71.5t126 25.5q13 0 39 -2l8 45h81l-12 -67q29 -14 49 -34l18 101h81zM-178.5 768q58.5 -8 102.5 -22q-12 44 -46 67.5t-85 23.5q-45 0 -81.5 -16.5t-52.5 -45.5q14 1 46 1q58 0 116.5 -8z
" />
    <glyph glyph-name="uni0E38" unicode="&#xe38;" 
d="M-253 -248q-7 -3 -30 -3q-34 0 -55.5 21t-21.5 54q0 51 35.5 83.5t91.5 32.5q46 0 73 -21.5t27 -56.5q0 -4 -2 -16l-35 -199h-102zM-236 -182q13 13 13 34q0 14 -9 23t-25 9q-21 0 -34 -13t-13 -34q0 -14 9 -23t25 -9q21 0 34 13z" />
    <glyph glyph-name="uni0E39" unicode="&#xe39;" 
d="M-400 -329q-37 21 -37 55q0 6 1 10l6 30q-9 -3 -28 -3q-31 0 -51 19.5t-20 50.5q0 47 32.5 77t84.5 30q39 0 63 -19.5t24 -51.5q0 -9 -1 -14l-17 -94q-3 -17 8 -27t32 -10t35.5 10t17.5 27l31 174h100l-35 -199q-7 -39 -47.5 -62.5t-105.5 -23.5q-56 0 -93 21z
M-414.5 -172.5q12.5 12.5 12.5 32.5q0 13 -9 21t-23 8q-19 0 -31 -12.5t-12 -32.5q0 -13 8.5 -21t21.5 -8q20 0 32.5 12.5z" />
    <glyph glyph-name="uni0E3A" unicode="&#xe3a;" 
d="M-254.5 -193.5q-17.5 16.5 -17.5 42.5q0 40 25 65.5t65 25.5q28 0 45.5 -17t17.5 -43q0 -40 -25 -65t-65 -25q-28 0 -45.5 16.5z" />
    <glyph glyph-name="uni0E3F" unicode="&#xe3f;" horiz-adv-x="603" 
d="M565 242q0 -114 -66.5 -178t-186.5 -64h-5l-14 -79h-110l14 79h-173l123 700h174l12 69h110l-13 -72q79 -11 121 -48t42 -96t-30 -101.5t-93 -73.5l-1 -3q96 -39 96 -133zM414.5 449q30.5 28 30.5 74q0 31 -24 48.5t-72 17.5h-77l-30 -168h96q46 0 76.5 28zM389.5 145.5
q33.5 34.5 33.5 90.5q0 80 -116 80h-83l-36 -205h116q52 0 85.5 34.5z" />
    <glyph glyph-name="uni0E40" unicode="&#xe40;" horiz-adv-x="326" 
d="M263 181.5q26 -23.5 26 -61.5q0 -58 -39 -94t-100 -36q-48 0 -76.5 26t-28.5 68q0 7 2 23l82 469h128l-65 -371h4q41 0 67 -23.5zM208.5 68.5q15.5 15.5 15.5 38.5q0 16 -10.5 26t-27.5 10q-24 0 -39 -15t-15 -39q0 -16 10.5 -26t27.5 -10q23 0 38.5 15.5z" />
    <glyph glyph-name="uni0E41" unicode="&#xe41;" horiz-adv-x="616" 
d="M263 181.5q26 -23.5 26 -61.5q0 -58 -39 -94t-100 -36q-48 0 -76.5 26t-28.5 68q0 7 2 23l82 469h128l-65 -371h4q41 0 67 -23.5zM208.5 68.5q15.5 15.5 15.5 38.5q0 16 -10.5 26t-27.5 10q-24 0 -39 -15t-15 -39q0 -16 10.5 -26t27.5 -10q23 0 38.5 15.5zM553 181.5
q26 -23.5 26 -61.5q0 -58 -39 -94t-100 -36q-48 0 -76.5 26t-28.5 68q0 7 2 23l82 469h128l-65 -371h4q41 0 67 -23.5zM498.5 68.5q15.5 15.5 15.5 38.5q0 16 -10.5 26t-27.5 10q-24 0 -39 -15t-15 -39q0 -16 10.5 -26t27.5 -10q23 0 38.5 15.5z" />
    <glyph glyph-name="uni0E42" unicode="&#xe42;" horiz-adv-x="409" 
d="M518 973q-15 -49 -48.5 -82t-77.5 -33q-23 0 -40 5.5t-40 15.5q-19 8 -32.5 12.5t-28.5 4.5q-22 0 -39.5 -10.5t-25.5 -27.5q78 -21 117 -51.5t39 -76.5q0 -7 -2 -21l-88 -504h5q41 0 66 -24t25 -63q0 -57 -38.5 -92.5t-99.5 -35.5q-49 0 -77.5 26t-28.5 70q0 7 2 21
l103 585q1 3 1 10q0 40 -50.5 67t-112.5 29q8 64 39 108.5t74 66.5t87 22q30 0 54 -8t51 -21q30 -16 44 -16q11 0 22 10.5t17 28.5zM273.5 133q-10.5 10 -27.5 10q-24 0 -38.5 -15t-14.5 -39q0 -16 10.5 -26t27.5 -10q23 0 38 15.5t15 38.5q0 16 -10.5 26z" />
    <glyph glyph-name="uni0E43" unicode="&#xe43;" horiz-adv-x="435" 
d="M356.5 181q25.5 -24 25.5 -63q0 -57 -38.5 -92.5t-99.5 -35.5q-49 0 -77.5 26t-28.5 68q0 7 2 23l92 522q8 45 25 77.5t43 67.5q21 29 30.5 48.5t9.5 42.5q0 26 -21 40t-56 14q-22 0 -42 -7.5t-35 -20.5h7q34 0 56 -21t22 -54q0 -52 -36 -84.5t-93 -32.5
q-44 0 -71.5 27.5t-27.5 70.5q0 60 30.5 107t84.5 74t121 27q53 0 96 -17t68 -47.5t25 -69.5q0 -37 -11 -59.5t-35 -51.5q-25 -31 -39 -56t-21 -67l-76 -432h4q41 0 66.5 -24zM190.5 829q-9.5 9 -24.5 9q-21 0 -34.5 -14t-13.5 -36q0 -14 9.5 -23t23.5 -9q22 0 35.5 14
t13.5 36q0 14 -9.5 23zM302 68.5q15 15.5 15 38.5q0 16 -10.5 26t-26.5 10q-24 0 -39 -15t-15 -39q0 -16 10.5 -26t27.5 -10q23 0 38 15.5z" />
    <glyph glyph-name="uni0E44" unicode="&#xe44;" horiz-adv-x="449" 
d="M370.5 181q25.5 -24 25.5 -61q0 -58 -38.5 -94t-100.5 -36q-49 0 -77.5 26t-28.5 68q0 7 2 23l132 743l-131 -156l-91 31q8 138 8 237l-1 49h103q2 -109 -6 -193l150 178h121l-139 -791h5q41 0 66.5 -24zM316 68.5q15 15.5 15 38.5q0 16 -10.5 26t-27.5 10
q-24 0 -38.5 -15t-14.5 -39q0 -16 10.5 -26t26.5 -10q24 0 39 15.5z" />
    <glyph glyph-name="uni0E45" unicode="&#xe45;" horiz-adv-x="308" 
d="M145 408q1 6 1 16q0 29 -19 45.5t-54 16.5q-45 0 -75 -25.5t-38 -70.5h-122q10 91 74.5 143.5t168.5 52.5q92 0 143.5 -37t51.5 -102q0 -14 -3 -31l-117 -666h-127z" />
    <glyph glyph-name="uni0E46" unicode="&#xe46;" horiz-adv-x="666" 
d="M613 440q0 -17 -3 -35l-115 -655h-128l115 655q1 6 1 18q0 36 -20 58l-98 -60l-85 60q-38 -20 -54 -65h7q48 0 77.5 -25t29.5 -65q0 -36 -19 -66t-52 -47.5t-73 -17.5q-52 0 -81 29.5t-29 82.5q0 60 28.5 119t77 102t106.5 58l83 -66l97 66q135 -40 135 -146zM249.5 339
q-10.5 10 -27.5 10q-22 0 -38 -15.5t-16 -38.5q0 -16 11 -25.5t28 -9.5q23 0 38 15.5t15 37.5q0 16 -10.5 26z" />
    <glyph glyph-name="uni0E47" unicode="&#xe47;" 
d="M-14.5 832q20.5 -17 20.5 -45q0 -46 -32.5 -74.5t-84.5 -28.5q-39 0 -75.5 18.5t-59.5 49.5q-16 -9 -34.5 -26.5t-48.5 -50.5q-37 11 -58.5 43.5t-21.5 75.5q0 71 51 114.5t135 43.5h111q57 0 72 83h93q-14 -82 -57 -123.5t-113 -41.5h-120q-32 0 -52.5 -19.5
t-20.5 -50.5q0 -20 6 -29q37 40 88 61q19 -30 51 -59q5 34 32 55t66 21q32 0 52.5 -17zM-60.5 748.5q10.5 10.5 10.5 26.5q0 11 -7.5 18t-18.5 7q-16 0 -26 -10.5t-10 -27.5q0 -10 7 -17t18 -7q16 0 26.5 10.5z" />
    <glyph glyph-name="uni0E48" unicode="&#xe48;" 
d="M-71 903h118l-39 -219h-118z" />
    <glyph glyph-name="uni0E49" unicode="&#xe49;" 
d="M161 959q-20 -80 -77.5 -142.5t-142.5 -97.5t-182 -35h-51l9 53q53 18 100 55h-4q-34 0 -55 19t-21 50q0 49 32 79.5t83 30.5q36 0 59 -21t23 -55q0 -31 -17.5 -67.5t-43.5 -59.5q62 17 116 72.5t68 118.5h104zM-192 852.5q8 -7.5 21 -7.5q19 0 31 11.5t12 30.5
q0 13 -8 21t-22 8q-19 0 -30.5 -12t-11.5 -31q0 -13 8 -20.5z" />
    <glyph glyph-name="uni0E4A" unicode="&#xe4a;" 
d="M145 954q-23 -128 -106 -199t-211 -71l11 58q26 14 45 43t19 57q0 32 -22 45l-67 -43l-53 41q-23 -12 -44 -38q32 0 52 -18.5t20 -47.5q0 -43 -28 -70t-73 -27q-35 0 -56.5 22.5t-21.5 58.5q0 46 20.5 86.5t57 68t81.5 35.5l53 -44l69 43q46 -7 71 -32t25 -62
q0 -53 -47 -99q42 27 67 72.5t38 120.5h100zM-273.5 789.5q-7.5 6.5 -19.5 6.5q-17 0 -27.5 -10.5t-10.5 -27.5q0 -11 7.5 -18t19.5 -7q16 0 27 11t11 28q0 11 -7.5 17.5z" />
    <glyph glyph-name="uni0E4B" unicode="&#xe4b;" 
d="M105 762h-86l-14 -78h-110l13 78h-87l14 84h88l13 77h111l-14 -77h87z" />
    <glyph glyph-name="uni0E4C" unicode="&#xe4c;" 
d="M132 983q-8 -49 -42 -74t-110 -48q-11 -3 -20 -7q19 -21 19 -52q0 -52 -33.5 -85t-86.5 -33q-39 0 -63 23t-24 60q0 53 32.5 85t62.5 43.5t93 30.5q36 10 54.5 21t23.5 36h94zM-96.5 756.5q12.5 13.5 12.5 33.5q0 13 -9 21t-23 8q-20 0 -32 -12.5t-12 -32.5
q0 -13 8.5 -22t22.5 -9q20 0 32.5 13.5z" />
    <glyph glyph-name="uni0E4D" unicode="&#xe4d;" 
d="M-136 687q-31 28 -31 72q0 65 42.5 106.5t110.5 41.5q50 0 81.5 -28t31.5 -73q0 -65 -43.5 -106t-111.5 -41q-49 0 -80 28zM3 745.5q20 19.5 20 48.5q0 20 -13 32.5t-35 12.5q-28 0 -47.5 -19t-19.5 -49q0 -20 12.5 -32.5t34.5 -12.5q28 0 48 19.5z" />
    <glyph glyph-name="uni0E4E" unicode="&#xe4e;" 
d="M-197 702q-29 21 -29 55q0 41 32 71.5t83 38.5q-10 8 -15.5 20.5t-5.5 27.5q0 28 20.5 52t56 38t77.5 14q50 0 91 -22l-36 -66q-15 7 -34 11.5t-34 4.5q-22 0 -35 -9t-13 -25q0 -14 16 -23t55 -18l-35 -54q-28 11 -59 11q-30 0 -48.5 -12.5t-18.5 -33.5q0 -16 14.5 -25.5
t39.5 -9.5t51 10l-6 -58q-41 -19 -90 -19q-48 0 -77 21z" />
    <glyph glyph-name="uni0E4F" unicode="&#xe4f;" horiz-adv-x="626" 
d="M156.5 15.5q-48.5 25.5 -75.5 71t-27 104.5q0 88 38.5 157.5t107 108t156.5 38.5q62 0 110.5 -25.5t75.5 -71t27 -104.5q0 -89 -38 -158t-107 -107.5t-157 -38.5q-62 0 -110.5 25.5zM395 83.5q51 28.5 79 80t28 117.5t-43.5 107.5t-113.5 41.5q-65 0 -116 -28.5
t-79.5 -80t-28.5 -116.5q0 -67 44 -108.5t114 -41.5q65 0 116 28.5zM199.5 131q-33.5 32 -33.5 82q0 77 47.5 125t123.5 48q53 0 87 -32t34 -82q0 -76 -48 -124.5t-124 -48.5q-53 0 -86.5 32zM369 186.5q28 28.5 28 73.5q0 29 -19.5 48t-50.5 19q-44 0 -72.5 -28.5
t-28.5 -72.5q0 -30 20 -49t51 -19q44 0 72 28.5z" />
    <glyph glyph-name="uni0E50" unicode="&#xe50;" horiz-adv-x="666" 
d="M157 14q-58 24 -90 67t-32 97q0 74 42 132.5t117 91t170 32.5q74 0 131.5 -24t90 -66.5t32.5 -97.5q0 -74 -42 -132.5t-117 -91t-170 -32.5q-74 0 -132 24zM402 104.5q43 18.5 67.5 52t24.5 75.5q0 47 -40 77t-105 30q-55 0 -98 -19t-67.5 -52.5t-24.5 -75.5
q0 -47 40 -76.5t105 -29.5q55 0 98 18.5z" />
    <glyph glyph-name="uni0E51" unicode="&#xe51;" horiz-adv-x="691" 
d="M509 408q61 -26 95 -73.5t34 -109.5q0 -65 -34 -135t-88 -113h-133q58 43 94.5 107t36.5 120q0 61 -43 98t-114 37q-58 0 -104 -22t-72.5 -61t-26.5 -87q0 -44 24.5 -71t65.5 -27q21 0 38.5 8t28.5 23q-36 0 -58.5 21t-22.5 54q0 49 33.5 79t86.5 30q41 0 66 -24t25 -63
q0 -55 -31 -103t-83 -77t-112 -29q-83 0 -133 46t-50 123q0 80 42.5 142.5t119 97.5t174.5 35q80 0 141 -26zM302 163q9 -9 24 -9q22 0 35 13.5t13 35.5q0 14 -9.5 22.5t-24.5 8.5q-21 0 -34 -13t-13 -35q0 -14 9 -23z" />
    <glyph glyph-name="uni0E52" unicode="&#xe52;" horiz-adv-x="716" 
d="M644.5 399.5q30.5 -34.5 30.5 -98.5q0 -151 -86 -231t-250 -80q-138 0 -212.5 45t-74.5 128q0 17 3 35l47 269q3 16 -6 26t-29 12l19 103h56q46 0 69.5 -19.5t23.5 -56.5q0 -7 -2 -23l-55 -308q-2 -16 -2 -23q0 -47 42 -69.5t131 -22.5q109 0 162 51.5t53 155.5
q0 28 -8 43.5t-24 15.5q-18 0 -31.5 -14.5t-19.5 -40.5h-53q0 25 -11.5 40.5t-31.5 15.5q-18 0 -34 -12.5t-26 -33.5q13 5 25 5q34 0 55.5 -20.5t21.5 -52.5q0 -49 -33.5 -79.5t-86.5 -30.5q-41 0 -66.5 27t-25.5 70q0 57 22.5 105t61 75.5t85.5 27.5q26 0 47.5 -14
t30.5 -38q15 25 40.5 38.5t54.5 13.5q57 0 87.5 -34.5zM355 252.5q-9 8.5 -23 8.5q-20 0 -33 -12.5t-13 -33.5q0 -13 9 -21.5t23 -8.5q20 0 33 12.5t13 33.5q0 13 -9 21.5z" />
    <glyph glyph-name="uni0E53" unicode="&#xe53;" horiz-adv-x="709" 
d="M627 403q37 -31 37 -87q0 -15 -3 -32l-51 -284h-122l51 287q1 4 1 13q0 18 -11 28.5t-31 10.5q-22 0 -39.5 -15.5t-21.5 -39.5l-50 -284h-112l48 269q1 5 1 15q0 26 -14 40.5t-39 14.5q-76 0 -106 -126q-2 -7 -6 -31q18 7 32 7q33 0 54.5 -22t21.5 -56q0 -53 -36 -87
t-92 -34q-49 0 -79.5 39t-30.5 104q0 87 31 155.5t86 107t125 38.5q47 0 78.5 -16.5t41.5 -46.5q20 31 56.5 47t78.5 16q64 0 101 -31zM192.5 121q-9.5 9 -24.5 9q-22 0 -35 -13.5t-13 -34.5q0 -14 9.5 -23t24.5 -9q21 0 34.5 13t13.5 35q0 14 -9.5 23z" />
    <glyph glyph-name="uni0E54" unicode="&#xe54;" horiz-adv-x="688" 
d="M505.5 8q-34.5 11 -61.5 11q-16 0 -78 -11q-36 -6 -75.5 -12t-64.5 -6q-86 0 -139.5 48.5t-53.5 128.5q0 124 89.5 193.5t250.5 74.5q89 2 119.5 5.5t56.5 13.5q35 14 63.5 53t41.5 101h106q-20 -77 -47.5 -125t-63 -74t-84.5 -43q-32 -11 -77 -14.5t-130 -3.5
q-91 -1 -146 -48.5t-55 -126.5q0 -45 26.5 -70.5t68.5 -25.5q22 0 70 6q10 1 42 4q-50 11 -81.5 40.5t-31.5 66.5q0 51 35 83.5t90 32.5q40 0 64 -21t24 -55q0 -30 -16 -56.5t-42 -40.5q80 -17 132 -35.5t99 -53.5l-60 -74q-37 23 -71.5 34zM384 189q13 13 13 34q0 14 -9 23
t-24 9q-21 0 -34.5 -13t-13.5 -35q0 -14 9.5 -22.5t24.5 -8.5q21 0 34 13z" />
    <glyph glyph-name="uni0E55" unicode="&#xe55;" horiz-adv-x="688" 
d="M212 299.5q-55 -47.5 -55 -126.5q0 -45 26.5 -70.5t68.5 -25.5q22 0 70 6q10 1 42 4q-50 11 -81.5 40.5t-31.5 66.5q0 51 35 83.5t90 32.5q40 0 64 -21t24 -55q0 -30 -16 -56.5t-42 -40.5q80 -17 132 -35.5t99 -53.5l-60 -74q-37 23 -71.5 34t-61.5 11q-16 0 -78 -11
q-36 -6 -75.5 -12t-64.5 -6q-86 0 -139.5 48.5t-53.5 128.5q0 112 73.5 180t207.5 84q-7 19 -7 35q0 55 36.5 90t95.5 35q42 0 69 -24.5t27 -62.5q0 -31 -17 -60q19 5 31 10q35 14 63.5 53t41.5 101h106q-20 -77 -47.5 -125t-63 -74t-84.5 -43q-32 -11 -77 -14.5t-130 -3.5
q-91 -1 -146 -48.5zM389.5 513q-14.5 -15 -14.5 -39q0 -16 10.5 -25.5t27.5 -9.5q24 0 39 14.5t15 38.5q0 16 -11 26t-28 10q-24 0 -38.5 -15zM384 189q13 13 13 34q0 14 -9 23t-24 9q-21 0 -34.5 -13t-13.5 -35q0 -14 9.5 -22.5t24.5 -8.5q21 0 34 13z" />
    <glyph glyph-name="uni0E56" unicode="&#xe56;" horiz-adv-x="673" 
d="M144.5 24.5q-57.5 34.5 -57.5 92.5q0 54 35 87.5t92 33.5q41 0 66.5 -22t25.5 -58q0 -19 -8 -40.5t-21 -35.5l17 -1q95 0 152 43t57 115q0 47 -35 73.5t-97 26.5q-55 0 -103.5 -16t-84.5 -46h-82q7 52 7 115q0 67 -7.5 126t-20.5 90h124q19 -60 19 -151q0 -33 -3 -65
q34 20 79.5 31t91.5 11q109 0 172 -50.5t63 -133.5q0 -76 -42 -135t-117.5 -92t-173.5 -33q-91 0 -148.5 34.5zM223.5 110q13.5 13 13.5 35q0 14 -10 23t-24 9q-22 0 -35 -13t-13 -35q0 -14 9.5 -23t23.5 -9q22 0 35.5 13z" />
    <glyph glyph-name="uni0E57" unicode="&#xe57;" horiz-adv-x="793" 
d="M834 608q-27 -49 -43.5 -118t-36.5 -183q-27 -149 -107 -228t-207 -88l-53 43q38 67 62 136t24 111q0 24 -8.5 38t-23.5 14q-17 0 -30.5 -14.5t-18.5 -43.5l-17 -95h-97l17 95q1 4 1 12q0 21 -11.5 33.5t-28.5 12.5q-32 0 -54.5 -28.5t-36.5 -91.5l-5 -30q13 5 27 5
q36 0 58.5 -22t22.5 -57q0 -52 -35.5 -85.5t-92.5 -33.5q-51 0 -81 36.5t-30 107.5q0 86 29.5 154.5t81.5 107t118 38.5q32 0 58.5 -16t37.5 -48q48 64 112 64q60 0 93.5 -33.5t33.5 -95.5q0 -47 -16 -99t-35 -92q43 40 61 74.5t31 101.5q3 16 10 59q19 108 33 162.5
t41 96.5h116zM192.5 121q-9.5 9 -24.5 9q-21 0 -34.5 -14t-13.5 -35q0 -14 9.5 -23t24.5 -9q21 0 34.5 14t13.5 35q0 14 -9.5 23z" />
    <glyph glyph-name="uni0E58" unicode="&#xe58;" horiz-adv-x="684" 
d="M199.5 291.5q-43.5 -39.5 -43.5 -123.5q0 -36 9 -54q64 67 141 102q8 -39 29 -71t48 -49.5t51 -17.5q10 0 15 1q-18 8 -28 25t-10 39q0 51 32.5 83.5t84.5 32.5q41 0 66.5 -23t25.5 -60q0 -51 -26.5 -93.5t-72 -67.5t-101.5 -25q-102 0 -168 100q-21 -16 -44.5 -41
t-38.5 -49h-75q-31 25 -47 65t-16 88q0 134 83.5 207.5t230.5 73.5q12 0 72 -5q26 -3 40 -3q44 0 75.5 30.5t43.5 91.5l11 60h117l-12 -64q-19 -103 -79.5 -162.5t-153.5 -59.5q-9 0 -61 4q-47 5 -69 5q-86 0 -129.5 -39.5zM485.5 191q-13.5 -13 -13.5 -35q0 -14 9.5 -23
t25.5 -9q21 0 34 13.5t13 35.5q0 13 -9.5 22t-23.5 9q-22 0 -35.5 -13z" />
    <glyph glyph-name="uni0E59" unicode="&#xe59;" horiz-adv-x="700" 
d="M736 608q-2 -73 -11 -128q-31 -175 -137 -175q-16 0 -27.5 5t-25.5 15q-17 13 -28 13q-21 0 -32 -36q13 -75 47 -136.5t79 -104.5l-84 -72q-57 60 -100 140.5t-55 152.5q-4 22 -26.5 37t-53.5 15q-54 0 -89.5 -44t-35.5 -113q0 -20 6 -38q9 26 37.5 42t67.5 16
q41 0 66.5 -22.5t25.5 -59.5q0 -55 -41 -90t-105 -35q-85 0 -132.5 48.5t-47.5 136.5q0 74 34.5 133t94.5 92.5t133 33.5q35 0 73 -12.5t59 -36.5q6 20 24.5 34.5t40.5 14.5q17 0 31 -7.5t30 -20.5q22 -18 34 -18t23.5 31t19 79.5t7.5 96.5l-1 13h99zM222 122
q-13 -13 -13 -35q0 -14 9.5 -23t24.5 -9q21 0 34.5 13.5t13.5 35.5q0 14 -9.5 22.5t-24.5 8.5q-22 0 -35 -13z" />
    <glyph glyph-name="uni0E5A" unicode="&#xe5a;" horiz-adv-x="831" 
d="M789.5 556.5q21.5 -19.5 21.5 -52.5q0 -5 -2 -19l-86 -485h-127l80 453v5q0 13 -15 14q-53 -73 -130 -104l-65 -368h-127l80 453v3q0 15 -15 16q-42 -56 -103 -89t-122 -33q-55 0 -89 28t-34 74q0 60 38.5 97t101.5 37q45 0 73.5 -24.5t28.5 -63.5q0 -17 -6 -37
q59 34 87 115h94q38 0 59.5 -19.5t21.5 -52.5q0 -5 -2 -19l-4 -23q63 39 88 114h94q38 0 59.5 -19.5zM207 448.5q15 15.5 15 38.5q0 16 -10.5 26t-27.5 10q-23 0 -38 -15t-15 -39q0 -16 10.5 -26t27.5 -10q23 0 38 15.5z" />
    <glyph glyph-name="uni0E5B" unicode="&#xe5b;" horiz-adv-x="1055" 
d="M1032 299l-13 -76h-123l-24 64l-61 -108h-60l-20 94l-55 -110h-78l-18 81q-37 -107 -122.5 -172t-190.5 -65q-94 0 -150 55.5t-56 149.5q0 88 34.5 159.5t94 112.5t132.5 41q70 0 110 -38.5t40 -105.5q0 -59 -21 -107.5t-58 -76.5t-82 -28q-38 0 -62.5 22t-24.5 57
q0 50 32 81t82 31q23 0 41 -10q1 5 1 15q0 30 -19 47t-52 17q-39 0 -72 -27t-52.5 -73.5t-19.5 -102.5q0 -57 31.5 -89.5t86.5 -32.5q53 0 102 29t83.5 79.5t45.5 111.5l17 96h112l19 -130l49 97h74l18 -92l45 79h68l28 -75h88zM348 240.5q12 12.5 12 31.5q0 13 -8.5 21
t-22.5 8q-19 0 -31 -12t-12 -32q0 -13 8.5 -21t22.5 -8q19 0 31 12.5z" />
    <glyph glyph-name="uni1E0C" unicode="&#x1e0c;" horiz-adv-x="642" 
d="M147 700h240q121 0 184.5 -61.5t63.5 -179.5q0 -223 -95.5 -341t-276.5 -118h-239zM283 115q62 0 109.5 41t73 116t25.5 174q0 71 -28.5 105t-88.5 34h-103l-82 -470h94zM189 -189q-16 15 -16 39q0 35 22 56.5t58 21.5q25 0 40.5 -15t15.5 -39q0 -34 -22 -56t-57 -22
q-25 0 -41 15z" />
    <glyph glyph-name="uni1E0D" unicode="&#x1e0d;" horiz-adv-x="558" 
d="M69.5 43q-47.5 53 -47.5 144q0 93 33 166.5t92 115t134 41.5q93 0 131 -61h2l52 293h127l-107 -609l-11 -70q-9 -56 -10 -63h-120q6 39 11 66h-2q-30 -35 -71.5 -55.5t-84.5 -20.5q-81 0 -128.5 53zM324 118.5q37 30.5 46 80.5l18 103q2 14 2 22q0 40 -27.5 65.5
t-70.5 25.5q-40 0 -72.5 -28.5t-51 -78.5t-18.5 -112q0 -52 21.5 -80t62.5 -28q53 0 90 30.5zM168 -189q-16 15 -16 39q0 35 22 56.5t58 21.5q25 0 40.5 -15t15.5 -39q0 -34 -22 -56t-57 -22q-25 0 -41 15z" />
    <glyph glyph-name="uni1E0E" unicode="&#x1e0e;" horiz-adv-x="642" 
d="M147 700h240q121 0 184.5 -61.5t63.5 -179.5q0 -223 -95.5 -341t-276.5 -118h-239zM283 115q62 0 109.5 41t73 116t25.5 174q0 71 -28.5 105t-88.5 34h-103l-82 -470h94zM82 -72h342l-14 -83h-342z" />
    <glyph glyph-name="uni1E0F" unicode="&#x1e0f;" horiz-adv-x="558" 
d="M69.5 43q-47.5 53 -47.5 144q0 93 33 166.5t92 115t134 41.5q93 0 131 -61h2l52 293h127l-107 -609l-11 -70q-9 -56 -10 -63h-120q6 39 11 66h-2q-30 -35 -71.5 -55.5t-84.5 -20.5q-81 0 -128.5 53zM324 118.5q37 30.5 46 80.5l18 103q2 14 2 22q0 40 -27.5 65.5
t-70.5 25.5q-40 0 -72.5 -28.5t-51 -78.5t-18.5 -112q0 -52 21.5 -80t62.5 -28q53 0 90 30.5zM61 -72h342l-14 -83h-342z" />
    <glyph glyph-name="uni1E20" unicode="&#x1e20;" horiz-adv-x="653" 
d="M333 380h293l-66 -380h-109l-6 35q-64 -45 -150 -45q-78 0 -136 32t-89 91.5t-31 138.5q0 134 48 238t134 162t197 58q89 0 154 -34t83 -89l-94 -72q-18 39 -55 59.5t-89 20.5q-67 0 -120 -43t-83 -119.5t-30 -174.5q0 -80 33.5 -121t98.5 -41q66 0 124 32l26 150h-151z
M283 855h342l-14 -83h-343z" />
    <glyph glyph-name="uni1E21" unicode="&#x1e21;" horiz-adv-x="555" 
d="M550 500l-84 -480q-22 -127 -94.5 -191.5t-194.5 -64.5q-59 0 -111 14t-87 40l58 87q32 -18 71 -28.5t75 -10.5q133 0 163 171l2 13q-48 -53 -140 -53q-87 0 -136.5 50.5t-49.5 139.5q0 95 32 168.5t90 114t133 40.5q53 0 91 -19t54 -54h2l20 63h106zM387 319
q0 47 -23.5 71.5t-67.5 24.5q-43 0 -76 -28t-51.5 -76.5t-18.5 -110.5q0 -51 23.5 -77.5t69.5 -26.5q52 0 86 31.5t44 89.5l11 64q3 21 3 38zM165 655h342l-14 -83h-343z" />
    <glyph glyph-name="uni1E24" unicode="&#x1e24;" horiz-adv-x="692" 
d="M147 700h144l-50 -286h268l51 286h143l-123 -700h-143l53 299h-269l-53 -299h-144zM226 -189q-16 15 -16 39q0 35 22 56.5t58 21.5q25 0 40.5 -15t15.5 -39q0 -34 -22 -56t-57 -22q-25 0 -41 15z" />
    <glyph glyph-name="uni1E25" unicode="&#x1e25;" horiz-adv-x="567" 
d="M135 742h128l-53 -301q26 32 69 50.5t92 18.5q75 0 118.5 -43.5t43.5 -117.5q0 -21 -5 -49l-53 -300h-128l51 291q4 26 4 37q0 41 -20 64t-57 23q-55 0 -94 -38.5t-51 -104.5l-48 -272h-128zM162 -189q-16 15 -16 39q0 35 22 56.5t58 21.5q25 0 40.5 -15t15.5 -39
q0 -34 -22 -56t-57 -22q-25 0 -41 15z" />
    <glyph glyph-name="uni1E2A" unicode="&#x1e2a;" horiz-adv-x="692" 
d="M147 700h144l-50 -286h268l51 286h143l-123 -700h-143l53 299h-269l-53 -299h-144zM162 -193q-37 31 -37 88q0 15 3 33h82q-1 -5 -1 -15q0 -28 16.5 -42.5t47.5 -14.5q36 0 59.5 19t30.5 53h89q-13 -74 -60.5 -113t-124.5 -39q-68 0 -105 31z" />
    <glyph glyph-name="uni1E2B" unicode="&#x1e2b;" horiz-adv-x="567" 
d="M135 742h128l-53 -301q26 32 69 50.5t92 18.5q75 0 118.5 -43.5t43.5 -117.5q0 -21 -5 -49l-53 -300h-128l51 291q4 26 4 37q0 41 -20 64t-57 23q-55 0 -94 -38.5t-51 -104.5l-48 -272h-128zM98 -193q-37 31 -37 88q0 15 3 33h82q-1 -5 -1 -15q0 -28 16.5 -42.5
t47.5 -14.5q36 0 59.5 19t30.5 53h89q-13 -74 -60.5 -113t-124.5 -39q-68 0 -105 31z" />
    <glyph glyph-name="uni1E36" unicode="&#x1e36;" horiz-adv-x="565" 
d="M147 700h144l-103 -585h330l-20 -115h-474zM178 -189q-16 15 -16 39q0 35 22 56.5t58 21.5q25 0 40.5 -15t15.5 -39q0 -34 -22 -56t-57 -22q-25 0 -41 15z" />
    <glyph glyph-name="uni1E37" unicode="&#x1e37;" horiz-adv-x="301" 
d="M59 15.5q-28 25.5 -28 73.5q0 16 3 34l110 619h127l-110 -620q-1 -4 -1 -12q0 -31 40 -31q22 0 59 13l7 -68q-51 -34 -124 -34q-55 0 -83 25.5zM63 -189q-16 15 -16 39q0 35 22 56.5t58 21.5q25 0 40.5 -15t15.5 -39q0 -34 -22 -56t-57 -22q-25 0 -41 15z" />
    <glyph glyph-name="uni1E38" unicode="&#x1e38;" horiz-adv-x="565" 
d="M147 700h144l-103 -585h330l-20 -115h-474zM178 -189q-16 15 -16 39q0 35 22 56.5t58 21.5q25 0 40.5 -15t15.5 -39q0 -34 -22 -56t-57 -22q-25 0 -41 15zM76 855h342l-14 -83h-343z" />
    <glyph glyph-name="uni1E39" unicode="&#x1e39;" horiz-adv-x="301" 
d="M59 15.5q-28 25.5 -28 73.5q0 16 3 34l110 619h127l-110 -620q-1 -4 -1 -12q0 -31 40 -31q22 0 59 13l7 -68q-51 -34 -124 -34q-55 0 -83 25.5zM63 -189q-16 15 -16 39q0 35 22 56.5t58 21.5q25 0 40.5 -15t15.5 -39q0 -34 -22 -56t-57 -22q-25 0 -41 15zM64 897h342
l-14 -83h-343z" />
    <glyph glyph-name="uni1E3A" unicode="&#x1e3a;" horiz-adv-x="565" 
d="M147 700h144l-103 -585h330l-20 -115h-474zM71 -72h342l-14 -83h-342z" />
    <glyph glyph-name="uni1E3B" unicode="&#x1e3b;" horiz-adv-x="301" 
d="M59 15.5q-28 25.5 -28 73.5q0 16 3 34l110 619h127l-110 -620q-1 -4 -1 -12q0 -31 40 -31q22 0 59 13l7 -68q-51 -34 -124 -34q-55 0 -83 25.5zM-44 -72h342l-14 -83h-342z" />
    <glyph glyph-name="uni1E42" unicode="&#x1e42;" horiz-adv-x="816" 
d="M827 700l-124 -700h-142l73 414l-221 -414h-101l-74 407l-72 -407h-142l124 700h145l94 -541l283 541h157zM287 -189q-16 15 -16 39q0 35 22 56.5t58 21.5q25 0 40.5 -15t15.5 -39q0 -34 -22 -56t-57 -22q-25 0 -41 15z" />
    <glyph glyph-name="uni1E43" unicode="&#x1e43;" horiz-adv-x="846" 
d="M69 367l8 51q10 55 11 82h112q-1 -33 -10 -87h2q22 46 66.5 71.5t100.5 25.5q54 0 89 -24t40 -64q28 42 72 65t95 23q72 0 112.5 -40.5t40.5 -111.5q0 -21 -5 -49l-54 -309h-127l51 295q3 18 3 33q0 38 -19 58.5t-54 20.5q-43 0 -73 -30.5t-39 -82.5l-52 -294h-126
l52 291q3 20 3 35q0 39 -18.5 60t-52.5 21q-43 0 -74 -31.5t-40 -84.5l-52 -291h-127zM299 -189q-16 15 -16 39q0 35 22 56.5t58 21.5q25 0 40.5 -15t15.5 -39q0 -34 -22 -56t-57 -22q-25 0 -41 15z" />
    <glyph glyph-name="uni1E44" unicode="&#x1e44;" horiz-adv-x="699" 
d="M710 700l-123 -700h-133l-205 465l-82 -465h-143l123 700h139l200 -457l81 457h143zM397 770q-16 15 -16 39q0 34 22.5 56t57.5 22q25 0 40.5 -15t15.5 -39q0 -35 -22 -56.5t-57 -21.5q-25 0 -41 15z" />
    <glyph glyph-name="uni1E45" unicode="&#x1e45;" horiz-adv-x="563" 
d="M69 368l4 25q13 79 14 107h120q-2 -43 -10 -87h2q27 46 73 71.5t104 25.5q73 0 110 -40.5t37 -117.5q0 -35 -7 -71l-50 -281h-127l50 282q4 21 4 44q0 81 -74 81q-53 0 -91.5 -36.5t-48.5 -97.5l-48 -273h-128zM292 570q-16 15 -16 39q0 34 22.5 56t57.5 22
q25 0 40.5 -15t15.5 -39q0 -35 -22 -56.5t-57 -21.5q-25 0 -41 15z" />
    <glyph glyph-name="uni1E46" unicode="&#x1e46;" horiz-adv-x="699" 
d="M710 700l-123 -700h-133l-205 465l-82 -465h-143l123 700h139l200 -457l81 457h143zM228 -189q-16 15 -16 39q0 35 22 56.5t58 21.5q25 0 40.5 -15t15.5 -39q0 -34 -22 -56t-57 -22q-25 0 -41 15z" />
    <glyph glyph-name="uni1E47" unicode="&#x1e47;" horiz-adv-x="563" 
d="M69 368l4 25q13 79 14 107h120q-2 -43 -10 -87h2q27 46 73 71.5t104 25.5q73 0 110 -40.5t37 -117.5q0 -35 -7 -71l-50 -281h-127l50 282q4 21 4 44q0 81 -74 81q-53 0 -91.5 -36.5t-48.5 -97.5l-48 -273h-128zM158 -189q-16 15 -16 39q0 35 22 56.5t58 21.5
q25 0 40.5 -15t15.5 -39q0 -34 -22 -56t-57 -22q-25 0 -41 15z" />
    <glyph glyph-name="uni1E48" unicode="&#x1e48;" horiz-adv-x="699" 
d="M710 700l-123 -700h-133l-205 465l-82 -465h-143l123 700h139l200 -457l81 457h143zM121 -72h342l-14 -83h-342z" />
    <glyph glyph-name="uni1E49" unicode="&#x1e49;" horiz-adv-x="563" 
d="M69 368l4 25q13 79 14 107h120q-2 -43 -10 -87h2q27 46 73 71.5t104 25.5q73 0 110 -40.5t37 -117.5q0 -35 -7 -71l-50 -281h-127l50 282q4 21 4 44q0 81 -74 81q-53 0 -91.5 -36.5t-48.5 -97.5l-48 -273h-128zM51 -72h342l-14 -83h-342z" />
    <glyph glyph-name="uni1E5A" unicode="&#x1e5a;" horiz-adv-x="596" 
d="M147 700h238q105 0 161 -43t56 -123q0 -165 -151 -218v-2q16 -13 24 -25.5t12 -29.5l58 -259h-153l-42 213q-7 32 -24 42.5t-64 10.5h-47l-47 -266h-144zM323 380q61 0 97.5 36.5t36.5 95.5q0 73 -100 73h-86l-36 -205h88zM178 -189q-16 15 -16 39q0 35 22 56.5t58 21.5
q25 0 40.5 -15t15.5 -39q0 -34 -22 -56t-57 -22q-25 0 -41 15z" />
    <glyph glyph-name="uni1E5B" unicode="&#x1e5b;" horiz-adv-x="397" 
d="M77 378q15 87 18 122h121q-1 -45 -11 -88l-2 -10h4q28 50 80.5 79t115.5 29q12 0 29 -3l-17 -101q-4 2 -24 2q-48 0 -94 -26t-78.5 -69.5t-41.5 -93.5l-39 -219h-128zM0 -189q-16 15 -16 39q0 35 22 56.5t58 21.5q25 0 40.5 -15t15.5 -39q0 -34 -22 -56t-57 -22
q-25 0 -41 15z" />
    <glyph glyph-name="uni1E5C" unicode="&#x1e5c;" horiz-adv-x="596" 
d="M147 700h238q105 0 161 -43t56 -123q0 -165 -151 -218v-2q16 -13 24 -25.5t12 -29.5l58 -259h-153l-42 213q-7 32 -24 42.5t-64 10.5h-47l-47 -266h-144zM323 380q61 0 97.5 36.5t36.5 95.5q0 73 -100 73h-86l-36 -205h88zM178 -189q-16 15 -16 39q0 35 22 56.5t58 21.5
q25 0 40.5 -15t15.5 -39q0 -34 -22 -56t-57 -22q-25 0 -41 15zM234 855h342l-14 -83h-343z" />
    <glyph glyph-name="uni1E5D" unicode="&#x1e5d;" horiz-adv-x="397" 
d="M77 378q15 87 18 122h121q-1 -45 -11 -88l-2 -10h4q28 50 80.5 79t115.5 29q12 0 29 -3l-17 -101q-4 2 -24 2q-48 0 -94 -26t-78.5 -69.5t-41.5 -93.5l-39 -219h-128zM0 -189q-16 15 -16 39q0 35 22 56.5t58 21.5q25 0 40.5 -15t15.5 -39q0 -34 -22 -56t-57 -22
q-25 0 -41 15zM99 655h342l-14 -83h-343z" />
    <glyph glyph-name="uni1E5E" unicode="&#x1e5e;" horiz-adv-x="596" 
d="M147 700h238q105 0 161 -43t56 -123q0 -165 -151 -218v-2q16 -13 24 -25.5t12 -29.5l58 -259h-153l-42 213q-7 32 -24 42.5t-64 10.5h-47l-47 -266h-144zM323 380q61 0 97.5 36.5t36.5 95.5q0 73 -100 73h-86l-36 -205h88zM71 -72h342l-14 -83h-342z" />
    <glyph glyph-name="uni1E5F" unicode="&#x1e5f;" horiz-adv-x="397" 
d="M77 378q15 87 18 122h121q-1 -45 -11 -88l-2 -10h4q28 50 80.5 79t115.5 29q12 0 29 -3l-17 -101q-4 2 -24 2q-48 0 -94 -26t-78.5 -69.5t-41.5 -93.5l-39 -219h-128zM-32 -72h342l-14 -83h-342z" />
    <glyph glyph-name="uni1E60" unicode="&#x1e60;" horiz-adv-x="549" 
d="M96 23q-62 33 -93 91l98 80q25 -40 66 -64.5t83 -24.5q55 0 87.5 25t32.5 67q0 25 -22.5 47t-83.5 55q-87 47 -126.5 95.5t-39.5 106.5q0 62 32.5 109.5t92 73.5t137.5 26q73 0 128.5 -29.5t79.5 -79.5l-103 -68q-39 62 -112 62q-50 0 -79.5 -21.5t-29.5 -57.5
q0 -24 28.5 -47.5t105.5 -62.5q72 -37 105 -81.5t33 -104.5q0 -107 -74.5 -168.5t-204.5 -61.5q-79 0 -141 33zM325 770q-16 15 -16 39q0 34 22.5 56t57.5 22q25 0 40.5 -15t15.5 -39q0 -35 -22 -56.5t-57 -21.5q-25 0 -41 15z" />
    <glyph glyph-name="uni1E61" unicode="&#x1e61;" horiz-adv-x="441" 
d="M60.5 16.5q-49.5 26.5 -62.5 68.5l90 55q13 -25 38 -40t55 -15q40 0 64.5 16.5t24.5 44.5q0 19 -17 34.5t-56 31.5q-72 30 -105.5 65t-33.5 79q0 71 54 112.5t147 41.5q59 0 104.5 -22t64.5 -61l-83 -55q-28 43 -88 43q-33 0 -52 -13t-19 -35q0 -16 17 -28t70 -34
q66 -28 96.5 -60.5t30.5 -73.5q0 -53 -28.5 -94.5t-79.5 -64t-117 -22.5q-65 0 -114.5 26.5zM235 570q-16 15 -16 39q0 34 22.5 56t57.5 22q25 0 40.5 -15t15.5 -39q0 -35 -22 -56.5t-57 -21.5q-25 0 -41 15z" />
    <glyph glyph-name="uni1E62" unicode="&#x1e62;" horiz-adv-x="549" 
d="M96 23q-62 33 -93 91l98 80q25 -40 66 -64.5t83 -24.5q55 0 87.5 25t32.5 67q0 25 -22.5 47t-83.5 55q-87 47 -126.5 95.5t-39.5 106.5q0 62 32.5 109.5t92 73.5t137.5 26q73 0 128.5 -29.5t79.5 -79.5l-103 -68q-39 62 -112 62q-50 0 -79.5 -21.5t-29.5 -57.5
q0 -24 28.5 -47.5t105.5 -62.5q72 -37 105 -81.5t33 -104.5q0 -107 -74.5 -168.5t-204.5 -61.5q-79 0 -141 33zM156 -189q-16 15 -16 39q0 35 22 56.5t58 21.5q25 0 40.5 -15t15.5 -39q0 -34 -22 -56t-57 -22q-25 0 -41 15z" />
    <glyph glyph-name="uni1E63" unicode="&#x1e63;" horiz-adv-x="441" 
d="M60.5 16.5q-49.5 26.5 -62.5 68.5l90 55q13 -25 38 -40t55 -15q40 0 64.5 16.5t24.5 44.5q0 19 -17 34.5t-56 31.5q-72 30 -105.5 65t-33.5 79q0 71 54 112.5t147 41.5q59 0 104.5 -22t64.5 -61l-83 -55q-28 43 -88 43q-33 0 -52 -13t-19 -35q0 -16 17 -28t70 -34
q66 -28 96.5 -60.5t30.5 -73.5q0 -53 -28.5 -94.5t-79.5 -64t-117 -22.5q-65 0 -114.5 26.5zM101 -189q-16 15 -16 39q0 35 22 56.5t58 21.5q25 0 40.5 -15t15.5 -39q0 -34 -22 -56t-57 -22q-25 0 -41 15z" />
    <glyph glyph-name="uni1E6C" unicode="&#x1e6c;" horiz-adv-x="590" 
d="M284 594h-208l19 106h560l-19 -106h-208l-105 -594h-144zM174 -189q-16 15 -16 39q0 35 22 56.5t58 21.5q25 0 40.5 -15t15.5 -39q0 -34 -22 -56t-57 -22q-25 0 -41 15z" />
    <glyph glyph-name="uni1E6D" unicode="&#x1e6d;" horiz-adv-x="420" 
d="M120.5 22q-37.5 32 -37.5 91q0 17 3 36l45 256h-91l17 95h91l22 129l130 36h4l-28 -165h145l-17 -95h-145l-42 -236q-2 -18 -2 -24q0 -59 68 -59q39 0 75 12l-9 -87q-48 -21 -123 -21q-68 0 -105.5 32zM140 -189q-16 15 -16 39q0 35 22 56.5t58 21.5q25 0 40.5 -15
t15.5 -39q0 -34 -22 -56t-57 -22q-25 0 -41 15z" />
    <glyph glyph-name="uni1E6E" unicode="&#x1e6e;" horiz-adv-x="590" 
d="M284 594h-208l19 106h560l-19 -106h-208l-105 -594h-144zM67 -72h342l-14 -83h-342z" />
    <glyph glyph-name="uni1E6F" unicode="&#x1e6f;" horiz-adv-x="420" 
d="M120.5 22q-37.5 32 -37.5 91q0 17 3 36l45 256h-91l17 95h91l22 129l130 36h4l-28 -165h145l-17 -95h-145l-42 -236q-2 -18 -2 -24q0 -59 68 -59q39 0 75 12l-9 -87q-48 -21 -123 -21q-68 0 -105.5 32zM33 -72h342l-14 -83h-342z" />
    <glyph glyph-name="Wgrave" unicode="&#x1e80;" horiz-adv-x="874" 
d="M928 700l-271 -700h-134l-36 521l-220 -521h-139l-24 700h151l-6 -463l197 463h136l34 -461l157 461h155zM395 917h124l56 -162h-102z" />
    <glyph glyph-name="wgrave" unicode="&#x1e81;" horiz-adv-x="707" 
d="M738 500l-216 -500h-112l-35 363l-165 -363h-113l-40 500h131l8 -311l143 311h113l34 -311l117 311h135zM277 717h124l56 -162h-102z" />
    <glyph glyph-name="Wacute" unicode="&#x1e82;" horiz-adv-x="874" 
d="M928 700l-271 -700h-134l-36 521l-220 -521h-139l-24 700h151l-6 -463l197 463h136l34 -461l157 461h155zM589 917h124l-136 -162h-102z" />
    <glyph glyph-name="wacute" unicode="&#x1e83;" horiz-adv-x="707" 
d="M738 500l-216 -500h-112l-35 363l-165 -363h-113l-40 500h131l8 -311l143 311h113l34 -311l117 311h135zM471 717h124l-136 -162h-102z" />
    <glyph glyph-name="Wdieresis" unicode="&#x1e84;" horiz-adv-x="874" 
d="M928 700l-271 -700h-134l-36 521l-220 -521h-139l-24 700h151l-6 -463l197 463h136l34 -461l157 461h155zM380 770q-16 15 -16 39q0 35 22 56.5t58 21.5q25 0 40.5 -15t15.5 -39q0 -34 -22 -56t-57 -22q-25 0 -41 15zM590.5 770q-15.5 15 -15.5 39q0 35 22 56.5t58 21.5
q24 0 40 -15t16 -39q0 -34 -22.5 -56t-57.5 -22q-25 0 -40.5 15z" />
    <glyph glyph-name="wdieresis" unicode="&#x1e85;" horiz-adv-x="707" 
d="M738 500l-216 -500h-112l-35 363l-165 -363h-113l-40 500h131l8 -311l143 311h113l34 -311l117 311h135zM262 570q-16 15 -16 39q0 35 22 56.5t58 21.5q25 0 40.5 -15t15.5 -39q0 -34 -22 -56t-57 -22q-25 0 -41 15zM472.5 570q-15.5 15 -15.5 39q0 35 22 56.5t58 21.5
q24 0 40 -15t16 -39q0 -34 -22.5 -56t-57.5 -22q-25 0 -40.5 15z" />
    <glyph glyph-name="uni1E8E" unicode="&#x1e8e;" horiz-adv-x="628" 
d="M247 280l-153 420h152l95 -275l191 275h160l-301 -420l-49 -280h-144zM359 770q-16 15 -16 39q0 34 22.5 56t57.5 22q25 0 40.5 -15t15.5 -39q0 -35 -22 -56.5t-57 -21.5q-25 0 -41 15z" />
    <glyph glyph-name="uni1E8F" unicode="&#x1e8f;" horiz-adv-x="505" 
d="M536 500l-283 -523q-92 -169 -246 -169q-39 0 -80 11l18 101q11 -4 29 -7t32 -3q43 0 80 30.5t74 96.5l-104 463h132l54 -321l156 321h138zM268 570q-16 15 -16 39q0 34 22.5 56t57.5 22q25 0 40.5 -15t15.5 -39q0 -35 -22 -56.5t-57 -21.5q-25 0 -41 15z" />
    <glyph glyph-name="uni1E92" unicode="&#x1e92;" horiz-adv-x="592" 
d="M-6 70l435 515h-315l20 115h497l-12 -72l-430 -513h353l-21 -115h-539zM175 -189q-16 15 -16 39q0 35 22 56.5t58 21.5q25 0 40.5 -15t15.5 -39q0 -34 -22 -56t-57 -22q-25 0 -41 15z" />
    <glyph glyph-name="uni1E93" unicode="&#x1e93;" horiz-adv-x="476" 
d="M-12 68l326 336h-252l17 96h409l-11 -62l-321 -342h272l-17 -96h-434zM117 -189q-16 15 -16 39q0 35 22 56.5t58 21.5q25 0 40.5 -15t15.5 -39q0 -34 -22 -56t-57 -22q-25 0 -41 15z" />
    <glyph glyph-name="uni1E97" unicode="&#x1e97;" horiz-adv-x="420" 
d="M120.5 22q-37.5 32 -37.5 91q0 17 3 36l45 256h-91l17 95h91l22 129l130 36h4l-28 -165h145l-17 -95h-145l-42 -236q-2 -18 -2 -24q0 -59 68 -59q39 0 75 12l-9 -87q-48 -21 -123 -21q-68 0 -105.5 32zM105 735q-16 15 -16 39q0 35 22 56.5t58 21.5q25 0 40.5 -15
t15.5 -39q0 -34 -22 -56t-57 -22q-25 0 -41 15zM315.5 735q-15.5 15 -15.5 39q0 35 22 56.5t58 21.5q24 0 40 -15t16 -39q0 -34 -22.5 -56t-57.5 -22q-25 0 -40.5 15z" />
    <glyph glyph-name="uni1E9E" unicode="&#x1e9e;" horiz-adv-x="638" 
d="M263 16.5q-47 26.5 -59 70.5l86 56q24 -51 80 -51q43 0 72 35t29 87q0 46 -40 74t-132 40l11 62l132 195h-172l-103 -585h-143l123 700h469l-14 -82l-157 -216q76 -16 118.5 -64t42.5 -116q0 -69 -28.5 -121.5t-80.5 -81.5t-121 -29q-66 0 -113 26.5z" />
    <glyph glyph-name="uni1EA0" unicode="&#x1ea0;" horiz-adv-x="641" 
d="M423 116h-240l-55 -116h-157l365 700h127l119 -700h-144zM408 231l-37 278l-133 -278h170zM200 -189q-16 15 -16 39q0 35 22 56.5t58 21.5q25 0 40.5 -15t15.5 -39q0 -34 -22 -56t-57 -22q-25 0 -41 15z" />
    <glyph glyph-name="uni1EA1" unicode="&#x1ea1;" horiz-adv-x="558" 
d="M69.5 43q-47.5 53 -47.5 144q0 94 32.5 167.5t90.5 114.5t133 41q52 0 90 -19t54 -54h2l20 63h107l-65 -367q-18 -105 -21 -133h-120q6 41 11 66h-2q-30 -35 -71.5 -55.5t-84.5 -20.5q-81 0 -128.5 53zM324 118.5q37 30.5 46 80.5l18 103q2 14 2 22q0 40 -27.5 65.5
t-70.5 25.5q-40 0 -72.5 -28.5t-51 -78.5t-18.5 -112q0 -52 21.5 -80t62.5 -28q53 0 90 30.5zM173 -189q-16 15 -16 39q0 35 22 56.5t58 21.5q25 0 40.5 -15t15.5 -39q0 -34 -22 -56t-57 -22q-25 0 -41 15z" />
    <glyph glyph-name="uni1EA2" unicode="&#x1ea2;" horiz-adv-x="641" 
d="M423 116h-240l-55 -116h-157l365 700h127l119 -700h-144zM408 231l-37 278l-133 -278h170zM382.5 801.5q14.5 17.5 38.5 36.5q20 16 29 27t9 28q0 10 -7.5 15.5t-21.5 5.5q-38 0 -73 -50l-43 52q24 34 61 52.5t76 18.5q48 0 75 -22t27 -57q0 -33 -14 -52.5t-40 -40.5
q-21 -18 -31.5 -30t-13.5 -30h-91q5 29 19.5 46.5z" />
    <glyph glyph-name="uni1EA3" unicode="&#x1ea3;" horiz-adv-x="558" 
d="M69.5 43q-47.5 53 -47.5 144q0 94 32.5 167.5t90.5 114.5t133 41q52 0 90 -19t54 -54h2l20 63h107l-65 -367q-18 -105 -21 -133h-120q6 41 11 66h-2q-30 -35 -71.5 -55.5t-84.5 -20.5q-81 0 -128.5 53zM324 118.5q37 30.5 46 80.5l18 103q2 14 2 22q0 40 -27.5 65.5
t-70.5 25.5q-40 0 -72.5 -28.5t-51 -78.5t-18.5 -112q0 -52 21.5 -80t62.5 -28q53 0 90 30.5zM294.5 601.5q14.5 17.5 38.5 36.5q20 16 29 27t9 28q0 10 -7.5 15.5t-21.5 5.5q-38 0 -73 -50l-43 52q24 34 61 52.5t76 18.5q48 0 75 -22t27 -57q0 -33 -14 -52.5t-40 -40.5
q-21 -18 -31.5 -30t-13.5 -30h-91q5 29 19.5 46.5z" />
    <glyph glyph-name="uni1EA4" unicode="&#x1ea4;" horiz-adv-x="641" 
d="M423 116h-240l-55 -116h-157l365 700h127l119 -700h-144zM408 231l-37 278l-133 -278h170zM604 1003h91l-82 -108h-74zM402 917h73l106 -162h-106l-46 78l-73 -78h-117z" />
    <glyph glyph-name="uni1EA5" unicode="&#x1ea5;" horiz-adv-x="558" 
d="M69.5 43q-47.5 53 -47.5 144q0 94 32.5 167.5t90.5 114.5t133 41q52 0 90 -19t54 -54h2l20 63h107l-65 -367q-18 -105 -21 -133h-120q6 41 11 66h-2q-30 -35 -71.5 -55.5t-84.5 -20.5q-81 0 -128.5 53zM324 118.5q37 30.5 46 80.5l18 103q2 14 2 22q0 40 -27.5 65.5
t-70.5 25.5q-40 0 -72.5 -28.5t-51 -78.5t-18.5 -112q0 -52 21.5 -80t62.5 -28q53 0 90 30.5zM516 803h91l-82 -108h-74zM314 717h73l106 -162h-106l-46 78l-73 -78h-117z" />
    <glyph glyph-name="uni1EA6" unicode="&#x1ea6;" horiz-adv-x="641" 
d="M423 116h-240l-55 -116h-157l365 700h127l119 -700h-144zM408 231l-37 278l-133 -278h170zM527 1003h91l28 -108h-74zM402 917h73l106 -162h-106l-46 78l-73 -78h-117z" />
    <glyph glyph-name="uni1EA7" unicode="&#x1ea7;" horiz-adv-x="558" 
d="M69.5 43q-47.5 53 -47.5 144q0 94 32.5 167.5t90.5 114.5t133 41q52 0 90 -19t54 -54h2l20 63h107l-65 -367q-18 -105 -21 -133h-120q6 41 11 66h-2q-30 -35 -71.5 -55.5t-84.5 -20.5q-81 0 -128.5 53zM324 118.5q37 30.5 46 80.5l18 103q2 14 2 22q0 40 -27.5 65.5
t-70.5 25.5q-40 0 -72.5 -28.5t-51 -78.5t-18.5 -112q0 -52 21.5 -80t62.5 -28q53 0 90 30.5zM439 803h91l28 -108h-74zM314 717h73l106 -162h-106l-46 78l-73 -78h-117z" />
    <glyph glyph-name="uni1EA8" unicode="&#x1ea8;" horiz-adv-x="641" 
d="M423 116h-240l-55 -116h-157l365 700h127l119 -700h-144zM408 231l-37 278l-133 -278h170zM581.5 918q12.5 14 32.5 26q14 10 21 17.5t7 19.5q0 7 -7 11.5t-17 4.5q-33 0 -55 -28l-33 37q19 24 46.5 37.5t56.5 13.5q34 0 57 -16.5t23 -43.5q0 -26 -10 -39.5t-30 -28.5
q-17 -12 -27 -23t-13 -29h-69q5 27 17.5 41zM401 917h73l106 -162h-106l-46 78l-73 -78h-117z" />
    <glyph glyph-name="uni1EA9" unicode="&#x1ea9;" horiz-adv-x="558" 
d="M69.5 43q-47.5 53 -47.5 144q0 94 32.5 167.5t90.5 114.5t133 41q52 0 90 -19t54 -54h2l20 63h107l-65 -367q-18 -105 -21 -133h-120q6 41 11 66h-2q-30 -35 -71.5 -55.5t-84.5 -20.5q-81 0 -128.5 53zM324 118.5q37 30.5 46 80.5l18 103q2 14 2 22q0 40 -27.5 65.5
t-70.5 25.5q-40 0 -72.5 -28.5t-51 -78.5t-18.5 -112q0 -52 21.5 -80t62.5 -28q53 0 90 30.5zM494.5 718q12.5 14 32.5 26q14 10 21 17.5t7 19.5q0 7 -7 11.5t-17 4.5q-33 0 -55 -28l-33 37q19 24 46.5 37.5t56.5 13.5q34 0 57 -16.5t23 -43.5q0 -26 -10 -39.5t-30 -28.5
q-17 -12 -27 -23t-13 -29h-69q5 27 17.5 41zM314 717h73l106 -162h-106l-46 78l-73 -78h-117z" />
    <glyph glyph-name="uni1EAA" unicode="&#x1eaa;" horiz-adv-x="641" 
d="M423 116h-240l-55 -116h-157l365 700h127l119 -700h-144zM408 231l-37 278l-133 -278h170zM468.5 955q-14.5 7 -32.5 20q-2 2 -10.5 7.5t-15.5 8t-13 2.5q-12 0 -24 -10.5t-19 -29.5h-60q34 101 111 101q17 0 32 -6t35 -18q27 -18 44 -18q28 0 41 41h62
q-14 -50 -44.5 -77.5t-73.5 -27.5q-18 0 -32.5 7zM402 917h73l106 -162h-106l-46 78l-73 -78h-117z" />
    <glyph glyph-name="uni1EAB" unicode="&#x1eab;" horiz-adv-x="558" 
d="M69.5 43q-47.5 53 -47.5 144q0 94 32.5 167.5t90.5 114.5t133 41q52 0 90 -19t54 -54h2l20 63h107l-65 -367q-18 -105 -21 -133h-120q6 41 11 66h-2q-30 -35 -71.5 -55.5t-84.5 -20.5q-81 0 -128.5 53zM324 118.5q37 30.5 46 80.5l18 103q2 14 2 22q0 40 -27.5 65.5
t-70.5 25.5q-40 0 -72.5 -28.5t-51 -78.5t-18.5 -112q0 -52 21.5 -80t62.5 -28q53 0 90 30.5zM380.5 755q-14.5 7 -32.5 20q-2 2 -10.5 7.5t-15.5 8t-13 2.5q-12 0 -24 -10.5t-19 -29.5h-60q34 101 111 101q17 0 32 -6t35 -18q27 -18 44 -18q28 0 41 41h62
q-14 -50 -44.5 -77.5t-73.5 -27.5q-18 0 -32.5 7zM314 717h73l106 -162h-106l-46 78l-73 -78h-117z" />
    <glyph glyph-name="uni1EAC" unicode="&#x1eac;" horiz-adv-x="641" 
d="M423 116h-240l-55 -116h-157l365 700h127l119 -700h-144zM408 231l-37 278l-133 -278h170zM200 -189q-16 15 -16 39q0 35 22 56.5t58 21.5q25 0 40.5 -15t15.5 -39q0 -34 -22 -56t-57 -22q-25 0 -41 15zM402 917h73l106 -162h-106l-46 78l-73 -78h-117z" />
    <glyph glyph-name="uni1EAD" unicode="&#x1ead;" horiz-adv-x="558" 
d="M69.5 43q-47.5 53 -47.5 144q0 94 32.5 167.5t90.5 114.5t133 41q52 0 90 -19t54 -54h2l20 63h107l-65 -367q-18 -105 -21 -133h-120q6 41 11 66h-2q-30 -35 -71.5 -55.5t-84.5 -20.5q-81 0 -128.5 53zM324 118.5q37 30.5 46 80.5l18 103q2 14 2 22q0 40 -27.5 65.5
t-70.5 25.5q-40 0 -72.5 -28.5t-51 -78.5t-18.5 -112q0 -52 21.5 -80t62.5 -28q53 0 90 30.5zM173 -189q-16 15 -16 39q0 35 22 56.5t58 21.5q25 0 40.5 -15t15.5 -39q0 -34 -22 -56t-57 -22q-25 0 -41 15zM314 717h73l106 -162h-106l-46 78l-73 -78h-117z" />
    <glyph glyph-name="uni1EAE" unicode="&#x1eae;" horiz-adv-x="641" 
d="M423 116h-240l-55 -116h-157l365 700h127l119 -700h-144zM408 231l-37 278l-133 -278h170zM465 1042h91l-83 -109h-75zM309.5 786.5q-38.5 31.5 -38.5 88.5q0 16 3 32h83q-1 -5 -1 -15q0 -27 16.5 -42t48.5 -15q35 0 59 19t31 53h88q-14 -74 -60 -113t-122 -39
q-69 0 -107.5 31.5z" />
    <glyph glyph-name="uni1EAF" unicode="&#x1eaf;" horiz-adv-x="558" 
d="M69.5 43q-47.5 53 -47.5 144q0 94 32.5 167.5t90.5 114.5t133 41q52 0 90 -19t54 -54h2l20 63h107l-65 -367q-18 -105 -21 -133h-120q6 41 11 66h-2q-30 -35 -71.5 -55.5t-84.5 -20.5q-81 0 -128.5 53zM324 118.5q37 30.5 46 80.5l18 103q2 14 2 22q0 40 -27.5 65.5
t-70.5 25.5q-40 0 -72.5 -28.5t-51 -78.5t-18.5 -112q0 -52 21.5 -80t62.5 -28q53 0 90 30.5zM377 842h91l-83 -109h-75zM221.5 586.5q-38.5 31.5 -38.5 88.5q0 16 3 32h83q-1 -5 -1 -15q0 -27 16.5 -42t48.5 -15q35 0 59 19t31 53h88q-14 -74 -60 -113t-122 -39
q-69 0 -107.5 31.5z" />
    <glyph glyph-name="uni1EB0" unicode="&#x1eb0;" horiz-adv-x="641" 
d="M423 116h-240l-55 -116h-157l365 700h127l119 -700h-144zM408 231l-37 278l-133 -278h170zM354 1042h91l29 -109h-75zM309.5 786.5q-38.5 31.5 -38.5 88.5q0 16 3 32h83q-1 -5 -1 -15q0 -27 16.5 -42t48.5 -15q35 0 59 19t31 53h88q-14 -74 -60 -113t-122 -39
q-69 0 -107.5 31.5z" />
    <glyph glyph-name="uni1EB1" unicode="&#x1eb1;" horiz-adv-x="558" 
d="M69.5 43q-47.5 53 -47.5 144q0 94 32.5 167.5t90.5 114.5t133 41q52 0 90 -19t54 -54h2l20 63h107l-65 -367q-18 -105 -21 -133h-120q6 41 11 66h-2q-30 -35 -71.5 -55.5t-84.5 -20.5q-81 0 -128.5 53zM324 118.5q37 30.5 46 80.5l18 103q2 14 2 22q0 40 -27.5 65.5
t-70.5 25.5q-40 0 -72.5 -28.5t-51 -78.5t-18.5 -112q0 -52 21.5 -80t62.5 -28q53 0 90 30.5zM266 842h91l29 -109h-75zM221.5 586.5q-38.5 31.5 -38.5 88.5q0 16 3 32h83q-1 -5 -1 -15q0 -27 16.5 -42t48.5 -15q35 0 59 19t31 53h88q-14 -74 -60 -113t-122 -39
q-69 0 -107.5 31.5z" />
    <glyph glyph-name="uni1EB2" unicode="&#x1eb2;" horiz-adv-x="641" 
d="M423 116h-240l-55 -116h-157l365 700h127l119 -700h-144zM408 231l-37 278l-133 -278h170zM419.5 972q12.5 15 32.5 29q14 10 20.5 16.5t6.5 17.5q0 7 -6.5 12t-16.5 5q-15 0 -30 -8t-25 -21l-33 37q16 23 42.5 37t57.5 14q38 0 60 -17.5t22 -44.5q0 -25 -10 -39t-30 -28
q-16 -12 -26 -23t-14 -28h-68q5 26 17.5 41zM309.5 786.5q-38.5 31.5 -38.5 88.5q0 16 3 32h83q-1 -5 -1 -15q0 -27 16.5 -42t48.5 -15q35 0 59 19t31 53h88q-14 -74 -60 -113t-122 -39q-69 0 -107.5 31.5z" />
    <glyph glyph-name="uni1EB3" unicode="&#x1eb3;" horiz-adv-x="558" 
d="M69.5 43q-47.5 53 -47.5 144q0 94 32.5 167.5t90.5 114.5t133 41q52 0 90 -19t54 -54h2l20 63h107l-65 -367q-18 -105 -21 -133h-120q6 41 11 66h-2q-30 -35 -71.5 -55.5t-84.5 -20.5q-81 0 -128.5 53zM324 118.5q37 30.5 46 80.5l18 103q2 14 2 22q0 40 -27.5 65.5
t-70.5 25.5q-40 0 -72.5 -28.5t-51 -78.5t-18.5 -112q0 -52 21.5 -80t62.5 -28q53 0 90 30.5zM331.5 772q12.5 15 32.5 29q14 10 20.5 16.5t6.5 17.5q0 7 -6.5 12t-16.5 5q-15 0 -30 -8t-25 -21l-33 37q16 23 42.5 37t57.5 14q38 0 60 -17.5t22 -44.5q0 -25 -10 -39t-30 -28
q-16 -12 -26 -23t-14 -28h-68q5 26 17.5 41zM221.5 586.5q-38.5 31.5 -38.5 88.5q0 16 3 32h83q-1 -5 -1 -15q0 -27 16.5 -42t48.5 -15q35 0 59 19t31 53h88q-14 -74 -60 -113t-122 -39q-69 0 -107.5 31.5z" />
    <glyph glyph-name="uni1EB4" unicode="&#x1eb4;" horiz-adv-x="641" 
d="M423 116h-240l-55 -116h-157l365 700h127l119 -700h-144zM408 231l-37 278l-133 -278h170zM468.5 951.5q-18.5 7.5 -42.5 20.5q-11 7 -22.5 12t-19.5 5q-12 0 -21.5 -10.5t-13.5 -29.5h-62q10 49 36 75t67 26q17 0 33.5 -6.5t37.5 -18.5q3 -1 14 -7t19.5 -8.5t15.5 -2.5
q13 0 23.5 11t15.5 31h61q-5 -51 -30.5 -78t-69.5 -27q-23 0 -41.5 7.5zM309.5 786.5q-38.5 31.5 -38.5 88.5q0 16 3 32h83q-1 -5 -1 -15q0 -27 16.5 -42t48.5 -15q35 0 59 19t31 53h88q-14 -74 -60 -113t-122 -39q-69 0 -107.5 31.5z" />
    <glyph glyph-name="uni1EB5" unicode="&#x1eb5;" horiz-adv-x="558" 
d="M69.5 43q-47.5 53 -47.5 144q0 94 32.5 167.5t90.5 114.5t133 41q52 0 90 -19t54 -54h2l20 63h107l-65 -367q-18 -105 -21 -133h-120q6 41 11 66h-2q-30 -35 -71.5 -55.5t-84.5 -20.5q-81 0 -128.5 53zM324 118.5q37 30.5 46 80.5l18 103q2 14 2 22q0 40 -27.5 65.5
t-70.5 25.5q-40 0 -72.5 -28.5t-51 -78.5t-18.5 -112q0 -52 21.5 -80t62.5 -28q53 0 90 30.5zM380.5 751.5q-18.5 7.5 -42.5 20.5q-11 7 -22.5 12t-19.5 5q-12 0 -21.5 -10.5t-13.5 -29.5h-62q10 49 36 75t67 26q17 0 33.5 -6.5t37.5 -18.5q3 -1 14 -7t19.5 -8.5t15.5 -2.5
q13 0 23.5 11t15.5 31h61q-5 -51 -30.5 -78t-69.5 -27q-23 0 -41.5 7.5zM221.5 586.5q-38.5 31.5 -38.5 88.5q0 16 3 32h83q-1 -5 -1 -15q0 -27 16.5 -42t48.5 -15q35 0 59 19t31 53h88q-14 -74 -60 -113t-122 -39q-69 0 -107.5 31.5z" />
    <glyph glyph-name="uni1EB6" unicode="&#x1eb6;" horiz-adv-x="641" 
d="M423 116h-240l-55 -116h-157l365 700h127l119 -700h-144zM408 231l-37 278l-133 -278h170zM200 -189q-16 15 -16 39q0 35 22 56.5t58 21.5q25 0 40.5 -15t15.5 -39q0 -34 -22 -56t-57 -22q-25 0 -41 15zM309.5 786.5q-38.5 31.5 -38.5 88.5q0 16 3 32h83q-1 -5 -1 -15
q0 -27 17 -42t48 -15q36 0 59.5 19t30.5 53h88q-13 -74 -59.5 -113t-122.5 -39q-69 0 -107.5 31.5z" />
    <glyph glyph-name="uni1EB7" unicode="&#x1eb7;" horiz-adv-x="558" 
d="M69.5 43q-47.5 53 -47.5 144q0 94 32.5 167.5t90.5 114.5t133 41q52 0 90 -19t54 -54h2l20 63h107l-65 -367q-18 -105 -21 -133h-120q6 41 11 66h-2q-30 -35 -71.5 -55.5t-84.5 -20.5q-81 0 -128.5 53zM324 118.5q37 30.5 46 80.5l18 103q2 14 2 22q0 40 -27.5 65.5
t-70.5 25.5q-40 0 -72.5 -28.5t-51 -78.5t-18.5 -112q0 -52 21.5 -80t62.5 -28q53 0 90 30.5zM173 -189q-16 15 -16 39q0 35 22 56.5t58 21.5q25 0 40.5 -15t15.5 -39q0 -34 -22 -56t-57 -22q-25 0 -41 15zM221.5 586.5q-38.5 31.5 -38.5 88.5q0 16 3 32h83q-1 -5 -1 -15
q0 -27 17 -42t48 -15q36 0 59.5 19t30.5 53h88q-13 -74 -59.5 -113t-122.5 -39q-69 0 -107.5 31.5z" />
    </font>
</defs>
</svg>
