<?xml version="1.0" standalone="no"?>
<!DOCTYPE svg PUBLIC "-//W3C//DTD SVG 1.1//EN" "http://www.w3.org/Graphics/SVG/1.1/DTD/svg11.dtd" >
<svg xmlns="http://www.w3.org/2000/svg" xmlns:xlink="http://www.w3.org/1999/xlink" version="1.1">
<metadata>
Created by FontForge 20170731 at Fri Sep  7 16:57:26 2018
 By Aleksey,,,
Copyright 2018 The Sarabun Project Authors (https://github.com/cadsondemak/Sarabun)
</metadata>
<defs>
<font id="Sarabun-Italic" horiz-adv-x="0" >
  <font-face 
    font-family="Sarabun"
    font-weight="400"
    font-style="italic"
    font-stretch="normal"
    units-per-em="1000"
    panose-1="0 0 5 0 0 0 0 0 0 0"
    ascent="800"
    descent="-200"
    x-height="500"
    cap-height="700"
    bbox="-580 -535 1230 1265"
    underline-thickness="50"
    underline-position="-150"
    slope="-10"
    unicode-range="U+000D-FB02"
  />
<missing-glyph horiz-adv-x="700" 
d="M110 750h500v-750h-500v750zM566 41v668h-412v-668h412z" />
    <glyph glyph-name="fi" unicode="fi" horiz-adv-x="565" 
d="M124 438h-83l11 62h83l11 63q13 73 57 113.5t116 40.5q31 0 61.5 -9.5t43.5 -25.5l-40 -53q-10 10 -26 16t-33 6q-36 0 -61.5 -24t-32.5 -66l-11 -61h143l-11 -62h-143l-77 -438h-85zM470.5 599q-14.5 12 -14.5 32q0 31 19.5 50t51.5 19q23 0 38 -12.5t15 -32.5
q0 -30 -20 -49t-52 -19q-23 0 -37.5 12zM450 500h85l-88 -500h-85z" />
    <glyph glyph-name="fl" unicode="fl" horiz-adv-x="615" 
d="M124 438h-83l11 62h83l11 63q13 73 57 113.5t116 40.5q31 0 61.5 -9.5t43.5 -25.5l-40 -53q-10 10 -26 16t-33 6q-36 0 -61.5 -24t-32.5 -66l-11 -61h143l-11 -62h-143l-77 -438h-85zM392 12.5q-23 22.5 -23 65.5q0 16 3 35l111 629h85l-110 -624q-2 -10 -2 -25
q0 -21 10 -30t32 -9t52 12l4 -51q-18 -12 -43 -18.5t-51 -6.5q-45 0 -68 22.5z" />
    <glyph glyph-name="uni0E240E45" unicode="&#xe24;&#xe45;" horiz-adv-x="880" 
d="M794.5 551q45.5 -35 45.5 -97q0 -14 -3 -31l-119 -673h-85l118 671q2 14 2 21q0 36 -24.5 55.5t-66.5 19.5q-44 0 -78 -25t-49 -69q0 -11 -4 -39l-112 -634h-84l110 626q3 17 3 30q0 52 -32.5 81.5t-88.5 29.5q-54 0 -100.5 -24.5t-69.5 -66.5q35 -5 65 -18.5t43 -31.5
l-3 -18q-40 -12 -66 -39t-33 -64l-12 -69q15 5 30 5q38 0 61.5 -22t23.5 -57q0 -54 -35 -88t-91 -34q-42 0 -67 23t-25 62q0 7 2 21l28 156q7 37 31.5 67t60.5 45q-44 14 -104 17q12 61 50.5 107.5t96 72t126.5 25.5q56 0 98.5 -18t67.5 -51q30 33 72.5 51t92.5 18
q79 0 124.5 -35zM199 127q-11 10 -29 10q-25 0 -40.5 -15.5t-15.5 -40.5q0 -17 11 -27t29 -10q25 0 40.5 15.5t15.5 40.5q0 17 -11 27z" />
    <glyph glyph-name="uni0E260E45" unicode="&#xe26;&#xe45;" horiz-adv-x="910" 
d="M824 551q45 -35 45 -97q0 -14 -3 -31l-118 -673h-84l118 671q2 14 2 20q0 36 -24.5 56t-67.5 20q-42 0 -76 -24t-50 -66q0 -23 -4 -43l-112 -634h-84l110 626q3 17 3 32q0 52 -32 80.5t-85 28.5t-96.5 -24t-66.5 -67q36 -5 66 -18.5t44 -31.5l-3 -18q-47 -13 -68 -49
t-21 -106v-26q0 -103 -34.5 -145t-99.5 -42q-40 0 -65 22.5t-25 58.5q0 55 33.5 89t86.5 34q15 0 28 -5q-2 22 -2 35q0 54 22 89.5t53 50.5q-41 14 -106 17q11 60 48 106.5t93.5 72.5t124.5 26q55 0 97 -17.5t66 -49.5q29 32 71.5 49.5t92.5 17.5q78 0 123 -35zM130.5 60.5
q15.5 15.5 15.5 40.5q0 17 -11 27.5t-29 10.5q-25 0 -40.5 -15.5t-15.5 -40.5q0 -17 11 -27.5t29 -10.5q25 0 40.5 15.5z" />
    <glyph glyph-name=".notdef" horiz-adv-x="700" 
d="M110 750h500v-750h-500v750zM566 41v668h-412v-668h412z" />
    <glyph glyph-name=".null" 
 />
    <glyph glyph-name="nonmarkingreturn" unicode="&#xd;" horiz-adv-x="243" 
 />
    <glyph glyph-name="NULL" 
 />
    <glyph glyph-name="NULL" 
 />
    <glyph glyph-name="space" unicode=" " horiz-adv-x="243" 
 />
    <glyph glyph-name="exclam" unicode="!" horiz-adv-x="237" 
d="M147 700h102l-102 -507h-78zM31 4.5q-16 14.5 -16 37.5q0 35 22.5 57t58.5 22q25 0 41.5 -15t16.5 -38q0 -35 -22.5 -56.5t-58.5 -21.5q-26 0 -42 14.5z" />
    <glyph glyph-name="quotedbl" unicode="&#x22;" horiz-adv-x="354" 
d="M131 710h92l-54 -247h-72zM293 710h92l-54 -247h-72z" />
    <glyph glyph-name="numbersign" unicode="#" horiz-adv-x="686" 
d="M576 431l-49 -163h89l-12 -69h-97l-60 -199h-84l60 199h-206l-60 -199h-84l60 199h-89l12 69h97l49 163h-97l12 70h106l60 199h84l-60 -199h206l60 199h84l-60 -199h80l-12 -70h-89zM492 431h-206l-49 -163h206z" />
    <glyph glyph-name="dollar" unicode="$" horiz-adv-x="529" 
d="M480 205q0 -87 -57 -144t-153 -68l-13 -73h-79l13 72q-61 7 -109.5 35.5t-70.5 71.5l66 56q24 -40 66.5 -64.5t88.5 -24.5q69 0 111.5 35.5t42.5 92.5q0 37 -28 68.5t-90 64.5q-160 85 -160 190q0 82 56.5 133.5t152.5 58.5l11 60h79l-12 -64q52 -10 91 -37t52 -65
l-68 -44q-18 35 -52.5 55t-76.5 20q-63 0 -101.5 -30.5t-38.5 -80.5q0 -31 29 -58t107 -70q143 -77 143 -190z" />
    <glyph glyph-name="percent" unicode="%" horiz-adv-x="903" 
d="M125.5 355q-37.5 42 -37.5 109q0 72 24.5 128t68 87t99.5 31q59 0 96.5 -42.5t37.5 -109.5q0 -72 -24.5 -127.5t-68 -86.5t-99.5 -31q-59 0 -96.5 42zM696 700h93l-555 -713h-92zM305.5 427.5q30.5 49.5 30.5 128.5q0 39 -17 63.5t-45 24.5q-48 0 -78.5 -49.5
t-30.5 -128.5q0 -39 17 -63.5t45 -24.5q48 0 78.5 49.5zM561.5 32.5q-37.5 42.5 -37.5 109.5q0 72 24.5 127.5t68 86.5t99.5 31q59 0 96.5 -42.5t37.5 -109.5q0 -72 -24.5 -127.5t-68 -86.5t-99.5 -31q-59 0 -96.5 42.5zM742 105.5q30 49.5 30 128.5q0 39 -17 63.5t-44 24.5
q-49 0 -79.5 -49.5t-30.5 -128.5q0 -39 17.5 -63.5t45.5 -24.5q48 0 78 49.5z" />
    <glyph glyph-name="ampersand" unicode="&#x26;" horiz-adv-x="668" 
d="M603 51l-63 -61q-36 35 -73 73q-103 -73 -225 -73q-96 0 -156.5 44.5t-60.5 123.5q0 74 49 138.5t134 100.5q-34 76 -34 125q0 55 24 97.5t68.5 66.5t102.5 24q66 0 106.5 -34.5t40.5 -87.5q0 -61 -51 -122t-141 -103q1 -1 7 -10q46 -68 146 -176q51 62 78 142h83
q-30 -117 -107 -198q48 -48 72 -70zM289 610q-29 -30 -29 -78t37 -120q63 32 98 77t35 89q0 28 -18.5 45t-47.5 17q-46 0 -75 -30zM414 119q-102 111 -158 193q-14 21 -18 29q-56 -28 -87 -72t-31 -92q0 -52 38 -82t100 -30q81 0 156 54z" />
    <glyph glyph-name="quotesingle" unicode="'" horiz-adv-x="192" 
d="M131 710h92l-54 -247h-72z" />
    <glyph glyph-name="parenleft" unicode="(" horiz-adv-x="318" 
d="M68.5 58q-23.5 70 -23.5 157q0 104 29.5 207t83.5 188.5t124 139.5h92q-69 -49 -123.5 -134.5t-85 -191t-30.5 -211.5q0 -89 24.5 -159.5t70.5 -115.5h-92q-46 50 -69.5 120z" />
    <glyph glyph-name="parenright" unicode=")" horiz-adv-x="318" 
d="M101.5 72.5q54.5 85.5 85 191t30.5 211.5q0 89 -24.5 160t-71.5 115h92q46 -49 70 -119.5t24 -157.5q0 -104 -29.5 -206.5t-83.5 -188.5t-124 -140h-92q69 49 123.5 134.5z" />
    <glyph glyph-name="asterisk" unicode="*" horiz-adv-x="448" 
d="M114 395l113 119l-149 -9l12 70l146 -10l-71 120l76 39l43 -132l91 132l62 -39l-113 -120l148 10l-12 -70l-145 9l71 -119l-76 -40l-44 132l-90 -132z" />
    <glyph glyph-name="plus" unicode="+" horiz-adv-x="607" 
d="M259 228h-212l12 68h212l40 228h80l-40 -228h213l-12 -68h-213l-40 -228h-80z" />
    <glyph glyph-name="comma" unicode="," horiz-adv-x="252" 
d="M146 106.5q16 -17.5 16 -45.5q0 -54 -41.5 -122.5t-101.5 -112.5l-29 41q28 25 52.5 58.5t37.5 67.5q-4 -1 -13 -1q-19 0 -31.5 13.5t-12.5 34.5q0 37 23 60.5t59 23.5q25 0 41 -17.5z" />
    <glyph glyph-name="hyphen" unicode="-" horiz-adv-x="340" 
d="M41 297h274l-11 -62h-274z" />
    <glyph glyph-name="period" unicode="." horiz-adv-x="252" 
d="M42.5 4q-14.5 14 -14.5 37q0 35 21 57.5t54 22.5q23 0 37.5 -14t14.5 -37q0 -35 -21 -57.5t-54 -22.5q-23 0 -37.5 14z" />
    <glyph glyph-name="slash" unicode="/" horiz-adv-x="415" 
d="M439 725h83l-515 -768h-83z" />
    <glyph glyph-name="zero" unicode="0" horiz-adv-x="550" 
d="M137 19.5q-44 29.5 -69 84t-25 125.5q0 141 38.5 250.5t107.5 170t159 60.5q56 0 100 -30t69 -83.5t25 -122.5q0 -141 -38.5 -251.5t-108 -171.5t-158.5 -61q-56 0 -100 29.5zM350.5 113q47.5 53 74 148t26.5 217q0 72 -30 117t-77 45q-61 0 -108.5 -52t-74 -146.5
t-26.5 -216.5q0 -76 29.5 -120.5t77.5 -44.5q61 0 108.5 53z" />
    <glyph glyph-name="one" unicode="1" horiz-adv-x="550" 
d="M98 73h120l91 519l-152 -81l15 84l189 105h59l-110 -627h119l-13 -73h-331z" />
    <glyph glyph-name="two" unicode="2" horiz-adv-x="550" 
d="M34 79q113 74 203 159t140.5 164.5t50.5 138.5q0 44 -26.5 68.5t-73.5 24.5q-49 0 -98.5 -24t-82.5 -64l-39 55q35 50 96.5 79.5t131.5 29.5q86 0 137 -44t51 -115q0 -98 -94 -218.5t-276 -259.5h319l-13 -73h-440z" />
    <glyph glyph-name="three" unicode="3" horiz-adv-x="550" 
d="M97 18q-56 28 -76 75l56 54q20 -37 62 -59t93 -22q47 0 86 20.5t61.5 55.5t22.5 77q0 53 -43 82t-120 29h-36l13 73h35q52 0 94.5 20t67 55t24.5 77q0 38 -27 58.5t-76 20.5q-50 0 -98 -21.5t-82 -59.5l-35 54q35 47 97.5 75t133.5 28q81 0 131 -38.5t50 -101.5
q0 -66 -45.5 -120.5t-121.5 -79.5q63 -15 97 -53.5t34 -94.5q0 -66 -34.5 -119t-95.5 -83t-137 -30q-75 0 -131 28z" />
    <glyph glyph-name="four" unicode="4" horiz-adv-x="550" 
d="M327 120h-321l14 78l389 502h112l-89 -504h79l-13 -76h-79l-21 -120h-92zM340 196l70 397l-307 -397h237z" />
    <glyph glyph-name="five" unicode="5" horiz-adv-x="550" 
d="M94.5 18q-55.5 28 -77.5 75l54 59q23 -41 63.5 -63.5t91.5 -22.5q52 0 94 26.5t66 73.5t24 105q0 56 -30 87t-83 31q-39 0 -76.5 -18.5t-62.5 -49.5h-77l100 379h379l-13 -76h-296l-54 -204q22 19 59.5 30t76.5 11q80 0 127 -48t47 -131q0 -84 -36.5 -150.5t-101.5 -104
t-147 -37.5q-72 0 -127.5 28z" />
    <glyph glyph-name="six" unicode="6" horiz-adv-x="550" 
d="M95 46q-55 56 -55 150q0 116 67.5 229t180 191t239.5 96l-4 -71q-103 -22 -191.5 -87.5t-134.5 -151.5q20 21 55 34t71 13q84 0 133 -49t49 -134q0 -78 -34 -141t-94.5 -99t-135.5 -36q-91 0 -146 56zM331.5 91q38.5 25 60.5 69t22 98t-30 84.5t-83 30.5q-47 0 -85.5 -25
t-60.5 -69t-22 -97q0 -54 30.5 -85t83.5 -31q46 0 84.5 25z" />
    <glyph glyph-name="seven" unicode="7" horiz-adv-x="550" 
d="M201 220q34 100 96.5 202.5t160.5 201.5h-339l13 76h445l-13 -74q-128 -118 -211.5 -275.5t-117.5 -350.5h-93q25 120 59 220z" />
    <glyph glyph-name="eight" unicode="8" horiz-adv-x="550" 
d="M82.5 34.5q-56.5 44.5 -56.5 120.5q0 73 41 131.5t111 86.5q-30 14 -48.5 49.5t-18.5 79.5q0 61 30.5 108t84.5 73.5t124 26.5q84 0 136.5 -42t52.5 -110q0 -59 -34.5 -111t-88.5 -74q41 -19 64 -58t23 -90q0 -70 -33 -123.5t-94 -82.5t-141 -29q-96 0 -152.5 44.5z
M404.5 445.5q39.5 38.5 39.5 99.5q0 40 -28 64.5t-73 24.5q-62 0 -101.5 -38t-39.5 -99q0 -40 28 -65t73 -25q62 0 101.5 38.5zM365.5 113q47.5 47 47.5 121q0 46 -34 75t-88 29q-75 0 -122.5 -46.5t-47.5 -119.5q0 -47 34 -76.5t88 -29.5q75 0 122.5 47z" />
    <glyph glyph-name="nine" unicode="9" horiz-adv-x="550" 
d="M63 59q109 23 200.5 89.5t129.5 149.5q-22 -21 -58 -34t-72 -13q-83 0 -132.5 50.5t-49.5 135.5q0 77 34 139.5t94.5 98t135.5 35.5q92 0 146.5 -56.5t54.5 -150.5q0 -121 -65 -232.5t-176 -187.5t-242 -95v71zM369 349q39 26 61.5 70.5t22.5 98.5t-30.5 85t-84.5 31
q-46 0 -84 -25.5t-60 -70t-22 -98.5q0 -55 29.5 -86t81.5 -31q47 0 86 26z" />
    <glyph glyph-name="colon" unicode=":" horiz-adv-x="252" 
d="M105.5 362q-14.5 14 -14.5 37q0 35 21 57t54 22q23 0 37.5 -14t14.5 -37q0 -35 -21 -57t-54 -22q-23 0 -37.5 14zM42.5 3q-14.5 14 -14.5 37q0 35 21 57.5t54 22.5q23 0 37 -14.5t14 -37.5q0 -35 -20.5 -57t-53.5 -22q-23 0 -37.5 14z" />
    <glyph glyph-name="semicolon" unicode=";" horiz-adv-x="252" 
d="M203.5 464q14.5 -14 14.5 -37q0 -35 -21 -57t-54 -22q-23 0 -37.5 14t-14.5 37q0 35 21 57t54 22q23 0 37.5 -14zM143 106.5q16 -17.5 16 -45.5q0 -54 -41.5 -122.5t-101.5 -112.5l-29 41q27 23 52 57.5t38 68.5q-5 -1 -13 -1q-19 0 -31.5 13.5t-12.5 34.5q0 37 23 60.5
t59 23.5q25 0 41 -17.5z" />
    <glyph glyph-name="less" unicode="&#x3c;" horiz-adv-x="607" 
d="M62 260l8 44l532 261l-15 -79l-420 -208l346 -207l-11 -71z" />
    <glyph glyph-name="equal" unicode="=" horiz-adv-x="607" 
d="M92 398h475l-12 -70h-475zM56 195h475l-12 -70h-475z" />
    <glyph glyph-name="greater" unicode="&#x3e;" horiz-adv-x="607" 
d="M29 78l420 207l-347 208l14 72l440 -261l-8 -44l-532 -260z" />
    <glyph glyph-name="question" unicode="?" horiz-adv-x="454" 
d="M169 178q0 41 15 75.5t36.5 60t58.5 62.5q35 35 55 58.5t34 54.5t14 67q0 83 -97 83q-41 0 -80.5 -22t-69.5 -61l-38 54q32 47 85.5 73t117.5 26q82 0 128 -36.5t46 -101.5q0 -45 -15.5 -80.5t-38.5 -62t-61 -62.5q-37 -35 -59 -60t-37 -58.5t-15 -75.5v-8h-78z
M142.5 3.5q-15.5 13.5 -15.5 35.5q0 33 21.5 54t55.5 21q24 0 39 -13.5t15 -35.5q0 -33 -21 -54t-55 -21q-24 0 -39.5 13.5z" />
    <glyph glyph-name="at" unicode="@" horiz-adv-x="795" 
d="M156 -110.5q-65 35.5 -101 99.5t-36 146q0 134 57 238.5t160 162.5t235 58q86 0 153 -34t104.5 -94.5t37.5 -138.5q0 -87 -30.5 -156.5t-84.5 -110t-124 -43.5l-40 -2l-8 64q-31 -31 -75.5 -51t-83.5 -20q-55 0 -89.5 30.5t-34.5 79.5t26 88t72.5 60.5t105.5 21.5h101
l4 23q1 6 1 17q0 34 -22 54.5t-59 20.5t-76.5 -18t-64.5 -47l-29 39q32 35 82.5 57.5t97.5 22.5q61 0 97.5 -35t36.5 -93q0 -16 -3 -34l-28 -155q-2 -20 -2 -34t2 -32q46 6 82.5 39t56.5 86.5t20 118.5q0 62 -29.5 110.5t-82 75.5t-120.5 27q-108 0 -193 -49t-132 -137.5
t-47 -201.5q0 -66 29 -117.5t81.5 -80t119.5 -28.5q46 0 94 11.5t78 29.5l17 -52q-37 -23 -95 -37.5t-113 -14.5q-83 0 -148 35.5zM430.5 87.5q39.5 26.5 46.5 68.5l15 82h-96q-59 0 -96 -30.5t-37 -79.5q0 -30 20.5 -48.5t53.5 -18.5q54 0 93.5 26.5z" />
    <glyph glyph-name="A" unicode="A" horiz-adv-x="596" 
d="M422 151h-271l-73 -151h-105l361 700h86l115 -700h-91zM411 226l-51 359l-173 -359h224z" />
    <glyph glyph-name="B" unicode="B" horiz-adv-x="589" 
d="M160 700h175q110 0 169.5 -36t59.5 -103q0 -66 -35.5 -113.5t-102.5 -71.5v-3q109 -32 109 -134q0 -116 -68 -177.5t-196 -61.5h-234zM316 405q70 0 112 39t42 104q0 40 -33 59t-102 19h-96l-39 -221h116zM277 74q77 0 121.5 43t44.5 117q0 52 -39.5 76.5t-121.5 24.5
h-94l-46 -261h135z" />
    <glyph glyph-name="C" unicode="C" horiz-adv-x="585" 
d="M162 23q-57 33 -88 94.5t-31 143.5q0 127 48.5 229.5t133 161t190.5 58.5q75 0 130.5 -29.5t74.5 -79.5l-61 -51q-40 84 -150 84q-77 0 -139.5 -48.5t-98 -133.5t-35.5 -190q0 -94 44 -145t124 -51q59 0 104.5 20.5t80.5 63.5l43 -51q-39 -53 -99.5 -81t-136.5 -28
q-77 0 -134 33z" />
    <glyph glyph-name="D" unicode="D" horiz-adv-x="623" 
d="M160 700h228q110 0 165.5 -59.5t55.5 -176.5q0 -147 -44 -251t-127.5 -158.5t-200.5 -54.5h-200zM260 76q76 0 134 48.5t90.5 135.5t32.5 200q0 83 -37.5 123.5t-114.5 40.5h-126l-97 -548h118z" />
    <glyph glyph-name="E" unicode="E" horiz-adv-x="552" 
d="M160 700h420l-13 -76h-328l-38 -218h293l-14 -76h-293l-45 -254h328l-13 -76h-420z" />
    <glyph glyph-name="F" unicode="F" horiz-adv-x="550" 
d="M160 700h425l-13 -76h-333l-43 -246h311l-14 -76h-311l-53 -302h-92z" />
    <glyph glyph-name="G" unicode="G" horiz-adv-x="636" 
d="M336 362h258l-63 -362h-62l-8 43q-75 -53 -175 -53q-113 0 -178.5 71.5t-65.5 194.5q0 129 48 232.5t133 162.5t190 59q79 0 137 -29.5t76 -79.5l-60 -51q-20 41 -60.5 62.5t-99.5 21.5q-76 0 -137.5 -49t-97 -135t-35.5 -191q0 -95 43 -146t122 -51q45 0 86 13t72 38
l32 181h-167z" />
    <glyph glyph-name="H" unicode="H" horiz-adv-x="678" 
d="M159 700h92l-54 -308h334l54 308h92l-123 -700h-92l56 316h-334l-56 -316h-92z" />
    <glyph glyph-name="I" unicode="I" horiz-adv-x="292" 
d="M179 700h92l-123 -700h-92z" />
    <glyph glyph-name="J" unicode="J" horiz-adv-x="440" 
d="M33.5 4.5q-41.5 14.5 -63.5 37.5l47 66q16 -19 45.5 -30.5t60.5 -11.5q59 0 92.5 40.5t50.5 132.5l81 461h92l-84 -477q-22 -123 -77.5 -178t-158.5 -55q-44 0 -85.5 14.5z" />
    <glyph glyph-name="K" unicode="K" horiz-adv-x="605" 
d="M356 415l187 -415h-92l-161 350l-122 -121l-40 -229h-92l123 700h92l-60 -344l343 344h109z" />
    <glyph glyph-name="L" unicode="L" horiz-adv-x="548" 
d="M159 700h92l-110 -624h338l-13 -76h-430z" />
    <glyph glyph-name="M" unicode="M" horiz-adv-x="798" 
d="M796 700l-123 -700h-90l93 530l-289 -530h-64l-103 530l-93 -530h-90l123 700h104l109 -584l315 584h108z" />
    <glyph glyph-name="N" unicode="N" horiz-adv-x="682" 
d="M681 700l-123 -700h-91l-241 557l-98 -557h-92l123 700h97l236 -550l97 550h92z" />
    <glyph glyph-name="O" unicode="O" horiz-adv-x="661" 
d="M160 22.5q-56 32.5 -86.5 93.5t-30.5 143q0 128 47 231t130 161.5t187 58.5q75 0 131 -32.5t86 -93t30 -142.5q0 -128 -47 -231.5t-129.5 -162t-185.5 -58.5q-76 0 -132 32.5zM431 114q60 50 95 135.5t35 187.5q0 94 -42.5 146.5t-119.5 52.5q-72 0 -132.5 -50
t-95.5 -135.5t-35 -186.5q0 -95 43 -147.5t120 -52.5q72 0 132 50z" />
    <glyph glyph-name="P" unicode="P" horiz-adv-x="573" 
d="M160 700h200q100 0 154.5 -43.5t54.5 -122.5q0 -83 -34 -145t-97 -95t-148 -33h-115l-46 -261h-92zM309 337q75 0 122 50.5t47 130.5q0 52 -32 79t-94 27h-113l-51 -287h121z" />
    <glyph glyph-name="Q" unicode="Q" horiz-adv-x="661" 
d="M617.5 236q-36.5 -94 -102.5 -156t-150 -82q66 -28 192 -44l-26 -65q-81 10 -159 39t-132 66q-93 17 -145 86.5t-52 178.5q0 128 47 231t130 161.5t187 58.5q75 0 131 -32.5t86 -93t30 -142.5q0 -112 -36.5 -206zM179 116.5q43 -52.5 120 -52.5q72 0 132 50t95 135.5
t35 187.5q0 94 -42.5 146.5t-119.5 52.5q-72 0 -132.5 -50t-95.5 -135.5t-35 -186.5q0 -95 43 -147.5z" />
    <glyph glyph-name="R" unicode="R" horiz-adv-x="581" 
d="M160 700h209q98 0 151 -38.5t53 -109.5q0 -86 -44.5 -145t-124.5 -78v-2q19 -15 29 -30t15 -37l59 -260h-99l-48 226q-9 43 -30.5 58.5t-72.5 15.5h-75l-53 -300h-92zM313 375q78 0 123.5 43t45.5 117q0 89 -128 89h-115l-44 -249h118z" />
    <glyph glyph-name="S" unicode="S" horiz-adv-x="529" 
d="M95 20q-59 30 -84 79l66 56q24 -40 66.5 -64.5t88.5 -24.5q69 0 111.5 35.5t42.5 92.5q0 37 -28 68.5t-90 64.5q-160 85 -160 190q0 57 29 101t82.5 68t123.5 24q69 0 123.5 -30t71.5 -77l-68 -44q-18 35 -52.5 55t-76.5 20q-63 0 -101.5 -30.5t-38.5 -80.5q0 -31 29 -58
t107 -70q143 -77 143 -190q0 -64 -31.5 -112.5t-89 -75.5t-133.5 -27q-72 0 -131 30z" />
    <glyph glyph-name="T" unicode="T" horiz-adv-x="558" 
d="M300 628h-216l13 72h523l-13 -72h-215l-111 -628h-92z" />
    <glyph glyph-name="U" unicode="U" horiz-adv-x="657" 
d="M128.5 43q-54.5 53 -54.5 152q0 40 7 79l75 426h93l-75 -424q-8 -45 -8 -76q0 -67 32 -100.5t98 -33.5q159 0 196 210l75 424h92l-75 -426q-25 -146 -98 -215t-197 -69q-106 0 -160.5 53z" />
    <glyph glyph-name="V" unicode="V" horiz-adv-x="602" 
d="M664 700l-362 -700h-90l-116 700h95l85 -578l287 578h101z" />
    <glyph glyph-name="W" unicode="W" horiz-adv-x="831" 
d="M882 700l-268 -700h-89l-51 574l-252 -574h-93l-23 700h99l-1 -559l244 559h93l46 -557l196 557h99z" />
    <glyph glyph-name="X" unicode="X" horiz-adv-x="605" 
d="M268 359l-145 341h104l103 -269l198 269h113l-266 -341l152 -359h-100l-114 285l-210 -285h-113z" />
    <glyph glyph-name="Y" unicode="Y" horiz-adv-x="573" 
d="M245 278l-149 422h100l108 -334l226 334h104l-296 -422l-49 -278h-93z" />
    <glyph glyph-name="Z" unicode="Z" horiz-adv-x="567" 
d="M-1 51l472 573h-342l13 76h457l-9 -53l-470 -571h382l-13 -76h-499z" />
    <glyph glyph-name="bracketleft" unicode="[" horiz-adv-x="308" 
d="M139 700h221l-12 -66h-131l-119 -679h131l-12 -66h-221z" />
    <glyph glyph-name="backslash" unicode="\" horiz-adv-x="382" 
d="M60 725h83l245 -768h-83z" />
    <glyph glyph-name="bracketright" unicode="]" horiz-adv-x="308" 
d="M-25 -45h131l119 679h-131l12 66h221l-143 -811h-221z" />
    <glyph glyph-name="asciicircum" unicode="^" horiz-adv-x="585" 
d="M336 700h74l128 -474h-79l-98 383l-234 -383h-88z" />
    <glyph glyph-name="underscore" unicode="_" horiz-adv-x="323" 
d="M-83 -223h323l-12 -66h-323z" />
    <glyph glyph-name="grave" unicode="`" horiz-adv-x="400" 
d="M175 705h86l55 -151h-68z" />
    <glyph glyph-name="a" unicode="a" horiz-adv-x="542" 
d="M76.5 43.5q-47.5 53.5 -47.5 145.5q0 93 32.5 166t91 114t132.5 41q52 0 91 -22t55 -60h2l22 72h70l-66 -374q-17 -91 -20 -126h-78q6 46 12 79h-2q-30 -41 -74.5 -65t-91.5 -24q-81 0 -128.5 53.5zM331.5 96.5q44.5 38.5 55.5 103.5l16 91q3 20 3 36q0 55 -30.5 86.5
t-84.5 31.5q-49 0 -89.5 -33t-63.5 -90.5t-23 -127.5q0 -65 28 -100.5t80 -35.5q64 0 108.5 38.5z" />
    <glyph glyph-name="b" unicode="b" horiz-adv-x="542" 
d="M167.5 15q-41.5 25 -56.5 64h-2q-12 -62 -16 -79h-78q14 58 25 126l109 616h85l-55 -309h2q25 38 65.5 57.5t93.5 19.5q80 0 128 -51.5t48 -138.5q0 -93 -34 -168.5t-93 -118.5t-131 -43q-49 0 -90.5 25zM341 92.5q41 34.5 65 93.5t24 129q0 62 -28.5 96t-81.5 34
q-62 0 -108 -43t-58 -111l-16 -91q-3 -16 -3 -32q0 -51 31 -80.5t86 -29.5q48 0 89 34.5z" />
    <glyph glyph-name="c" unicode="c" horiz-adv-x="473" 
d="M81.5 42.5q-53.5 52.5 -53.5 144.5q0 95 35 168.5t98.5 114t146.5 40.5q64 0 111 -25t67 -70l-60 -46q-15 34 -47.5 53.5t-73.5 19.5q-54 0 -97.5 -32.5t-68.5 -88.5t-25 -126q0 -65 32.5 -101t91.5 -36q41 0 79.5 19.5t66.5 53.5l43 -46q-75 -95 -198 -95
q-94 0 -147.5 52.5z" />
    <glyph glyph-name="d" unicode="d" horiz-adv-x="542" 
d="M76.5 43.5q-47.5 53.5 -47.5 145.5q0 93 33 166t91.5 114t132.5 41q47 0 84 -20t57 -57h2l54 309h84l-108 -616q-2 -8 -4 -26q-12 -66 -16 -100h-78q5 42 12 79h-2q-30 -41 -74.5 -65t-91.5 -24q-81 0 -128.5 53.5zM331.5 96.5q44.5 38.5 55.5 103.5l16 91q3 20 3 36
q0 55 -30.5 86.5t-84.5 31.5q-49 0 -89.5 -33t-63.5 -90.5t-23 -127.5q0 -65 28 -100.5t80 -35.5q64 0 108.5 38.5z" />
    <glyph glyph-name="e" unicode="e" horiz-adv-x="518" 
d="M440.5 459q48.5 -51 48.5 -141q0 -26 -7 -68l-6 -33h-360q-1 -8 -1 -25q0 -64 31.5 -97t92.5 -33q44 0 83.5 18t71.5 53l40 -46q-38 -47 -90 -72t-113 -25q-93 0 -147.5 53.5t-54.5 145.5q0 94 34.5 167t97.5 113.5t144 40.5q87 0 135.5 -51zM413 323q0 57 -30 87.5
t-87 30.5q-59 0 -105 -44t-65 -117h283l1 7q3 20 3 36z" />
    <glyph glyph-name="f" unicode="f" horiz-adv-x="331" 
d="M124 438h-83l11 62h83l11 63q13 73 57 113.5t116 40.5q31 0 61.5 -9.5t43.5 -25.5l-40 -53q-10 10 -26 16t-33 6q-36 0 -61.5 -24t-32.5 -66l-11 -61h143l-11 -62h-143l-77 -438h-85z" />
    <glyph glyph-name="g" unicode="g" horiz-adv-x="541" 
d="M524 500l-85 -484q-21 -121 -89 -182.5t-181 -61.5q-52 0 -99 12t-81 34l39 62q71 -36 146 -36q155 0 188 185l8 45q-25 -38 -68 -59.5t-94 -21.5q-83 0 -131 51t-48 140q0 94 32.5 168t90.5 116t132 42q52 0 91 -22t55 -60h2l22 72h70zM405 326q0 57 -29 88t-82 31
q-50 0 -91.5 -33t-65 -90.5t-23.5 -127.5q0 -64 29.5 -98.5t82.5 -34.5q64 0 107 39t55 107l13 76q4 20 4 43z" />
    <glyph glyph-name="h" unicode="h" horiz-adv-x="558" 
d="M148 742h85l-57 -320q23 39 72.5 63.5t104.5 24.5q75 0 115.5 -42.5t40.5 -120.5q0 -28 -6 -61l-50 -286h-85l51 287q5 32 5 52q0 52 -23.5 79t-68.5 27q-66 0 -117 -48.5t-65 -123.5l-48 -273h-85z" />
    <glyph glyph-name="i" unicode="i" horiz-adv-x="245" 
d="M144.5 599q-14.5 12 -14.5 32q0 31 19.5 50t51.5 19q23 0 38 -12.5t15 -32.5q0 -30 -20 -49t-52 -19q-23 0 -37.5 12zM124 500h85l-88 -500h-85z" />
    <glyph glyph-name="j" unicode="j" horiz-adv-x="247" 
d="M154.5 599.5q-14.5 12.5 -14.5 32.5q0 30 20 49t52 19q23 0 37 -12.5t14 -32.5q0 -30 -20 -49t-51 -19q-23 0 -37.5 12.5zM-124 -183l14 63q22 -2 40 -2q52 0 80 29t39 95l87 498h85l-88 -501q-17 -97 -62.5 -143t-125.5 -46q-39 0 -69 7z" />
    <glyph glyph-name="k" unicode="k" horiz-adv-x="487" 
d="M286 309l151 -309h-94l-122 253l-88 -75l-31 -178h-85l131 742h85l-81 -455l253 213h106z" />
    <glyph glyph-name="l" unicode="l" horiz-adv-x="291" 
d="M66 12.5q-23 22.5 -23 65.5q0 16 3 35l111 629h85l-110 -624q-2 -10 -2 -25q0 -21 10 -30t32 -9t52 12l4 -51q-18 -12 -43 -18.5t-51 -6.5q-45 0 -68 22.5z" />
    <glyph glyph-name="m" unicode="m" horiz-adv-x="839" 
d="M83 374q16 105 17 126h76q-3 -43 -12 -89h3q26 46 71.5 72.5t99.5 26.5q55 0 90 -27.5t40 -74.5q32 52 74.5 77t98.5 25q71 0 110.5 -39.5t39.5 -110.5q0 -21 -5 -51l-54 -309h-84l53 302q4 21 4 43q0 47 -23 72t-67 25q-52 0 -93.5 -40t-52.5 -101l-53 -301h-84l53 298
q5 32 5 51q0 93 -85 93q-33 0 -65.5 -20t-55.5 -53t-30 -71l-53 -298h-84z" />
    <glyph glyph-name="n" unicode="n" horiz-adv-x="549" 
d="M82 374q7 41 12 74t6 52h79q-2 -37 -12 -89h3q26 46 74.5 72.5t106.5 26.5q73 0 111 -40t38 -116q0 -35 -7 -71l-50 -283h-85l50 284q6 33 6 60q0 98 -87 98q-64 0 -114.5 -47.5t-63.5 -120.5l-48 -274h-85z" />
    <glyph glyph-name="o" unicode="o" horiz-adv-x="557" 
d="M87.5 46q-57.5 56 -57.5 149q0 92 36 163.5t101 111.5t149 40q95 0 153 -56t58 -149q0 -92 -36.5 -163.5t-101.5 -111.5t-149 -40q-95 0 -152.5 56zM344 87.5q45 32.5 71 89.5t26 127q0 67 -34 104t-95 37q-55 0 -100 -33t-70.5 -90t-25.5 -127q0 -67 33.5 -103.5
t93.5 -36.5q56 0 101 32.5z" />
    <glyph glyph-name="p" unicode="p" horiz-adv-x="545" 
d="M85 374q9 54 18 126h78q-5 -40 -11 -79h2q25 41 70 65t100 24q80 0 127 -51.5t47 -140.5q0 -93 -32 -168t-89 -117.5t-130 -42.5q-53 0 -91.5 20t-55.5 56h-3l-54 -308h-85zM341 90q41 35 65 94.5t24 129.5q0 62 -28 95t-81 33q-61 0 -107 -39.5t-57 -102.5l-16 -91
q-3 -18 -3 -36q0 -54 30.5 -86t82.5 -32q49 0 90 35z" />
    <glyph glyph-name="q" unicode="q" horiz-adv-x="545" 
d="M365 69h-3q-22 -38 -61 -58.5t-88 -20.5q-53 0 -95 24.5t-65 69t-23 102.5q0 93 33 167t90.5 115.5t130.5 41.5q53 0 95 -24.5t55 -63.5h2q7 40 16 78h78q-12 -48 -26 -126l-108 -616h-85zM332 97.5q46 42.5 58 111.5l16 91q3 15 3 29q0 51 -32 82t-85 31
q-50 0 -90 -32.5t-63 -89.5t-23 -128q0 -65 28.5 -101t80.5 -36q61 0 107 42.5z" />
    <glyph glyph-name="r" unicode="r" horiz-adv-x="350" 
d="M90 378q15 87 18 122h79q-2 -41 -11 -88l-2 -10h3q55 108 179 108q16 0 28 -3l-12 -70q-14 3 -34 3q-42 0 -81.5 -25.5t-67.5 -69.5t-37 -96l-44 -249h-85z" />
    <glyph glyph-name="s" unicode="s" horiz-adv-x="416" 
d="M60 14q-46 24 -57 60l62 38q12 -26 39.5 -41.5t62.5 -15.5q49 0 81 27t32 68q0 27 -18.5 44.5t-66.5 37.5q-67 27 -98.5 59t-31.5 74q0 67 49.5 106t133.5 39q51 0 92.5 -22t55.5 -57l-59 -38q-13 25 -36 38.5t-55 13.5q-42 0 -68.5 -19t-26.5 -49q0 -23 22 -41.5
t76 -40.5q60 -25 88.5 -57t28.5 -74q0 -51 -25 -90.5t-71 -61.5t-106 -22q-58 0 -104 24z" />
    <glyph glyph-name="t" unicode="t" horiz-adv-x="377" 
d="M111 21q-34 31 -34 87q0 11 4 37l52 289h-90l12 66h90l23 133l85 25h4l-27 -158h142l-12 -66h-142l-49 -276q-4 -26 -4 -35q0 -32 15.5 -48.5t49.5 -16.5q42 0 72 11l-5 -63q-36 -16 -94 -16t-92 31z" />
    <glyph glyph-name="u" unicode="u" horiz-adv-x="552" 
d="M46 137q0 34 7 69l52 294h85l-51 -290q-5 -25 -5 -54q0 -98 86 -98q64 0 114.5 47.5t63.5 120.5l48 274h85l-70 -394q-9 -51 -9 -106h-78q-1 8 -1 23q0 23 6 66h-3q-29 -46 -79 -72.5t-106 -26.5q-145 0 -145 147z" />
    <glyph glyph-name="v" unicode="v" horiz-adv-x="479" 
d="M512 500l-278 -500h-77l-102 500h84l70 -400l211 400h92z" />
    <glyph glyph-name="w" unicode="w" horiz-adv-x="668" 
d="M701 500l-213 -500h-77l-49 409l-193 -409h-77l-37 500h87l13 -384l182 384h78l46 -384l149 384h91z" />
    <glyph glyph-name="x" unicode="x" horiz-adv-x="460" 
d="M187 254l-119 246h93l78 -186l144 186h97l-205 -246l130 -254h-94l-88 200l-158 -200h-98z" />
    <glyph glyph-name="y" unicode="y" horiz-adv-x="462" 
d="M496 500l-271 -509q-51 -96 -113.5 -144.5t-133.5 -48.5q-27 0 -55 7l11 65q18 -6 43 -6q51 0 93.5 37t91.5 125l-102 474h89l66 -383l187 383h94z" />
    <glyph glyph-name="z" unicode="z" horiz-adv-x="451" 
d="M-10 48l356 386h-273l11 66h375l-8 -49l-351 -385h293l-12 -66h-399z" />
    <glyph glyph-name="braceleft" unicode="{" horiz-adv-x="320" 
d="M92.5 -89q-30.5 25 -30.5 78q0 23 4 44l30 168q1 6 1 16q0 49 -56 54l10 55q33 2 53.5 19.5t25.5 49.5l29 168q14 76 55.5 111.5t117.5 35.5h34l-11 -67h-36q-32 0 -49 -17.5t-25 -58.5l-30 -170q-7 -39 -25.5 -61.5t-53.5 -37.5q48 -24 48 -73q0 -12 -3 -26l-30 -170
q-3 -16 -3 -30q0 -24 11.5 -35t37.5 -11h36l-12 -67h-34q-64 0 -94.5 25z" />
    <glyph glyph-name="bar" unicode="|" horiz-adv-x="242" 
d="M160 700h82l-152 -860h-82z" />
    <glyph glyph-name="braceright" unicode="}" horiz-adv-x="320" 
d="M-17 -47h36q32 0 48.5 18t23.5 58l30 170q7 38 26.5 62t54.5 37q-25 13 -36.5 29.5t-11.5 40.5q0 14 3 29l30 170q3 17 3 29q0 25 -12 36t-38 11h-36l12 67h34q65 0 95.5 -25.5t30.5 -79.5q0 -22 -4 -42l-29 -168q-2 -12 -2 -18q0 -48 56 -51l-10 -55q-67 -5 -79 -70
l-30 -168q-14 -76 -55.5 -111.5t-117.5 -35.5h-34z" />
    <glyph glyph-name="asciitilde" unicode="~" horiz-adv-x="607" 
d="M55 210q12 62 55 99t100 37q30 0 56 -12t60 -35q32 -20 50.5 -29.5t39.5 -9.5q30 0 49.5 23.5t27.5 62.5h72l-3 -17q-11 -63 -53 -101.5t-99 -38.5q-31 0 -57.5 12t-62.5 36q-31 21 -49 30t-38 9q-30 0 -51 -23t-30 -64h-71z" />
    <glyph glyph-name="uni00A0" unicode="&#xa0;" horiz-adv-x="243" 
 />
    <glyph glyph-name="exclamdown" unicode="&#xa1;" horiz-adv-x="237" 
d="M100 394q-16 15 -16 38q0 34 22.5 56t57.5 22q26 0 42.5 -14.5t16.5 -37.5q0 -35 -23 -57t-59 -22q-25 0 -41 15zM89 306h78l-77 -507h-102z" />
    <glyph glyph-name="cent" unicode="&#xa2;" horiz-adv-x="473" 
d="M329.5 147.5q38.5 19.5 66.5 53.5l43 -46q-70 -88 -179 -94l-16 -89h-61l16 91q-75 11 -117 62t-42 132q0 89 31 159.5t88 113t131 49.5l16 89h61l-16 -90q53 -5 91 -29t56 -64l-60 -46q-15 34 -47.5 53.5t-73.5 19.5q-54 0 -97.5 -32.5t-68.5 -88.5t-25 -126
q0 -65 32.5 -101t91.5 -36q41 0 79.5 19.5z" />
    <glyph glyph-name="sterling" unicode="&#xa3;" horiz-adv-x="536" 
d="M487 696q39 -14 59 -37l-42 -65q-17 19 -44.5 30t-54.5 11q-49 0 -84.5 -34t-45.5 -90q-5 -30 -7 -119v-22h165l-11 -61h-154q-2 -39 -6 -65q-9 -49 -36 -97t-71 -78h286l-12 -69h-418l10 56q64 32 105.5 82.5t50.5 99.5q3 18 5 71h-96l11 61h85v20q2 94 8 127
q16 89 74 141t143 52q41 0 80 -14z" />
    <glyph glyph-name="currency" unicode="&#xa4;" horiz-adv-x="615" 
d="M194.5 75q-40.5 14 -69.5 39l-69 -58l-49 57l67 57q-29 49 -29 115q0 53 23 109t63 98l-47 57l69 57l49 -58q30 25 74 39t91 14q42 0 81.5 -14t67.5 -39l72 58l47 -60l-66 -54q27 -44 27 -109q0 -57 -23 -116t-61 -97l47 -57l-68 -57l-52 58q-31 -25 -74 -39t-89 -14
q-41 0 -81.5 14zM399 169.5q52 31.5 83 85t31 115.5q0 70 -43.5 113t-114.5 43q-60 0 -112 -32t-83 -86t-31 -116q0 -70 43 -112t114 -42q61 0 113 31.5z" />
    <glyph glyph-name="yen" unicode="&#xa5;" horiz-adv-x="578" 
d="M394 354h136l-11 -64h-170l-8 -12l-12 -67h176l-11 -62h-176l-26 -149h-93l26 149h-174l11 62h174l12 67l-4 12h-168l11 63h134l-122 347h100l108 -334l226 334h104z" />
    <glyph glyph-name="brokenbar" unicode="&#xa6;" horiz-adv-x="242" 
d="M160 700h82l-68 -385h-82zM76 225h82l-68 -385h-82z" />
    <glyph glyph-name="section" unicode="&#xa7;" horiz-adv-x="531" 
d="M472.5 216q-15.5 -29 -49.5 -57q16 -17 23 -35t7 -41q0 -86 -64.5 -136t-175.5 -50q-71 0 -128 27t-83 73l63 54q25 -39 64.5 -60.5t88.5 -21.5q63 0 102 29t39 76q0 19 -9 33t-33.5 29.5t-75.5 40.5q-70 35 -104.5 57.5t-48 44t-13.5 50.5q0 73 70 122q-34 35 -34 81
q0 51 29.5 91.5t82 63.5t118.5 23q70 0 121.5 -28t68.5 -76l-58 -39q-19 34 -54.5 52.5t-81.5 18.5q-56 0 -94.5 -29t-38.5 -72q0 -19 10 -32.5t37.5 -30.5t89.5 -47q81 -40 114 -73t33 -76q0 -33 -15.5 -62zM373 198q15 17 24.5 36t9.5 33q0 17 -9 29t-35 27t-89 45
q-42 20 -75 41q-37 -32 -37 -67q0 -17 6.5 -26t32 -23.5t106.5 -57.5q46 -25 66 -37z" />
    <glyph glyph-name="dieresis" unicode="&#xa8;" horiz-adv-x="400" 
d="M122.5 565.5q-12.5 11.5 -12.5 29.5q0 27 17 44t45 17q19 0 31.5 -11.5t12.5 -29.5q0 -27 -17 -44t-45 -17q-19 0 -31.5 11.5zM322 565.5q-12 11.5 -12 30.5q0 26 17 43t45 17q19 0 31.5 -11.5t12.5 -29.5q0 -27 -17 -44t-45 -17q-20 0 -32 11.5z" />
    <glyph glyph-name="copyright" unicode="&#xa9;" horiz-adv-x="804" 
d="M200.5 26.5q-70.5 36.5 -110 102t-39.5 149.5q0 126 54 224.5t151 153t222 54.5q90 0 160.5 -36.5t110 -102t39.5 -149.5q0 -126 -54 -224.5t-151 -153t-222 -54.5q-90 0 -160.5 36.5zM555 88q83 47 129.5 131.5t46.5 192.5q0 72 -32.5 128t-91 87.5t-133.5 31.5
q-107 0 -190 -47t-129.5 -131t-46.5 -192q0 -72 32.5 -128.5t91 -88t133.5 -31.5q107 0 190 47zM286.5 184.5q-41.5 45.5 -41.5 118.5q0 77 27.5 137t77 93.5t112.5 33.5q43 0 78 -19t46 -49l-42 -37q-10 22 -34.5 35.5t-52.5 13.5q-43 0 -76.5 -26t-52.5 -72.5t-19 -105.5
q0 -49 25 -80.5t65 -31.5q28 0 57.5 14t49.5 36l28 -38q-23 -30 -62 -49t-78 -19q-66 0 -107.5 45.5z" />
    <glyph glyph-name="ordfeminine" unicode="&#xaa;" horiz-adv-x="362" 
d="M104.5 386.5q-28.5 25.5 -28.5 63.5q0 56 41.5 87t112.5 31h73l3 15q2 8 2 22q0 51 -61 51q-56 0 -96 -46l-30 38q54 59 136 59q55 0 86 -25t31 -69q0 -16 -2 -24l-27 -155q-6 -40 -5 -66h-58q-1 7 -0.5 22.5t0.5 23.5q-41 -53 -107 -53q-42 0 -70.5 25.5zM257.5 431.5
q25.5 22.5 30.5 51.5l7 41h-62q-44 0 -68.5 -19t-24.5 -53q0 -20 14.5 -31.5t38.5 -11.5q39 0 64.5 22.5z" />
    <glyph glyph-name="guillemotleft" unicode="&#xab;" horiz-adv-x="515" 
d="M39 260l192 196h92l-189 -196l119 -196h-92zM230 260l193 196h92l-189 -196l119 -196h-92z" />
    <glyph glyph-name="logicalnot" unicode="&#xac;" horiz-adv-x="607" 
d="M499 339h-445l11 64h529l-48 -274h-84z" />
    <glyph glyph-name="uni00AD" unicode="&#xad;" horiz-adv-x="340" 
d="M41 297h274l-11 -62h-274z" />
    <glyph glyph-name="registered" unicode="&#xae;" horiz-adv-x="518" 
d="M428.5 689q40.5 -21 63 -58.5t22.5 -85.5q0 -71 -30.5 -126.5t-85.5 -86.5t-126 -31q-79 0 -128.5 45.5t-49.5 118.5q0 72 30.5 127.5t85.5 86.5t126 31q52 0 92.5 -21zM376 365.5q45 25.5 70.5 71t25.5 104.5q0 57 -38 93t-99 36q-58 0 -103 -25t-70.5 -70t-25.5 -102
q0 -59 38 -96t99 -37q58 0 103 25.5zM382.5 609.5q19.5 -15.5 19.5 -41.5q0 -75 -68 -89l33 -89h-46l-31 87h-33l-15 -87h-43l41 235h89q34 0 53.5 -15.5zM345 526.5q15 13.5 15 37.5q0 13 -10.5 19t-35.5 6h-37l-14 -76h39q28 0 43 13.5z" />
    <glyph glyph-name="macron" unicode="&#xaf;" horiz-adv-x="400" 
d="M100 628h334l-10 -54h-334z" />
    <glyph glyph-name="degree" unicode="&#xb0;" horiz-adv-x="315" 
d="M113.5 479.5q-30.5 28.5 -30.5 74.5q0 69 43.5 112.5t111.5 43.5q49 0 80 -28.5t31 -74.5q0 -69 -43.5 -112.5t-112.5 -43.5q-49 0 -79.5 28.5zM268.5 528.5q25.5 26.5 25.5 68.5q0 28 -18 45t-47 17q-40 0 -65.5 -26.5t-25.5 -68.5q0 -28 17.5 -45t46.5 -17
q41 0 66.5 26.5z" />
    <glyph glyph-name="plusminus" unicode="&#xb1;" horiz-adv-x="607" 
d="M353 304l-34 -188h-80l34 188h-212l11 65h212l33 188h80l-33 -188h213l-11 -65h-213zM27 64h488l-11 -64h-488z" />
    <glyph glyph-name="uni00B2" unicode="&#xb2;" horiz-adv-x="400" 
d="M49 269q77 49 138.5 106.5t96.5 111.5t35 93q0 28 -17.5 43.5t-48.5 15.5t-63 -16t-57 -45l-34 46q26 37 70.5 59t95.5 22q64 0 101.5 -29.5t37.5 -79.5q0 -67 -60.5 -147t-185.5 -178h211l-11 -63h-320z" />
    <glyph glyph-name="uni00B3" unicode="&#xb3;" horiz-adv-x="400" 
d="M95 219.5q-42 20.5 -56 53.5l49 47q15 -25 43.5 -40t62.5 -15q43 0 74 29t31 69q0 33 -26.5 51.5t-73.5 18.5h-33l11 61h32q47 0 80.5 27.5t33.5 66.5q0 23 -18 37t-47 14q-32 0 -65.5 -14.5t-56.5 -39.5l-31 46q30 35 74 54.5t94 19.5q58 0 96 -29.5t38 -75.5
q0 -43 -29.5 -79t-79.5 -54q38 -12 60.5 -41t22.5 -67q0 -46 -24.5 -82.5t-68 -57t-97.5 -20.5t-96 20.5z" />
    <glyph glyph-name="acute" unicode="&#xb4;" horiz-adv-x="400" 
d="M286 705h86l-127 -151h-68z" />
    <glyph glyph-name="uni00B5" unicode="&#xb5;" horiz-adv-x="552" 
d="M105 500h84l-51 -290q-5 -28 -5 -48q0 -50 23.5 -77t69.5 -27q63 0 110.5 48.5t61.5 123.5l48 270h85l-69 -394q-8 -48 -10 -106h-77q-1 8 -1 25q0 26 4 57h-3q-60 -92 -157 -92q-36 0 -66 12t-44 36l-45 -253h-84z" />
    <glyph glyph-name="paragraph" unicode="&#xb6;" horiz-adv-x="536" 
d="M277 267h-6q-56 0 -100.5 21t-69.5 59.5t-25 89.5q0 123 84.5 193t239.5 70h125l-140 -793h-50l132 747h-72l-132 -747h-50z" />
    <glyph glyph-name="periodcentered" unicode="&#xb7;" horiz-adv-x="251" 
d="M78.5 211q-14.5 14 -14.5 37q0 35 21 57.5t54 22.5q23 0 37 -14.5t14 -37.5q0 -35 -20.5 -57t-53.5 -22q-23 0 -37.5 14z" />
    <glyph glyph-name="cedilla" unicode="&#xb8;" horiz-adv-x="400" 
d="M61 -223q-21 4 -32 9l18 43q8 -4 23.5 -6.5t29.5 -2.5q26 0 44 13t18 32q0 16 -19 25t-52 8l-18 23l67 92h57l-52 -75q36 0 57 -16t21 -44q0 -44 -35 -74.5t-85 -30.5q-21 0 -42 4z" />
    <glyph glyph-name="uni00B9" unicode="&#xb9;" horiz-adv-x="400" 
d="M87 271h82l59 333l-104 -55l13 74l136 75h54l-75 -427h80l-11 -63h-245z" />
    <glyph glyph-name="ordmasculine" unicode="&#xba;" horiz-adv-x="390" 
d="M116.5 397.5q-37.5 36.5 -37.5 98.5q0 61 24.5 109t68.5 75t99 27q64 0 102 -36.5t38 -98.5q0 -61 -24.5 -109t-68.5 -75t-100 -27q-64 0 -101.5 36.5zM310.5 455.5q34.5 46.5 34.5 117.5q0 42 -20 64t-58 22q-53 0 -87.5 -46.5t-34.5 -117.5q0 -42 20 -64t58 -22
q53 0 87.5 46.5z" />
    <glyph glyph-name="guillemotright" unicode="&#xbb;" horiz-adv-x="515" 
d="M193 260l-120 196h92l123 -196l-192 -196h-92zM385 260l-121 196h93l123 -196l-192 -196h-93z" />
    <glyph glyph-name="onequarter" unicode="&#xbc;" horiz-adv-x="967" 
d="M99 324h73l53 296l-93 -49l12 66l121 67h48l-67 -380h71l-10 -56h-217zM734 699h71l-532 -722h-71zM742 71h-195l10 57l239 307h84l-54 -309h46l-10 -55h-46l-12 -71h-74zM752 126l40 228l-175 -228h135z" />
    <glyph glyph-name="onehalf" unicode="&#xbd;" horiz-adv-x="967" 
d="M99 324h73l53 296l-93 -49l12 66l121 67h48l-67 -380h71l-10 -56h-217zM694 699h71l-532 -722h-71zM589 54q103 67 171.5 145.5t68.5 131.5q0 24 -16 38t-43 14q-28 0 -56.5 -14.5t-50.5 -39.5l-30 41q23 33 63 52.5t85 19.5q56 0 89.5 -26.5t33.5 -70.5
q0 -60 -54 -131.5t-165 -157.5h188l-10 -56h-284z" />
    <glyph glyph-name="threequarters" unicode="&#xbe;" horiz-adv-x="967" 
d="M107 279.5q-37 18.5 -50 47.5l43 41q13 -22 38.5 -35t55.5 -13q38 0 66 25.5t28 61.5q0 29 -24 45.5t-65 16.5h-29l9 54h29q42 0 71.5 24.5t29.5 59.5q0 20 -16 32.5t-42 12.5q-29 0 -58.5 -13t-49.5 -35l-28 41q27 31 66.5 48.5t83.5 17.5q51 0 85 -26.5t34 -67.5
q0 -38 -26.5 -70t-70.5 -48q34 -11 54 -36.5t20 -59.5q0 -62 -47.5 -102t-121.5 -40q-48 0 -85 18.5zM727 699h71l-532 -722h-71zM735 71h-195l10 57l239 307h84l-54 -309h46l-10 -55h-46l-12 -71h-74zM745 126l40 228l-175 -228h135z" />
    <glyph glyph-name="questiondown" unicode="&#xbf;" horiz-adv-x="454" 
d="M211.5 400q-15.5 14 -15.5 36q0 33 21 53.5t55 20.5q24 0 39.5 -14t15.5 -36q0 -33 -21 -53.5t-55 -20.5q-24 0 -39.5 14zM25 -174q-46 37 -46 101q0 44 16 80.5t39.5 64t61.5 64.5q48 46 73.5 79.5t32.5 76.5q4 21 4 43h78v-15q0 -42 -15 -76t-37 -60.5t-58 -61.5
q-35 -34 -55 -58t-34 -54.5t-14 -67.5q0 -82 98 -82q41 0 79.5 21.5t69.5 61.5l38 -54q-32 -47 -86 -73.5t-117 -26.5q-82 0 -128 37z" />
    <glyph glyph-name="Agrave" unicode="&#xc0;" horiz-adv-x="596" 
d="M422 151h-271l-73 -151h-105l361 700h86l115 -700h-91zM411 226l-51 359l-173 -359h224zM281 900h87l52 -146h-68z" />
    <glyph glyph-name="Aacute" unicode="&#xc1;" horiz-adv-x="596" 
d="M422 151h-271l-73 -151h-105l361 700h86l115 -700h-91zM411 226l-51 359l-173 -359h224zM461 900h87l-123 -146h-68z" />
    <glyph glyph-name="Acircumflex" unicode="&#xc2;" horiz-adv-x="596" 
d="M422 151h-271l-73 -151h-105l361 700h86l115 -700h-91zM411 226l-51 359l-173 -359h224zM383 897h58l87 -143h-71l-51 88l-83 -88h-77z" />
    <glyph glyph-name="Atilde" unicode="&#xc3;" horiz-adv-x="596" 
d="M422 151h-271l-73 -151h-105l361 700h86l115 -700h-91zM411 226l-51 359l-173 -359h224zM274 827q27 28 66 28q18 0 33 -6.5t36 -20.5q15 -10 25 -15t19 -5q14 0 23.5 12t16.5 39h52q-8 -49 -35 -77t-68 -28q-19 0 -34.5 7.5t-37.5 21.5q-25 18 -38 18q-12 0 -23.5 -13
t-15.5 -34h-52q6 45 33 73z" />
    <glyph glyph-name="Adieresis" unicode="&#xc4;" horiz-adv-x="596" 
d="M422 151h-271l-73 -151h-105l361 700h86l115 -700h-91zM411 226l-51 359l-173 -359h224zM255.5 765.5q-12.5 11.5 -12.5 29.5q0 27 17 44t45 17q19 0 31.5 -11.5t12.5 -29.5q0 -27 -17 -44t-45 -17q-19 0 -31.5 11.5zM455 765.5q-12 11.5 -12 30.5q0 26 17 43t45 17
q19 0 31.5 -11.5t12.5 -29.5q0 -27 -17 -44t-45 -17q-20 0 -32 11.5z" />
    <glyph glyph-name="Aring" unicode="&#xc5;" horiz-adv-x="596" 
d="M422 151h-271l-73 -151h-105l361 700h86l115 -700h-91zM411 226l-51 359l-173 -359h224zM325.5 738q-22.5 20 -22.5 52q0 47 31 76.5t81 29.5q35 0 57.5 -20t22.5 -52q0 -47 -31 -76.5t-81 -29.5q-35 0 -57.5 20zM433 773q17 17 17 44q0 18 -11.5 29.5t-30.5 11.5
q-26 0 -43 -17t-17 -44q0 -18 11.5 -29.5t30.5 -11.5q26 0 43 17z" />
    <glyph glyph-name="AE" unicode="&#xc6;" horiz-adv-x="800" 
d="M532 625l-39 -220h249l-13 -75h-249l-45 -255h283l-13 -75h-375l25 144h-189l-91 -144h-102l449 700h406l-13 -75h-283zM368 216l60 342l-216 -342h156z" />
    <glyph glyph-name="Ccedilla" unicode="&#xc7;" horiz-adv-x="585" 
d="M269.5 585.5q-62.5 -48.5 -98 -133.5t-35.5 -190q0 -94 44 -145t124 -51q59 0 104.5 20.5t80.5 63.5l43 -51q-35 -49 -88.5 -76t-120.5 -32l-37 -53q34 0 56.5 -19t22.5 -48q0 -41 -33 -66.5t-86 -25.5q-21 0 -42 4t-32 9l15 39q21 -7 55 -7q27 0 44.5 13t17.5 33
q0 16 -18.5 24.5t-52.5 7.5l-16 22l50 67q-104 10 -164 82t-60 188q0 127 48.5 229.5t133 161t190.5 58.5q75 0 130.5 -29.5t74.5 -79.5l-61 -51q-40 84 -150 84q-77 0 -139.5 -48.5z" />
    <glyph glyph-name="Egrave" unicode="&#xc8;" horiz-adv-x="552" 
d="M160 700h420l-13 -76h-328l-38 -218h293l-14 -76h-293l-45 -254h328l-13 -76h-420zM278 900h87l52 -146h-68z" />
    <glyph glyph-name="Eacute" unicode="&#xc9;" horiz-adv-x="552" 
d="M160 700h420l-13 -76h-328l-38 -218h293l-14 -76h-293l-45 -254h328l-13 -76h-420zM458 900h87l-123 -146h-68z" />
    <glyph glyph-name="Ecircumflex" unicode="&#xca;" horiz-adv-x="552" 
d="M160 700h420l-13 -76h-328l-38 -218h293l-14 -76h-293l-45 -254h328l-13 -76h-420zM380 897h58l87 -143h-71l-51 88l-83 -88h-77z" />
    <glyph glyph-name="Edieresis" unicode="&#xcb;" horiz-adv-x="552" 
d="M160 700h420l-13 -76h-328l-38 -218h293l-14 -76h-293l-45 -254h328l-13 -76h-420zM252.5 765.5q-12.5 11.5 -12.5 29.5q0 27 17 44t45 17q19 0 31.5 -11.5t12.5 -29.5q0 -27 -17 -44t-45 -17q-19 0 -31.5 11.5zM452 765.5q-12 11.5 -12 30.5q0 26 17 43t45 17
q19 0 31.5 -11.5t12.5 -29.5q0 -27 -17 -44t-45 -17q-20 0 -32 11.5z" />
    <glyph glyph-name="Igrave" unicode="&#xcc;" horiz-adv-x="292" 
d="M179 700h92l-123 -700h-92zM130 900h87l52 -146h-68z" />
    <glyph glyph-name="Iacute" unicode="&#xcd;" horiz-adv-x="292" 
d="M179 700h92l-123 -700h-92zM310 900h87l-123 -146h-68z" />
    <glyph glyph-name="Icircumflex" unicode="&#xce;" horiz-adv-x="292" 
d="M179 700h92l-123 -700h-92zM232 897h58l87 -143h-71l-51 88l-83 -88h-77z" />
    <glyph glyph-name="Idieresis" unicode="&#xcf;" horiz-adv-x="292" 
d="M179 700h92l-123 -700h-92zM104.5 765.5q-12.5 11.5 -12.5 29.5q0 27 17 44t45 17q19 0 31.5 -11.5t12.5 -29.5q0 -27 -17 -44t-45 -17q-19 0 -31.5 11.5zM304 765.5q-12 11.5 -12 30.5q0 26 17 43t45 17q19 0 31.5 -11.5t12.5 -29.5q0 -27 -17 -44t-45 -17
q-20 0 -32 11.5z" />
    <glyph glyph-name="Eth" unicode="&#xd0;" horiz-adv-x="625" 
d="M555.5 640.5q55.5 -59.5 55.5 -176.5q0 -147 -44 -251t-127.5 -158.5t-200.5 -54.5h-200l53 302h-75l13 71h75l57 327h228q110 0 165.5 -59.5zM396 124.5q58 48.5 90.5 135.5t32.5 200q0 83 -37.5 123.5t-114.5 40.5h-126l-44 -251h206l-13 -71h-206l-40 -226h118
q76 0 134 48.5z" />
    <glyph glyph-name="Ntilde" unicode="&#xd1;" horiz-adv-x="682" 
d="M681 700l-123 -700h-91l-241 557l-98 -557h-92l123 700h97l236 -550l97 550h92zM317 827q27 28 66 28q18 0 33 -6.5t36 -20.5q15 -10 25 -15t19 -5q14 0 23.5 12t16.5 39h52q-8 -49 -35 -77t-68 -28q-19 0 -34.5 7.5t-37.5 21.5q-25 18 -38 18q-12 0 -23.5 -13t-15.5 -34
h-52q6 45 33 73z" />
    <glyph glyph-name="Ograve" unicode="&#xd2;" horiz-adv-x="661" 
d="M160 22.5q-56 32.5 -86.5 93.5t-30.5 143q0 128 47 231t130 161.5t187 58.5q75 0 131 -32.5t86 -93t30 -142.5q0 -128 -47 -231.5t-129.5 -162t-185.5 -58.5q-76 0 -132 32.5zM431 114q60 50 95 135.5t35 187.5q0 94 -42.5 146.5t-119.5 52.5q-72 0 -132.5 -50
t-95.5 -135.5t-35 -186.5q0 -95 43 -147.5t120 -52.5q72 0 132 50zM315 900h87l52 -146h-68z" />
    <glyph glyph-name="Oacute" unicode="&#xd3;" horiz-adv-x="661" 
d="M160 22.5q-56 32.5 -86.5 93.5t-30.5 143q0 128 47 231t130 161.5t187 58.5q75 0 131 -32.5t86 -93t30 -142.5q0 -128 -47 -231.5t-129.5 -162t-185.5 -58.5q-76 0 -132 32.5zM431 114q60 50 95 135.5t35 187.5q0 94 -42.5 146.5t-119.5 52.5q-72 0 -132.5 -50
t-95.5 -135.5t-35 -186.5q0 -95 43 -147.5t120 -52.5q72 0 132 50zM495 900h87l-123 -146h-68z" />
    <glyph glyph-name="Ocircumflex" unicode="&#xd4;" horiz-adv-x="661" 
d="M160 22.5q-56 32.5 -86.5 93.5t-30.5 143q0 128 47 231t130 161.5t187 58.5q75 0 131 -32.5t86 -93t30 -142.5q0 -128 -47 -231.5t-129.5 -162t-185.5 -58.5q-76 0 -132 32.5zM431 114q60 50 95 135.5t35 187.5q0 94 -42.5 146.5t-119.5 52.5q-72 0 -132.5 -50
t-95.5 -135.5t-35 -186.5q0 -95 43 -147.5t120 -52.5q72 0 132 50zM417 897h58l87 -143h-71l-51 88l-83 -88h-77z" />
    <glyph glyph-name="Otilde" unicode="&#xd5;" horiz-adv-x="661" 
d="M160 22.5q-56 32.5 -86.5 93.5t-30.5 143q0 128 47 231t130 161.5t187 58.5q75 0 131 -32.5t86 -93t30 -142.5q0 -128 -47 -231.5t-129.5 -162t-185.5 -58.5q-76 0 -132 32.5zM431 114q60 50 95 135.5t35 187.5q0 94 -42.5 146.5t-119.5 52.5q-72 0 -132.5 -50
t-95.5 -135.5t-35 -186.5q0 -95 43 -147.5t120 -52.5q72 0 132 50zM308 827q27 28 66 28q18 0 33 -6.5t36 -20.5q15 -10 25 -15t19 -5q14 0 23.5 12t16.5 39h52q-8 -49 -35 -77t-68 -28q-19 0 -34.5 7.5t-37.5 21.5q-25 18 -38 18q-12 0 -23.5 -13t-15.5 -34h-52q6 45 33 73
z" />
    <glyph glyph-name="Odieresis" unicode="&#xd6;" horiz-adv-x="661" 
d="M160 22.5q-56 32.5 -86.5 93.5t-30.5 143q0 128 47 231t130 161.5t187 58.5q75 0 131 -32.5t86 -93t30 -142.5q0 -128 -47 -231.5t-129.5 -162t-185.5 -58.5q-76 0 -132 32.5zM431 114q60 50 95 135.5t35 187.5q0 94 -42.5 146.5t-119.5 52.5q-72 0 -132.5 -50
t-95.5 -135.5t-35 -186.5q0 -95 43 -147.5t120 -52.5q72 0 132 50zM289.5 765.5q-12.5 11.5 -12.5 29.5q0 27 17 44t45 17q19 0 31.5 -11.5t12.5 -29.5q0 -27 -17 -44t-45 -17q-19 0 -31.5 11.5zM489 765.5q-12 11.5 -12 30.5q0 26 17 43t45 17q19 0 31.5 -11.5t12.5 -29.5
q0 -27 -17 -44t-45 -17q-20 0 -32 11.5z" />
    <glyph glyph-name="multiply" unicode="&#xd7;" horiz-adv-x="607" 
d="M295 205l-220 -195l-46 50l222 199l-152 197l64 50l150 -194l222 194l46 -50l-222 -197l152 -199l-64 -50z" />
    <glyph glyph-name="Oslash" unicode="&#xd8;" horiz-adv-x="661" 
d="M637 552.5q17 -49.5 17 -110.5q0 -128 -47 -231.5t-129.5 -162t-185.5 -58.5q-81 0 -137 36l-49 -69h-73l75 107q-65 73 -65 195q0 128 47 231t130 161.5t187 58.5q74 0 132 -33l34 48h77l-62 -88q32 -35 49 -84.5zM163 141l328 468q-36 27 -92 27q-72 0 -132.5 -50
t-95.5 -135.5t-35 -186.5q0 -75 27 -123zM431 114q60 50 95 135.5t35 187.5q0 76 -27 124l-331 -467q37 -30 96 -30q72 0 132 50z" />
    <glyph glyph-name="Ugrave" unicode="&#xd9;" horiz-adv-x="657" 
d="M128.5 43q-54.5 53 -54.5 152q0 40 7 79l75 426h93l-75 -424q-8 -45 -8 -76q0 -67 32 -100.5t98 -33.5q159 0 196 210l75 424h92l-75 -426q-25 -146 -98 -215t-197 -69q-106 0 -160.5 53zM312 900h87l52 -146h-68z" />
    <glyph glyph-name="Uacute" unicode="&#xda;" horiz-adv-x="657" 
d="M128.5 43q-54.5 53 -54.5 152q0 40 7 79l75 426h93l-75 -424q-8 -45 -8 -76q0 -67 32 -100.5t98 -33.5q159 0 196 210l75 424h92l-75 -426q-25 -146 -98 -215t-197 -69q-106 0 -160.5 53zM492 900h87l-123 -146h-68z" />
    <glyph glyph-name="Ucircumflex" unicode="&#xdb;" horiz-adv-x="657" 
d="M128.5 43q-54.5 53 -54.5 152q0 40 7 79l75 426h93l-75 -424q-8 -45 -8 -76q0 -67 32 -100.5t98 -33.5q159 0 196 210l75 424h92l-75 -426q-25 -146 -98 -215t-197 -69q-106 0 -160.5 53zM414 897h58l87 -143h-71l-51 88l-83 -88h-77z" />
    <glyph glyph-name="Udieresis" unicode="&#xdc;" horiz-adv-x="657" 
d="M128.5 43q-54.5 53 -54.5 152q0 40 7 79l75 426h93l-75 -424q-8 -45 -8 -76q0 -67 32 -100.5t98 -33.5q159 0 196 210l75 424h92l-75 -426q-25 -146 -98 -215t-197 -69q-106 0 -160.5 53zM286.5 765.5q-12.5 11.5 -12.5 29.5q0 27 17 44t45 17q19 0 31.5 -11.5
t12.5 -29.5q0 -27 -17 -44t-45 -17q-19 0 -31.5 11.5zM486 765.5q-12 11.5 -12 30.5q0 26 17 43t45 17q19 0 31.5 -11.5t12.5 -29.5q0 -27 -17 -44t-45 -17q-20 0 -32 11.5z" />
    <glyph glyph-name="Yacute" unicode="&#xdd;" horiz-adv-x="573" 
d="M245 278l-149 422h100l108 -334l226 334h104l-296 -422l-49 -278h-93zM449 900h87l-123 -146h-68z" />
    <glyph glyph-name="Thorn" unicode="&#xde;" horiz-adv-x="567" 
d="M160 700h92l-17 -97h102q98 0 153.5 -44.5t55.5 -123.5q0 -81 -33.5 -141t-96.5 -92.5t-148 -32.5h-109l-30 -169h-92zM287 245q49 0 87.5 23t60 63.5t21.5 92.5q0 51 -32.5 77.5t-94.5 26.5h-107l-50 -283h115z" />
    <glyph glyph-name="germandbls" unicode="&#xdf;" horiz-adv-x="565" 
d="M222.5 12q-42.5 22 -56.5 62l62 38q13 -27 37 -42t55 -15q46 0 77.5 30t31.5 73q0 29 -19.5 45.5t-60.5 33.5q-82 34 -82 101q0 46 22 72.5t64 52.5q27 19 42 31.5t25.5 32t10.5 46.5q0 34 -23 52t-68 18q-68 0 -104.5 -41t-50.5 -121l-85 -481h-84l86 486
q40 224 236 224q82 0 129.5 -33.5t47.5 -93.5q0 -40 -15 -69.5t-35.5 -48t-53.5 -41.5q-32 -22 -47 -37.5t-15 -36.5q0 -18 16.5 -32t56.5 -30q45 -19 69 -50.5t24 -72.5q0 -50 -25.5 -90t-70 -62.5t-100.5 -22.5q-54 0 -96.5 22z" />
    <glyph glyph-name="agrave" unicode="&#xe0;" horiz-adv-x="542" 
d="M76.5 43.5q-47.5 53.5 -47.5 145.5q0 93 32.5 166t91 114t132.5 41q52 0 91 -22t55 -60h2l22 72h70l-66 -374q-17 -91 -20 -126h-78q6 46 12 79h-2q-30 -41 -74.5 -65t-91.5 -24q-81 0 -128.5 53.5zM331.5 96.5q44.5 38.5 55.5 103.5l16 91q3 20 3 36q0 55 -30.5 86.5
t-84.5 31.5q-49 0 -89.5 -33t-63.5 -90.5t-23 -127.5q0 -65 28 -100.5t80 -35.5q64 0 108.5 38.5zM202 700h87l52 -146h-68z" />
    <glyph glyph-name="aacute" unicode="&#xe1;" horiz-adv-x="542" 
d="M76.5 43.5q-47.5 53.5 -47.5 145.5q0 93 32.5 166t91 114t132.5 41q52 0 91 -22t55 -60h2l22 72h70l-66 -374q-17 -91 -20 -126h-78q6 46 12 79h-2q-30 -41 -74.5 -65t-91.5 -24q-81 0 -128.5 53.5zM331.5 96.5q44.5 38.5 55.5 103.5l16 91q3 20 3 36q0 55 -30.5 86.5
t-84.5 31.5q-49 0 -89.5 -33t-63.5 -90.5t-23 -127.5q0 -65 28 -100.5t80 -35.5q64 0 108.5 38.5zM382 700h87l-123 -146h-68z" />
    <glyph glyph-name="acircumflex" unicode="&#xe2;" horiz-adv-x="542" 
d="M76.5 43.5q-47.5 53.5 -47.5 145.5q0 93 32.5 166t91 114t132.5 41q52 0 91 -22t55 -60h2l22 72h70l-66 -374q-17 -91 -20 -126h-78q6 46 12 79h-2q-30 -41 -74.5 -65t-91.5 -24q-81 0 -128.5 53.5zM331.5 96.5q44.5 38.5 55.5 103.5l16 91q3 20 3 36q0 55 -30.5 86.5
t-84.5 31.5q-49 0 -89.5 -33t-63.5 -90.5t-23 -127.5q0 -65 28 -100.5t80 -35.5q64 0 108.5 38.5zM304 697h58l87 -143h-71l-51 88l-83 -88h-77z" />
    <glyph glyph-name="atilde" unicode="&#xe3;" horiz-adv-x="542" 
d="M76.5 43.5q-47.5 53.5 -47.5 145.5q0 93 32.5 166t91 114t132.5 41q52 0 91 -22t55 -60h2l22 72h70l-66 -374q-17 -91 -20 -126h-78q6 46 12 79h-2q-30 -41 -74.5 -65t-91.5 -24q-81 0 -128.5 53.5zM331.5 96.5q44.5 38.5 55.5 103.5l16 91q3 20 3 36q0 55 -30.5 86.5
t-84.5 31.5q-49 0 -89.5 -33t-63.5 -90.5t-23 -127.5q0 -65 28 -100.5t80 -35.5q64 0 108.5 38.5zM195 627q27 28 66 28q18 0 33 -6.5t36 -20.5q15 -10 25 -15t19 -5q14 0 23.5 12t16.5 39h52q-8 -49 -35 -77t-68 -28q-19 0 -34.5 7.5t-37.5 21.5q-25 18 -38 18
q-12 0 -23.5 -13t-15.5 -34h-52q6 45 33 73z" />
    <glyph glyph-name="adieresis" unicode="&#xe4;" horiz-adv-x="542" 
d="M76.5 43.5q-47.5 53.5 -47.5 145.5q0 93 32.5 166t91 114t132.5 41q52 0 91 -22t55 -60h2l22 72h70l-66 -374q-17 -91 -20 -126h-78q6 46 12 79h-2q-30 -41 -74.5 -65t-91.5 -24q-81 0 -128.5 53.5zM331.5 96.5q44.5 38.5 55.5 103.5l16 91q3 20 3 36q0 55 -30.5 86.5
t-84.5 31.5q-49 0 -89.5 -33t-63.5 -90.5t-23 -127.5q0 -65 28 -100.5t80 -35.5q64 0 108.5 38.5zM176.5 565.5q-12.5 11.5 -12.5 29.5q0 27 17 44t45 17q19 0 31.5 -11.5t12.5 -29.5q0 -27 -17 -44t-45 -17q-19 0 -31.5 11.5zM376 565.5q-12 11.5 -12 30.5q0 26 17 43
t45 17q19 0 31.5 -11.5t12.5 -29.5q0 -27 -17 -44t-45 -17q-20 0 -32 11.5z" />
    <glyph glyph-name="aring" unicode="&#xe5;" horiz-adv-x="542" 
d="M76.5 43.5q-47.5 53.5 -47.5 145.5q0 93 32.5 166t91 114t132.5 41q52 0 91 -22t55 -60h2l22 72h70l-66 -374q-17 -91 -20 -126h-78q6 46 12 79h-2q-30 -41 -74.5 -65t-91.5 -24q-81 0 -128.5 53.5zM331.5 96.5q44.5 38.5 55.5 103.5l16 91q3 20 3 36q0 55 -30.5 86.5
t-84.5 31.5q-49 0 -89.5 -33t-63.5 -90.5t-23 -127.5q0 -65 28 -100.5t80 -35.5q64 0 108.5 38.5zM246.5 558q-22.5 20 -22.5 52q0 47 31 76.5t81 29.5q35 0 57.5 -20t22.5 -52q0 -47 -31 -76.5t-81 -29.5q-35 0 -57.5 20zM354 593q17 17 17 44q0 18 -11.5 29.5t-30.5 11.5
q-26 0 -43 -17t-17 -44q0 -18 11.5 -29.5t30.5 -11.5q26 0 43 17z" />
    <glyph glyph-name="ae" unicode="&#xe6;" horiz-adv-x="824" 
d="M746.5 463q50.5 -47 50.5 -134q0 -29 -6 -64l-6 -32h-356l-2 -10q-1 -10 -1 -31q0 -63 31.5 -96.5t90.5 -33.5q87 0 152 71l40 -46q-37 -46 -91 -71.5t-117 -25.5q-60 0 -102.5 22t-65.5 64q-36 -39 -87.5 -62.5t-105.5 -23.5q-76 0 -117.5 37t-41.5 95q0 81 63 126.5
t169 45.5h111l3 8l4 25q3 17 3 31q0 41 -24.5 62.5t-70.5 21.5q-45 0 -85.5 -18.5t-70.5 -53.5l-33 52q40 45 88.5 66.5t109.5 21.5q56 0 95.5 -19t58.5 -55q34 36 79 55t97 19q87 0 137.5 -47zM725 331q0 47 -30.5 78.5t-88.5 31.5q-56 0 -100 -40t-65 -107h280l2 12
q2 18 2 25zM280 89q45 32 53 77l10 53q0 9 1 14h-103q-65 0 -105.5 -30t-40.5 -78q0 -31 22.5 -49.5t61.5 -18.5q56 0 101 32z" />
    <glyph glyph-name="ccedilla" unicode="&#xe7;" horiz-adv-x="473" 
d="M317.5 77.5q38.5 19.5 66.5 53.5l43 -46q-69 -86 -177 -94l-37 -53q34 0 56.5 -19t22.5 -48q0 -41 -33 -66.5t-86 -25.5q-21 0 -42 4t-32 9l15 39q21 -7 55 -7q27 0 44.5 13t17.5 33q0 16 -18.5 24.5t-52.5 7.5l-16 22l50 68q-78 10 -122 61.5t-44 133.5q0 95 35 168.5
t98.5 114t146.5 40.5q64 0 111 -25t67 -70l-60 -46q-15 34 -47.5 53.5t-73.5 19.5q-54 0 -97.5 -32.5t-68.5 -88.5t-25 -126q0 -65 32.5 -101t91.5 -36q41 0 79.5 19.5z" />
    <glyph glyph-name="egrave" unicode="&#xe8;" horiz-adv-x="518" 
d="M440.5 459q48.5 -51 48.5 -141q0 -26 -7 -68l-6 -33h-360q-1 -8 -1 -25q0 -64 31.5 -97t92.5 -33q44 0 83.5 18t71.5 53l40 -46q-38 -47 -90 -72t-113 -25q-93 0 -147.5 53.5t-54.5 145.5q0 94 34.5 167t97.5 113.5t144 40.5q87 0 135.5 -51zM413 323q0 57 -30 87.5
t-87 30.5q-59 0 -105 -44t-65 -117h283l1 7q3 20 3 36zM214 700h87l52 -146h-68z" />
    <glyph glyph-name="eacute" unicode="&#xe9;" horiz-adv-x="518" 
d="M440.5 459q48.5 -51 48.5 -141q0 -26 -7 -68l-6 -33h-360q-1 -8 -1 -25q0 -64 31.5 -97t92.5 -33q44 0 83.5 18t71.5 53l40 -46q-38 -47 -90 -72t-113 -25q-93 0 -147.5 53.5t-54.5 145.5q0 94 34.5 167t97.5 113.5t144 40.5q87 0 135.5 -51zM413 323q0 57 -30 87.5
t-87 30.5q-59 0 -105 -44t-65 -117h283l1 7q3 20 3 36zM394 700h87l-123 -146h-68z" />
    <glyph glyph-name="ecircumflex" unicode="&#xea;" horiz-adv-x="518" 
d="M440.5 459q48.5 -51 48.5 -141q0 -26 -7 -68l-6 -33h-360q-1 -8 -1 -25q0 -64 31.5 -97t92.5 -33q44 0 83.5 18t71.5 53l40 -46q-38 -47 -90 -72t-113 -25q-93 0 -147.5 53.5t-54.5 145.5q0 94 34.5 167t97.5 113.5t144 40.5q87 0 135.5 -51zM413 323q0 57 -30 87.5
t-87 30.5q-59 0 -105 -44t-65 -117h283l1 7q3 20 3 36zM316 697h58l87 -143h-71l-51 88l-83 -88h-77z" />
    <glyph glyph-name="edieresis" unicode="&#xeb;" horiz-adv-x="518" 
d="M440.5 459q48.5 -51 48.5 -141q0 -26 -7 -68l-6 -33h-360q-1 -8 -1 -25q0 -64 31.5 -97t92.5 -33q44 0 83.5 18t71.5 53l40 -46q-38 -47 -90 -72t-113 -25q-93 0 -147.5 53.5t-54.5 145.5q0 94 34.5 167t97.5 113.5t144 40.5q87 0 135.5 -51zM413 323q0 57 -30 87.5
t-87 30.5q-59 0 -105 -44t-65 -117h283l1 7q3 20 3 36zM188.5 565.5q-12.5 11.5 -12.5 29.5q0 27 17 44t45 17q19 0 31.5 -11.5t12.5 -29.5q0 -27 -17 -44t-45 -17q-19 0 -31.5 11.5zM388 565.5q-12 11.5 -12 30.5q0 26 17 43t45 17q19 0 31.5 -11.5t12.5 -29.5
q0 -27 -17 -44t-45 -17q-20 0 -32 11.5z" />
    <glyph glyph-name="igrave" unicode="&#xec;" horiz-adv-x="253" 
d="M128 500h85l-88 -500h-85zM74 700h87l52 -146h-68z" />
    <glyph glyph-name="iacute" unicode="&#xed;" horiz-adv-x="253" 
d="M128 500h85l-88 -500h-85zM254 700h87l-123 -146h-68z" />
    <glyph glyph-name="icircumflex" unicode="&#xee;" horiz-adv-x="253" 
d="M128 500h85l-88 -500h-85zM176 697h58l87 -143h-71l-51 88l-83 -88h-77z" />
    <glyph glyph-name="idieresis" unicode="&#xef;" horiz-adv-x="253" 
d="M128 500h85l-88 -500h-85zM48.5 565.5q-12.5 11.5 -12.5 29.5q0 27 17 44t45 17q19 0 31.5 -11.5t12.5 -29.5q0 -27 -17 -44t-45 -17q-19 0 -31.5 11.5zM248 565.5q-12 11.5 -12 30.5q0 26 17 43t45 17q19 0 31.5 -11.5t12.5 -29.5q0 -27 -17 -44t-45 -17q-20 0 -32 11.5
z" />
    <glyph glyph-name="eth" unicode="&#xf0;" horiz-adv-x="495" 
d="M370 593q48 -52 73 -120.5t25 -146.5q0 -97 -34 -173.5t-94.5 -119.5t-137.5 -43q-52 0 -93 22.5t-63.5 63.5t-22.5 92q0 74 32.5 137.5t88.5 100.5t122 37q35 0 67.5 -14t46.5 -37q-12 93 -76 163l-143 -83l-25 50l124 72q-51 39 -118 56l16 52q97 -15 168 -69l129 75
l24 -52zM295.5 86.5q37.5 26.5 59 71.5t21.5 100t-28.5 86t-79.5 31q-44 0 -80.5 -27t-58 -72.5t-21.5 -100.5q0 -53 28 -84t77 -31q45 0 82.5 26.5z" />
    <glyph glyph-name="ntilde" unicode="&#xf1;" horiz-adv-x="549" 
d="M82 374q7 41 12 74t6 52h79q-2 -37 -12 -89h3q26 46 74.5 72.5t106.5 26.5q73 0 111 -40t38 -116q0 -35 -7 -71l-50 -283h-85l50 284q6 33 6 60q0 98 -87 98q-64 0 -114.5 -47.5t-63.5 -120.5l-48 -274h-85zM215 627q27 28 66 28q18 0 33 -6.5t36 -20.5q15 -10 25 -15
t19 -5q14 0 23.5 12t16.5 39h52q-8 -49 -35 -77t-68 -28q-19 0 -34.5 7.5t-37.5 21.5q-25 18 -38 18q-12 0 -23.5 -13t-15.5 -34h-52q6 45 33 73z" />
    <glyph glyph-name="ograve" unicode="&#xf2;" horiz-adv-x="557" 
d="M87.5 46q-57.5 56 -57.5 149q0 92 36 163.5t101 111.5t149 40q95 0 153 -56t58 -149q0 -92 -36.5 -163.5t-101.5 -111.5t-149 -40q-95 0 -152.5 56zM344 87.5q45 32.5 71 89.5t26 127q0 67 -34 104t-95 37q-55 0 -100 -33t-70.5 -90t-25.5 -127q0 -67 33.5 -103.5
t93.5 -36.5q56 0 101 32.5zM226 700h87l52 -146h-68z" />
    <glyph glyph-name="oacute" unicode="&#xf3;" horiz-adv-x="557" 
d="M87.5 46q-57.5 56 -57.5 149q0 92 36 163.5t101 111.5t149 40q95 0 153 -56t58 -149q0 -92 -36.5 -163.5t-101.5 -111.5t-149 -40q-95 0 -152.5 56zM344 87.5q45 32.5 71 89.5t26 127q0 67 -34 104t-95 37q-55 0 -100 -33t-70.5 -90t-25.5 -127q0 -67 33.5 -103.5
t93.5 -36.5q56 0 101 32.5zM406 700h87l-123 -146h-68z" />
    <glyph glyph-name="ocircumflex" unicode="&#xf4;" horiz-adv-x="557" 
d="M87.5 46q-57.5 56 -57.5 149q0 92 36 163.5t101 111.5t149 40q95 0 153 -56t58 -149q0 -92 -36.5 -163.5t-101.5 -111.5t-149 -40q-95 0 -152.5 56zM344 87.5q45 32.5 71 89.5t26 127q0 67 -34 104t-95 37q-55 0 -100 -33t-70.5 -90t-25.5 -127q0 -67 33.5 -103.5
t93.5 -36.5q56 0 101 32.5zM328 697h58l87 -143h-71l-51 88l-83 -88h-77z" />
    <glyph glyph-name="otilde" unicode="&#xf5;" horiz-adv-x="557" 
d="M87.5 46q-57.5 56 -57.5 149q0 92 36 163.5t101 111.5t149 40q95 0 153 -56t58 -149q0 -92 -36.5 -163.5t-101.5 -111.5t-149 -40q-95 0 -152.5 56zM344 87.5q45 32.5 71 89.5t26 127q0 67 -34 104t-95 37q-55 0 -100 -33t-70.5 -90t-25.5 -127q0 -67 33.5 -103.5
t93.5 -36.5q56 0 101 32.5zM219 627q27 28 66 28q18 0 33 -6.5t36 -20.5q15 -10 25 -15t19 -5q14 0 23.5 12t16.5 39h52q-8 -49 -35 -77t-68 -28q-19 0 -34.5 7.5t-37.5 21.5q-25 18 -38 18q-12 0 -23.5 -13t-15.5 -34h-52q6 45 33 73z" />
    <glyph glyph-name="odieresis" unicode="&#xf6;" horiz-adv-x="557" 
d="M87.5 46q-57.5 56 -57.5 149q0 92 36 163.5t101 111.5t149 40q95 0 153 -56t58 -149q0 -92 -36.5 -163.5t-101.5 -111.5t-149 -40q-95 0 -152.5 56zM344 87.5q45 32.5 71 89.5t26 127q0 67 -34 104t-95 37q-55 0 -100 -33t-70.5 -90t-25.5 -127q0 -67 33.5 -103.5
t93.5 -36.5q56 0 101 32.5zM200.5 565.5q-12.5 11.5 -12.5 29.5q0 27 17 44t45 17q19 0 31.5 -11.5t12.5 -29.5q0 -27 -17 -44t-45 -17q-19 0 -31.5 11.5zM400 565.5q-12 11.5 -12 30.5q0 26 17 43t45 17q19 0 31.5 -11.5t12.5 -29.5q0 -27 -17 -44t-45 -17q-20 0 -32 11.5z
" />
    <glyph glyph-name="divide" unicode="&#xf7;" horiz-adv-x="607" 
d="M291 399q-14 13 -14 34q0 31 19.5 50t51.5 19q23 0 37 -13t14 -34q0 -31 -19.5 -50t-51.5 -19q-23 0 -37 13zM59 296h505l-12 -68h-505zM227.5 35.5q-14.5 13.5 -14.5 34.5q0 30 20 49t51 19q22 0 36.5 -13t14.5 -33q0 -31 -20 -50.5t-51 -19.5q-22 0 -36.5 13.5z" />
    <glyph glyph-name="oslash" unicode="&#xf8;" horiz-adv-x="557" 
d="M510.5 393q16.5 -40 16.5 -88q0 -92 -36.5 -163.5t-101.5 -111.5t-149 -40q-53 0 -97 19l-37 -52h-64l56 80q-33 27 -50.5 67.5t-17.5 90.5q0 92 36 163.5t101 111.5t149 40q55 0 100 -20l32 45h68l-53 -75q31 -27 47.5 -67zM143 100l232 332q-28 13 -63 13
q-55 0 -100 -33t-70.5 -90t-25.5 -127q0 -59 27 -95zM344 87.5q45 32.5 71 89.5t26 127q0 57 -24 91l-233 -328q26 -12 59 -12q56 0 101 32.5z" />
    <glyph glyph-name="ugrave" unicode="&#xf9;" horiz-adv-x="552" 
d="M46 137q0 34 7 69l52 294h85l-51 -290q-5 -25 -5 -54q0 -98 86 -98q64 0 114.5 47.5t63.5 120.5l48 274h85l-70 -394q-9 -51 -9 -106h-78q-1 8 -1 23q0 23 6 66h-3q-29 -46 -79 -72.5t-106 -26.5q-145 0 -145 147zM227 700h87l52 -146h-68z" />
    <glyph glyph-name="uacute" unicode="&#xfa;" horiz-adv-x="552" 
d="M46 137q0 34 7 69l52 294h85l-51 -290q-5 -25 -5 -54q0 -98 86 -98q64 0 114.5 47.5t63.5 120.5l48 274h85l-70 -394q-9 -51 -9 -106h-78q-1 8 -1 23q0 23 6 66h-3q-29 -46 -79 -72.5t-106 -26.5q-145 0 -145 147zM407 700h87l-123 -146h-68z" />
    <glyph glyph-name="ucircumflex" unicode="&#xfb;" horiz-adv-x="552" 
d="M46 137q0 34 7 69l52 294h85l-51 -290q-5 -25 -5 -54q0 -98 86 -98q64 0 114.5 47.5t63.5 120.5l48 274h85l-70 -394q-9 -51 -9 -106h-78q-1 8 -1 23q0 23 6 66h-3q-29 -46 -79 -72.5t-106 -26.5q-145 0 -145 147zM329 697h58l87 -143h-71l-51 88l-83 -88h-77z" />
    <glyph glyph-name="udieresis" unicode="&#xfc;" horiz-adv-x="552" 
d="M46 137q0 34 7 69l52 294h85l-51 -290q-5 -25 -5 -54q0 -98 86 -98q64 0 114.5 47.5t63.5 120.5l48 274h85l-70 -394q-9 -51 -9 -106h-78q-1 8 -1 23q0 23 6 66h-3q-29 -46 -79 -72.5t-106 -26.5q-145 0 -145 147zM201.5 565.5q-12.5 11.5 -12.5 29.5q0 27 17 44t45 17
q19 0 31.5 -11.5t12.5 -29.5q0 -27 -17 -44t-45 -17q-19 0 -31.5 11.5zM401 565.5q-12 11.5 -12 30.5q0 26 17 43t45 17q19 0 31.5 -11.5t12.5 -29.5q0 -27 -17 -44t-45 -17q-20 0 -32 11.5z" />
    <glyph glyph-name="yacute" unicode="&#xfd;" horiz-adv-x="462" 
d="M496 500l-271 -509q-51 -96 -113.5 -144.5t-133.5 -48.5q-27 0 -55 7l11 65q18 -6 43 -6q51 0 93.5 37t91.5 125l-102 474h89l66 -383l187 383h94zM365 700h87l-123 -146h-68z" />
    <glyph glyph-name="thorn" unicode="&#xfe;" horiz-adv-x="534" 
d="M146 742h84l-53 -303q24 35 63.5 53t90.5 18q80 0 127.5 -51t47.5 -139q0 -93 -34 -168.5t-94 -118.5t-133 -43q-48 0 -83.5 18t-52.5 50l-51 -292h-84zM331 90q41 35 65.5 95t24.5 129q0 62 -28 95.5t-81 33.5q-59 0 -104 -40.5t-56 -104.5l-14 -81q-4 -20 -4 -44
q0 -56 28 -87t80 -31q48 0 89 35z" />
    <glyph glyph-name="ydieresis" unicode="&#xff;" horiz-adv-x="462" 
d="M496 500l-271 -509q-51 -96 -113.5 -144.5t-133.5 -48.5q-27 0 -55 7l11 65q18 -6 43 -6q51 0 93.5 37t91.5 125l-102 474h89l66 -383l187 383h94zM159.5 565.5q-12.5 11.5 -12.5 29.5q0 27 17 44t45 17q19 0 31.5 -11.5t12.5 -29.5q0 -27 -17 -44t-45 -17
q-19 0 -31.5 11.5zM359 565.5q-12 11.5 -12 30.5q0 26 17 43t45 17q19 0 31.5 -11.5t12.5 -29.5q0 -27 -17 -44t-45 -17q-20 0 -32 11.5z" />
    <glyph glyph-name="Amacron" unicode="&#x100;" horiz-adv-x="596" 
d="M422 151h-271l-73 -151h-105l361 700h86l115 -700h-91zM411 226l-51 359l-173 -359h224zM242 823h312l-10 -59h-312z" />
    <glyph glyph-name="amacron" unicode="&#x101;" horiz-adv-x="542" 
d="M76.5 43.5q-47.5 53.5 -47.5 145.5q0 93 32.5 166t91 114t132.5 41q52 0 91 -22t55 -60h2l22 72h70l-66 -374q-17 -91 -20 -126h-78q6 46 12 79h-2q-30 -41 -74.5 -65t-91.5 -24q-81 0 -128.5 53.5zM331.5 96.5q44.5 38.5 55.5 103.5l16 91q3 20 3 36q0 55 -30.5 86.5
t-84.5 31.5q-49 0 -89.5 -33t-63.5 -90.5t-23 -127.5q0 -65 28 -100.5t80 -35.5q64 0 108.5 38.5zM163 623h312l-10 -59h-312z" />
    <glyph glyph-name="Abreve" unicode="&#x102;" horiz-adv-x="596" 
d="M422 151h-271l-73 -151h-105l361 700h86l115 -700h-91zM411 226l-51 359l-173 -359h224zM298.5 781.5q-35.5 27.5 -35.5 81.5q0 8 2 24h52q-4 -35 15.5 -55.5t62.5 -20.5q39 0 67 19t37 57h56q-12 -63 -52.5 -98t-109.5 -35q-59 0 -94.5 27.5z" />
    <glyph glyph-name="abreve" unicode="&#x103;" horiz-adv-x="542" 
d="M76.5 43.5q-47.5 53.5 -47.5 145.5q0 93 32.5 166t91 114t132.5 41q52 0 91 -22t55 -60h2l22 72h70l-66 -374q-17 -91 -20 -126h-78q6 46 12 79h-2q-30 -41 -74.5 -65t-91.5 -24q-81 0 -128.5 53.5zM331.5 96.5q44.5 38.5 55.5 103.5l16 91q3 20 3 36q0 55 -30.5 86.5
t-84.5 31.5q-49 0 -89.5 -33t-63.5 -90.5t-23 -127.5q0 -65 28 -100.5t80 -35.5q64 0 108.5 38.5zM219.5 581.5q-35.5 27.5 -35.5 81.5q0 8 2 24h52q-4 -35 15.5 -55.5t62.5 -20.5q39 0 67 19t37 57h56q-12 -63 -52.5 -98t-109.5 -35q-59 0 -94.5 27.5z" />
    <glyph glyph-name="Aogonek" unicode="&#x104;" horiz-adv-x="596" 
d="M516 -145l4 -36q-19 -14 -44 -22t-51 -8q-40 0 -62 18t-22 51q0 43 28 79.5t80 62.5h-5l-22 151h-271l-73 -151h-105l361 700h86l115 -700h-28q-48 -29 -74.5 -60.5t-26.5 -57.5q0 -19 14.5 -29t41.5 -10q23 0 54 12zM411 226l-51 359l-173 -359h224z" />
    <glyph glyph-name="aogonek" unicode="&#x105;" horiz-adv-x="542" 
d="M362.5 -60.5q-26.5 -31.5 -26.5 -57.5q0 -19 14.5 -29t41.5 -10q23 0 54 12l4 -36q-19 -14 -44 -22t-51 -8q-40 0 -62 18t-22 51q0 43 28 79.5t80 62.5h-18q6 46 12 79h-2q-30 -41 -74.5 -65t-91.5 -24q-81 0 -128.5 53.5t-47.5 145.5q0 93 32.5 166t91 114t132.5 41
q52 0 91 -22t55 -60h2l22 72h70l-66 -374q-17 -91 -20 -126h-2q-48 -29 -74.5 -60.5zM331.5 96.5q44.5 38.5 55.5 103.5l16 91q3 20 3 36q0 55 -30.5 86.5t-84.5 31.5q-49 0 -89.5 -33t-63.5 -90.5t-23 -127.5q0 -65 28 -100.5t80 -35.5q64 0 108.5 38.5z" />
    <glyph glyph-name="Cacute" unicode="&#x106;" horiz-adv-x="585" 
d="M162 23q-57 33 -88 94.5t-31 143.5q0 127 48.5 229.5t133 161t190.5 58.5q75 0 130.5 -29.5t74.5 -79.5l-61 -51q-40 84 -150 84q-77 0 -139.5 -48.5t-98 -133.5t-35.5 -190q0 -94 44 -145t124 -51q59 0 104.5 20.5t80.5 63.5l43 -51q-39 -53 -99.5 -81t-136.5 -28
q-77 0 -134 33zM500 900h87l-123 -146h-68z" />
    <glyph glyph-name="cacute" unicode="&#x107;" horiz-adv-x="473" 
d="M81.5 42.5q-53.5 52.5 -53.5 144.5q0 95 35 168.5t98.5 114t146.5 40.5q64 0 111 -25t67 -70l-60 -46q-15 34 -47.5 53.5t-73.5 19.5q-54 0 -97.5 -32.5t-68.5 -88.5t-25 -126q0 -65 32.5 -101t91.5 -36q41 0 79.5 19.5t66.5 53.5l43 -46q-75 -95 -198 -95
q-94 0 -147.5 52.5zM400 700h87l-123 -146h-68z" />
    <glyph glyph-name="Ccircumflex" unicode="&#x108;" horiz-adv-x="585" 
d="M162 23q-57 33 -88 94.5t-31 143.5q0 127 48.5 229.5t133 161t190.5 58.5q75 0 130.5 -29.5t74.5 -79.5l-61 -51q-40 84 -150 84q-77 0 -139.5 -48.5t-98 -133.5t-35.5 -190q0 -94 44 -145t124 -51q59 0 104.5 20.5t80.5 63.5l43 -51q-39 -53 -99.5 -81t-136.5 -28
q-77 0 -134 33zM422 897h58l87 -143h-71l-51 88l-83 -88h-77z" />
    <glyph glyph-name="ccircumflex" unicode="&#x109;" horiz-adv-x="473" 
d="M81.5 42.5q-53.5 52.5 -53.5 144.5q0 95 35 168.5t98.5 114t146.5 40.5q64 0 111 -25t67 -70l-60 -46q-15 34 -47.5 53.5t-73.5 19.5q-54 0 -97.5 -32.5t-68.5 -88.5t-25 -126q0 -65 32.5 -101t91.5 -36q41 0 79.5 19.5t66.5 53.5l43 -46q-75 -95 -198 -95
q-94 0 -147.5 52.5zM322 697h58l87 -143h-71l-51 88l-83 -88h-77z" />
    <glyph glyph-name="Cdotaccent" unicode="&#x10a;" horiz-adv-x="585" 
d="M162 23q-57 33 -88 94.5t-31 143.5q0 127 48.5 229.5t133 161t190.5 58.5q75 0 130.5 -29.5t74.5 -79.5l-61 -51q-40 84 -150 84q-77 0 -139.5 -48.5t-98 -133.5t-35.5 -190q0 -94 44 -145t124 -51q59 0 104.5 20.5t80.5 63.5l43 -51q-39 -53 -99.5 -81t-136.5 -28
q-77 0 -134 33zM394.5 765.5q-12.5 11.5 -12.5 29.5q0 27 17 44t45 17q19 0 31.5 -11.5t12.5 -29.5q0 -27 -17 -44t-45 -17q-19 0 -31.5 11.5z" />
    <glyph glyph-name="cdotaccent" unicode="&#x10b;" horiz-adv-x="473" 
d="M81.5 42.5q-53.5 52.5 -53.5 144.5q0 95 35 168.5t98.5 114t146.5 40.5q64 0 111 -25t67 -70l-60 -46q-15 34 -47.5 53.5t-73.5 19.5q-54 0 -97.5 -32.5t-68.5 -88.5t-25 -126q0 -65 32.5 -101t91.5 -36q41 0 79.5 19.5t66.5 53.5l43 -46q-75 -95 -198 -95
q-94 0 -147.5 52.5zM294.5 565.5q-12.5 11.5 -12.5 29.5q0 27 17 44t45 17q19 0 31.5 -11.5t12.5 -29.5q0 -27 -17 -44t-45 -17q-19 0 -31.5 11.5z" />
    <glyph glyph-name="Ccaron" unicode="&#x10c;" horiz-adv-x="585" 
d="M162 23q-57 33 -88 94.5t-31 143.5q0 127 48.5 229.5t133 161t190.5 58.5q75 0 130.5 -29.5t74.5 -79.5l-61 -51q-40 84 -150 84q-77 0 -139.5 -48.5t-98 -133.5t-35.5 -190q0 -94 44 -145t124 -51q59 0 104.5 20.5t80.5 63.5l43 -51q-39 -53 -99.5 -81t-136.5 -28
q-77 0 -134 33zM310 897h71l51 -88l83 88h77l-137 -143h-58z" />
    <glyph glyph-name="ccaron" unicode="&#x10d;" horiz-adv-x="473" 
d="M81.5 42.5q-53.5 52.5 -53.5 144.5q0 95 35 168.5t98.5 114t146.5 40.5q64 0 111 -25t67 -70l-60 -46q-15 34 -47.5 53.5t-73.5 19.5q-54 0 -97.5 -32.5t-68.5 -88.5t-25 -126q0 -65 32.5 -101t91.5 -36q41 0 79.5 19.5t66.5 53.5l43 -46q-75 -95 -198 -95
q-94 0 -147.5 52.5zM210 697h71l51 -88l83 88h77l-137 -143h-58z" />
    <glyph glyph-name="Dcaron" unicode="&#x10e;" horiz-adv-x="623" 
d="M160 700h228q110 0 165.5 -59.5t55.5 -176.5q0 -147 -44 -251t-127.5 -158.5t-200.5 -54.5h-200zM260 76q76 0 134 48.5t90.5 135.5t32.5 200q0 83 -37.5 123.5t-114.5 40.5h-126l-97 -548h118zM285 897h71l51 -88l83 88h77l-137 -143h-58z" />
    <glyph glyph-name="dcaron" unicode="&#x10f;" horiz-adv-x="663" 
d="M76.5 43.5q-47.5 53.5 -47.5 145.5q0 93 33 166t91.5 114t132.5 41q47 0 84 -20t57 -57h2l54 309h84l-108 -616q-2 -8 -4 -26q-12 -66 -16 -100h-78q5 42 12 79h-2q-30 -41 -74.5 -65t-91.5 -24q-81 0 -128.5 53.5zM331.5 96.5q44.5 38.5 55.5 103.5l16 91q3 20 3 36
q0 55 -30.5 86.5t-84.5 31.5q-49 0 -89.5 -33t-63.5 -90.5t-23 -127.5q0 -65 28 -100.5t80 -35.5q64 0 108.5 38.5zM713.5 749q14.5 -14 14.5 -36q0 -35 -24.5 -77.5t-64.5 -75.5l-31 26q14 16 28 34t22 34h-2q-20 0 -32.5 11.5t-12.5 30.5q0 30 18.5 48.5t47.5 18.5
q22 0 36.5 -14z" />
    <glyph glyph-name="Dcroat" unicode="&#x110;" horiz-adv-x="625" 
d="M555.5 640.5q55.5 -59.5 55.5 -176.5q0 -147 -44 -251t-127.5 -158.5t-200.5 -54.5h-200l53 302h-75l13 71h75l57 327h228q110 0 165.5 -59.5zM396 124.5q58 48.5 90.5 135.5t32.5 200q0 83 -37.5 123.5t-114.5 40.5h-126l-44 -251h206l-13 -71h-206l-40 -226h118
q76 0 134 48.5z" />
    <glyph glyph-name="dcroat" unicode="&#x111;" horiz-adv-x="558" 
d="M600 600h-58l-83 -474q-2 -8 -4 -26q-12 -66 -16 -100h-78q5 42 12 79h-2q-30 -41 -74.5 -65t-91.5 -24q-81 0 -128.5 53.5t-47.5 145.5q0 93 33 166t91.5 114t132.5 41q47 0 84 -20t57 -57h2l29 167h-144l10 58h144l15 84h84l-15 -84h58zM406 327q0 55 -30.5 86.5
t-84.5 31.5q-49 0 -89.5 -33t-63.5 -90.5t-23 -127.5q0 -65 28 -100.5t80 -35.5q64 0 108.5 38.5t55.5 103.5l16 91q3 20 3 36z" />
    <glyph glyph-name="Emacron" unicode="&#x112;" horiz-adv-x="552" 
d="M160 700h420l-13 -76h-328l-38 -218h293l-14 -76h-293l-45 -254h328l-13 -76h-420zM239 823h312l-10 -59h-312z" />
    <glyph glyph-name="emacron" unicode="&#x113;" horiz-adv-x="518" 
d="M440.5 459q48.5 -51 48.5 -141q0 -26 -7 -68l-6 -33h-360q-1 -8 -1 -25q0 -64 31.5 -97t92.5 -33q44 0 83.5 18t71.5 53l40 -46q-38 -47 -90 -72t-113 -25q-93 0 -147.5 53.5t-54.5 145.5q0 94 34.5 167t97.5 113.5t144 40.5q87 0 135.5 -51zM413 323q0 57 -30 87.5
t-87 30.5q-59 0 -105 -44t-65 -117h283l1 7q3 20 3 36zM175 623h312l-10 -59h-312z" />
    <glyph glyph-name="Ebreve" unicode="&#x114;" horiz-adv-x="552" 
d="M160 700h420l-13 -76h-328l-38 -218h293l-14 -76h-293l-45 -254h328l-13 -76h-420zM295.5 781.5q-35.5 27.5 -35.5 81.5q0 8 2 24h52q-4 -35 15.5 -55.5t62.5 -20.5q39 0 67 19t37 57h56q-12 -63 -52.5 -98t-109.5 -35q-59 0 -94.5 27.5z" />
    <glyph glyph-name="ebreve" unicode="&#x115;" horiz-adv-x="518" 
d="M440.5 459q48.5 -51 48.5 -141q0 -26 -7 -68l-6 -33h-360q-1 -8 -1 -25q0 -64 31.5 -97t92.5 -33q44 0 83.5 18t71.5 53l40 -46q-38 -47 -90 -72t-113 -25q-93 0 -147.5 53.5t-54.5 145.5q0 94 34.5 167t97.5 113.5t144 40.5q87 0 135.5 -51zM413 323q0 57 -30 87.5
t-87 30.5q-59 0 -105 -44t-65 -117h283l1 7q3 20 3 36zM231.5 581.5q-35.5 27.5 -35.5 81.5q0 8 2 24h52q-4 -35 15.5 -55.5t62.5 -20.5q39 0 67 19t37 57h56q-12 -63 -52.5 -98t-109.5 -35q-59 0 -94.5 27.5z" />
    <glyph glyph-name="Edotaccent" unicode="&#x116;" horiz-adv-x="552" 
d="M160 700h420l-13 -76h-328l-38 -218h293l-14 -76h-293l-45 -254h328l-13 -76h-420zM352.5 765.5q-12.5 11.5 -12.5 29.5q0 27 17 44t45 17q19 0 31.5 -11.5t12.5 -29.5q0 -27 -17 -44t-45 -17q-19 0 -31.5 11.5z" />
    <glyph glyph-name="edotaccent" unicode="&#x117;" horiz-adv-x="518" 
d="M440.5 459q48.5 -51 48.5 -141q0 -26 -7 -68l-6 -33h-360q-1 -8 -1 -25q0 -64 31.5 -97t92.5 -33q44 0 83.5 18t71.5 53l40 -46q-38 -47 -90 -72t-113 -25q-93 0 -147.5 53.5t-54.5 145.5q0 94 34.5 167t97.5 113.5t144 40.5q87 0 135.5 -51zM413 323q0 57 -30 87.5
t-87 30.5q-59 0 -105 -44t-65 -117h283l1 7q3 20 3 36zM288.5 565.5q-12.5 11.5 -12.5 29.5q0 27 17 44t45 17q19 0 31.5 -11.5t12.5 -29.5q0 -27 -17 -44t-45 -17q-19 0 -31.5 11.5z" />
    <glyph glyph-name="Eogonek" unicode="&#x118;" horiz-adv-x="552" 
d="M239 624l-38 -218h293l-14 -76h-293l-45 -254h328l-12 -71l-1 -5q-48 -29 -74.5 -60.5t-26.5 -57.5q0 -19 14.5 -29t41.5 -10q23 0 54 12l4 -36q-19 -14 -44 -22t-51 -8q-40 0 -62 18t-22 51q0 43 28 79.5t80 62.5h-362l123 700h420l-13 -76h-328z" />
    <glyph glyph-name="eogonek" unicode="&#x119;" horiz-adv-x="518" 
d="M440.5 459q48.5 -51 48.5 -141q0 -26 -7 -68l-6 -33h-360q-1 -8 -1 -25q0 -64 31.5 -97t92.5 -33q44 0 83.5 18t71.5 53l40 -46q-34 -43 -81 -68q-28 -22 -43.5 -45t-15.5 -43q0 -19 14.5 -29t41.5 -10q23 0 54 12l4 -36q-19 -14 -44 -22t-51 -8q-40 0 -62 18t-22 51
q0 45 32 85q-20 -2 -30 -2q-93 0 -147.5 53.5t-54.5 145.5q0 94 34.5 167t97.5 113.5t144 40.5q87 0 135.5 -51zM413 323q0 57 -30 87.5t-87 30.5q-59 0 -105 -44t-65 -117h283l1 7q3 20 3 36z" />
    <glyph glyph-name="Ecaron" unicode="&#x11a;" horiz-adv-x="552" 
d="M160 700h420l-13 -76h-328l-38 -218h293l-14 -76h-293l-45 -254h328l-13 -76h-420zM268 897h71l51 -88l83 88h77l-137 -143h-58z" />
    <glyph glyph-name="ecaron" unicode="&#x11b;" horiz-adv-x="518" 
d="M440.5 459q48.5 -51 48.5 -141q0 -26 -7 -68l-6 -33h-360q-1 -8 -1 -25q0 -64 31.5 -97t92.5 -33q44 0 83.5 18t71.5 53l40 -46q-38 -47 -90 -72t-113 -25q-93 0 -147.5 53.5t-54.5 145.5q0 94 34.5 167t97.5 113.5t144 40.5q87 0 135.5 -51zM413 323q0 57 -30 87.5
t-87 30.5q-59 0 -105 -44t-65 -117h283l1 7q3 20 3 36zM204 697h71l51 -88l83 88h77l-137 -143h-58z" />
    <glyph glyph-name="Gcircumflex" unicode="&#x11c;" horiz-adv-x="636" 
d="M336 362h258l-63 -362h-62l-8 43q-75 -53 -175 -53q-113 0 -178.5 71.5t-65.5 194.5q0 129 48 232.5t133 162.5t190 59q79 0 137 -29.5t76 -79.5l-60 -51q-20 41 -60.5 62.5t-99.5 21.5q-76 0 -137.5 -49t-97 -135t-35.5 -191q0 -95 43 -146t122 -51q45 0 86 13t72 38
l32 181h-167zM422 897h58l87 -143h-71l-51 88l-83 -88h-77z" />
    <glyph glyph-name="gcircumflex" unicode="&#x11d;" horiz-adv-x="541" 
d="M524 500l-85 -484q-21 -121 -89 -182.5t-181 -61.5q-52 0 -99 12t-81 34l39 62q71 -36 146 -36q155 0 188 185l8 45q-25 -38 -68 -59.5t-94 -21.5q-83 0 -131 51t-48 140q0 94 32.5 168t90.5 116t132 42q52 0 91 -22t55 -60h2l22 72h70zM405 326q0 57 -29 88t-82 31
q-50 0 -91.5 -33t-65 -90.5t-23.5 -127.5q0 -64 29.5 -98.5t82.5 -34.5q64 0 107 39t55 107l13 76q4 20 4 43zM305 697h58l87 -143h-71l-51 88l-83 -88h-77z" />
    <glyph glyph-name="Gbreve" unicode="&#x11e;" horiz-adv-x="636" 
d="M336 362h258l-63 -362h-62l-8 43q-75 -53 -175 -53q-113 0 -178.5 71.5t-65.5 194.5q0 129 48 232.5t133 162.5t190 59q79 0 137 -29.5t76 -79.5l-60 -51q-20 41 -60.5 62.5t-99.5 21.5q-76 0 -137.5 -49t-97 -135t-35.5 -191q0 -95 43 -146t122 -51q45 0 86 13t72 38
l32 181h-167zM337.5 781.5q-35.5 27.5 -35.5 81.5q0 8 2 24h52q-4 -35 15.5 -55.5t62.5 -20.5q39 0 67 19t37 57h56q-12 -63 -52.5 -98t-109.5 -35q-59 0 -94.5 27.5z" />
    <glyph glyph-name="gbreve" unicode="&#x11f;" horiz-adv-x="541" 
d="M524 500l-85 -484q-21 -121 -89 -182.5t-181 -61.5q-52 0 -99 12t-81 34l39 62q71 -36 146 -36q155 0 188 185l8 45q-25 -38 -68 -59.5t-94 -21.5q-83 0 -131 51t-48 140q0 94 32.5 168t90.5 116t132 42q52 0 91 -22t55 -60h2l22 72h70zM405 326q0 57 -29 88t-82 31
q-50 0 -91.5 -33t-65 -90.5t-23.5 -127.5q0 -64 29.5 -98.5t82.5 -34.5q64 0 107 39t55 107l13 76q4 20 4 43zM220.5 581.5q-35.5 27.5 -35.5 81.5q0 8 2 24h52q-4 -35 15.5 -55.5t62.5 -20.5q39 0 67 19t37 57h56q-12 -63 -52.5 -98t-109.5 -35q-59 0 -94.5 27.5z" />
    <glyph glyph-name="Gdotaccent" unicode="&#x120;" horiz-adv-x="636" 
d="M336 362h258l-63 -362h-62l-8 43q-75 -53 -175 -53q-113 0 -178.5 71.5t-65.5 194.5q0 129 48 232.5t133 162.5t190 59q79 0 137 -29.5t76 -79.5l-60 -51q-20 41 -60.5 62.5t-99.5 21.5q-76 0 -137.5 -49t-97 -135t-35.5 -191q0 -95 43 -146t122 -51q45 0 86 13t72 38
l32 181h-167zM394.5 765.5q-12.5 11.5 -12.5 29.5q0 27 17 44t45 17q19 0 31.5 -11.5t12.5 -29.5q0 -27 -17 -44t-45 -17q-19 0 -31.5 11.5z" />
    <glyph glyph-name="gdotaccent" unicode="&#x121;" horiz-adv-x="541" 
d="M524 500l-85 -484q-21 -121 -89 -182.5t-181 -61.5q-52 0 -99 12t-81 34l39 62q71 -36 146 -36q155 0 188 185l8 45q-25 -38 -68 -59.5t-94 -21.5q-83 0 -131 51t-48 140q0 94 32.5 168t90.5 116t132 42q52 0 91 -22t55 -60h2l22 72h70zM405 326q0 57 -29 88t-82 31
q-50 0 -91.5 -33t-65 -90.5t-23.5 -127.5q0 -64 29.5 -98.5t82.5 -34.5q64 0 107 39t55 107l13 76q4 20 4 43zM277.5 565.5q-12.5 11.5 -12.5 29.5q0 27 17 44t45 17q19 0 31.5 -11.5t12.5 -29.5q0 -27 -17 -44t-45 -17q-19 0 -31.5 11.5z" />
    <glyph glyph-name="uni0122" unicode="&#x122;" horiz-adv-x="636" 
d="M336 362h258l-63 -362h-62l-8 43q-75 -53 -175 -53q-113 0 -178.5 71.5t-65.5 194.5q0 129 48 232.5t133 162.5t190 59q79 0 137 -29.5t76 -79.5l-60 -51q-20 41 -60.5 62.5t-99.5 21.5q-76 0 -137.5 -49t-97 -135t-35.5 -191q0 -95 43 -146t122 -51q45 0 86 13t72 38
l32 181h-167zM316.5 -86q14.5 -14 14.5 -36q0 -35 -24.5 -77.5t-64.5 -75.5l-31 26q19 22 30.5 37t19.5 32h-2q-20 0 -32.5 11.5t-12.5 30.5q0 29 18.5 47.5t47.5 18.5q22 0 36.5 -14z" />
    <glyph glyph-name="uni0123" unicode="&#x123;" horiz-adv-x="541" 
d="M524 500l-85 -484q-21 -121 -89 -182.5t-181 -61.5q-52 0 -99 12t-81 34l39 62q71 -36 146 -36q155 0 188 185l8 45q-25 -38 -68 -59.5t-94 -21.5q-83 0 -131 51t-48 140q0 94 32.5 168t90.5 116t132 42q52 0 91 -22t55 -60h2l22 72h70zM405 326q0 57 -29 88t-82 31
q-50 0 -91.5 -33t-65 -90.5t-23.5 -127.5q0 -64 29.5 -98.5t82.5 -34.5q64 0 107 39t55 107l13 76q4 20 4 43zM365 651.5q12 -11.5 12 -30.5q0 -30 -18 -48.5t-47 -18.5q-23 0 -37.5 14t-14.5 37q0 34 25 76t65 76l31 -26q-34 -36 -51 -68h3q20 0 32 -11.5z" />
    <glyph glyph-name="Hcircumflex" unicode="&#x124;" horiz-adv-x="678" 
d="M159 700h92l-54 -308h334l54 308h92l-123 -700h-92l56 316h-334l-56 -316h-92zM424 897h58l87 -143h-71l-51 88l-83 -88h-77z" />
    <glyph glyph-name="hcircumflex" unicode="&#x125;" horiz-adv-x="558" 
d="M148 742h85l-57 -320q23 39 72.5 63.5t104.5 24.5q75 0 115.5 -42.5t40.5 -120.5q0 -28 -6 -61l-50 -286h-85l51 287q5 32 5 52q0 52 -23.5 79t-68.5 27q-66 0 -117 -48.5t-65 -123.5l-48 -273h-85zM296 939h58l87 -143h-71l-51 88l-83 -88h-77z" />
    <glyph glyph-name="Hbar" unicode="&#x126;" horiz-adv-x="698" 
d="M712 501h-60l-88 -501h-92l56 316h-334l-56 -316h-92l88 501h-60l11 60h60l24 139h92l-24 -139h334l24 139h92l-24 -139h60zM560 501h-334l-19 -109h334z" />
    <glyph glyph-name="hbar" unicode="&#x127;" horiz-adv-x="558" 
d="M468.5 467.5q40.5 -42.5 40.5 -120.5q0 -28 -6 -61l-50 -286h-85l51 287q5 32 5 52q0 52 -23.5 79t-68.5 27q-66 0 -117 -48.5t-65 -123.5l-48 -273h-85l106 600h-57l10 58h57l15 84h85l-15 -84h138l-10 -58h-138l-32 -178q23 39 72.5 63.5t104.5 24.5q75 0 115.5 -42.5z
" />
    <glyph glyph-name="Itilde" unicode="&#x128;" horiz-adv-x="292" 
d="M179 700h92l-123 -700h-92zM123 827q27 28 66 28q18 0 33 -6.5t36 -20.5q15 -10 25 -15t19 -5q14 0 23.5 12t16.5 39h52q-8 -49 -35 -77t-68 -28q-19 0 -34.5 7.5t-37.5 21.5q-25 18 -38 18q-12 0 -23.5 -13t-15.5 -34h-52q6 45 33 73z" />
    <glyph glyph-name="itilde" unicode="&#x129;" horiz-adv-x="253" 
d="M128 500h85l-88 -500h-85zM67 627q27 28 66 28q18 0 33 -6.5t36 -20.5q15 -10 25 -15t19 -5q14 0 23.5 12t16.5 39h52q-8 -49 -35 -77t-68 -28q-19 0 -34.5 7.5t-37.5 21.5q-25 18 -38 18q-12 0 -23.5 -13t-15.5 -34h-52q6 45 33 73z" />
    <glyph glyph-name="Imacron" unicode="&#x12a;" horiz-adv-x="292" 
d="M179 700h92l-123 -700h-92zM91 823h312l-10 -59h-312z" />
    <glyph glyph-name="imacron" unicode="&#x12b;" horiz-adv-x="253" 
d="M128 500h85l-88 -500h-85zM35 623h312l-10 -59h-312z" />
    <glyph glyph-name="Ibreve" unicode="&#x12c;" horiz-adv-x="292" 
d="M179 700h92l-123 -700h-92zM147.5 781.5q-35.5 27.5 -35.5 81.5q0 8 2 24h52q-4 -35 15.5 -55.5t62.5 -20.5q39 0 67 19t37 57h56q-12 -63 -52.5 -98t-109.5 -35q-59 0 -94.5 27.5z" />
    <glyph glyph-name="ibreve" unicode="&#x12d;" horiz-adv-x="253" 
d="M128 500h85l-88 -500h-85zM91.5 581.5q-35.5 27.5 -35.5 81.5q0 8 2 24h52q-4 -35 15.5 -55.5t62.5 -20.5q39 0 67 19t37 57h56q-12 -63 -52.5 -98t-109.5 -35q-59 0 -94.5 27.5z" />
    <glyph glyph-name="Iogonek" unicode="&#x12e;" horiz-adv-x="292" 
d="M56.5 -60.5q-26.5 -31.5 -26.5 -57.5q0 -19 14.5 -29t41.5 -10q22 0 54 12l4 -36q-19 -14 -44 -22t-51 -8q-40 0 -62 18t-22 51q0 43 28 79.5t80 62.5h-17l123 700h92l-123 -700h-17q-48 -29 -74.5 -60.5z" />
    <glyph glyph-name="iogonek" unicode="&#x12f;" horiz-adv-x="245" 
d="M239 687.5q15 -12.5 15 -32.5q0 -30 -20 -49t-52 -19q-23 0 -37.5 12t-14.5 32q0 31 19.5 50t51.5 19q23 0 38 -12.5zM34.5 -60.5q-26.5 -31.5 -26.5 -57.5q0 -19 14.5 -29t41.5 -10q23 0 54 12l4 -36q-19 -14 -44 -22t-51 -8q-40 0 -62 18t-22 51q0 43 28 79.5t80 62.5
h-15l88 500h85l-88 -500h-12q-48 -29 -74.5 -60.5z" />
    <glyph glyph-name="Idotaccent" unicode="&#x130;" horiz-adv-x="292" 
d="M179 700h92l-123 -700h-92zM204.5 765.5q-12.5 11.5 -12.5 29.5q0 27 17 44t45 17q19 0 31.5 -11.5t12.5 -29.5q0 -27 -17 -44t-45 -17q-19 0 -31.5 11.5z" />
    <glyph glyph-name="dotlessi" unicode="&#x131;" horiz-adv-x="253" 
d="M128 500h85l-88 -500h-85z" />
    <glyph glyph-name="IJ" unicode="&#x132;" horiz-adv-x="732" 
d="M179 700h92l-123 -700h-92zM325.5 4.5q-41.5 14.5 -63.5 37.5l47 66q16 -19 45.5 -30.5t60.5 -11.5q59 0 92.5 40.5t50.5 132.5l81 461h92l-84 -477q-22 -123 -77.5 -178t-158.5 -55q-44 0 -85.5 14.5z" />
    <glyph glyph-name="ij" unicode="&#x133;" horiz-adv-x="492" 
d="M144.5 599q-14.5 12 -14.5 32q0 31 19.5 50t51.5 19q23 0 38 -12.5t15 -32.5q0 -30 -20 -49t-52 -19q-23 0 -37.5 12zM124 500h85l-88 -500h-85zM399.5 599.5q-14.5 12.5 -14.5 32.5q0 30 20 49t52 19q23 0 37 -12.5t14 -32.5q0 -30 -20 -49t-51 -19q-23 0 -37.5 12.5z
M121 -183l14 63q22 -2 40 -2q52 0 80 29t39 95l87 498h85l-88 -501q-17 -97 -62.5 -143t-125.5 -46q-39 0 -69 7z" />
    <glyph glyph-name="Jcircumflex" unicode="&#x134;" horiz-adv-x="440" 
d="M33.5 4.5q-41.5 14.5 -63.5 37.5l47 66q16 -19 45.5 -30.5t60.5 -11.5q59 0 92.5 40.5t50.5 132.5l81 461h92l-84 -477q-22 -123 -77.5 -178t-158.5 -55q-44 0 -85.5 14.5zM314 897h58l87 -143h-71l-51 88l-83 -88h-77z" />
    <glyph glyph-name="jcircumflex" unicode="&#x135;" horiz-adv-x="247" 
d="M-124 -183l14 63q15 -2 40 -2q50 0 76.5 30t37.5 94l87 498h85l-88 -501q-33 -189 -190 -189q-31 0 -62 7zM179 697h58l87 -143h-71l-51 88l-83 -88h-77z" />
    <glyph glyph-name="uni0136" unicode="&#x136;" horiz-adv-x="605" 
d="M356 415l187 -415h-92l-161 350l-122 -121l-40 -229h-92l123 700h92l-60 -344l343 344h109zM283.5 -86q14.5 -14 14.5 -36q0 -35 -24.5 -77.5t-64.5 -75.5l-31 26q19 22 30.5 37t19.5 32h-2q-20 0 -32.5 11.5t-12.5 30.5q0 29 18.5 47.5t47.5 18.5q22 0 36.5 -14z" />
    <glyph glyph-name="uni0137" unicode="&#x137;" horiz-adv-x="487" 
d="M286 309l151 -309h-94l-122 253l-88 -75l-31 -178h-85l131 742h85l-81 -455l253 213h106zM223.5 -86q14.5 -14 14.5 -36q0 -35 -24.5 -77.5t-64.5 -75.5l-31 26q19 22 30.5 37t19.5 32h-2q-20 0 -32.5 11.5t-12.5 30.5q0 29 18.5 47.5t47.5 18.5q22 0 36.5 -14z" />
    <glyph glyph-name="kgreenlandic" unicode="&#x138;" horiz-adv-x="487" 
d="M292 305l145 -305h-97l-114 246l-95 -84l-29 -162h-85l88 500h85l-41 -235l260 235h102z" />
    <glyph glyph-name="Lacute" unicode="&#x139;" horiz-adv-x="548" 
d="M159 700h92l-110 -624h338l-13 -76h-430zM289 900h87l-123 -146h-68z" />
    <glyph glyph-name="lacute" unicode="&#x13a;" horiz-adv-x="291" 
d="M66 12.5q-23 22.5 -23 65.5q0 16 3 35l111 629h85l-110 -624q-2 -10 -2 -25q0 -21 10 -30t32 -9t52 12l4 -51q-18 -12 -43 -18.5t-51 -6.5q-45 0 -68 22.5zM284 942h87l-123 -146h-68z" />
    <glyph glyph-name="uni013B" unicode="&#x13b;" horiz-adv-x="548" 
d="M159 700h92l-110 -624h338l-13 -76h-430zM272.5 -86q14.5 -14 14.5 -36q0 -35 -24.5 -77.5t-64.5 -75.5l-31 26q19 22 30.5 37t19.5 32h-2q-20 0 -32.5 11.5t-12.5 30.5q0 29 18.5 47.5t47.5 18.5q22 0 36.5 -14z" />
    <glyph glyph-name="uni013C" unicode="&#x13c;" horiz-adv-x="291" 
d="M66 12.5q-23 22.5 -23 65.5q0 16 3 35l111 629h85l-110 -624q-2 -10 -2 -25q0 -21 10 -30t32 -9t52 12l4 -51q-18 -12 -43 -18.5t-51 -6.5q-45 0 -68 22.5zM155.5 -86q14.5 -14 14.5 -36q0 -35 -24.5 -77.5t-64.5 -75.5l-31 26q19 22 30.5 37t19.5 32h-2
q-20 0 -32.5 11.5t-12.5 30.5q0 29 18.5 47.5t47.5 18.5q22 0 36.5 -14z" />
    <glyph glyph-name="Lcaron" unicode="&#x13d;" horiz-adv-x="548" 
d="M159 700h92l-110 -624h338l-13 -76h-430zM534.5 696q14.5 -14 14.5 -36q0 -35 -24.5 -77.5t-64.5 -75.5l-31 26q14 16 28 34t22 34h-2q-20 0 -32.5 11.5t-12.5 30.5q0 30 18.5 48.5t47.5 18.5q22 0 36.5 -14z" />
    <glyph glyph-name="lcaron" unicode="&#x13e;" horiz-adv-x="332" 
d="M66 12.5q-23 22.5 -23 65.5q0 16 3 35l111 629h85l-110 -624q-2 -10 -2 -25q0 -21 10 -30t32 -9t52 12l4 -51q-18 -12 -43 -18.5t-51 -6.5q-45 0 -68 22.5zM397.5 730q14.5 -14 14.5 -36q0 -35 -24.5 -77.5t-64.5 -75.5l-31 26q14 16 28 34t22 34h-2q-20 0 -32.5 11.5
t-12.5 30.5q0 30 18.5 48.5t47.5 18.5q22 0 36.5 -14z" />
    <glyph glyph-name="Ldot" unicode="&#x13f;" horiz-adv-x="548" 
d="M159 700h92l-110 -624h338l-13 -76h-430zM301.5 297q-14.5 14 -14.5 37q0 35 21 57.5t54 22.5q23 0 37 -14.5t14 -37.5q0 -35 -20.5 -57t-53.5 -22q-23 0 -37.5 14z" />
    <glyph glyph-name="ldot" unicode="&#x140;" horiz-adv-x="336" 
d="M66 12.5q-23 22.5 -23 65.5q0 16 3 35l111 629h85l-110 -624q-2 -10 -2 -25q0 -21 10 -30t32 -9t52 12l4 -51q-18 -12 -43 -18.5t-51 -6.5q-45 0 -68 22.5zM222.5 279q-14.5 14 -14.5 37q0 35 21 57.5t54 22.5q23 0 37 -14.5t14 -37.5q0 -35 -20.5 -57t-53.5 -22
q-23 0 -37.5 14z" />
    <glyph glyph-name="Lslash" unicode="&#x141;" horiz-adv-x="548" 
d="M479 76l-13 -76h-430l49 277l-68 -26l13 73l68 27l61 349h92l-55 -310l190 76l-14 -77l-189 -73l-42 -240h338z" />
    <glyph glyph-name="lslash" unicode="&#x142;" horiz-adv-x="291" 
d="M132 118q-2 -10 -2 -25q0 -21 10 -30t32 -9t52 12l4 -51q-18 -12 -43 -18.5t-51 -6.5q-45 0 -68 22.5t-23 65.5q0 16 3 35l39 220l-55 -22l12 66l54 22l61 343h85l-54 -307l110 44l-12 -67l-110 -43z" />
    <glyph glyph-name="Nacute" unicode="&#x143;" horiz-adv-x="682" 
d="M681 700l-123 -700h-91l-241 557l-98 -557h-92l123 700h97l236 -550l97 550h92zM504 900h87l-123 -146h-68z" />
    <glyph glyph-name="nacute" unicode="&#x144;" horiz-adv-x="549" 
d="M82 374q7 41 12 74t6 52h79q-2 -37 -12 -89h3q26 46 74.5 72.5t106.5 26.5q73 0 111 -40t38 -116q0 -35 -7 -71l-50 -283h-85l50 284q6 33 6 60q0 98 -87 98q-64 0 -114.5 -47.5t-63.5 -120.5l-48 -274h-85zM402 700h87l-123 -146h-68z" />
    <glyph glyph-name="uni0145" unicode="&#x145;" horiz-adv-x="682" 
d="M681 700l-123 -700h-91l-241 557l-98 -557h-92l123 700h97l236 -550l97 550h92zM320.5 -86q14.5 -14 14.5 -36q0 -35 -24.5 -77.5t-64.5 -75.5l-31 26q19 22 30.5 37t19.5 32h-2q-20 0 -32.5 11.5t-12.5 30.5q0 29 18.5 47.5t47.5 18.5q22 0 36.5 -14z" />
    <glyph glyph-name="uni0146" unicode="&#x146;" horiz-adv-x="549" 
d="M82 374q7 41 12 74t6 52h79q-2 -37 -12 -89h3q26 46 74.5 72.5t106.5 26.5q73 0 111 -40t38 -116q0 -35 -7 -71l-50 -283h-85l50 284q6 33 6 60q0 98 -87 98q-64 0 -114.5 -47.5t-63.5 -120.5l-48 -274h-85zM253.5 -86q14.5 -14 14.5 -36q0 -35 -24.5 -77.5t-64.5 -75.5
l-31 26q19 22 30.5 37t19.5 32h-2q-20 0 -32.5 11.5t-12.5 30.5q0 29 18.5 47.5t47.5 18.5q22 0 36.5 -14z" />
    <glyph glyph-name="Ncaron" unicode="&#x147;" horiz-adv-x="682" 
d="M681 700l-123 -700h-91l-241 557l-98 -557h-92l123 700h97l236 -550l97 550h92zM314 897h71l51 -88l83 88h77l-137 -143h-58z" />
    <glyph glyph-name="ncaron" unicode="&#x148;" horiz-adv-x="549" 
d="M82 374q7 41 12 74t6 52h79q-2 -37 -12 -89h3q26 46 74.5 72.5t106.5 26.5q73 0 111 -40t38 -116q0 -35 -7 -71l-50 -283h-85l50 284q6 33 6 60q0 98 -87 98q-64 0 -114.5 -47.5t-63.5 -120.5l-48 -274h-85zM212 697h71l51 -88l83 88h77l-137 -143h-58z" />
    <glyph glyph-name="napostrophe" unicode="&#x149;" horiz-adv-x="631" 
d="M181.5 696q14.5 -14 14.5 -36q0 -35 -24.5 -77.5t-64.5 -75.5l-31 26q14 16 28 34t22 34h-2q-20 0 -32.5 11.5t-12.5 30.5q0 30 18.5 48.5t47.5 18.5q22 0 36.5 -14zM164 374q7 41 12 74t6 52h79q-2 -37 -12 -89h3q26 46 74.5 72.5t106.5 26.5q73 0 111 -40t38 -116
q0 -35 -7 -71l-50 -283h-85l50 284q6 33 6 60q0 98 -87 98q-64 0 -114.5 -47.5t-63.5 -120.5l-48 -274h-85z" />
    <glyph glyph-name="Eng" unicode="&#x14a;" horiz-adv-x="682" 
d="M159 700h97l236 -550l97 550h92l-130 -740q-20 -116 -74.5 -169t-152.5 -53q-38 0 -76.5 12.5t-56.5 30.5l42 61q16 -16 42 -25.5t52 -9.5q55 0 86.5 37t47.5 120l6 36l-241 557l-98 -557h-92z" />
    <glyph glyph-name="eng" unicode="&#x14b;" horiz-adv-x="549" 
d="M82 374q7 41 12 74t6 52h79q-2 -37 -12 -89h3q26 46 74.5 72.5t106.5 26.5q73 0 111 -40t38 -116q0 -35 -7 -71l-50 -285q-16 -94 -64 -141t-126 -47q-38 0 -63 6l14 64q12 -2 40 -2q49 0 75.5 28.5t38.5 94.5l50 283q6 33 6 60q0 98 -87 98q-64 0 -114.5 -47.5
t-63.5 -120.5l-48 -274h-85z" />
    <glyph glyph-name="Omacron" unicode="&#x14c;" horiz-adv-x="661" 
d="M160 22.5q-56 32.5 -86.5 93.5t-30.5 143q0 128 47 231t130 161.5t187 58.5q75 0 131 -32.5t86 -93t30 -142.5q0 -128 -47 -231.5t-129.5 -162t-185.5 -58.5q-76 0 -132 32.5zM431 114q60 50 95 135.5t35 187.5q0 94 -42.5 146.5t-119.5 52.5q-72 0 -132.5 -50
t-95.5 -135.5t-35 -186.5q0 -95 43 -147.5t120 -52.5q72 0 132 50zM276 823h312l-10 -59h-312z" />
    <glyph glyph-name="omacron" unicode="&#x14d;" horiz-adv-x="557" 
d="M87.5 46q-57.5 56 -57.5 149q0 92 36 163.5t101 111.5t149 40q95 0 153 -56t58 -149q0 -92 -36.5 -163.5t-101.5 -111.5t-149 -40q-95 0 -152.5 56zM344 87.5q45 32.5 71 89.5t26 127q0 67 -34 104t-95 37q-55 0 -100 -33t-70.5 -90t-25.5 -127q0 -67 33.5 -103.5
t93.5 -36.5q56 0 101 32.5zM187 623h312l-10 -59h-312z" />
    <glyph glyph-name="Obreve" unicode="&#x14e;" horiz-adv-x="661" 
d="M160 22.5q-56 32.5 -86.5 93.5t-30.5 143q0 128 47 231t130 161.5t187 58.5q75 0 131 -32.5t86 -93t30 -142.5q0 -128 -47 -231.5t-129.5 -162t-185.5 -58.5q-76 0 -132 32.5zM431 114q60 50 95 135.5t35 187.5q0 94 -42.5 146.5t-119.5 52.5q-72 0 -132.5 -50
t-95.5 -135.5t-35 -186.5q0 -95 43 -147.5t120 -52.5q72 0 132 50zM332.5 781.5q-35.5 27.5 -35.5 81.5q0 8 2 24h52q-4 -35 15.5 -55.5t62.5 -20.5q39 0 67 19t37 57h56q-12 -63 -52.5 -98t-109.5 -35q-59 0 -94.5 27.5z" />
    <glyph glyph-name="obreve" unicode="&#x14f;" horiz-adv-x="557" 
d="M87.5 46q-57.5 56 -57.5 149q0 92 36 163.5t101 111.5t149 40q95 0 153 -56t58 -149q0 -92 -36.5 -163.5t-101.5 -111.5t-149 -40q-95 0 -152.5 56zM344 87.5q45 32.5 71 89.5t26 127q0 67 -34 104t-95 37q-55 0 -100 -33t-70.5 -90t-25.5 -127q0 -67 33.5 -103.5
t93.5 -36.5q56 0 101 32.5zM243.5 581.5q-35.5 27.5 -35.5 81.5q0 8 2 24h52q-4 -35 15.5 -55.5t62.5 -20.5q39 0 67 19t37 57h56q-12 -63 -52.5 -98t-109.5 -35q-59 0 -94.5 27.5z" />
    <glyph glyph-name="Ohungarumlaut" unicode="&#x150;" horiz-adv-x="661" 
d="M160 22.5q-56 32.5 -86.5 93.5t-30.5 143q0 128 47 231t130 161.5t187 58.5q75 0 131 -32.5t86 -93t30 -142.5q0 -128 -47 -231.5t-129.5 -162t-185.5 -58.5q-76 0 -132 32.5zM431 114q60 50 95 135.5t35 187.5q0 94 -42.5 146.5t-119.5 52.5q-72 0 -132.5 -50
t-95.5 -135.5t-35 -186.5q0 -95 43 -147.5t120 -52.5q72 0 132 50zM409 900h86l-122 -146h-69zM539 900h86l-122 -146h-69z" />
    <glyph glyph-name="ohungarumlaut" unicode="&#x151;" horiz-adv-x="557" 
d="M320 688h81l-114 -137h-65zM443 688h81l-115 -137h-65zM87.5 46q-57.5 56 -57.5 149q0 92 36 163.5t101 111.5t149 40q95 0 153 -56t58 -149q0 -92 -36.5 -163.5t-101.5 -111.5t-149 -40q-95 0 -152.5 56zM344 87.5q45 32.5 71 89.5t26 127q0 67 -34 104t-95 37
q-55 0 -100 -33t-70.5 -90t-25.5 -127q0 -67 33.5 -103.5t93.5 -36.5q56 0 101 32.5z" />
    <glyph glyph-name="OE" unicode="&#x152;" horiz-adv-x="891" 
d="M623 625l-39 -221h249l-12 -71h-249l-46 -258h283l-13 -75h-375l11 62q-80 -72 -178 -72q-101 0 -156.5 64t-55.5 181q0 138 41 246t115 168.5t169 60.5q53 0 95 -20.5t70 -58.5l12 69h375l-13 -75h-283zM388 125.5q56 61.5 84 163.5l19 112q3 30 3 60q0 86 -33 130.5
t-97 44.5q-65 0 -117.5 -52.5t-82.5 -145t-30 -206.5q0 -168 129 -168q69 0 125 61.5z" />
    <glyph glyph-name="oe" unicode="&#x153;" horiz-adv-x="870" 
d="M796.5 463q47.5 -47 47.5 -131q0 -33 -7 -67l-6 -32h-356q-2 -26 -2 -41q0 -63 31 -96.5t90 -33.5q87 0 152 71l40 -46q-37 -47 -89 -72t-113 -25q-64 0 -109 24.5t-67 70.5q-35 -46 -83 -70.5t-106 -24.5q-90 0 -140 50.5t-50 140.5q0 98 33.5 172.5t94.5 115.5t142 41
q61 0 103 -24.5t62 -71.5q37 46 88 71t110 25q87 0 134.5 -47zM314.5 89.5q39.5 34.5 61.5 95t22 137.5q0 61 -27 92t-80 31q-51 0 -91.5 -33.5t-63 -93t-22.5 -135.5q0 -63 28 -95.5t83 -32.5q50 0 89.5 34.5zM768 299q0 74 -27.5 108t-88.5 34q-56 0 -99.5 -40t-64.5 -107
h280v5z" />
    <glyph glyph-name="Racute" unicode="&#x154;" horiz-adv-x="581" 
d="M160 700h209q98 0 151 -38.5t53 -109.5q0 -86 -44.5 -145t-124.5 -78v-2q19 -15 29 -30t15 -37l59 -260h-99l-48 226q-9 43 -30.5 58.5t-72.5 15.5h-75l-53 -300h-92zM313 375q78 0 123.5 43t45.5 117q0 89 -128 89h-115l-44 -249h118zM454 900h87l-123 -146h-68z" />
    <glyph glyph-name="racute" unicode="&#x155;" horiz-adv-x="350" 
d="M90 378q15 87 18 122h79q-2 -41 -11 -88l-2 -10h3q55 108 179 108q16 0 28 -3l-12 -70q-14 3 -34 3q-42 0 -81.5 -25.5t-67.5 -69.5t-37 -96l-44 -249h-85zM319 700h87l-123 -146h-68z" />
    <glyph glyph-name="uni0156" unicode="&#x156;" horiz-adv-x="581" 
d="M160 700h209q98 0 151 -38.5t53 -109.5q0 -86 -44.5 -145t-124.5 -78v-2q19 -15 29 -30t15 -37l59 -260h-99l-48 226q-9 43 -30.5 58.5t-72.5 15.5h-75l-53 -300h-92zM313 375q78 0 123.5 43t45.5 117q0 89 -128 89h-115l-44 -249h118zM270.5 -86q14.5 -14 14.5 -36
q0 -35 -24.5 -77.5t-64.5 -75.5l-31 26q19 22 30.5 37t19.5 32h-2q-20 0 -32.5 11.5t-12.5 30.5q0 29 18.5 47.5t47.5 18.5q22 0 36.5 -14z" />
    <glyph glyph-name="uni0157" unicode="&#x157;" horiz-adv-x="350" 
d="M90 378q15 87 18 122h79q-2 -41 -11 -88l-2 -10h3q55 108 179 108q16 0 28 -3l-12 -70q-14 3 -34 3q-42 0 -81.5 -25.5t-67.5 -69.5t-37 -96l-44 -249h-85zM90.5 -86q14.5 -14 14.5 -36q0 -35 -24.5 -77.5t-64.5 -75.5l-31 26q19 22 30.5 37t19.5 32h-2q-20 0 -32.5 11.5
t-12.5 30.5q0 29 18.5 47.5t47.5 18.5q22 0 36.5 -14z" />
    <glyph glyph-name="Rcaron" unicode="&#x158;" horiz-adv-x="581" 
d="M160 700h209q98 0 151 -38.5t53 -109.5q0 -86 -44.5 -145t-124.5 -78v-2q19 -15 29 -30t15 -37l59 -260h-99l-48 226q-9 43 -30.5 58.5t-72.5 15.5h-75l-53 -300h-92zM313 375q78 0 123.5 43t45.5 117q0 89 -128 89h-115l-44 -249h118zM264 897h71l51 -88l83 88h77
l-137 -143h-58z" />
    <glyph glyph-name="rcaron" unicode="&#x159;" horiz-adv-x="350" 
d="M90 378q15 87 18 122h79q-2 -41 -11 -88l-2 -10h3q55 108 179 108q16 0 28 -3l-12 -70q-14 3 -34 3q-42 0 -81.5 -25.5t-67.5 -69.5t-37 -96l-44 -249h-85zM129 697h71l51 -88l83 88h77l-137 -143h-58z" />
    <glyph glyph-name="Sacute" unicode="&#x15a;" horiz-adv-x="529" 
d="M95 20q-59 30 -84 79l66 56q24 -40 66.5 -64.5t88.5 -24.5q69 0 111.5 35.5t42.5 92.5q0 37 -28 68.5t-90 64.5q-160 85 -160 190q0 57 29 101t82.5 68t123.5 24q69 0 123.5 -30t71.5 -77l-68 -44q-18 35 -52.5 55t-76.5 20q-63 0 -101.5 -30.5t-38.5 -80.5q0 -31 29 -58
t107 -70q143 -77 143 -190q0 -64 -31.5 -112.5t-89 -75.5t-133.5 -27q-72 0 -131 30zM428 900h87l-123 -146h-68z" />
    <glyph glyph-name="sacute" unicode="&#x15b;" horiz-adv-x="416" 
d="M60 14q-46 24 -57 60l62 38q12 -26 39.5 -41.5t62.5 -15.5q49 0 81 27t32 68q0 27 -18.5 44.5t-66.5 37.5q-67 27 -98.5 59t-31.5 74q0 67 49.5 106t133.5 39q51 0 92.5 -22t55.5 -57l-59 -38q-13 25 -36 38.5t-55 13.5q-42 0 -68.5 -19t-26.5 -49q0 -23 22 -41.5
t76 -40.5q60 -25 88.5 -57t28.5 -74q0 -51 -25 -90.5t-71 -61.5t-106 -22q-58 0 -104 24zM337 700h87l-123 -146h-68z" />
    <glyph glyph-name="Scircumflex" unicode="&#x15c;" horiz-adv-x="529" 
d="M95 20q-59 30 -84 79l66 56q24 -40 66.5 -64.5t88.5 -24.5q69 0 111.5 35.5t42.5 92.5q0 37 -28 68.5t-90 64.5q-160 85 -160 190q0 57 29 101t82.5 68t123.5 24q69 0 123.5 -30t71.5 -77l-68 -44q-18 35 -52.5 55t-76.5 20q-63 0 -101.5 -30.5t-38.5 -80.5q0 -31 29 -58
t107 -70q143 -77 143 -190q0 -64 -31.5 -112.5t-89 -75.5t-133.5 -27q-72 0 -131 30zM350 897h58l87 -143h-71l-51 88l-83 -88h-77z" />
    <glyph glyph-name="scircumflex" unicode="&#x15d;" horiz-adv-x="416" 
d="M60 14q-46 24 -57 60l62 38q12 -26 39.5 -41.5t62.5 -15.5q49 0 81 27t32 68q0 27 -18.5 44.5t-66.5 37.5q-67 27 -98.5 59t-31.5 74q0 67 49.5 106t133.5 39q51 0 92.5 -22t55.5 -57l-59 -38q-13 25 -36 38.5t-55 13.5q-42 0 -68.5 -19t-26.5 -49q0 -23 22 -41.5
t76 -40.5q60 -25 88.5 -57t28.5 -74q0 -51 -25 -90.5t-71 -61.5t-106 -22q-58 0 -104 24zM259 697h58l87 -143h-71l-51 88l-83 -88h-77z" />
    <glyph glyph-name="Scedilla" unicode="&#x15e;" horiz-adv-x="529" 
d="M480 205q0 -93 -64.5 -151.5t-172.5 -63.5l-36 -52q34 0 56.5 -19t22.5 -48q0 -41 -33 -66.5t-86 -25.5q-21 0 -42 4t-32 9l15 39q21 -7 55 -7q27 0 44.5 13t17.5 33q0 16 -18.5 24.5t-52.5 7.5l-16 22l51 68q-61 8 -108.5 36t-69.5 71l66 56q24 -40 66.5 -64.5
t88.5 -24.5q69 0 111.5 35.5t42.5 92.5q0 37 -28 68.5t-90 64.5q-160 85 -160 190q0 57 29 101t82.5 68t123.5 24q69 0 123.5 -30t71.5 -77l-68 -44q-18 35 -52.5 55t-76.5 20q-63 0 -101.5 -30.5t-38.5 -80.5q0 -31 29 -58t107 -70q143 -77 143 -190z" />
    <glyph glyph-name="scedilla" unicode="&#x15f;" horiz-adv-x="416" 
d="M337.5 238q28.5 -32 28.5 -74q0 -72 -48.5 -119t-129.5 -54l-37 -53q34 0 56.5 -19t22.5 -48q0 -41 -33 -66.5t-86 -25.5q-21 0 -42 4t-32 9l15 39q21 -7 55 -7q27 0 44.5 13t17.5 33q0 16 -18.5 24.5t-52.5 7.5l-16 22l50 68q-48 6 -83.5 28.5t-45.5 53.5l62 38
q12 -26 39.5 -41.5t62.5 -15.5q49 0 81 27t32 68q0 27 -18.5 44.5t-66.5 37.5q-67 27 -98.5 59t-31.5 74q0 67 49.5 106t133.5 39q51 0 92.5 -22t55.5 -57l-59 -38q-13 25 -36 38.5t-55 13.5q-42 0 -68.5 -19t-26.5 -49q0 -23 22 -41.5t76 -40.5q60 -25 88.5 -57z" />
    <glyph glyph-name="Scaron" unicode="&#x160;" horiz-adv-x="529" 
d="M95 20q-59 30 -84 79l66 56q24 -40 66.5 -64.5t88.5 -24.5q69 0 111.5 35.5t42.5 92.5q0 37 -28 68.5t-90 64.5q-160 85 -160 190q0 57 29 101t82.5 68t123.5 24q69 0 123.5 -30t71.5 -77l-68 -44q-18 35 -52.5 55t-76.5 20q-63 0 -101.5 -30.5t-38.5 -80.5q0 -31 29 -58
t107 -70q143 -77 143 -190q0 -64 -31.5 -112.5t-89 -75.5t-133.5 -27q-72 0 -131 30zM238 897h71l51 -88l83 88h77l-137 -143h-58z" />
    <glyph glyph-name="scaron" unicode="&#x161;" horiz-adv-x="416" 
d="M60 14q-46 24 -57 60l62 38q12 -26 39.5 -41.5t62.5 -15.5q49 0 81 27t32 68q0 27 -18.5 44.5t-66.5 37.5q-67 27 -98.5 59t-31.5 74q0 67 49.5 106t133.5 39q51 0 92.5 -22t55.5 -57l-59 -38q-13 25 -36 38.5t-55 13.5q-42 0 -68.5 -19t-26.5 -49q0 -23 22 -41.5
t76 -40.5q60 -25 88.5 -57t28.5 -74q0 -51 -25 -90.5t-71 -61.5t-106 -22q-58 0 -104 24zM147 697h71l51 -88l83 88h77l-137 -143h-58z" />
    <glyph glyph-name="uni0162" unicode="&#x162;" horiz-adv-x="558" 
d="M620 700l-13 -72h-215l-111 -628h-17l-43 -62q34 0 56.5 -19t22.5 -48q0 -41 -33 -66.5t-86 -25.5q-21 0 -42 4t-32 9l15 39q21 -7 55 -7q27 0 44.5 13t17.5 33q0 16 -18.5 24.5t-52.5 7.5l-16 22l56 76h-19l111 628h-216l13 72h523z" />
    <glyph glyph-name="uni0163" unicode="&#x163;" horiz-adv-x="377" 
d="M169 158q-4 -26 -4 -35q0 -32 15.5 -48.5t49.5 -16.5q42 0 72 11l-5 -63q-33 -15 -87 -16l-36 -52q34 0 56.5 -19t22.5 -48q0 -41 -33 -66.5t-86 -25.5q-21 0 -42 4t-32 9l15 39q21 -7 55 -7q27 0 44.5 13t17.5 33q0 16 -18.5 24.5t-52.5 7.5l-16 22l53 72
q-38 10 -59.5 39t-21.5 73q0 11 4 37l52 289h-90l12 66h90l23 133l85 25h4l-27 -158h142l-12 -66h-142z" />
    <glyph glyph-name="Tcaron" unicode="&#x164;" horiz-adv-x="558" 
d="M300 628h-216l13 72h523l-13 -72h-215l-111 -628h-92zM253 897h71l51 -88l83 88h77l-137 -143h-58z" />
    <glyph glyph-name="tcaron" unicode="&#x165;" horiz-adv-x="458" 
d="M111 21q-34 31 -34 87q0 11 4 37l52 289h-90l12 66h90l23 133l85 25h4l-27 -158h142l-12 -66h-142l-49 -276q-4 -26 -4 -35q0 -32 15.5 -48.5t49.5 -16.5q42 0 72 11l-5 -63q-36 -16 -94 -16t-92 31zM507.5 720q14.5 -14 14.5 -36q0 -35 -24.5 -77.5t-64.5 -75.5l-31 26
q14 16 28 34t22 34h-2q-20 0 -32.5 11.5t-12.5 30.5q0 30 18.5 48.5t47.5 18.5q22 0 36.5 -14z" />
    <glyph glyph-name="Tbar" unicode="&#x166;" horiz-adv-x="558" 
d="M392 628l-46 -260h164l-11 -62h-164l-54 -306h-92l54 306h-164l11 62h164l46 260h-216l13 72h523l-13 -72h-215z" />
    <glyph glyph-name="tbar" unicode="&#x167;" horiz-adv-x="377" 
d="M218 434l-24 -133h110l-10 -55h-109l-16 -88q-4 -26 -4 -35q0 -32 15.5 -48.5t49.5 -16.5q42 0 72 11l-5 -63q-36 -16 -94 -16t-92 31t-34 87q0 11 4 37l18 101h-80l10 55h80l24 133h-90l12 66h90l23 133l85 25h4l-27 -158h142l-12 -66h-142z" />
    <glyph glyph-name="Utilde" unicode="&#x168;" horiz-adv-x="657" 
d="M128.5 43q-54.5 53 -54.5 152q0 40 7 79l75 426h93l-75 -424q-8 -45 -8 -76q0 -67 32 -100.5t98 -33.5q159 0 196 210l75 424h92l-75 -426q-25 -146 -98 -215t-197 -69q-106 0 -160.5 53zM305 827q27 28 66 28q18 0 33 -6.5t36 -20.5q15 -10 25 -15t19 -5q14 0 23.5 12
t16.5 39h52q-8 -49 -35 -77t-68 -28q-19 0 -34.5 7.5t-37.5 21.5q-25 18 -38 18q-12 0 -23.5 -13t-15.5 -34h-52q6 45 33 73z" />
    <glyph glyph-name="utilde" unicode="&#x169;" horiz-adv-x="552" 
d="M46 137q0 34 7 69l52 294h85l-51 -290q-5 -25 -5 -54q0 -98 86 -98q64 0 114.5 47.5t63.5 120.5l48 274h85l-70 -394q-9 -51 -9 -106h-78q-1 8 -1 23q0 23 6 66h-3q-29 -46 -79 -72.5t-106 -26.5q-145 0 -145 147zM220 627q27 28 66 28q18 0 33 -6.5t36 -20.5
q15 -10 25 -15t19 -5q14 0 23.5 12t16.5 39h52q-8 -49 -35 -77t-68 -28q-19 0 -34.5 7.5t-37.5 21.5q-25 18 -38 18q-12 0 -23.5 -13t-15.5 -34h-52q6 45 33 73z" />
    <glyph glyph-name="Umacron" unicode="&#x16a;" horiz-adv-x="657" 
d="M128.5 43q-54.5 53 -54.5 152q0 40 7 79l75 426h93l-75 -424q-8 -45 -8 -76q0 -67 32 -100.5t98 -33.5q159 0 196 210l75 424h92l-75 -426q-25 -146 -98 -215t-197 -69q-106 0 -160.5 53zM273 823h312l-10 -59h-312z" />
    <glyph glyph-name="umacron" unicode="&#x16b;" horiz-adv-x="552" 
d="M46 137q0 34 7 69l52 294h85l-51 -290q-5 -25 -5 -54q0 -98 86 -98q64 0 114.5 47.5t63.5 120.5l48 274h85l-70 -394q-9 -51 -9 -106h-78q-1 8 -1 23q0 23 6 66h-3q-29 -46 -79 -72.5t-106 -26.5q-145 0 -145 147zM188 623h312l-10 -59h-312z" />
    <glyph glyph-name="Ubreve" unicode="&#x16c;" horiz-adv-x="657" 
d="M128.5 43q-54.5 53 -54.5 152q0 40 7 79l75 426h93l-75 -424q-8 -45 -8 -76q0 -67 32 -100.5t98 -33.5q159 0 196 210l75 424h92l-75 -426q-25 -146 -98 -215t-197 -69q-106 0 -160.5 53zM329.5 781.5q-35.5 27.5 -35.5 81.5q0 8 2 24h52q-4 -35 15.5 -55.5t62.5 -20.5
q39 0 67 19t37 57h56q-12 -63 -52.5 -98t-109.5 -35q-59 0 -94.5 27.5z" />
    <glyph glyph-name="ubreve" unicode="&#x16d;" horiz-adv-x="552" 
d="M46 137q0 34 7 69l52 294h85l-51 -290q-5 -25 -5 -54q0 -98 86 -98q64 0 114.5 47.5t63.5 120.5l48 274h85l-70 -394q-9 -51 -9 -106h-78q-1 8 -1 23q0 23 6 66h-3q-29 -46 -79 -72.5t-106 -26.5q-145 0 -145 147zM244.5 581.5q-35.5 27.5 -35.5 81.5q0 8 2 24h52
q-4 -35 15.5 -55.5t62.5 -20.5q39 0 67 19t37 57h56q-12 -63 -52.5 -98t-109.5 -35q-59 0 -94.5 27.5z" />
    <glyph glyph-name="Uring" unicode="&#x16e;" horiz-adv-x="657" 
d="M128.5 43q-54.5 53 -54.5 152q0 40 7 79l75 426h93l-75 -424q-8 -45 -8 -76q0 -67 32 -100.5t98 -33.5q159 0 196 210l75 424h92l-75 -426q-25 -146 -98 -215t-197 -69q-106 0 -160.5 53zM356.5 758q-22.5 20 -22.5 52q0 47 31 76.5t81 29.5q35 0 57.5 -20t22.5 -52
q0 -47 -31 -76.5t-81 -29.5q-35 0 -57.5 20zM464 793q17 17 17 44q0 18 -11.5 29.5t-30.5 11.5q-26 0 -43 -17t-17 -44q0 -18 11.5 -29.5t30.5 -11.5q26 0 43 17z" />
    <glyph glyph-name="uring" unicode="&#x16f;" horiz-adv-x="552" 
d="M46 137q0 34 7 69l52 294h85l-51 -290q-5 -25 -5 -54q0 -98 86 -98q64 0 114.5 47.5t63.5 120.5l48 274h85l-70 -394q-9 -51 -9 -106h-78q-1 8 -1 23q0 23 6 66h-3q-29 -46 -79 -72.5t-106 -26.5q-145 0 -145 147zM271.5 558q-22.5 20 -22.5 52q0 47 31 76.5t81 29.5
q35 0 57.5 -20t22.5 -52q0 -47 -31 -76.5t-81 -29.5q-35 0 -57.5 20zM379 593q17 17 17 44q0 18 -11.5 29.5t-30.5 11.5q-26 0 -43 -17t-17 -44q0 -18 11.5 -29.5t30.5 -11.5q26 0 43 17z" />
    <glyph glyph-name="Uhungarumlaut" unicode="&#x170;" horiz-adv-x="657" 
d="M128.5 43q-54.5 53 -54.5 152q0 40 7 79l75 426h93l-75 -424q-8 -45 -8 -76q0 -67 32 -100.5t98 -33.5q159 0 196 210l75 424h92l-75 -426q-25 -146 -98 -215t-197 -69q-106 0 -160.5 53zM406 900h86l-122 -146h-69zM536 900h86l-122 -146h-69z" />
    <glyph glyph-name="uhungarumlaut" unicode="&#x171;" horiz-adv-x="552" 
d="M46 137q0 34 7 69l52 294h85l-51 -290q-5 -25 -5 -54q0 -98 86 -98q64 0 114.5 47.5t63.5 120.5l48 274h85l-70 -394q-9 -51 -9 -106h-78q-1 8 -1 23q0 23 6 66h-3q-29 -46 -79 -72.5t-106 -26.5q-145 0 -145 147zM321 700h86l-122 -146h-69zM451 700h86l-122 -146h-69z
" />
    <glyph glyph-name="Uogonek" unicode="&#x172;" horiz-adv-x="657" 
d="M659 700l-75 -426q-24 -136 -89 -205.5t-174 -77.5q-41 -28 -64 -56.5t-23 -52.5q0 -19 14.5 -29t41.5 -10q23 0 54 12l4 -36q-19 -14 -44 -22t-51 -8q-40 0 -62 18t-22 51q0 39 23.5 73.5t68.5 59.5q-92 7 -139.5 59.5t-47.5 144.5q0 40 7 79l75 426h93l-75 -424
q-8 -45 -8 -76q0 -67 32 -100.5t98 -33.5q159 0 196 210l75 424h92z" />
    <glyph glyph-name="uogonek" unicode="&#x173;" horiz-adv-x="552" 
d="M531 500l-70 -394q-9 -51 -9 -106h-14q-48 -29 -74.5 -60.5t-26.5 -57.5q0 -19 14.5 -29t41.5 -10q23 0 54 12l4 -36q-19 -14 -44 -22t-51 -8q-40 0 -62 18t-22 51q0 43 28 79.5t80 62.5h-6q-1 8 -1 23q0 23 6 66h-3q-29 -46 -79 -72.5t-106 -26.5q-145 0 -145 147
q0 34 7 69l52 294h85l-51 -290q-5 -25 -5 -54q0 -98 86 -98q64 0 114.5 47.5t63.5 120.5l48 274h85z" />
    <glyph glyph-name="Wcircumflex" unicode="&#x174;" horiz-adv-x="831" 
d="M882 700l-268 -700h-89l-51 574l-252 -574h-93l-23 700h99l-1 -559l244 559h93l46 -557l196 557h99zM500 897h58l87 -143h-71l-51 88l-83 -88h-77z" />
    <glyph glyph-name="wcircumflex" unicode="&#x175;" horiz-adv-x="668" 
d="M701 500l-213 -500h-77l-49 409l-193 -409h-77l-37 500h87l13 -384l182 384h78l46 -384l149 384h91zM384 697h58l87 -143h-71l-51 88l-83 -88h-77z" />
    <glyph glyph-name="Ycircumflex" unicode="&#x176;" horiz-adv-x="573" 
d="M245 278l-149 422h100l108 -334l226 334h104l-296 -422l-49 -278h-93zM371 897h58l87 -143h-71l-51 88l-83 -88h-77z" />
    <glyph glyph-name="ycircumflex" unicode="&#x177;" horiz-adv-x="462" 
d="M496 500l-271 -509q-51 -96 -113.5 -144.5t-133.5 -48.5q-27 0 -55 7l11 65q18 -6 43 -6q51 0 93.5 37t91.5 125l-102 474h89l66 -383l187 383h94zM287 697h58l87 -143h-71l-51 88l-83 -88h-77z" />
    <glyph glyph-name="Ydieresis" unicode="&#x178;" horiz-adv-x="573" 
d="M245 278l-149 422h100l108 -334l226 334h104l-296 -422l-49 -278h-93zM243.5 765.5q-12.5 11.5 -12.5 29.5q0 27 17 44t45 17q19 0 31.5 -11.5t12.5 -29.5q0 -27 -17 -44t-45 -17q-19 0 -31.5 11.5zM443 765.5q-12 11.5 -12 30.5q0 26 17 43t45 17q19 0 31.5 -11.5
t12.5 -29.5q0 -27 -17 -44t-45 -17q-20 0 -32 11.5z" />
    <glyph glyph-name="Zacute" unicode="&#x179;" horiz-adv-x="567" 
d="M-1 51l472 573h-342l13 76h457l-9 -53l-470 -571h382l-13 -76h-499zM446 900h87l-123 -146h-68z" />
    <glyph glyph-name="zacute" unicode="&#x17a;" horiz-adv-x="451" 
d="M-10 48l356 386h-273l11 66h375l-8 -49l-351 -385h293l-12 -66h-399zM353 700h87l-123 -146h-68z" />
    <glyph glyph-name="Zdotaccent" unicode="&#x17b;" horiz-adv-x="567" 
d="M-1 51l472 573h-342l13 76h457l-9 -53l-470 -571h382l-13 -76h-499zM340.5 765.5q-12.5 11.5 -12.5 29.5q0 27 17 44t45 17q19 0 31.5 -11.5t12.5 -29.5q0 -27 -17 -44t-45 -17q-19 0 -31.5 11.5z" />
    <glyph glyph-name="zdotaccent" unicode="&#x17c;" horiz-adv-x="451" 
d="M-10 48l356 386h-273l11 66h375l-8 -49l-351 -385h293l-12 -66h-399zM247.5 565.5q-12.5 11.5 -12.5 29.5q0 27 17 44t45 17q19 0 31.5 -11.5t12.5 -29.5q0 -27 -17 -44t-45 -17q-19 0 -31.5 11.5z" />
    <glyph glyph-name="Zcaron" unicode="&#x17d;" horiz-adv-x="567" 
d="M-1 51l472 573h-342l13 76h457l-9 -53l-470 -571h382l-13 -76h-499zM256 897h71l51 -88l83 88h77l-137 -143h-58z" />
    <glyph glyph-name="zcaron" unicode="&#x17e;" horiz-adv-x="451" 
d="M-10 48l356 386h-273l11 66h375l-8 -49l-351 -385h293l-12 -66h-399zM163 697h71l51 -88l83 88h77l-137 -143h-58z" />
    <glyph glyph-name="uni018F" unicode="&#x18f;" horiz-adv-x="668" 
d="M588 638q72 -72 72 -198q0 -130 -45.5 -232.5t-127.5 -160t-189 -57.5q-122 0 -190.5 68t-68.5 192q0 43 9 91l8 44h509q2 32 2 48q0 97 -46 150t-132 53q-62 0 -119 -28.5t-100 -80.5l-50 56q44 61 116 94t155 33q125 0 197 -72zM457 133.5q70 69.5 97 181.5h-417l-2 -9
q-8 -38 -8 -69q0 -81 46 -127t123 -46q91 0 161 69.5z" />
    <glyph glyph-name="florin" unicode="&#x192;" horiz-adv-x="455" 
d="M347.5 624.5q-24.5 -18.5 -39.5 -56.5l-26 -68h150l-12 -68h-164l-195 -513h-89l197 513h-97l12 68h111l31 81q24 62 65 95.5t118 33.5q33 0 64 -9.5t46 -24.5l-40 -56q-12 10 -29.5 16.5t-36.5 6.5q-41 0 -65.5 -18.5z" />
    <glyph glyph-name="Ohorn" unicode="&#x1a0;" horiz-adv-x="697" 
d="M804 700l-6 -37q-10 -59 -49.5 -108.5t-96.5 -75.5q2 -24 2 -37q0 -128 -47 -231.5t-129.5 -162t-185.5 -58.5q-76 0 -132 32.5t-86.5 93.5t-30.5 143q0 128 47 231t130 161.5t187 58.5q92 0 153.5 -47.5t83.5 -132.5q34 26 52 57t26 76l6 37h76zM431 114q60 50 95 135.5
t35 187.5q0 94 -42.5 146.5t-119.5 52.5q-72 0 -132.5 -50t-95.5 -135.5t-35 -186.5q0 -95 43 -147.5t120 -52.5q72 0 132 50z" />
    <glyph glyph-name="ohorn" unicode="&#x1a1;" horiz-adv-x="598" 
d="M672 500l-6 -37q-10 -58 -47.5 -106.5t-92.5 -74.5q-4 -86 -41.5 -152.5t-101 -103t-143.5 -36.5q-95 0 -152.5 56t-57.5 149q0 92 36 163.5t101 111.5t149 40q86 0 142 -46t67 -124q28 25 43 53.5t22 69.5l6 37h76zM344 87.5q45 32.5 71 89.5t26 127q0 67 -34 104
t-95 37q-55 0 -100 -33t-70.5 -90t-25.5 -127q0 -67 33.5 -103.5t93.5 -36.5q56 0 101 32.5z" />
    <glyph glyph-name="Uhorn" unicode="&#x1af;" horiz-adv-x="694" 
d="M807 700l-6 -37q-12 -69 -62.5 -123.5t-120.5 -74.5l-34 -191q-25 -146 -98 -215t-197 -69q-106 0 -160.5 53t-54.5 152q0 40 7 79l75 426h93l-75 -424q-8 -45 -8 -76q0 -67 32 -100.5t98 -33.5q159 0 196 210l75 424h92l-32 -184q45 29 67 62.5t31 84.5l6 37h76z" />
    <glyph glyph-name="uhorn" unicode="&#x1b0;" horiz-adv-x="599" 
d="M682 500l-6 -37q-12 -70 -64 -125t-123 -74l-28 -158q-9 -51 -9 -106h-78q-1 8 -1 23q0 23 6 66h-3q-29 -46 -79 -72.5t-106 -26.5q-145 0 -145 147q0 34 7 69l52 294h85l-51 -290q-5 -25 -5 -54q0 -98 86 -98q64 0 114.5 47.5t63.5 120.5l48 274h85l-33 -186
q47 29 70 63t32 86l6 37h76z" />
    <glyph glyph-name="uni01CD" unicode="&#x1cd;" horiz-adv-x="596" 
d="M422 151h-271l-73 -151h-105l361 700h86l115 -700h-91zM411 226l-51 359l-173 -359h224zM271 897h71l51 -88l83 88h77l-137 -143h-58z" />
    <glyph glyph-name="uni01CE" unicode="&#x1ce;" horiz-adv-x="542" 
d="M76.5 43.5q-47.5 53.5 -47.5 145.5q0 93 32.5 166t91 114t132.5 41q52 0 91 -22t55 -60h2l22 72h70l-66 -374q-17 -91 -20 -126h-78q6 46 12 79h-2q-30 -41 -74.5 -65t-91.5 -24q-81 0 -128.5 53.5zM331.5 96.5q44.5 38.5 55.5 103.5l16 91q3 20 3 36q0 55 -30.5 86.5
t-84.5 31.5q-49 0 -89.5 -33t-63.5 -90.5t-23 -127.5q0 -65 28 -100.5t80 -35.5q64 0 108.5 38.5zM192 697h71l51 -88l83 88h77l-137 -143h-58z" />
    <glyph glyph-name="uni01CF" unicode="&#x1cf;" horiz-adv-x="292" 
d="M179 700h92l-123 -700h-92zM120 897h71l51 -88l83 88h77l-137 -143h-58z" />
    <glyph glyph-name="uni01D0" unicode="&#x1d0;" horiz-adv-x="253" 
d="M128 500h85l-88 -500h-85zM64 697h71l51 -88l83 88h77l-137 -143h-58z" />
    <glyph glyph-name="uni01D1" unicode="&#x1d1;" horiz-adv-x="661" 
d="M160 22.5q-56 32.5 -86.5 93.5t-30.5 143q0 128 47 231t130 161.5t187 58.5q75 0 131 -32.5t86 -93t30 -142.5q0 -128 -47 -231.5t-129.5 -162t-185.5 -58.5q-76 0 -132 32.5zM431 114q60 50 95 135.5t35 187.5q0 94 -42.5 146.5t-119.5 52.5q-72 0 -132.5 -50
t-95.5 -135.5t-35 -186.5q0 -95 43 -147.5t120 -52.5q72 0 132 50zM305 897h71l51 -88l83 88h77l-137 -143h-58z" />
    <glyph glyph-name="uni01D2" unicode="&#x1d2;" horiz-adv-x="557" 
d="M87.5 46q-57.5 56 -57.5 149q0 92 36 163.5t101 111.5t149 40q95 0 153 -56t58 -149q0 -92 -36.5 -163.5t-101.5 -111.5t-149 -40q-95 0 -152.5 56zM344 87.5q45 32.5 71 89.5t26 127q0 67 -34 104t-95 37q-55 0 -100 -33t-70.5 -90t-25.5 -127q0 -67 33.5 -103.5
t93.5 -36.5q56 0 101 32.5zM216 697h71l51 -88l83 88h77l-137 -143h-58z" />
    <glyph glyph-name="uni01D3" unicode="&#x1d3;" horiz-adv-x="657" 
d="M128.5 43q-54.5 53 -54.5 152q0 40 7 79l75 426h93l-75 -424q-8 -45 -8 -76q0 -67 32 -100.5t98 -33.5q159 0 196 210l75 424h92l-75 -426q-25 -146 -98 -215t-197 -69q-106 0 -160.5 53zM302 897h71l51 -88l83 88h77l-137 -143h-58z" />
    <glyph glyph-name="uni01D4" unicode="&#x1d4;" horiz-adv-x="552" 
d="M46 137q0 34 7 69l52 294h85l-51 -290q-5 -25 -5 -54q0 -98 86 -98q64 0 114.5 47.5t63.5 120.5l48 274h85l-70 -394q-9 -51 -9 -106h-78q-1 8 -1 23q0 23 6 66h-3q-29 -46 -79 -72.5t-106 -26.5q-145 0 -145 147zM217 697h71l51 -88l83 88h77l-137 -143h-58z" />
    <glyph glyph-name="uni01D5" unicode="&#x1d5;" horiz-adv-x="657" 
d="M128.5 43q-54.5 53 -54.5 152q0 40 7 79l75 426h93l-75 -424q-8 -45 -8 -76q0 -67 32 -100.5t98 -33.5q159 0 196 210l75 424h92l-75 -426q-25 -146 -98 -215t-197 -69q-106 0 -160.5 53zM305 954h281l-8 -54h-281zM282.5 765.5q-12.5 11.5 -12.5 29.5q0 27 17 44t45 17
q19 0 31.5 -11.5t12.5 -29.5q0 -27 -17 -44t-45 -17q-19 0 -31.5 11.5zM482 765.5q-12 11.5 -12 30.5q0 26 17 43t45 17q19 0 31.5 -11.5t12.5 -29.5q0 -27 -17 -44t-45 -17q-20 0 -32 11.5z" />
    <glyph glyph-name="uni01D6" unicode="&#x1d6;" horiz-adv-x="552" 
d="M46 137q0 34 7 69l52 294h85l-51 -290q-5 -25 -5 -54q0 -98 86 -98q64 0 114.5 47.5t63.5 120.5l48 274h85l-70 -394q-9 -51 -9 -106h-78q-1 8 -1 23q0 23 6 66h-3q-29 -46 -79 -72.5t-106 -26.5q-145 0 -145 147zM220 754h281l-8 -54h-281zM197.5 565.5
q-12.5 11.5 -12.5 29.5q0 27 17 44t45 17q19 0 31.5 -11.5t12.5 -29.5q0 -27 -17 -44t-45 -17q-19 0 -31.5 11.5zM397 565.5q-12 11.5 -12 30.5q0 26 17 43t45 17q19 0 31.5 -11.5t12.5 -29.5q0 -27 -17 -44t-45 -17q-20 0 -32 11.5z" />
    <glyph glyph-name="uni01D7" unicode="&#x1d7;" horiz-adv-x="657" 
d="M128.5 43q-54.5 53 -54.5 152q0 40 7 79l75 426h93l-75 -424q-8 -45 -8 -76q0 -67 32 -100.5t98 -33.5q159 0 196 210l75 424h92l-75 -426q-25 -146 -98 -215t-197 -69q-106 0 -160.5 53zM472 986h70l-81 -103h-54zM286.5 765.5q-12.5 11.5 -12.5 29.5q0 27 17 44t45 17
q19 0 31.5 -11.5t12.5 -29.5q0 -27 -17 -44t-45 -17q-19 0 -31.5 11.5zM486 765.5q-12 11.5 -12 30.5q0 26 17 43t45 17q19 0 31.5 -11.5t12.5 -29.5q0 -27 -17 -44t-45 -17q-20 0 -32 11.5z" />
    <glyph glyph-name="uni01D8" unicode="&#x1d8;" horiz-adv-x="552" 
d="M46 137q0 34 7 69l52 294h85l-51 -290q-5 -25 -5 -54q0 -98 86 -98q64 0 114.5 47.5t63.5 120.5l48 274h85l-70 -394q-9 -51 -9 -106h-78q-1 8 -1 23q0 23 6 66h-3q-29 -46 -79 -72.5t-106 -26.5q-145 0 -145 147zM387 786h70l-81 -103h-54zM201.5 565.5
q-12.5 11.5 -12.5 29.5q0 27 17 44t45 17q19 0 31.5 -11.5t12.5 -29.5q0 -27 -17 -44t-45 -17q-19 0 -31.5 11.5zM401 565.5q-12 11.5 -12 30.5q0 26 17 43t45 17q19 0 31.5 -11.5t12.5 -29.5q0 -27 -17 -44t-45 -17q-20 0 -32 11.5z" />
    <glyph glyph-name="uni01D9" unicode="&#x1d9;" horiz-adv-x="657" 
d="M128.5 43q-54.5 53 -54.5 152q0 40 7 79l75 426h93l-75 -424q-8 -45 -8 -76q0 -67 32 -100.5t98 -33.5q159 0 196 210l75 424h92l-75 -426q-25 -146 -98 -215t-197 -69q-106 0 -160.5 53zM324 995h69l51 -74l77 74h75l-131 -121h-53zM286.5 765.5q-12.5 11.5 -12.5 29.5
q0 27 17 44t45 17q19 0 31.5 -11.5t12.5 -29.5q0 -27 -17 -44t-45 -17q-19 0 -31.5 11.5zM486 765.5q-12 11.5 -12 30.5q0 26 17 43t45 17q19 0 31.5 -11.5t12.5 -29.5q0 -27 -17 -44t-45 -17q-20 0 -32 11.5z" />
    <glyph glyph-name="uni01DA" unicode="&#x1da;" horiz-adv-x="552" 
d="M46 137q0 34 7 69l52 294h85l-51 -290q-5 -25 -5 -54q0 -98 86 -98q64 0 114.5 47.5t63.5 120.5l48 274h85l-70 -394q-9 -51 -9 -106h-78q-1 8 -1 23q0 23 6 66h-3q-29 -46 -79 -72.5t-106 -26.5q-145 0 -145 147zM239 795h69l51 -74l77 74h75l-131 -121h-53z
M201.5 565.5q-12.5 11.5 -12.5 29.5q0 27 17 44t45 17q19 0 31.5 -11.5t12.5 -29.5q0 -27 -17 -44t-45 -17q-19 0 -31.5 11.5zM401 565.5q-12 11.5 -12 30.5q0 26 17 43t45 17q19 0 31.5 -11.5t12.5 -29.5q0 -27 -17 -44t-45 -17q-20 0 -32 11.5z" />
    <glyph glyph-name="uni01DB" unicode="&#x1db;" horiz-adv-x="657" 
d="M128.5 43q-54.5 53 -54.5 152q0 40 7 79l75 426h93l-75 -424q-8 -45 -8 -76q0 -67 32 -100.5t98 -33.5q159 0 196 210l75 424h92l-75 -426q-25 -146 -98 -215t-197 -69q-106 0 -160.5 53zM373 986h70l29 -103h-54zM285.5 765.5q-12.5 11.5 -12.5 29.5q0 27 17 44t45 17
q19 0 31.5 -11.5t12.5 -29.5q0 -27 -17 -44t-45 -17q-19 0 -31.5 11.5zM485 765.5q-12 11.5 -12 30.5q0 26 17 43t45 17q19 0 31.5 -11.5t12.5 -29.5q0 -27 -17 -44t-45 -17q-20 0 -32 11.5z" />
    <glyph glyph-name="uni01DC" unicode="&#x1dc;" horiz-adv-x="552" 
d="M46 137q0 34 7 69l52 294h85l-51 -290q-5 -25 -5 -54q0 -98 86 -98q64 0 114.5 47.5t63.5 120.5l48 274h85l-70 -394q-9 -51 -9 -106h-78q-1 8 -1 23q0 23 6 66h-3q-29 -46 -79 -72.5t-106 -26.5q-145 0 -145 147zM288 786h70l29 -103h-54zM200.5 565.5
q-12.5 11.5 -12.5 29.5q0 27 17 44t45 17q19 0 31.5 -11.5t12.5 -29.5q0 -27 -17 -44t-45 -17q-19 0 -31.5 11.5zM400 565.5q-12 11.5 -12 30.5q0 26 17 43t45 17q19 0 31.5 -11.5t12.5 -29.5q0 -27 -17 -44t-45 -17q-20 0 -32 11.5z" />
    <glyph glyph-name="Gcaron" unicode="&#x1e6;" horiz-adv-x="636" 
d="M336 362h258l-63 -362h-62l-8 43q-75 -53 -175 -53q-113 0 -178.5 71.5t-65.5 194.5q0 129 48 232.5t133 162.5t190 59q79 0 137 -29.5t76 -79.5l-60 -51q-20 41 -60.5 62.5t-99.5 21.5q-76 0 -137.5 -49t-97 -135t-35.5 -191q0 -95 43 -146t122 -51q45 0 86 13t72 38
l32 181h-167zM310 897h71l51 -88l83 88h77l-137 -143h-58z" />
    <glyph glyph-name="gcaron" unicode="&#x1e7;" horiz-adv-x="541" 
d="M524 500l-85 -484q-21 -121 -89 -182.5t-181 -61.5q-52 0 -99 12t-81 34l39 62q71 -36 146 -36q155 0 188 185l8 45q-25 -38 -68 -59.5t-94 -21.5q-83 0 -131 51t-48 140q0 94 32.5 168t90.5 116t132 42q52 0 91 -22t55 -60h2l22 72h70zM405 326q0 57 -29 88t-82 31
q-50 0 -91.5 -33t-65 -90.5t-23.5 -127.5q0 -64 29.5 -98.5t82.5 -34.5q64 0 107 39t55 107l13 76q4 20 4 43zM193 697h71l51 -88l83 88h77l-137 -143h-58z" />
    <glyph glyph-name="Aringacute" unicode="&#x1fa;" horiz-adv-x="596" 
d="M458 920h-62l69 103h77zM325.5 738q-22.5 20 -22.5 52q0 47 31 76.5t81 29.5q35 0 57.5 -20t22.5 -52q0 -47 -31 -76.5t-81 -29.5q-35 0 -57.5 20zM365 841q-17 -17 -17 -44q0 -18 11.5 -29.5t30.5 -11.5q26 0 43 17t17 44q0 18 -11.5 29.5t-30.5 11.5q-26 0 -43 -17z
M420 700l115 -700h-91l-22 151h-271l-73 -151h-105l361 700h86zM411 226l-51 359l-173 -359h224z" />
    <glyph glyph-name="aringacute" unicode="&#x1fb;" horiz-adv-x="542" 
d="M389 848h77l-84 -104h-62zM246.5 558q-22.5 20 -22.5 52q0 47 31 76.5t81 29.5q35 0 57.5 -20t22.5 -52q0 -47 -31 -76.5t-81 -29.5q-35 0 -57.5 20zM354 593q17 17 17 44q0 18 -11.5 29.5t-30.5 11.5q-26 0 -43 -17t-17 -44q0 -18 11.5 -29.5t30.5 -11.5q26 0 43 17z
M76.5 43.5q-47.5 53.5 -47.5 145.5q0 93 32.5 166t91 114t132.5 41q52 0 91 -22t55 -60h2l22 72h70l-66 -374q-17 -91 -20 -126h-78q6 46 12 79h-2q-30 -41 -74.5 -65t-91.5 -24q-81 0 -128.5 53.5zM331.5 96.5q44.5 38.5 55.5 103.5l16 91q3 20 3 36q0 55 -30.5 86.5
t-84.5 31.5q-49 0 -89.5 -33t-63.5 -90.5t-23 -127.5q0 -65 28 -100.5t80 -35.5q64 0 108.5 38.5z" />
    <glyph glyph-name="AEacute" unicode="&#x1fc;" horiz-adv-x="800" 
d="M532 625l-39 -220h249l-13 -75h-249l-45 -255h283l-13 -75h-375l25 144h-189l-91 -144h-102l449 700h406l-13 -75h-283zM368 216l60 342l-216 -342h156zM620 900h87l-123 -146h-68z" />
    <glyph glyph-name="aeacute" unicode="&#x1fd;" horiz-adv-x="824" 
d="M746.5 463q50.5 -47 50.5 -134q0 -29 -6 -64l-6 -32h-356l-2 -10q-1 -10 -1 -31q0 -63 31.5 -96.5t90.5 -33.5q87 0 152 71l40 -46q-37 -46 -91 -71.5t-117 -25.5q-60 0 -102.5 22t-65.5 64q-36 -39 -87.5 -62.5t-105.5 -23.5q-76 0 -117.5 37t-41.5 95q0 81 63 126.5
t169 45.5h111l3 8l4 25q3 17 3 31q0 41 -24.5 62.5t-70.5 21.5q-45 0 -85.5 -18.5t-70.5 -53.5l-33 52q40 45 88.5 66.5t109.5 21.5q56 0 95.5 -19t58.5 -55q34 36 79 55t97 19q87 0 137.5 -47zM725 331q0 47 -30.5 78.5t-88.5 31.5q-56 0 -100 -40t-65 -107h280l2 12
q2 18 2 25zM280 89q45 32 53 77l10 53q0 9 1 14h-103q-65 0 -105.5 -30t-40.5 -78q0 -31 22.5 -49.5t61.5 -18.5q56 0 101 32zM538 700h87l-123 -146h-68z" />
    <glyph glyph-name="Oslashacute" unicode="&#x1fe;" horiz-adv-x="661" 
d="M637 552.5q17 -49.5 17 -110.5q0 -128 -47 -231.5t-129.5 -162t-185.5 -58.5q-81 0 -137 36l-49 -69h-73l75 107q-65 73 -65 195q0 128 47 231t130 161.5t187 58.5q74 0 132 -33l34 48h77l-62 -88q32 -35 49 -84.5zM163 141l328 468q-36 27 -92 27q-72 0 -132.5 -50
t-95.5 -135.5t-35 -186.5q0 -75 27 -123zM431 114q60 50 95 135.5t35 187.5q0 76 -27 124l-331 -467q37 -30 96 -30q72 0 132 50zM495 900h87l-123 -146h-68z" />
    <glyph glyph-name="oslashacute" unicode="&#x1ff;" horiz-adv-x="557" 
d="M510.5 393q16.5 -40 16.5 -88q0 -92 -36.5 -163.5t-101.5 -111.5t-149 -40q-53 0 -97 19l-37 -52h-64l56 80q-33 27 -50.5 67.5t-17.5 90.5q0 92 36 163.5t101 111.5t149 40q55 0 100 -20l32 45h68l-53 -75q31 -27 47.5 -67zM143 100l232 332q-28 13 -63 13
q-55 0 -100 -33t-70.5 -90t-25.5 -127q0 -59 27 -95zM344 87.5q45 32.5 71 89.5t26 127q0 57 -24 91l-233 -328q26 -12 59 -12q56 0 101 32.5zM406 700h87l-123 -146h-68z" />
    <glyph glyph-name="uni0218" unicode="&#x218;" horiz-adv-x="529" 
d="M95 20q-59 30 -84 79l66 56q24 -40 66.5 -64.5t88.5 -24.5q69 0 111.5 35.5t42.5 92.5q0 37 -28 68.5t-90 64.5q-160 85 -160 190q0 57 29 101t82.5 68t123.5 24q69 0 123.5 -30t71.5 -77l-68 -44q-18 35 -52.5 55t-76.5 20q-63 0 -101.5 -30.5t-38.5 -80.5q0 -31 29 -58
t107 -70q143 -77 143 -190q0 -64 -31.5 -112.5t-89 -75.5t-133.5 -27q-72 0 -131 30zM244.5 -86q14.5 -14 14.5 -36q0 -35 -24.5 -77.5t-64.5 -75.5l-31 26q19 22 30.5 37t19.5 32h-2q-20 0 -32.5 11.5t-12.5 30.5q0 29 18.5 47.5t47.5 18.5q22 0 36.5 -14z" />
    <glyph glyph-name="uni0219" unicode="&#x219;" horiz-adv-x="416" 
d="M60 14q-46 24 -57 60l62 38q12 -26 39.5 -41.5t62.5 -15.5q49 0 81 27t32 68q0 27 -18.5 44.5t-66.5 37.5q-67 27 -98.5 59t-31.5 74q0 67 49.5 106t133.5 39q51 0 92.5 -22t55.5 -57l-59 -38q-13 25 -36 38.5t-55 13.5q-42 0 -68.5 -19t-26.5 -49q0 -23 22 -41.5
t76 -40.5q60 -25 88.5 -57t28.5 -74q0 -51 -25 -90.5t-71 -61.5t-106 -22q-58 0 -104 24zM188.5 -86q14.5 -14 14.5 -36q0 -35 -24.5 -77.5t-64.5 -75.5l-31 26q19 22 30.5 37t19.5 32h-2q-20 0 -32.5 11.5t-12.5 30.5q0 29 18.5 47.5t47.5 18.5q22 0 36.5 -14z" />
    <glyph glyph-name="uni021A" unicode="&#x21a;" horiz-adv-x="558" 
d="M300 628h-216l13 72h523l-13 -72h-215l-111 -628h-92zM258.5 -86q14.5 -14 14.5 -36q0 -35 -24.5 -77.5t-64.5 -75.5l-31 26q19 22 30.5 37t19.5 32h-2q-20 0 -32.5 11.5t-12.5 30.5q0 29 18.5 47.5t47.5 18.5q22 0 36.5 -14z" />
    <glyph glyph-name="uni021B" unicode="&#x21b;" horiz-adv-x="377" 
d="M111 21q-34 31 -34 87q0 11 4 37l52 289h-90l12 66h90l23 133l85 25h4l-27 -158h142l-12 -66h-142l-49 -276q-4 -26 -4 -35q0 -32 15.5 -48.5t49.5 -16.5q42 0 72 11l-5 -63q-36 -16 -94 -16t-92 31zM211.5 -86q14.5 -14 14.5 -36q0 -35 -24.5 -77.5t-64.5 -75.5l-31 26
q19 22 30.5 37t19.5 32h-2q-20 0 -32.5 11.5t-12.5 30.5q0 29 18.5 47.5t47.5 18.5q22 0 36.5 -14z" />
    <glyph glyph-name="uni0237" unicode="&#x237;" horiz-adv-x="247" 
d="M-124 -183l14 63q15 -2 40 -2q50 0 76.5 30t37.5 94l87 498h85l-88 -501q-33 -189 -190 -189q-31 0 -62 7z" />
    <glyph glyph-name="uni0251" unicode="&#x251;" horiz-adv-x="537" 
d="M75 44q-46 54 -46 144q0 93 32.5 166.5t90 114.5t130.5 41q110 0 139 -77h2l12 67h84l-66 -374q-17 -102 -19 -126h-78q2 35 11 79h-2q-28 -42 -72 -65.5t-92 -23.5q-80 0 -126 54zM326.5 97q44.5 39 55.5 103l16 91q3 18 3 36q0 54 -30 86t-83 32q-49 0 -88.5 -33
t-62.5 -91t-23 -129q0 -63 27 -98.5t79 -35.5q62 0 106.5 39z" />
    <glyph glyph-name="uni0259" unicode="&#x259;" horiz-adv-x="518" 
d="M431.5 456.5q54.5 -53.5 54.5 -145.5q0 -94 -34.5 -167t-97.5 -113.5t-144 -40.5q-87 0 -135.5 51t-48.5 141q0 26 7 68l6 33h360q1 8 1 25q0 64 -31.5 97t-92.5 33q-44 0 -83.5 -18t-71.5 -53l-40 46q38 47 90 72t113 25q93 0 147.5 -53.5zM324 103q46 44 65 117h-283
l-1 -7q-3 -19 -3 -36q0 -57 30 -87.5t87 -30.5q59 0 105 44z" />
    <glyph glyph-name="uni02BB" unicode="&#x2bb;" horiz-adv-x="200" 
d="M210 651.5q12 -11.5 12 -30.5q0 -30 -18 -48.5t-47 -18.5q-23 0 -37.5 14t-14.5 37q0 34 25 76t65 76l31 -26q-34 -36 -51 -68h3q20 0 32 -11.5z" />
    <glyph glyph-name="uni02BC" unicode="&#x2bc;" horiz-adv-x="200" 
d="M221.5 721q14.5 -14 14.5 -36q0 -35 -24.5 -77.5t-64.5 -75.5l-31 26q14 16 28 34t22 34h-2q-20 0 -32.5 11.5t-12.5 30.5q0 30 18.5 48.5t47.5 18.5q22 0 36.5 -14z" />
    <glyph glyph-name="uni02BE" unicode="&#x2be;" 
d="M58 576q26 0 43 17t17 44q0 18 -11.5 29.5t-30.5 11.5l6 38q36 0 58.5 -21.5t22.5 -55.5q0 -45 -31 -73t-81 -28z" />
    <glyph glyph-name="uni02BF" unicode="&#x2bf;" 
d="M-6.5 560.5q-22.5 22.5 -22.5 57.5q0 43 31 70.5t80 27.5l-6 -38q-26 0 -42.5 -16t-16.5 -42q0 -19 11.5 -31.5t29.5 -12.5l-7 -38q-35 0 -57.5 22.5z" />
    <glyph glyph-name="circumflex" unicode="&#x2c6;" horiz-adv-x="400" 
d="M250 697h58l87 -143h-70l-51 88l-83 -88h-78z" />
    <glyph glyph-name="caron" unicode="&#x2c7;" horiz-adv-x="400" 
d="M138 697h72l51 -88l83 88h76l-137 -143h-58z" />
    <glyph glyph-name="uni02C8" unicode="&#x2c8;" 
d="M40 740h92l-28 -160h-92z" />
    <glyph glyph-name="uni02C9" unicode="&#x2c9;" horiz-adv-x="505" 
d="M140 665h371l-10 -57h-371z" />
    <glyph glyph-name="uni02CA" unicode="&#x2ca;" 
d="M-41 599l134 107q33 26 58 26q17 0 27.5 -9t10.5 -23q0 -34 -50 -60l-157 -82z" />
    <glyph glyph-name="uni02CB" unicode="&#x2cb;" 
d="M6 640q-31 20 -31 45q0 20 14.5 33.5t36.5 13.5q14 0 27.5 -7.5t22.5 -17.5l96 -108l-37 -41z" />
    <glyph glyph-name="uni02CC" unicode="&#x2cc;" 
d="M-97 -40h92l-28 -160h-92z" />
    <glyph glyph-name="breve" unicode="&#x2d8;" horiz-adv-x="400" 
d="M163.5 582q-33.5 28 -33.5 81q0 8 2 24h54q-4 -36 16.5 -56t61.5 -20q40 0 67.5 20t36.5 56h54q-13 -65 -54.5 -99t-108.5 -34q-62 0 -95.5 28z" />
    <glyph glyph-name="dotaccent" unicode="&#x2d9;" horiz-adv-x="400" 
d="M222.5 565.5q-12.5 11.5 -12.5 29.5q0 27 17 44t45 17q19 0 31.5 -11.5t12.5 -29.5q0 -27 -17 -44t-45 -17q-19 0 -31.5 11.5z" />
    <glyph glyph-name="ring" unicode="&#x2da;" horiz-adv-x="400" 
d="M187.5 567.5q-24.5 22.5 -24.5 57.5q0 52 34.5 85t89.5 33q40 0 64.5 -22.5t24.5 -57.5q0 -52 -34.5 -85t-89.5 -33q-40 0 -64.5 22.5zM305.5 609q17.5 18 17.5 46q0 19 -12 30.5t-32 11.5q-28 0 -45 -17.5t-17 -45.5q0 -19 12 -31t31 -12q28 0 45.5 18z" />
    <glyph glyph-name="ogonek" unicode="&#x2db;" horiz-adv-x="400" 
d="M60 -193q-22 18 -22 51q0 44 30.5 82t88.5 64h57q-54 -31 -82.5 -62.5t-28.5 -59.5q0 -19 14.5 -29t41.5 -10q21 0 55 12l4 -36q-44 -30 -96 -30q-40 0 -62 18z" />
    <glyph glyph-name="tilde" unicode="&#x2dc;" horiz-adv-x="400" 
d="M144 627q26 28 64 28q18 0 33 -6.5t38 -20.5q29 -20 45 -20q26 0 39 51h52q-9 -49 -34.5 -77t-64.5 -28q-19 0 -36 7.5t-38 21.5q-27 18 -39 18q-13 0 -24 -13t-16 -34h-52q7 45 33 73z" />
    <glyph glyph-name="hungarumlaut" unicode="&#x2dd;" horiz-adv-x="400" 
d="M212 705h86l-130 -151h-68zM355 705h87l-130 -151h-69z" />
    <glyph glyph-name="gravecomb" unicode="&#x300;" 
d="M-52 700h87l52 -146h-68z" />
    <glyph glyph-name="acutecomb" unicode="&#x301;" 
d="M128 700h87l-123 -146h-68z" />
    <glyph glyph-name="uni0302" unicode="&#x302;" 
d="M50 697h58l87 -143h-71l-51 88l-83 -88h-77z" />
    <glyph glyph-name="tildecomb" unicode="&#x303;" 
d="M-59 627q27 28 66 28q18 0 33 -6.5t36 -20.5q15 -10 25 -15t19 -5q14 0 23.5 12t16.5 39h52q-8 -49 -35 -77t-68 -28q-19 0 -34.5 7.5t-37.5 21.5q-25 18 -38 18q-12 0 -23.5 -13t-15.5 -34h-52q6 45 33 73z" />
    <glyph glyph-name="uni0304" unicode="&#x304;" 
d="M-91 623h312l-10 -59h-312z" />
    <glyph glyph-name="uni0306" unicode="&#x306;" 
d="M-34.5 581.5q-35.5 27.5 -35.5 81.5q0 8 2 24h52q-4 -35 15.5 -55.5t62.5 -20.5q39 0 67 19t37 57h56q-12 -63 -52.5 -98t-109.5 -35q-59 0 -94.5 27.5z" />
    <glyph glyph-name="uni0307" unicode="&#x307;" 
d="M22.5 565.5q-12.5 11.5 -12.5 29.5q0 27 17 44t45 17q19 0 31.5 -11.5t12.5 -29.5q0 -27 -17 -44t-45 -17q-19 0 -31.5 11.5z" />
    <glyph glyph-name="uni0308" unicode="&#x308;" 
d="M-77.5 565.5q-12.5 11.5 -12.5 29.5q0 27 17 44t45 17q19 0 31.5 -11.5t12.5 -29.5q0 -27 -17 -44t-45 -17q-19 0 -31.5 11.5zM122 565.5q-12 11.5 -12 30.5q0 26 17 43t45 17q19 0 31.5 -11.5t12.5 -29.5q0 -27 -17 -44t-45 -17q-20 0 -32 11.5z" />
    <glyph glyph-name="hookabovecomb" unicode="&#x309;" 
d="M39 596.5q14 16.5 37 33.5q20 15 29.5 26.5t9.5 28.5q0 13 -10 20.5t-26 7.5q-17 0 -37 -12.5t-34 -32.5l-32 34q15 28 46 45t65 17q46 0 69.5 -20.5t23.5 -50.5q0 -33 -14.5 -52t-40.5 -38q-19 -13 -28.5 -23.5t-12.5 -25.5h-64q5 26 19 42.5z" />
    <glyph glyph-name="uni030A" unicode="&#x30a;" 
d="M-7.5 558q-22.5 20 -22.5 52q0 47 31 76.5t81 29.5q35 0 57.5 -20t22.5 -52q0 -47 -31 -76.5t-81 -29.5q-35 0 -57.5 20zM100 593q17 17 17 44q0 18 -11.5 29.5t-30.5 11.5q-26 0 -43 -17t-17 -44q0 -18 11.5 -29.5t30.5 -11.5q26 0 43 17z" />
    <glyph glyph-name="uni030B" unicode="&#x30b;" 
d="M42 700h86l-122 -146h-69zM172 700h86l-122 -146h-69z" />
    <glyph glyph-name="uni030C" unicode="&#x30c;" 
d="M-62 697h71l51 -88l83 88h77l-137 -143h-58z" />
    <glyph glyph-name="uni031B" unicode="&#x31b;" 
d="M-71 353q57 32 83.5 68t36.5 92l6 37h76l-6 -37q-13 -74 -70 -131t-134 -72z" />
    <glyph glyph-name="dotbelowcomb" unicode="&#x323;" 
d="M-106.5 -162.5q-12.5 11.5 -12.5 29.5q0 27 17 44t45 17q19 0 31.5 -11.5t12.5 -29.5q0 -27 -17 -44t-45 -17q-19 0 -31.5 11.5z" />
    <glyph glyph-name="uni0324" unicode="&#x324;" 
d="M-213.5 -162.5q-12.5 11.5 -12.5 29.5q0 27 17 44t45 17q19 0 31.5 -11.5t12.5 -29.5q0 -27 -17 -44t-45 -17q-19 0 -31.5 11.5zM0.5 -162.5q-12.5 11.5 -12.5 29.5q0 27 17 44t45 17q19 0 31.5 -11.5t12.5 -29.5q0 -27 -17 -44t-45 -17q-19 0 -31.5 11.5z" />
    <glyph glyph-name="uni0326" unicode="&#x326;" 
d="M-20.5 -86q14.5 -14 14.5 -36q0 -35 -24.5 -77.5t-64.5 -75.5l-31 26q19 22 30.5 37t19.5 32h-2q-20 0 -32.5 11.5t-12.5 30.5q0 29 18.5 47.5t47.5 18.5q22 0 36.5 -14z" />
    <glyph glyph-name="uni0327" unicode="&#x327;" 
d="M-140 -217q-21 4 -32 9l15 39q21 -7 55 -7q27 0 44.5 13t17.5 33q0 16 -18.5 24.5t-52.5 7.5l-16 22l66 89h55l-52 -75q34 0 56.5 -19t22.5 -48q0 -41 -33 -66.5t-86 -25.5q-21 0 -42 4z" />
    <glyph glyph-name="uni0328" unicode="&#x328;" 
d="M-158 -193q-22 18 -22 51q0 45 30.5 83t88.5 64h48l-1 -5q-48 -29 -74.5 -60.5t-26.5 -57.5q0 -19 14.5 -29t41.5 -10q23 0 54 12l4 -36q-19 -14 -44 -22t-51 -8q-40 0 -62 18z" />
    <glyph glyph-name="uni032E" unicode="&#x32e;" 
d="M-171.5 -176.5q-32.5 27.5 -32.5 79.5q0 7 2 25h52q-4 -36 16.5 -56t61.5 -20q40 0 67.5 20t36.5 56h56q-13 -64 -56 -98t-110 -34q-61 0 -93.5 27.5z" />
    <glyph glyph-name="uni0331" unicode="&#x331;" 
d="M-212 -64h312l-10 -59h-312z" />
    <glyph glyph-name="uni0394" unicode="&#x394;" horiz-adv-x="648" 
d="M-30 48l418 652h32l187 -652l-9 -48h-637zM517 70l-133 495l-308 -495h441z" />
    <glyph glyph-name="uni03A9" unicode="&#x3a9;" horiz-adv-x="773" 
d="M12 72h177q-51 42 -79.5 109t-28.5 145q0 112 48 199.5t134.5 136t198.5 48.5q131 0 206 -66.5t75 -181.5q0 -111 -61 -218.5t-159 -171.5h176l-13 -72h-282l16 88q63 23 115.5 78.5t83 130t30.5 151.5q0 88 -51 137t-143 49q-84 0 -148.5 -41t-100 -115t-35.5 -169
q0 -82 33 -139.5t94 -80.5l-16 -89h-283z" />
    <glyph glyph-name="uni03BC" unicode="&#x3bc;" horiz-adv-x="552" 
d="M105 500h84l-51 -290q-5 -28 -5 -48q0 -50 23.5 -77t69.5 -27q63 0 110.5 48.5t61.5 123.5l48 270h85l-69 -394q-8 -48 -10 -106h-77q-1 8 -1 25q0 26 4 57h-3q-60 -92 -157 -92q-36 0 -66 12t-44 36l-45 -253h-84z" />
    <glyph glyph-name="pi" unicode="&#x3c0;" horiz-adv-x="663" 
d="M436 7.5q-19 17.5 -19 52.5q0 15 3 31l60 343h-241l-77 -434h-85l77 434h-96l12 66h603l-12 -66h-96l-58 -331q-1 -5 -1 -13q0 -29 30 -29q23 0 50 10l-11 -60q-37 -21 -78 -21q-42 0 -61 17.5z" />
    <glyph glyph-name="uni0E01" unicode="&#xe01;" horiz-adv-x="576" 
d="M77 252q7 37 32 67t61 45q-43 14 -104 17q12 61 49.5 107.5t95 72t125.5 25.5q89 0 141 -44.5t52 -119.5q0 -18 -3 -38l-68 -384h-85l66 376q3 17 3 32q0 51 -31.5 80t-87.5 29q-52 0 -97.5 -25t-68.5 -66q35 -4 64.5 -18t43.5 -32l-3 -18q-40 -12 -66 -39t-33 -64
l-45 -255h-85z" />
    <glyph glyph-name="uni0E02" unicode="&#xe02;" horiz-adv-x="594" 
d="M577 576l-78 -445q-25 -141 -176 -141q-70 0 -109 29t-39 83q0 14 3 29l20 111q5 30 20 53t41 52q29 33 43 57.5t14 57.5q0 30 -23 46.5t-58 16.5q-50 0 -82 -25q12 2 17 2q34 0 55 -20.5t21 -52.5q0 -51 -32.5 -83t-83.5 -32q-37 0 -60.5 26t-23.5 65q0 52 25.5 93
t71 64.5t101.5 23.5q64 0 106.5 -31t42.5 -84q0 -44 -15 -73.5t-45 -65.5q-22 -27 -34 -47t-17 -45l-20 -113q-2 -12 -2 -16q0 -25 17 -38.5t49 -13.5q37 0 59 17.5t28 50.5l79 449h85zM183.5 443.5q-10.5 9.5 -27.5 9.5q-24 0 -39 -15t-15 -39q0 -16 10.5 -25.5t27.5 -9.5
q24 0 39 15t15 39q0 16 -10.5 25.5z" />
    <glyph glyph-name="uni0E03" unicode="&#xe03;" horiz-adv-x="606" 
d="M590 576l-78 -445q-25 -141 -176 -141q-70 0 -109 29t-39 83q0 14 3 29l14 78q6 32 22.5 58.5t44.5 60.5q32 39 48.5 69t16.5 68q0 41 -24 54l-71 -55l-54 53q-35 -22 -54 -68q12 4 28 4q35 0 56.5 -20.5t21.5 -53.5q0 -51 -30.5 -82t-81.5 -31q-40 0 -64 29t-24 75
q0 48 22 93t59.5 78t81.5 45l48 -56l63 56q46 -8 74 -40t28 -74q0 -52 -17.5 -86t-50.5 -72q-26 -31 -39.5 -52.5t-18.5 -51.5l-15 -83q-2 -12 -2 -16q0 -25 17 -38.5t49 -13.5q37 0 59 17.5t28 50.5l79 449h85zM178 395q-11 10 -28 10q-23 0 -38 -15.5t-15 -39.5
q0 -16 10 -25.5t27 -9.5q24 0 39.5 15t15.5 39q0 16 -11 26z" />
    <glyph glyph-name="uni0E04" unicode="&#xe04;" horiz-adv-x="603" 
d="M500 544q58 -42 58 -115q0 -16 -3 -34l-70 -395h-85l68 387q2 9 2 26q0 49 -34.5 76.5t-97.5 27.5q-93 0 -144 -52t-51 -157v-66q29 75 75.5 119.5t95.5 44.5q38 0 62 -20.5t24 -53.5q0 -47 -29 -76.5t-75 -29.5q-27 0 -47.5 11.5t-26.5 29.5q-25 -31 -48 -77.5
t-29 -85.5l-18 -104h-84l25 143q2 16 2 28q0 18 -4 70q-5 70 -5 87q0 77 34.5 135.5t98 90.5t148.5 32q100 0 158 -42zM277 344.5q-14 -14.5 -14 -36.5q0 -15 9.5 -24.5t25.5 -9.5q23 0 37 14.5t14 37.5q0 14 -10 23.5t-26 9.5q-22 0 -36 -14.5z" />
    <glyph glyph-name="uni0E05" unicode="&#xe05;" horiz-adv-x="607" 
d="M530 536q31 -41 31 -103q0 -25 -4 -46l-68 -387h-85l68 383q4 21 4 46q0 57 -37 84l-114 -75l-91 77q-49 -29 -70 -81t-21 -151v-57q33 71 79.5 112t91.5 41q36 0 59 -19.5t23 -50.5q0 -49 -30.5 -79.5t-78.5 -30.5q-23 0 -42 12.5t-26 31.5q-63 -75 -75 -145l-17 -98
h-84l25 143q2 16 2 28q0 18 -4 70q-5 70 -5 87q0 65 24 119.5t67 91t99 47.5l84 -77l111 77q53 -9 84 -50zM272.5 318q-14.5 -14 -14.5 -37q0 -15 10.5 -24.5t26.5 -9.5q22 0 36 14.5t14 36.5q0 15 -9.5 24.5t-25.5 9.5q-23 0 -37.5 -14z" />
    <glyph glyph-name="uni0E06" unicode="&#xe06;" horiz-adv-x="638" 
d="M622 576l-102 -576h-80q-15 48 -51 83t-85 49q3 -10 3 -19q0 -55 -37 -89t-96 -34q-42 0 -68.5 24.5t-26.5 62.5q0 56 35.5 91t90.5 35l2 11q5 31 20.5 56t43.5 60q33 40 49 69t16 66q0 18 -7.5 32.5t-20.5 21.5l-68 -55l-52 53q-35 -22 -54 -68q12 4 28 4
q35 0 56.5 -20.5t21.5 -53.5q0 -50 -31 -81.5t-82 -31.5q-40 0 -63.5 28t-23.5 74q0 48 22 93.5t59.5 79t81.5 45.5l47 -56l65 56q41 -8 70 -37.5t29 -72.5q0 -51 -17 -84.5t-50 -73.5q-24 -28 -37.5 -50t-18.5 -50l-3 -17q55 -8 99.5 -33t66.5 -61l83 469h85zM178 395
q-11 10 -28 10q-23 0 -38 -15.5t-15 -39.5q0 -16 10 -25.5t27 -9.5q24 0 39.5 15t15.5 39q0 16 -11 26zM223.5 65q15.5 16 15.5 41q0 17 -11 27.5t-29 10.5q-25 0 -41 -16t-16 -42q0 -17 11 -27t29 -10q26 0 41.5 16z" />
    <glyph glyph-name="uni0E07" unicode="&#xe07;" horiz-adv-x="454" 
d="M398 563q25 -23 25 -62q0 -7 -2 -21l-85 -480h-84l-222 300l56 51l184 -246l49 282q-15 -5 -30 -5q-37 0 -60.5 23t-23.5 59q0 54 35 88t90 34q43 0 68 -23zM340.5 452.5q15.5 15.5 15.5 40.5q0 17 -11 27.5t-28 10.5q-25 0 -40.5 -15.5t-15.5 -40.5q0 -17 11 -27.5
t28 -10.5q25 0 40.5 15.5z" />
    <glyph glyph-name="uni0E08" unicode="&#xe08;" horiz-adv-x="556" 
d="M229 14q-32 24 -31 64l2 121q-16 -8 -37 -8q-36 0 -59 21t-23 54q0 49 32.5 79.5t83.5 30.5q36 0 59 -21t23 -55l-2 -210q0 -15 11 -23.5t29 -8.5q22 0 36 11.5t18 31.5l56 320q1 5 1 16q0 37 -31 58.5t-86 21.5q-59 0 -105 -26.5t-62 -69.5h-85q16 76 86 120.5t174 44.5
q90 0 143 -36.5t53 -97.5q0 -16 -2 -25l-57 -322q-21 -115 -141 -115q-54 0 -86 24zM206 255.5q14 14.5 14 37.5q0 14 -10 23.5t-26 9.5q-22 0 -36.5 -14t-14.5 -37q0 -15 10 -24.5t26 -9.5q23 0 37 14.5z" />
    <glyph glyph-name="uni0E09" unicode="&#xe09;" horiz-adv-x="570" 
d="M472.5 548q55.5 -38 55.5 -101q0 -17 -2 -26l-26 -144q-5 -30 -20 -56.5t-37 -45.5q20 -9 33 -29t13 -43q0 -50 -32.5 -82t-84.5 -32q-41 0 -66 22t-25 57l3 22q-78 -33 -124 -90h-89l22 129q7 32 24 55q-35 0 -57 21t-22 54q0 50 32.5 81.5t83.5 31.5q37 0 61 -20
t24 -52q0 -24 -8.5 -44.5t-25.5 -46.5q-12 -19 -18.5 -32t-9.5 -27l-12 -68q51 52 170 93q27 9 50.5 38.5t29.5 63.5l25 142q2 12 2 16q0 38 -33 60t-90 22q-62 0 -109.5 -26.5t-63.5 -71.5h-85q9 49 45 87t93 59t127 21q91 0 146.5 -38zM167 249.5q14 14.5 14 37.5
q0 15 -10 24.5t-26 9.5q-23 0 -37 -14.5t-14 -37.5q0 -15 10 -24.5t26 -9.5q23 0 37 14.5zM416.5 56.5q15.5 15.5 15.5 40.5q0 16 -11 26t-28 10q-24 0 -39 -15.5t-15 -40.5q0 -16 10.5 -26t27.5 -10q24 0 39.5 15.5z" />
    <glyph glyph-name="uni0E0A" unicode="&#xe0a;" horiz-adv-x="606" 
d="M576.5 516.5q-33.5 -41.5 -66.5 -58.5q44 -19 44 -73q0 -12 -3 -27l-40 -227q-12 -70 -56.5 -105.5t-125.5 -35.5q-71 0 -112 30t-41 84q0 18 2 27l20 111q5 30 20 53t41 52q29 33 43 57.5t14 57.5q0 30 -23 46.5t-58 16.5q-50 0 -82 -25q12 2 17 2q34 0 55 -20.5
t21 -52.5q0 -51 -32.5 -83t-83.5 -32q-37 0 -60.5 26t-23.5 65q0 52 25.5 93t71 64.5t101.5 23.5q64 0 106.5 -31t42.5 -84q0 -44 -15 -73.5t-45 -65.5q-22 -27 -34 -47t-17 -45l-20 -113q-1 -5 -1 -14q0 -26 19 -40t52 -14q81 0 93 68l41 228q2 14 2 19q0 42 -46 58l8 47
q41 16 67.5 48t38.5 84h88q-14 -53 -47.5 -94.5zM183.5 443.5q-10.5 9.5 -27.5 9.5q-24 0 -39 -15t-15 -39q0 -16 10.5 -25.5t27.5 -9.5q24 0 39 15t15 39q0 16 -10.5 25.5z" />
    <glyph glyph-name="uni0E0B" unicode="&#xe0b;" horiz-adv-x="616" 
d="M587.5 516.5q-33.5 -42.5 -67.5 -58.5q44 -18 44 -74q0 -17 -2 -26l-40 -227q-25 -141 -181 -141q-71 0 -112 30t-41 84q0 12 3 27l14 78q6 32 22.5 58.5t44.5 60.5q32 39 48.5 69t16.5 68q0 41 -24 54l-71 -55l-54 53q-35 -22 -54 -68q12 4 28 4q35 0 56.5 -20.5
t21.5 -53.5q0 -51 -30.5 -82t-81.5 -31q-40 0 -64 29t-24 75q0 48 22 93t59.5 78t81.5 45l48 -56l63 56q46 -8 74 -40t28 -74q0 -52 -17.5 -86t-50.5 -72q-26 -31 -39.5 -52.5t-18.5 -51.5l-15 -83q-1 -5 -1 -15q0 -25 18.5 -39t51.5 -14q39 0 62.5 17.5t29.5 50.5l40 228
q2 16 2 23q0 21 -10 34t-32 20l8 47q42 17 66.5 49t35.5 83h88q-13 -52 -46.5 -94.5zM178 395q-11 10 -28 10q-23 0 -38 -15.5t-15 -39.5q0 -16 10 -25.5t27 -9.5q24 0 39.5 15t15.5 39q0 16 -11 26z" />
    <glyph glyph-name="uni0E0C" unicode="&#xe0c;" horiz-adv-x="807" 
d="M790 576l-101 -576h-77q-13 28 -45 58t-71 50q-1 -53 -34 -85.5t-86 -32.5q-41 0 -67 24.5t-26 64.5q0 43 29 75.5t75 40.5l33 185q4 19 4 39q0 98 -105 98q-53 0 -95.5 -23.5t-66.5 -66.5q79 -12 108 -51l-3 -17q-40 -12 -66 -39t-33 -65l-11 -62q5 1 14 1
q36 0 58.5 -23t22.5 -59q0 -54 -34 -88t-88 -34q-40 0 -65.5 23.5t-25.5 61.5q0 33 23 64l20 113q8 40 32 69t61 43q-43 15 -104 17q11 60 48.5 106.5t93.5 72.5t122 26q84 0 131.5 -41.5t47.5 -113.5q0 -23 -4 -43l-35 -196q42 -14 84 -39.5t68 -52.5l83 476h85zM420.5 64
q15.5 16 15.5 41q0 16 -11 26t-29 10q-25 0 -40.5 -15.5t-15.5 -40.5q0 -17 11 -27t29 -10q25 0 40.5 16zM178 129q-11 10 -29 10q-24 0 -39.5 -16t-15.5 -41q0 -16 11 -26.5t28 -10.5q25 0 40.5 16t15.5 41q0 17 -11 27z" />
    <glyph glyph-name="uni0E0D" unicode="&#xe0d;" horiz-adv-x="830" 
d="M814 576l-80 -450q-12 -65 -63 -100.5t-131 -35.5q-73 0 -118.5 30t-45.5 83q0 8 2 24l44 249q3 20 3 36q0 50 -29 77.5t-83 27.5q-51 0 -92 -24t-64 -67q35 -4 64.5 -18t43.5 -32l-3 -18q-40 -12 -66 -39t-33 -64l-12 -69q15 5 30 5q38 0 61.5 -22t23.5 -57
q0 -54 -35 -88t-91 -34q-42 0 -67 23t-25 62q0 7 2 21l28 156q7 37 31.5 67t60.5 45q-42 14 -104 17q18 94 87 149.5t171 55.5q89 0 139 -42.5t50 -116.5q0 -23 -4 -43l-46 -257q-1 -4 -1 -12q0 -26 23 -41t60 -15q42 0 70.5 18t34.5 50l80 449h84zM199 127q-11 10 -29 10
q-25 0 -40.5 -15.5t-15.5 -40.5q0 -17 11 -27t29 -10q25 0 40.5 15.5t15.5 40.5q0 17 -11 27zM574 -166q39 40 53 113h76q-18 -96 -77 -152t-151 -56q-69 0 -112.5 30.5t-43.5 76.5t27 74.5t71 28.5q36 0 59 -18t23 -47q0 -30 -13.5 -52.5t-37.5 -32.5q15 -5 32 -5
q55 0 94 40zM380.5 -164q8.5 -8 21.5 -8q20 0 32.5 13t12.5 34q0 13 -9 21t-23 8q-19 0 -31 -13t-12 -34q0 -13 8.5 -21z" />
    <glyph glyph-name="uni0E0E" unicode="&#xe0e;" horiz-adv-x="612" 
d="M515 542.5q51 -43.5 51 -117.5q0 -22 -4 -41l-123 -700h-82q-12 31 -45.5 61.5t-76.5 52.5q-23 -56 -60.5 -86t-86.5 -30q-43 0 -69.5 19.5t-26.5 55.5q0 53 43 86.5t111 33.5q25 0 57 -8q12 24 25 40t31 27l46 -24q-16 -11 -27.5 -25t-22.5 -38q34 -16 64 -37.5
t50 -44.5l108 609q3 17 3 32q0 51 -31.5 80t-85.5 29q-53 0 -96.5 -24t-66.5 -67q35 -4 65.5 -18t44.5 -32l-3 -18q-48 -13 -68.5 -49t-20.5 -106v-26q0 -95 -32.5 -141t-101.5 -46q-40 0 -65 22.5t-25 58.5q0 55 33.5 89t86.5 34q14 0 27 -5q-1 11 -1 35q0 47 20.5 85.5
t54.5 54.5q-34 14 -106 17q12 61 49 107.5t93.5 72t123.5 25.5q89 0 140 -43.5zM130.5 60.5q15.5 15.5 15.5 40.5q0 17 -11 27.5t-28 10.5q-25 0 -40.5 -15.5t-15.5 -40.5q0 -17 11 -27.5t28 -10.5q25 0 40.5 15.5zM144 -246q20 20 38 64q-30 7 -49 7q-35 0 -56 -16t-21 -42
q0 -16 11 -24.5t31 -8.5q26 0 46 20z" />
    <glyph glyph-name="uni0E0F" unicode="&#xe0f;" horiz-adv-x="612" 
d="M515 543q51 -43 51 -118q0 -22 -4 -41l-124 -700h-81l-61 92l-77 -92q-32 54 -54 81q-16 -41 -48 -64.5t-73 -23.5q-42 0 -65.5 20.5t-23.5 55.5q0 50 37 83.5t92 33.5q24 0 48 -7q20 50 74 77l43 -28q-53 -31 -68 -78q27 -22 51 -66l73 84l64 -86l107 610q3 17 3 32
q0 52 -31 80.5t-86 28.5q-52 0 -96 -24.5t-67 -66.5q36 -5 65.5 -18t44.5 -32l-3 -18q-47 -13 -67.5 -49t-20.5 -106v-26q0 -95 -33 -141t-102 -46q-40 0 -65 22.5t-25 58.5q0 55 33.5 89t86.5 34q15 0 28 -5q-2 26 -2 35q0 47 20 85t55 55q-38 14 -106 17q12 61 49 107.5
t93.5 72t123.5 25.5q90 0 141 -43zM130.5 60.5q15.5 15.5 15.5 40.5q0 17 -11 27.5t-29 10.5q-25 0 -40.5 -15.5t-15.5 -40.5q0 -17 11 -27.5t29 -10.5q25 0 40.5 15.5zM94.5 -251q16.5 18 24.5 58q-19 10 -42 10q-28 0 -45.5 -15t-17.5 -40q0 -31 38 -31q26 0 42.5 18z" />
    <glyph glyph-name="uni0E10" unicode="&#xe10;" horiz-adv-x="539" 
d="M199 507.5q-22 -15.5 -31 -40.5q68 -9 134.5 -24.5t99.5 -29.5q35 -15 53.5 -36.5t18.5 -47.5q0 -9 -1 -13l-35 -198q-10 -61 -52 -94.5t-108 -33.5q-61 0 -97.5 28t-36.5 76q0 8 2 24l9 51q-14 -2 -22 -2q-35 0 -57 21t-22 54q0 49 33 80.5t86 31.5q37 0 59 -21t22 -56
q0 -6 -2 -20l-24 -137q-1 -5 -1 -15q0 -22 14 -34t39 -12q29 0 48.5 16t24.5 45l32 178q1 3 1 9q0 28 -39 46q-37 16 -118 33.5t-162 25.5q11 80 61.5 127t118.5 47q38 0 128 -22q52 -13 63 -13q16 0 28.5 10.5t18.5 27.5l61 -14q-16 -42 -45.5 -66t-67.5 -24q-25 0 -91 19
q-8 2 -42.5 10.5t-53.5 8.5q-25 0 -47 -15.5zM181 233.5q14 14.5 14 36.5q0 14 -9.5 23.5t-25.5 9.5q-23 0 -37.5 -14t-14.5 -36q0 -15 10.5 -24.5t26.5 -9.5q22 0 36 14.5zM372 -87.5q19 -15.5 19 -41.5q0 -8 -1 -12l-30 -169h-75l-50 38l-76 -39q-28 53 -52 77
q-20 -39 -47.5 -60.5t-73.5 -21.5q-35 0 -55.5 18t-20.5 46q0 43 35.5 70t90.5 27q24 0 48 -7q12 33 26.5 55.5t38.5 34.5l44 -28q-21 -12 -35 -33t-29 -55q26 -22 54 -67l65 31l51 -38l9 54q-1 -1 -15 -1q-28 0 -45 15.5t-17 40.5q0 36 25.5 58.5t65.5 22.5q31 0 50 -15.5z
M320.5 -160.5q9.5 10.5 9.5 26.5q0 11 -6.5 17.5t-16.5 6.5q-16 0 -25.5 -10t-9.5 -27q0 -11 7 -17.5t17 -6.5q15 0 24.5 10.5zM41 -250q14 14 26 42q-18 6 -39 6q-26 0 -42 -10t-16 -27q0 -11 9 -18t24 -7q24 0 38 14z" />
    <glyph glyph-name="uni0E11" unicode="&#xe11;" horiz-adv-x="708" 
d="M676 506q0 -16 -3 -36l-83 -470h-85l85 480q1 5 1 14q0 11 -4.5 16.5t-16.5 5.5t-21 -8.5t-18 -24.5l-268 -483h-95l37 209q6 34 22.5 63.5t44.5 66.5q30 40 45 69.5t15 62.5t-29 48l-62 -55l-53 53q-35 -22 -54 -68q12 4 28 4q35 0 56.5 -20.5t21.5 -53.5
q0 -50 -30.5 -81.5t-78.5 -31.5q-40 0 -65.5 28.5t-25.5 74.5q0 48 21 93.5t57.5 78.5t80.5 45l48 -56l58 56q55 -8 80 -33t25 -68q0 -39 -15 -71.5t-46 -76.5q-24 -35 -38.5 -61.5t-19.5 -56.5q-12 -67 -27 -121l54 122l149 275q24 45 54.5 68t72.5 23q82 0 82 -80z
M178 395q-11 10 -28 10q-23 0 -38 -15.5t-15 -39.5q0 -16 10 -25.5t27 -9.5q24 0 39.5 15t15.5 39q0 16 -11 26z" />
    <glyph glyph-name="uni0E12" unicode="&#xe12;" horiz-adv-x="831" 
d="M815 576l-102 -576h-79q-9 30 -38 62t-66 50q-2 -55 -36 -88.5t-89 -33.5q-40 0 -64.5 23t-24.5 61q0 43 29 76t75 44l34 189q4 20 4 42q0 59 -38 88l-103 -75l-83 77q-39 -23 -64.5 -70.5t-25.5 -114.5q0 -23 4 -75q4 -54 4 -79q0 -18 -4 -50q14 15 62 52q33 23 52 42
q-26 3 -42.5 21.5t-16.5 45.5q0 47 30 76t78 29q34 0 55.5 -20.5t21.5 -52.5q0 -33 -17 -61t-42.5 -51t-68.5 -55q-58 -44 -90 -77t-42 -75h-82l23 129q2 14 2 27q0 28 -5 75q-5 78 -5 96q0 67 26 123t68.5 91t90.5 45l77 -78l99 78q52 -8 85.5 -52.5t33.5 -106.5
q0 -12 -4 -40l-34 -196q40 -10 79 -33.5t64 -54.5l84 473h85zM263 271.5q10 -9.5 26 -9.5q23 0 37 14.5t14 36.5q0 15 -10 24.5t-26 9.5q-22 0 -36.5 -14t-14.5 -37q0 -15 10 -24.5zM453.5 63.5q15.5 15.5 15.5 40.5q0 16 -11 26.5t-28 10.5q-25 0 -40.5 -15.5t-15.5 -40.5
q0 -16 11 -26.5t28 -10.5q25 0 40.5 15.5z" />
    <glyph glyph-name="uni0E13" unicode="&#xe13;" horiz-adv-x="831" 
d="M742.5 225q-14.5 -25 -34.5 -39q23 -9 37.5 -29.5t14.5 -44.5q0 -54 -34.5 -88t-89.5 -34q-39 0 -63.5 23t-24.5 60l2 21q-66 -31 -113 -94h-86l67 380q4 19 4 40q0 48 -26 72.5t-76 24.5q-53 0 -96.5 -24t-66.5 -67q81 -12 108 -50l-3 -18q-41 -14 -66.5 -40t-32.5 -63
l-12 -68q18 4 30 4q38 0 61.5 -22t23.5 -57q0 -54 -35 -88t-91 -34q-42 0 -67 23t-25 62q0 7 2 21l28 156q8 40 31.5 68.5t60.5 43.5q-41 14 -104 17q12 60 49 106.5t93 72.5t122 26q84 0 130 -40.5t46 -112.5q0 -24 -4 -45l-52 -295q46 43 108 70q62 28 88 54t33 67l52 292
h84l-52 -295q-6 -31 -20.5 -56zM684.5 60.5q15.5 15.5 15.5 40.5q0 17 -11 27.5t-28 10.5q-25 0 -41 -15.5t-16 -40.5q0 -17 11 -27.5t29 -10.5q25 0 40.5 15.5zM199 127q-11 10 -29 10q-25 0 -40.5 -15.5t-15.5 -40.5q0 -17 11 -27t29 -10q25 0 40.5 15.5t15.5 40.5
q0 17 -11 27z" />
    <glyph glyph-name="uni0E14" unicode="&#xe14;" horiz-adv-x="592" 
d="M487.5 541.5q57.5 -44.5 57.5 -121.5q0 -16 -3 -36l-68 -384h-85l66 377q3 17 3 32q0 52 -33.5 80t-91.5 28q-84 0 -135.5 -49.5t-51.5 -129.5q0 -23 4 -75q4 -50 4 -71q0 -19 -7 -59q22 25 86 76l33 27q-28 4 -45 24t-17 46q0 47 28.5 76t76.5 29q34 0 57 -20.5
t23 -52.5q0 -33 -16.5 -61.5t-40.5 -51.5t-66 -57q-60 -50 -92.5 -85.5t-45.5 -82.5h-84l25 140q2 16 2 28q0 18 -4 70q-5 75 -5 91q0 79 35.5 137t97.5 89t140 31q95 0 152.5 -44.5zM263 289.5q10 -9.5 26 -9.5q23 0 37 14.5t14 37.5q0 14 -10 23.5t-26 9.5
q-22 0 -36.5 -14t-14.5 -37q0 -15 10 -24.5z" />
    <glyph glyph-name="uni0E15" unicode="&#xe15;" horiz-adv-x="607" 
d="M529.5 536q31.5 -41 31.5 -104q0 -24 -4 -45l-68 -387h-85l68 383q4 21 4 46q0 57 -37 84l-114 -75l-91 77q-43 -26 -66 -71.5t-23 -104.5q0 -34 5 -77q4 -50 4 -73q0 -24 -9 -67q17 17 43.5 39t56.5 45q2 1 23 17q-26 3 -43 22t-17 46q0 47 28.5 76t76.5 29
q34 0 56.5 -20.5t22.5 -52.5t-16.5 -59.5t-41.5 -49.5t-67 -54q-61 -47 -94 -80.5t-45 -79.5h-84l25 140q2 14 2 26q0 18 -4 70q-6 60 -6 91q0 99 51.5 170.5t136.5 88.5l84 -77l111 77q54 -9 85.5 -50zM266.5 274.5q10.5 -9.5 26.5 -9.5q22 0 36 14.5t14 36.5
q0 15 -9.5 24.5t-25.5 9.5q-23 0 -37.5 -14t-14.5 -37q0 -15 10.5 -24.5z" />
    <glyph glyph-name="uni0E16" unicode="&#xe16;" horiz-adv-x="581" 
d="M482 542q53 -44 53 -119q0 -11 -4 -39l-68 -384h-84l66 376q3 17 3 30q0 52 -32.5 81.5t-88.5 29.5q-54 0 -101 -25t-69 -66q35 -4 64.5 -18t43.5 -32l-3 -18q-40 -12 -66 -39t-33 -64l-12 -68q18 4 30 4q38 0 61.5 -22t23.5 -57q0 -54 -35 -88t-91 -34q-42 0 -67 23
t-25 62q0 7 2 21l28 156q7 37 31.5 67t60.5 45q-43 14 -104 17q12 61 50 107.5t96 72t127 25.5q90 0 143 -44zM199 127q-11 10 -29 10q-25 0 -40.5 -15.5t-15.5 -40.5q0 -17 11 -27t29 -10q25 0 40.5 15.5t15.5 40.5q0 17 -11 27z" />
    <glyph glyph-name="uni0E17" unicode="&#xe17;" horiz-adv-x="657" 
d="M600 563.5q24 -22.5 24 -66.5q0 -16 -3 -34l-82 -463h-85l82 462q2 14 2 19q0 32 -26 32q-15 0 -25.5 -7t-18.5 -23l-270 -483h-89l68 387q-15 -5 -29 -5q-37 0 -61 23t-24 59q0 54 35 88t91 34q42 0 67 -23t25 -62q0 -7 -2 -21l-46 -262q-4 -23 -9 -42.5t-17 -59.5
l47 106l149 274q25 46 56 68t71 22q46 0 70 -22.5zM130 447.5q11 -10.5 28 -10.5q25 0 41 15.5t16 40.5q0 17 -11 27.5t-29 10.5q-25 0 -40.5 -15.5t-15.5 -40.5q0 -17 11 -27.5z" />
    <glyph glyph-name="uni0E18" unicode="&#xe18;" horiz-adv-x="542" 
d="M101 19.5q-50 29.5 -50 80.5q0 5 2 19l36 206h84l-36 -205q-1 -3 -1 -9q0 -25 26.5 -38.5t75.5 -13.5q53 0 85 16t37 45l31 172q1 4 1 11q0 16 -12 28t-42 22q-40 13 -116.5 27.5t-147.5 20.5q17 88 69 136.5t125 48.5q26 0 52.5 -5.5t65.5 -16.5q7 -2 30 -8t36 -6
q17 0 30 10t20 27l60 -15q-19 -43 -48 -66t-63 -23q-27 0 -89 17q-7 2 -40 9.5t-55 7.5q-31 0 -55 -17t-32 -43q66 -8 132 -22t102 -29q66 -26 66 -80q0 -10 -1 -15l-34 -192q-11 -62 -65.5 -95.5t-143.5 -33.5q-85 0 -135 29.5z" />
    <glyph glyph-name="uni0E19" unicode="&#xe19;" horiz-adv-x="637" 
d="M547.5 224q-14.5 -25 -34.5 -38q23 -9 38 -29.5t15 -43.5q0 -55 -35 -89t-91 -34q-38 0 -62.5 23t-24.5 60q0 9 3 25q-45 -17 -87 -42.5t-71 -55.5h-89l68 387q-15 -5 -29 -5q-37 0 -61 23t-24 59q0 54 35 88t91 34q42 0 67 -23t25 -62q0 -7 -2 -21l-70 -396
q29 28 123 69q59 26 89.5 44.5t44.5 38t19 48.5l51 292h85l-52 -295q-7 -32 -21.5 -57zM130 447.5q11 -10.5 28 -10.5q25 0 41 15.5t16 40.5q0 17 -11 27.5t-29 10.5q-25 0 -40.5 -15.5t-15.5 -40.5q0 -17 11 -27.5zM490 60.5q16 15.5 16 40.5q0 17 -11 27.5t-29 10.5
q-24 0 -39.5 -15.5t-15.5 -40.5q0 -16 11 -27t27 -11q25 0 41 15.5z" />
    <glyph glyph-name="uni0E1A" unicode="&#xe1a;" horiz-adv-x="645" 
d="M629 576l-80 -451q-11 -64 -71 -99.5t-155 -35.5q-91 0 -142.5 31t-51.5 84q0 6 2 20l46 262q-15 -5 -29 -5q-37 0 -61 23t-24 59q0 54 35 88t91 34q42 0 67 -23t25 -62q0 -7 -2 -21l-61 -346q-1 -4 -1 -11q0 -30 29.5 -47t82.5 -17q57 0 94 20.5t43 54.5l78 442h85z
M199 452.5q16 15.5 16 40.5q0 17 -11 27.5t-29 10.5q-25 0 -40.5 -15.5t-15.5 -40.5q0 -17 11 -27.5t28 -10.5q25 0 41 15.5z" />
    <glyph glyph-name="uni0E1B" unicode="&#xe1b;" horiz-adv-x="655" 
d="M681 813l-122 -688q-11 -64 -72 -99.5t-159 -35.5q-91 0 -145 31.5t-54 84.5q0 5 2 19l46 262q-15 -5 -29 -5q-37 0 -61 23t-24 59q0 54 35 88t91 34q42 0 67 -23t25 -62q0 -7 -2 -21l-61 -346q-1 -3 -1 -10q0 -29 31.5 -47t85.5 -18q60 0 98 20t44 55l120 679h85z
M199 452.5q16 15.5 16 40.5q0 17 -11 27.5t-29 10.5q-25 0 -40.5 -15.5t-15.5 -40.5q0 -17 11 -27.5t28 -10.5q25 0 41 15.5z" />
    <glyph glyph-name="uni0E1C" unicode="&#xe1c;" horiz-adv-x="622" 
d="M606 576l-102 -576h-84l-111 223l-190 -223h-93l85 480q8 47 43.5 76.5t82.5 29.5q40 0 65 -22.5t25 -58.5q0 -55 -34 -89t-87 -34q-11 0 -27 4l-47 -267l155 178h60l93 -178l81 457h85zM191 515.5q-16 -15.5 -16 -40.5q0 -17 11 -27.5t29 -10.5q25 0 40.5 15.5
t15.5 40.5q0 17 -11 27.5t-28 10.5q-25 0 -41 -15.5z" />
    <glyph glyph-name="uni0E1D" unicode="&#xe1d;" horiz-adv-x="622" 
d="M647 813l-143 -813h-84l-111 223l-190 -223h-93l85 480q8 47 43.5 76.5t82.5 29.5q40 0 65 -22.5t25 -58.5q0 -55 -34 -89t-87 -34q-11 0 -27 4l-47 -267l155 178h60l93 -178l122 694h85zM191 515.5q-16 -15.5 -16 -40.5q0 -17 11 -27.5t29 -10.5q25 0 40.5 15.5
t15.5 40.5q0 17 -11 27.5t-28 10.5q-25 0 -41 -15.5z" />
    <glyph glyph-name="uni0E1E" unicode="&#xe1e;" horiz-adv-x="720" 
d="M704 576l-102 -576h-93l-69 472l-237 -472h-93l68 387q-15 -5 -30 -5q-37 0 -61 23t-24 59q0 54 35 88t91 34q42 0 67 -23t25 -62q0 -7 -2 -21l-47 -266q-7 -34 -19 -82l36 86l169 354h69l54 -354l6 -86q3 48 9 82l64 362h84zM199 452.5q16 15.5 16 40.5q0 17 -11 27.5
t-29 10.5q-25 0 -40.5 -15.5t-15.5 -40.5q0 -17 11 -27.5t28 -10.5q25 0 41 15.5z" />
    <glyph glyph-name="uni0E1F" unicode="&#xe1f;" horiz-adv-x="720" 
d="M746 813l-144 -813h-93l-69 472l-237 -472h-93l68 387q-15 -5 -30 -5q-37 0 -61 23t-24 59q0 54 35 88t91 34q42 0 67 -23t25 -62q0 -7 -2 -21l-47 -266q-7 -34 -19 -82l36 86l169 354h69l54 -354l6 -86q3 48 9 82l106 599h84zM199 452.5q16 15.5 16 40.5q0 17 -11 27.5
t-29 10.5q-25 0 -40.5 -15.5t-15.5 -40.5q0 -17 11 -27.5t28 -10.5q25 0 41 15.5z" />
    <glyph glyph-name="uni0E20" unicode="&#xe20;" horiz-adv-x="616" 
d="M517.5 543q52.5 -43 52.5 -119q0 -12 -4 -40l-68 -384h-85l66 376q3 17 3 32q0 52 -32.5 80.5t-86.5 28.5q-52 0 -96.5 -24.5t-67.5 -66.5q36 -5 66 -18.5t44 -31.5l-3 -18q-47 -13 -68 -49t-21 -106v-26q0 -103 -34.5 -145t-99.5 -42q-40 0 -65 22.5t-25 58.5
q0 55 33.5 89t86.5 34q15 0 28 -5q-2 22 -2 35q0 54 22 89.5t53 50.5q-41 14 -106 17q11 60 48.5 106.5t94 72.5t124.5 26q90 0 142.5 -43zM130.5 60.5q15.5 15.5 15.5 40.5q0 17 -11 27.5t-29 10.5q-25 0 -40.5 -15.5t-15.5 -40.5q0 -17 11 -27.5t29 -10.5q25 0 40.5 15.5z
" />
    <glyph glyph-name="uni0E21" unicode="&#xe21;" horiz-adv-x="614" 
d="M597 576l-101 -576h-80q-37 37 -84.5 67t-90.5 44q-2 -55 -38 -88t-93 -33q-41 0 -68.5 25.5t-27.5 63.5q0 56 37 90.5t96 34.5q7 0 10 -1l33 184q-15 -5 -30 -5q-37 0 -60.5 22.5t-23.5 58.5q0 55 35 89t91 34q42 0 66.5 -23t24.5 -61q0 -6 -2 -22l-51 -291
q50 -17 101 -44t85 -56l86 487h85zM143 447.5q11 -10.5 28 -10.5q25 0 41 15.5t16 40.5q0 17 -11.5 27.5t-29.5 10.5q-24 0 -39.5 -15.5t-15.5 -40.5q0 -17 11 -27.5zM157 64.5q17 16.5 17 42.5q0 17 -12 27.5t-31 10.5q-25 0 -41 -16t-16 -42q0 -17 11 -28t29 -11
q26 0 43 16.5z" />
    <glyph glyph-name="uni0E22" unicode="&#xe22;" horiz-adv-x="572" 
d="M555 576l-77 -438q-12 -70 -75 -109t-163 -39q-93 0 -146.5 33.5t-53.5 90.5q0 16 2 24l12 66q6 34 28 60.5t55 40.5q-26 13 -40 39t-14 62q0 80 43.5 130t112.5 50q38 0 62 -20.5t24 -52.5q0 -48 -31 -78t-80 -30q-32 0 -51 17q-1 -5 -1 -14q0 -31 16.5 -50.5
t44.5 -19.5h94l-12 -68h-95q-26 0 -46 -18.5t-25 -47.5l-11 -60q-1 -5 -1 -14q0 -33 31.5 -52t87.5 -19q61 0 101 23t47 62l76 432h85zM198 524q-15 -15 -15 -38q0 -16 10 -25.5t27 -9.5q23 0 38 15t15 38q0 16 -10 25.5t-27 9.5q-23 0 -38 -15z" />
    <glyph glyph-name="uni0E23" unicode="&#xe23;" horiz-adv-x="484" 
d="M189 500.5q-20 -16.5 -27 -43.5q115 -16 180 -49.5t65 -76.5q0 -7 -1 -10l-40 -225q-8 -47 -44 -76.5t-84 -29.5q-40 0 -65 22.5t-25 58.5q0 55 34 89t87 34q16 0 29 -5l21 121q4 28 -65.5 52.5t-192.5 40.5q17 89 61 136t110 47q25 0 48 -5t63 -16q43 -13 56 -13
q12 0 24 10.5t19 27.5l61 -18q-19 -42 -46.5 -65t-57.5 -23q-14 0 -35.5 5t-42.5 11q-23 6 -46 11.5t-39 5.5q-27 0 -47 -16.5zM284.5 60.5q15.5 15.5 15.5 40.5q0 17 -11 27.5t-29 10.5q-25 0 -40.5 -15.5t-15.5 -40.5q0 -17 11 -27.5t29 -10.5q25 0 40.5 15.5z" />
    <glyph glyph-name="uni0E24" unicode="&#xe24;" horiz-adv-x="581" 
d="M482 541.5q53 -44.5 53 -118.5q0 -11 -4 -39l-112 -634h-84l110 626q3 17 3 30q0 52 -32.5 81.5t-88.5 29.5q-54 0 -101 -25t-69 -66q35 -4 64.5 -18t43.5 -32l-3 -18q-40 -12 -66 -39t-33 -64l-12 -68q18 4 30 4q38 0 61.5 -22t23.5 -57q0 -54 -35 -88t-91 -34
q-42 0 -67 23t-25 62q0 7 2 21l28 156q7 37 31.5 67t60.5 45q-43 14 -104 17q12 61 50 107.5t96 72t127 25.5q90 0 143 -44.5zM199 127q-11 10 -29 10q-25 0 -40.5 -15.5t-15.5 -40.5q0 -17 11 -27t29 -10q25 0 40.5 15.5t15.5 40.5q0 17 -11 27z" />
    <glyph glyph-name="uni0E25" unicode="&#xe25;" horiz-adv-x="580" 
d="M481.5 547q55.5 -39 55.5 -105q0 -18 -2 -28l-73 -414h-84l41 229q1 5 1 15q0 39 -34 63.5t-88 24.5q-56 0 -95.5 -26.5t-46.5 -69.5l-8 -46q18 4 29 4q37 0 60.5 -22.5t23.5 -58.5q0 -55 -35 -89t-91 -34q-42 0 -66.5 23t-24.5 61q0 6 2 22l25 140q13 72 75.5 116.5
t150.5 44.5q44 0 84 -16.5t58 -41.5l13 78q1 5 1 15q0 39 -35 62t-95 23q-64 0 -111.5 -26t-64.5 -70h-82q16 75 88 120t176 45q97 0 152.5 -39zM194.5 128.5q-10.5 10.5 -27.5 10.5q-26 0 -42 -15.5t-16 -40.5q0 -17 11.5 -27.5t29.5 -10.5q24 0 39.5 15.5t15.5 40.5
q0 17 -10.5 27.5z" />
    <glyph glyph-name="uni0E26" unicode="&#xe26;" horiz-adv-x="612" 
d="M514.5 543q51.5 -43 51.5 -118q0 -22 -4 -41l-112 -634h-84l110 626q3 17 3 32q0 52 -32 80.5t-85 28.5t-96.5 -24t-66.5 -67q36 -5 66 -18.5t44 -31.5l-3 -18q-47 -13 -68 -49t-21 -106v-26q0 -103 -34.5 -145t-99.5 -42q-40 0 -65 22.5t-25 58.5q0 55 33.5 89t86.5 34
q15 0 28 -5q-2 22 -2 35q0 54 22 89.5t53 50.5q-41 14 -106 17q11 60 48 106.5t93.5 72.5t124.5 26q89 0 140.5 -43zM130.5 60.5q15.5 15.5 15.5 40.5q0 17 -11 27.5t-29 10.5q-25 0 -40.5 -15.5t-15.5 -40.5q0 -17 11 -27.5t29 -10.5q25 0 40.5 15.5z" />
    <glyph glyph-name="uni0E27" unicode="&#xe27;" horiz-adv-x="512" 
d="M421 547.5q49 -38.5 49 -103.5q0 -15 -3 -32l-56 -316q-8 -47 -44 -76.5t-84 -29.5q-40 0 -65 22.5t-25 58.5q0 55 34 89t87 34q15 0 28 -5l38 215q2 18 2 25q0 42 -27 65t-76 23q-51 0 -91.5 -28t-55.5 -74h-85q17 78 82.5 124.5t157.5 46.5q85 0 134 -38.5zM329.5 60.5
q15.5 15.5 15.5 40.5q0 17 -11 27.5t-29 10.5q-25 0 -40.5 -15.5t-15.5 -40.5q0 -17 11 -27.5t29 -10.5q25 0 40.5 15.5z" />
    <glyph glyph-name="uni0E28" unicode="&#xe28;" horiz-adv-x="602" 
d="M526 518q31 -39 31 -90q0 -15 -3 -33l-70 -395h-84l68 387q2 9 2 26q0 29 -11 48q-51 -37 -97 -65q18 -8 28 -24t10 -36q0 -49 -30 -79.5t-78 -30.5q-25 0 -44.5 11.5t-25.5 29.5q-25 -31 -48 -77.5t-29 -85.5l-18 -104h-84l25 143q2 16 2 28q0 18 -4 70q-5 70 -5 87
q0 77 34 135.5t97.5 90.5t148.5 32q77 0 133 -27q29 36 40 73h97q-22 -54 -85 -114zM206 346.5q38 44.5 84 56.5q76 49 129 97q-32 17 -82 17q-92 0 -143 -52t-51 -157v-25q0 -8 0.5 -19.5t-0.5 -26.5q25 65 63 109.5zM335 288.5q14 14.5 14 37.5q0 14 -10 23.5t-26 9.5
q-22 0 -36 -14.5t-14 -36.5q0 -15 9.5 -24.5t25.5 -9.5q23 0 37 14.5z" />
    <glyph glyph-name="uni0E29" unicode="&#xe29;" horiz-adv-x="677" 
d="M588 253l-23 -128q-11 -65 -71.5 -100t-161.5 -35q-94 0 -148.5 31.5t-54.5 85.5q0 6 2 18l46 262q-15 -5 -29 -5q-37 0 -61 23t-24 59q0 54 35 88t91 34q42 0 67 -23t25 -62q0 -7 -2 -21l-61 -346q-1 -3 -1 -10q0 -30 32.5 -47.5t88.5 -17.5q63 0 100.5 19.5t43.5 55.5
l16 88q-23 -4 -49 -4q-67 0 -109.5 30.5t-42.5 78.5q0 46 28.5 75t74.5 29q33 0 53.5 -18t20.5 -47q0 -31 -12.5 -53.5t-34.5 -32.5q17 -5 33 -5q24 0 48 6l52 295h85l-45 -251q43 30 70 71l37 -37q-43 -66 -119 -106zM199 452.5q16 15.5 16 40.5q0 17 -11 27.5t-29 10.5
q-25 0 -40.5 -15.5t-15.5 -40.5q0 -17 11 -27.5t28 -10.5q25 0 41 15.5zM355 316q9 -9 23 -9q20 0 32.5 13t12.5 34q0 14 -9 22.5t-23 8.5q-20 0 -32.5 -13t-12.5 -33q0 -14 9 -23z" />
    <glyph glyph-name="uni0E2A" unicode="&#xe2a;" horiz-adv-x="580" 
d="M512 519q25 -31 25 -77q0 -18 -2 -28l-73 -414h-84l40 222q1 5 1 15q0 39 -34 63.5t-88 24.5q-56 0 -95.5 -26.5t-46.5 -69.5l-7 -39q18 4 29 4q37 0 60.5 -22.5t23.5 -58.5q0 -55 -35 -89t-91 -34q-42 0 -66.5 23t-24.5 61q0 6 2 22l24 133q11 63 60 105t121 53
q80 51 153 115q-33 15 -81 15q-64 0 -111.5 -26t-64.5 -70h-82q16 75 88 120t176 45q79 0 131 -26q35 41 44 72h97q-19 -46 -89 -113zM453 432q0 18 -7 32q-50 -38 -112 -77q34 -6 62 -20.5t42 -34.5l14 85q1 5 1 15zM194.5 128.5q-10.5 10.5 -27.5 10.5q-26 0 -42 -15.5
t-16 -40.5q0 -17 11.5 -27.5t29.5 -10.5q24 0 39.5 15.5t15.5 40.5q0 17 -10.5 27.5z" />
    <glyph glyph-name="uni0E2B" unicode="&#xe2b;" horiz-adv-x="636" 
d="M608.5 440.5q-16.5 -28.5 -45.5 -43.5q14 -22 14 -53q0 -15 -3 -30l-56 -314h-85l56 314q2 14 2 19q0 27 -20 27q-22 0 -50 -38l-237 -322h-75l68 387q-15 -5 -29 -5q-37 0 -61 23t-24 59q0 54 35 88t91 34q42 0 67 -23t25 -62q0 -7 -2 -21l-48 -271q-6 -35 -14.5 -59.5
t-10.5 -30.5l172 238q15 19 28 32t30 20q-20 22 -20 55q0 54 34 88t88 34q38 0 62.5 -22.5t24.5 -58.5t-16.5 -64.5zM130 447.5q11 -10.5 28 -10.5q25 0 41 15.5t16 40.5q0 17 -11 27.5t-29 10.5q-25 0 -40.5 -15.5t-15.5 -40.5q0 -17 11 -27.5zM552 452.5q16 15.5 16 40.5
q0 17 -11 27.5t-29 10.5q-24 0 -39.5 -15.5t-15.5 -40.5q0 -16 11 -27t27 -11q25 0 41 15.5z" />
    <glyph glyph-name="uni0E2C" unicode="&#xe2c;" horiz-adv-x="720" 
d="M691 545q2 -6 2 -20q0 -15 -2 -23l-89 -502h-95l-101 281l-201 -281h-95l68 387q-15 -5 -30 -5q-37 0 -61 23t-24 59q0 54 35 88t91 34q42 0 67 -23t25 -62q0 -7 -2 -21l-49 -279q-6 -33 -21 -88l176 251h63l95 -251q6 58 11 88l36 208q-15 -5 -29 -5q-38 0 -61.5 22.5
t-23.5 58.5q0 55 35 89t91 34q26 0 48 -10q18 15 25 43h89q-22 -58 -73 -96zM612 474.5q16 15.5 16 40.5q0 17 -11 27.5t-29 10.5q-25 0 -40.5 -15.5t-15.5 -40.5q0 -17 11 -27.5t28 -10.5q25 0 41 15.5zM199 452.5q16 15.5 16 40.5q0 17 -11 27.5t-29 10.5
q-25 0 -40.5 -15.5t-15.5 -40.5q0 -17 11 -27.5t28 -10.5q25 0 41 15.5z" />
    <glyph glyph-name="uni0E2D" unicode="&#xe2d;" horiz-adv-x="587" 
d="M488.5 547q55.5 -39 55.5 -106q0 -18 -2 -27l-50 -282q-12 -68 -71 -105t-157 -37q-89 0 -139.5 31.5t-50.5 87.5q0 7 2 23l28 160q8 46 43.5 75.5t82.5 29.5q40 0 65 -22.5t25 -58.5q0 -53 -33.5 -87t-86.5 -34q-12 0 -28 4l-11 -59q-1 -5 -1 -14q0 -33 30.5 -50
t82.5 -17q58 0 93.5 22t42.5 62l48 271q2 12 2 17q0 40 -34.5 63t-93.5 23q-63 0 -111.5 -26t-64.5 -70h-82q17 75 90 120t176 45q94 0 149.5 -39zM184.5 326.5q-15.5 -15.5 -15.5 -39.5q0 -17 11 -27t29 -10q24 0 39.5 15.5t15.5 39.5q0 16 -11 26.5t-28 10.5
q-25 0 -40.5 -15.5z" />
    <glyph glyph-name="uni0E2E" unicode="&#xe2e;" horiz-adv-x="565" 
d="M516 467q3 -13 3 -28t-3 -32l-48 -271q-12 -70 -71.5 -108t-159.5 -38q-92 0 -143 32t-51 90q0 8 2 24l22 124q8 47 43.5 76.5t82.5 29.5q40 0 65 -22.5t25 -58.5q0 -53 -33.5 -87t-86.5 -34q-12 0 -28 4l-5 -28q-1 -5 -1 -13q0 -33 30 -50.5t84 -17.5q61 0 97 22t44 63
l46 261l2 13q-75 -30 -170 -30q-78 0 -123.5 21.5t-45.5 61.5q0 52 57 83.5t154 31.5q60 0 106.5 -15.5t74.5 -44.5q21 26 30 63h80q-21 -73 -79 -122zM197.5 457.5q26.5 -7.5 71.5 -7.5q92 0 154 29q-27 49 -124 49q-55 0 -91.5 -13.5t-36.5 -33.5q0 -16 26.5 -23.5z
M147.5 295.5q-15.5 -15.5 -15.5 -40.5q0 -16 11 -26.5t28 -10.5q25 0 40.5 15.5t15.5 40.5q0 16 -11 26.5t-28 10.5q-25 0 -40.5 -15.5z" />
    <glyph glyph-name="uni0E2F" unicode="&#xe2f;" horiz-adv-x="546" 
d="M496 558q20 -18 20 -51q0 -6 -2 -22l-86 -485h-85l83 470q1 4 1 11q0 12 -6.5 18t-21.5 7q-39 -62 -99 -101.5t-118 -39.5q-53 0 -85.5 26.5t-32.5 70.5q0 56 34 90t90 34q40 0 66.5 -22.5t26.5 -58.5q0 -34 -18 -61q70 31 104 132h71q38 0 58 -18zM204.5 452.5
q15.5 15.5 15.5 40.5q0 17 -11 27.5t-28 10.5q-25 0 -40.5 -15.5t-15.5 -40.5q0 -17 11 -27.5t28 -10.5q25 0 40.5 15.5z" />
    <glyph glyph-name="uni0E30" unicode="&#xe30;" horiz-adv-x="534" 
d="M127.5 354q-47.5 30 -47.5 83q0 55 35 89t91 34q38 0 62.5 -23.5t24.5 -60.5q0 -24 -12.5 -48t-32.5 -38q3 -1 14 -1q70 0 117.5 45.5t64.5 129.5h84q-24 -113 -95 -176.5t-173 -63.5q-85 0 -132.5 30zM218 430.5q15 15.5 15 39.5q0 15 -10.5 24.5t-27.5 9.5
q-23 0 -38 -15.5t-15 -39.5q0 -15 10.5 -24.5t26.5 -9.5q24 0 39 15.5zM75.5 50q-49.5 31 -49.5 82q0 55 35 89t91 34q38 0 62.5 -23.5t24.5 -60.5q0 -25 -12.5 -49t-32.5 -38q3 -1 14 -1q72 3 118.5 48t63.5 128h84q-23 -112 -94.5 -176t-173.5 -64q-81 0 -130.5 31z
M164 124.5q15 15.5 15 39.5q0 16 -10.5 25.5t-27.5 9.5q-23 0 -38 -15.5t-15 -39.5q0 -16 10 -25.5t27 -9.5q24 0 39 15.5z" />
    <glyph glyph-name="uni0E31" unicode="&#xe31;" 
d="M194 919q-13 -71 -54.5 -125.5t-103.5 -84.5t-135 -30q-75 0 -122.5 31.5t-47.5 81.5q0 51 33 83.5t85 32.5q37 0 60 -21.5t23 -56.5q0 -30 -11.5 -54.5t-32.5 -39.5q8 -1 23 -1q79 0 136.5 50.5t73.5 133.5h73zM-205 777q11 -10 29 -10q24 0 39.5 15t15.5 39
q0 16 -11 26.5t-28 10.5q-25 0 -40.5 -15t-15.5 -39q0 -17 11 -27z" />
    <glyph glyph-name="uni0E32" unicode="&#xe32;" horiz-adv-x="485" 
d="M357 426q2 14 2 19q0 34 -23.5 53t-65.5 19q-50 0 -85 -28.5t-43 -75.5h-83q10 79 69 126t149 47q78 0 123.5 -35t45.5 -94q0 -14 -3 -29l-76 -428h-85z" />
    <glyph glyph-name="uni0E33" unicode="&#xe33;" horiz-adv-x="485" 
d="M-119 692q-28 26 -28 67q0 60 38 98.5t98 38.5q46 0 74.5 -26t28.5 -67q0 -60 -38 -98.5t-99 -38.5q-46 0 -74 26zM13.5 740q21.5 22 21.5 55q0 22 -14 35.5t-38 13.5q-30 0 -51.5 -22t-21.5 -55q0 -22 14 -35.5t37 -13.5q31 0 52.5 22zM357 426q2 14 2 19q0 34 -23.5 53
t-65.5 19q-50 0 -85 -28.5t-43 -75.5h-83q10 79 69 126t149 47q79 0 124 -34.5t45 -94.5q0 -14 -3 -29l-76 -428h-85z" />
    <glyph glyph-name="uni0E34" unicode="&#xe34;" 
d="M-154.5 706.5q-91.5 15.5 -180.5 15.5q-61 0 -106 -7q14 82 80.5 131.5t160.5 49.5q97 0 152 -53.5t55 -150.5q0 -20 -1 -30q-69 29 -160.5 44.5zM-109.5 814q-38.5 27 -94.5 27q-50 0 -89 -20t-57 -52q19 2 60 2q63 0 124.5 -10t107.5 -28q-13 54 -51.5 81z" />
    <glyph glyph-name="uni0E35" unicode="&#xe35;" 
d="M7 713l1 -20q0 -9 -2 -31q-69 29 -160.5 44.5t-180.5 15.5q-61 0 -106 -7q14 82 80.5 131.5t160.5 49.5q103 0 157 -59l20 115h72zM-165.5 761q61.5 -10 107.5 -28q-13 54 -51.5 81t-94.5 27q-50 0 -89 -20t-57 -52q19 2 60 2q63 0 124.5 -10z" />
    <glyph glyph-name="uni0E36" unicode="&#xe36;" 
d="M54.5 817.5q-24.5 -26.5 -65.5 -28.5q18 -42 18 -98q0 -19 -1 -29q-69 29 -160.5 44.5t-180.5 15.5q-61 0 -106 -7q14 82 80.5 131.5t160.5 49.5q70 0 116 -27q5 35 31 56.5t64 21.5q30 0 49 -17.5t19 -45.5q0 -40 -24.5 -66.5zM22.5 843q12.5 12 12.5 32q0 13 -8.5 21.5
t-22.5 8.5q-20 0 -32.5 -12t-12.5 -32q0 -13 8.5 -21.5t22.5 -8.5q20 0 32.5 12zM-165.5 761q61.5 -10 107.5 -28q-13 54 -51.5 81t-94.5 27q-50 0 -89 -20t-57 -52q19 2 60 2q63 0 124.5 -10z" />
    <glyph glyph-name="uni0E37" unicode="&#xe37;" 
d="M7 713l1 -20q0 -9 -2 -31q-69 29 -160.5 44.5t-180.5 15.5q-61 0 -106 -7q14 82 80.5 131.5t160.5 49.5q25 0 53 -5l10 61h61l-14 -80q33 -17 55 -44l22 124h62zM-165.5 761q61.5 -10 107.5 -28q-13 54 -51.5 81t-94.5 27q-50 0 -89 -20t-57 -52q19 2 60 2
q63 0 124.5 -10z" />
    <glyph glyph-name="uni0E38" unicode="&#xe38;" 
d="M-235 -220q-16 -4 -30 -4q-31 0 -50 18t-19 47q0 44 30 71.5t78 27.5q38 0 60.5 -18.5t22.5 -48.5q0 -10 -1 -15l-33 -188h-78zM-225 -166q12 12 12 31q0 13 -8.5 21t-21.5 8q-19 0 -31 -12t-12 -31q0 -13 8.5 -21t21.5 -8q19 0 31 12z" />
    <glyph glyph-name="uni0E39" unicode="&#xe39;" 
d="M-365.5 -312.5q-28.5 19.5 -28.5 53.5q0 11 1 16l4 23q-22 -4 -29 -4q-30 0 -49 18t-19 47q0 44 28.5 71.5t74.5 27.5q37 0 59 -17.5t22 -46.5q0 -9 -1 -13l-18 -106q-2 -16 7 -25t31 -9q21 0 34 9t16 25l31 178h72l-31 -178q-16 -89 -126 -89q-50 0 -78.5 19.5z
M-378 -166q12 12 12 31q0 13 -8.5 21t-21.5 8q-19 0 -31 -12t-12 -31q0 -13 8.5 -21t21.5 -8q19 0 31 12z" />
    <glyph glyph-name="uni0E3A" unicode="&#xe3a;" 
d="M-223 -156q-13 12 -13 31q0 28 18 46.5t47 18.5q20 0 32.5 -12t12.5 -31q0 -29 -18 -47t-46 -18q-20 0 -33 12z" />
    <glyph glyph-name="uni0E3F" unicode="&#xe3f;" horiz-adv-x="589" 
d="M535 239q0 -113 -66 -175t-190 -64l-14 -80h-79l14 80h-163l123 700h164l12 69h79l-13 -73q79 -10 120.5 -44.5t41.5 -90.5q0 -66 -35.5 -113.5t-102.5 -71.5v-3q109 -32 109 -134zM200 405h116q70 0 112 39t42 104q0 40 -33 59t-102 19h-96zM398.5 117q44.5 43 44.5 117
q0 52 -39.5 76.5t-121.5 24.5h-94l-46 -261h135q77 0 121.5 43z" />
    <glyph glyph-name="uni0E40" unicode="&#xe40;" horiz-adv-x="310" 
d="M242 171q24 -23 24 -59q0 -54 -35 -88t-91 -34q-42 0 -66.5 23t-24.5 61q0 6 2 22l85 480h84l-68 -387q15 5 29 5q37 0 61 -23zM194.5 60.5q15.5 15.5 15.5 40.5q0 17 -11 27.5t-28 10.5q-25 0 -41 -15.5t-16 -40.5q0 -17 11 -27.5t29 -10.5q25 0 40.5 15.5z" />
    <glyph glyph-name="uni0E41" unicode="&#xe41;" horiz-adv-x="579" 
d="M242 171q24 -23 24 -59q0 -54 -35 -88t-91 -34q-42 0 -66.5 23t-24.5 61q0 6 2 22l85 480h84l-68 -387q15 5 29 5q37 0 61 -23zM194.5 60.5q15.5 15.5 15.5 40.5q0 17 -11 27.5t-28 10.5q-25 0 -41 -15.5t-16 -40.5q0 -17 11 -27.5t29 -10.5q25 0 40.5 15.5zM510 171
q24 -23 24 -59q0 -54 -35 -88t-91 -34q-42 0 -66.5 23t-24.5 61q0 6 2 22l85 480h84l-68 -387q15 5 29 5q37 0 61 -23zM462.5 60.5q15.5 15.5 15.5 40.5q0 17 -11 27.5t-28 10.5q-25 0 -41 -15.5t-16 -40.5q0 -17 11 -27.5t29 -10.5q25 0 40.5 15.5z" />
    <glyph glyph-name="uni0E42" unicode="&#xe42;" horiz-adv-x="379" 
d="M471 950q-16 -43 -42 -67.5t-59 -24.5q-19 0 -37 6t-40 17q-26 11 -40.5 16t-30.5 5q-25 0 -44 -12.5t-27 -35.5q153 -46 153 -135q0 -6 -2 -20l-90 -509q18 4 30 4q37 0 60 -23t23 -59q0 -54 -35 -88t-90 -34q-42 0 -67 23t-25 62q0 7 2 21l106 600l1 9q0 26 -24.5 49.5
t-62.5 37.5t-76 16q11 77 59 119.5t109 42.5q28 0 52 -8t52 -21q13 -7 25.5 -11.5t21.5 -4.5q11 0 21 10t16 28zM259 128.5q-11 10.5 -28 10.5q-25 0 -41 -15.5t-16 -40.5q0 -17 11 -27.5t29 -10.5q25 0 40.5 15.5t15.5 40.5q0 17 -11 27.5z" />
    <glyph glyph-name="uni0E43" unicode="&#xe43;" horiz-adv-x="388" 
d="M314.5 171q23.5 -23 23.5 -59q0 -54 -35 -88t-90 -34q-43 0 -68 23t-25 62q0 7 2 21l99 562q7 39 20.5 65.5t34.5 56.5q18 28 26 44t8 38q0 26 -21 42t-55 16q-21 0 -42 -7.5t-37 -20.5h7q32 0 52 -20t20 -52q0 -45 -29.5 -73.5t-75.5 -28.5q-38 0 -61.5 24.5t-23.5 63.5
q0 51 25 91t69.5 62.5t101.5 22.5q68 0 111.5 -32t43.5 -82q0 -33 -9.5 -53.5t-28.5 -45.5q-20 -25 -32 -49.5t-19 -62.5l-82 -467q18 4 30 4q37 0 60.5 -23zM171.5 836.5q-9.5 9.5 -24.5 9.5q-22 0 -35.5 -13.5t-13.5 -35.5q0 -14 9.5 -23.5t24.5 -9.5q22 0 35.5 13.5
t13.5 35.5q0 14 -9.5 23.5zM266.5 60.5q15.5 15.5 15.5 40.5q0 17 -11 27.5t-28 10.5q-25 0 -40.5 -15.5t-15.5 -40.5q0 -17 11 -27.5t28 -10.5q25 0 40.5 15.5z" />
    <glyph glyph-name="uni0E44" unicode="&#xe44;" horiz-adv-x="390" 
d="M315.5 171q23.5 -23 23.5 -59q0 -54 -35 -88t-90 -34q-43 0 -68 23t-25 62q0 7 2 21l137 774l-138 -154l-64 24q8 58 8 188l-1 63h68q1 -17 1 -53q0 -75 -7 -140l158 178h79l-139 -787q15 5 30 5q37 0 60.5 -23zM268 60.5q16 15.5 16 40.5q0 17 -11 27.5t-29 10.5
q-25 0 -40.5 -15.5t-15.5 -40.5q0 -17 11 -27.5t28 -10.5q25 0 41 15.5z" />
    <glyph glyph-name="uni0E45" unicode="&#xe45;" horiz-adv-x="295" 
d="M168 426q2 12 2 19q0 34 -23.5 53t-65.5 19q-51 0 -85.5 -28t-42.5 -76h-83q10 80 69 126.5t149 46.5q78 0 123 -34.5t45 -94.5q0 -14 -3 -29l-120 -678h-84z" />
    <glyph glyph-name="uni0E46" unicode="&#xe46;" horiz-adv-x="621" 
d="M529 531.5q30 -35.5 30 -85.5q0 -15 -3 -32l-117 -664h-85l117 664q3 15 3 28q0 23 -9.5 39.5t-30.5 30.5l-87 -57l-80 57q-24 -13 -42.5 -38.5t-27.5 -56.5q15 6 31 6q41 0 66.5 -23.5t25.5 -60.5q0 -54 -33.5 -88t-90.5 -34q-43 0 -71.5 29.5t-28.5 79.5q0 56 23.5 110
t65 94t93.5 56l76 -57l88 57q57 -19 87 -54.5zM247 355.5q-11 10.5 -28 10.5q-25 0 -40.5 -15.5t-15.5 -40.5q0 -16 11 -26.5t28 -10.5q25 0 40.5 15.5t15.5 40.5q0 16 -11 26.5z" />
    <glyph glyph-name="uni0E47" unicode="&#xe47;" 
d="M-27.5 824q17.5 -16 17.5 -42q0 -41 -28.5 -67t-73.5 -26q-32 0 -67.5 18.5t-60.5 48.5q-18 -9 -41.5 -28.5t-44.5 -43.5q-25 11 -40.5 40.5t-15.5 65.5q0 41 21 73.5t59 51t85 18.5h101q66 0 86 96h66q-13 -73 -55 -114t-105 -41h-109q-34 0 -57 -22.5t-23 -56.5
q0 -21 8 -35q17 18 40 32t45 20q24 -32 58 -57q0 38 24.5 61.5t64.5 23.5q28 0 45.5 -16zM-65 745q11 11 11 27q0 12 -7.5 19.5t-19.5 7.5q-17 0 -27.5 -11t-10.5 -28q0 -11 7.5 -18.5t19.5 -7.5q16 0 27 11z" />
    <glyph glyph-name="uni0E48" unicode="&#xe48;" 
d="M-40 903h80l-38 -214h-80z" />
    <glyph glyph-name="uni0E49" unicode="&#xe49;" 
d="M153 945q-22 -76 -78 -134t-136.5 -90t-174.5 -32h-38l7 40q27 10 54 28.5t47 39.5q-5 -1 -14 -1q-30 0 -48.5 17t-18.5 45q0 44 28.5 71.5t73.5 27.5q32 0 52.5 -19t20.5 -50q0 -34 -23 -74.5t-57 -65.5q79 10 143 65t86 132h76zM-188.5 846.5q8.5 -8.5 22.5 -8.5
q19 0 31.5 12.5t12.5 31.5q0 13 -8.5 21.5t-22.5 8.5q-20 0 -32 -12t-12 -32q0 -13 8.5 -21.5z" />
    <glyph glyph-name="uni0E4A" unicode="&#xe4a;" 
d="M127 934q-13 -74 -51.5 -129.5t-96.5 -85.5t-128 -30l8 45q25 14 43 45t18 62q0 40 -28 49l-69 -44l-55 43q-26 -14 -49 -47q4 1 12 1q29 0 47.5 -17t18.5 -45q0 -41 -26 -66.5t-67 -25.5q-31 0 -50.5 20.5t-19.5 52.5q0 40 19.5 79.5t53 67t71.5 35.5l52 -44l70 44
q38 -5 60 -29.5t22 -61.5q0 -59 -49 -108q44 17 75 65.5t44 123.5h75zM-256 792.5q-8 7.5 -21 7.5q-18 0 -29.5 -11.5t-11.5 -30.5q0 -12 7.5 -19.5t20.5 -7.5q19 0 30.5 11.5t11.5 30.5q0 12 -8 19.5z" />
    <glyph glyph-name="uni0E4B" unicode="&#xe4b;" 
d="M103 774h-88l-15 -85h-76l15 85h-89l10 59h89l15 84h76l-15 -84h88z" />
    <glyph glyph-name="uni0E4C" unicode="&#xe4c;" 
d="M124 973q-7 -42 -34.5 -63.5t-82.5 -40.5l-33 -11q-26 -8 -32 -10q27 -19 27 -55q0 -46 -28.5 -75t-73.5 -29q-36 0 -58.5 20.5t-22.5 52.5q0 48 29.5 77t58 40t93.5 30q40 12 62 25.5t26 38.5h69zM-93.5 748.5q12.5 13.5 12.5 34.5q0 14 -9 22.5t-23 8.5
q-20 0 -32.5 -13.5t-12.5 -34.5q0 -14 9 -22.5t23 -8.5q20 0 32.5 13.5z" />
    <glyph glyph-name="uni0E4D" unicode="&#xe4d;" 
d="M-119 692q-28 26 -28 67q0 60 38 98.5t98 38.5q46 0 74.5 -26t28.5 -67q0 -60 -38 -98.5t-99 -38.5q-46 0 -74 26zM13.5 740q21.5 22 21.5 55q0 22 -14 35.5t-38 13.5q-30 0 -51.5 -22t-21.5 -55q0 -22 14 -35.5t37 -13.5q31 0 52.5 22z" />
    <glyph glyph-name="uni0E4E" unicode="&#xe4e;" 
d="M-187.5 699q-24.5 18 -24.5 50q0 41 31.5 70t81.5 35q-21 16 -21 45q0 44 39.5 72t100.5 28q42 0 74 -16l-26 -47q-28 11 -59 11q-30 0 -47.5 -12.5t-17.5 -33.5q0 -34 67 -46l-26 -42q-21 8 -47 8q-38 0 -61.5 -16t-23.5 -41q0 -17 13.5 -26t38.5 -9q24 0 55 12l-6 -46
q-36 -14 -74 -14q-43 0 -67.5 18z" />
    <glyph glyph-name="uni0E4F" unicode="&#xe4f;" horiz-adv-x="621" 
d="M156 16.5q-48 25.5 -75 71t-27 103.5q0 87 38 155.5t106.5 106.5t155.5 38q61 0 109 -25.5t74.5 -71t26.5 -103.5q0 -87 -38 -155.5t-106 -106.5t-155 -38q-61 0 -109 25.5zM399 69q55 31 85.5 86.5t30.5 126.5q0 72 -47.5 117t-122.5 45q-71 0 -126 -31t-85.5 -86.5
t-30.5 -126.5q0 -72 47.5 -117t123.5 -45q70 0 125 31zM197.5 130q-33.5 32 -33.5 83q0 76 47.5 123.5t123.5 47.5q52 0 85.5 -32t33.5 -82q0 -76 -47.5 -124t-122.5 -48q-53 0 -86.5 32zM377 174.5q33 33.5 33 86.5q0 35 -23 57.5t-60 22.5q-53 0 -86 -33.5t-33 -86.5
q0 -35 23.5 -57.5t60.5 -22.5q52 0 85 33.5z" />
    <glyph glyph-name="uni0E50" unicode="&#xe50;" horiz-adv-x="660" 
d="M162 14.5q-56 24.5 -87.5 68t-31.5 98.5q0 71 41 129t112.5 91t159.5 33q72 0 128.5 -24.5t88 -68t31.5 -98.5q0 -72 -41 -129.5t-112.5 -90.5t-160.5 -33q-72 0 -128 24.5zM411 80.5q52 23.5 81.5 65t29.5 92.5q0 59 -46.5 94t-124.5 35q-63 0 -115 -23.5t-81.5 -65
t-29.5 -92.5q0 -59 46.5 -94t124.5 -35q63 0 115 23.5z" />
    <glyph glyph-name="uni0E51" unicode="&#xe51;" horiz-adv-x="676" 
d="M493 407.5q58 -26.5 90 -74.5t32 -110q0 -66 -32 -134.5t-84 -112.5h-94q57 41 92 106.5t35 128.5q0 71 -48 113.5t-130 42.5q-64 0 -117.5 -26.5t-84 -72.5t-30.5 -102q0 -52 29.5 -83.5t78.5 -31.5q34 0 61 15t42 42q-15 -5 -30 -5q-36 0 -58.5 21.5t-22.5 55.5
q0 50 33.5 81.5t86.5 31.5q40 0 64.5 -25t24.5 -65q0 -56 -30.5 -105.5t-81 -78.5t-108.5 -29q-76 0 -123.5 47t-47.5 123q0 80 40.5 142t113.5 97t166 35q75 0 133 -26.5zM287 159.5q11 -10.5 29 -10.5q26 0 42.5 16t16.5 42q0 18 -11.5 29t-30.5 11q-25 0 -41 -17t-16 -43
q0 -17 11 -27.5z" />
    <glyph glyph-name="uni0E52" unicode="&#xe52;" horiz-adv-x="685" 
d="M610 398.5q27 -35.5 27 -100.5q0 -308 -321 -308q-129 0 -197 44t-68 130q0 24 4 45l51 289q1 3 1 9q0 29 -33 32l13 69h35q72 0 72 -64q0 -16 -2 -25l-56 -319q-3 -15 -3 -29q0 -114 190 -114q120 0 178.5 60t58.5 183q0 71 -39 71q-23 0 -43.5 -21t-27.5 -52h-42
q1 36 -12.5 55.5t-39.5 19.5q-25 0 -46 -17t-32 -44q13 7 33 7q34 0 55 -20.5t21 -52.5q0 -49 -32 -79.5t-83 -30.5q-37 0 -60.5 27t-23.5 70q0 54 22.5 100.5t61 73.5t83.5 27q31 0 52 -15t29 -46q16 30 40.5 45.5t54.5 15.5q52 0 79 -35.5zM323.5 261.5
q-9.5 9.5 -25.5 9.5q-22 0 -36.5 -14t-14.5 -37q0 -15 10 -24.5t26 -9.5q22 0 36 14.5t14 36.5q0 15 -9.5 24.5z" />
    <glyph glyph-name="uni0E53" unicode="&#xe53;" horiz-adv-x="694" 
d="M612 406q30 -28 30 -80q0 -12 -4 -38l-51 -288h-81l51 286q3 15 3 26q0 27 -13.5 41t-39.5 14q-35 0 -60.5 -25.5t-32.5 -65.5l-49 -276h-77l48 271q2 14 2 21q0 33 -19.5 54t-52.5 21q-53 0 -87.5 -41t-50.5 -121l-6 -36q23 18 58 18t57 -22t22 -57q0 -52 -33 -85
t-86 -33q-46 0 -75 37t-29 96q0 88 29.5 159t82 111.5t118.5 40.5q49 0 79 -20.5t41 -59.5q23 39 59.5 59.5t80.5 20.5q56 0 86 -28zM123 121q-16 -16 -16 -41q0 -18 11.5 -29t29.5 -11q26 0 42 16.5t16 42.5q0 17 -11.5 27.5t-29.5 10.5q-26 0 -42 -16z" />
    <glyph glyph-name="uni0E54" unicode="&#xe54;" horiz-adv-x="678" 
d="M450 20q-16 0 -47.5 -5.5t-39.5 -6.5q-94 -18 -140 -18q-81 0 -132 48t-51 124q0 127 85 197t243 75q89 2 121 6t64 16q43 16 76.5 57.5t47.5 94.5h75q-54 -170 -189 -218q-31 -11 -65 -14t-142 -5q-109 -1 -171.5 -56.5t-62.5 -150.5q0 -52 30.5 -81t86.5 -29
q28 0 66.5 4.5t67.5 11.5q-59 14 -95.5 48.5t-36.5 74.5q0 52 34 85.5t87 33.5q38 0 61.5 -21t23.5 -55q0 -35 -21 -65t-55 -42q28 -13 98 -33q52 -15 87 -27.5t65 -31.5l-46 -56q-74 39 -125 39zM376.5 185q15.5 16 15.5 41q0 17 -11 27t-29 10q-25 0 -40.5 -16t-15.5 -41
q0 -17 11 -27t29 -10q25 0 40.5 16z" />
    <glyph glyph-name="uni0E55" unicode="&#xe55;" horiz-adv-x="678" 
d="M184.5 314.5q-62.5 -55.5 -62.5 -150.5q0 -52 30.5 -81t86.5 -29q28 0 66.5 4.5t67.5 11.5q-59 14 -95.5 48.5t-36.5 74.5q0 52 34 85.5t87 33.5q38 0 61.5 -21t23.5 -55q0 -35 -21 -65t-55 -42q28 -13 98 -33q52 -15 87 -27.5t65 -31.5l-46 -56q-74 39 -125 39
q-16 0 -47.5 -5.5t-39.5 -6.5q-94 -18 -140 -18q-81 0 -132 48t-51 124q0 117 73 186t210 83q-9 18 -9 39q0 51 33.5 83.5t86.5 32.5q38 0 62.5 -22.5t24.5 -58.5q0 -32 -21 -63q28 4 53 14q43 16 76.5 57.5t47.5 94.5h75q-54 -170 -189 -218q-31 -11 -65 -14t-142 -5
q-109 -1 -171.5 -56.5zM384 518q-16 -16 -16 -42q0 -17 11 -27.5t29 -10.5q26 0 43 16t17 41q0 17 -12 28t-31 11q-25 0 -41 -16zM307 179q11 -10 29 -10q25 0 40.5 16t15.5 41q0 17 -11 27t-29 10q-25 0 -40.5 -16t-15.5 -41q0 -17 11 -27z" />
    <glyph glyph-name="uni0E56" unicode="&#xe56;" horiz-adv-x="675" 
d="M137.5 22q-55.5 32 -55.5 87q0 53 34 87t87 34q39 0 63.5 -22t24.5 -57q0 -26 -13.5 -51.5t-35.5 -40.5q23 -4 56 -4q71 0 125.5 23.5t84 66t29.5 98.5q0 58 -43 91t-117 33q-62 0 -120 -21.5t-98 -58.5h-51q8 61 8 130q0 125 -32 191h88q22 -65 22 -150q0 -41 -6 -82
q88 58 194 58q71 0 125 -23t83.5 -65t29.5 -97q0 -76 -42 -134.5t-117.5 -91.5t-172.5 -33q-95 0 -150.5 32zM221 97.5q17 16.5 17 42.5q0 18 -12 29.5t-31 11.5q-26 0 -42.5 -17t-16.5 -43q0 -18 11.5 -29t29.5 -11q27 0 44 16.5z" />
    <glyph glyph-name="uni0E57" unicode="&#xe57;" horiz-adv-x="744" 
d="M787 608q-25 -46 -38.5 -98t-30.5 -145l-9 -51q-29 -150 -99 -229t-185 -90l-32 29q43 80 67 152.5t24 120.5q0 33 -12 50.5t-35 17.5q-28 0 -48 -24t-28 -68l-14 -80h-68l14 80q2 16 2 22q0 31 -15 50.5t-40 19.5q-39 0 -68.5 -41.5t-43.5 -115.5q-1 -9 -3 -19t-3 -21
q23 18 57 18q36 0 58.5 -22t22.5 -57q0 -49 -35.5 -83t-87.5 -34q-48 0 -74.5 36.5t-26.5 101.5q0 84 27.5 154.5t75 111t104.5 40.5q38 0 62.5 -21.5t31.5 -60.5q42 82 118 82q53 0 81.5 -32.5t28.5 -91.5q0 -48 -18.5 -110t-49.5 -119q53 26 84.5 77t48.5 139q5 23 13 73
q17 93 30.5 147.5t36.5 90.5h77zM124.5 119.5q-17.5 -17.5 -17.5 -42.5q0 -17 11 -28t30 -11q24 0 42 17.5t18 40.5q0 18 -11.5 29.5t-30.5 11.5q-24 0 -41.5 -17.5z" />
    <glyph glyph-name="uni0E58" unicode="&#xe58;" horiz-adv-x="674" 
d="M177 309.5q-55 -54.5 -55 -153.5q0 -23 4 -42.5t11 -28.5q36 38 70 64.5t82 47.5q14 -55 54 -99t87 -44q19 0 36.5 6t28.5 17q-10 -2 -15 -2q-33 0 -53.5 21t-20.5 54q0 52 31 84.5t82 32.5q40 0 66.5 -24.5t26.5 -63.5q0 -82 -48 -135.5t-132 -53.5q-54 0 -102 30
t-80 87q-17 -8 -53.5 -44t-55.5 -63h-47q-27 23 -41 61t-14 84q0 137 82 213t225 76q23 0 65 -6q34 -4 47 -4q114 0 141 146l7 38h78l-8 -43q-19 -103 -74.5 -157t-144.5 -54q-23 0 -60 5q-10 1 -31.5 3t-34.5 2q-99 0 -154 -54.5zM469.5 133q11.5 -11 29.5 -11
q25 0 41 16.5t16 42.5q0 17 -11 27.5t-29 10.5q-25 0 -41.5 -16t-16.5 -42q0 -17 11.5 -28z" />
    <glyph glyph-name="uni0E59" unicode="&#xe59;" horiz-adv-x="692" 
d="M713 608q-1 -77 -11 -133q-26 -149 -116 -149q-19 0 -31.5 6.5t-27.5 19.5q-8 7 -16 12t-15 5q-27 0 -41 -49q13 -80 52.5 -154.5t91.5 -126.5l-57 -49q-56 59 -101.5 145t-58.5 163q-5 26 -39 46.5t-71 20.5q-66 0 -107 -50t-41 -135q0 -24 8.5 -49.5t21.5 -42.5v2
q0 45 30 73.5t80 28.5q38 0 63 -22.5t25 -57.5q0 -54 -37.5 -88t-99.5 -34q-55 0 -94 26.5t-59 69.5t-20 92q0 77 30 135t84 89.5t124 31.5q41 0 81.5 -16t60.5 -46q5 28 25 45t47 17q16 0 28 -7t28 -21q12 -11 19 -16t16 -5q27 0 45 61t18 152v10h65zM215.5 126
q-16.5 -16 -16.5 -42q0 -18 11.5 -29t29.5 -11q26 0 42.5 16t16.5 42q0 18 -11.5 29t-30.5 11q-25 0 -41.5 -16z" />
    <glyph glyph-name="uni0E5A" unicode="&#xe5a;" horiz-adv-x="767" 
d="M716.5 558q20.5 -18 20.5 -51q0 -6 -2 -22l-86 -485h-84l83 470q1 3 1 9q0 26 -30 27q-53 -87 -122 -119l-69 -387h-85l83 470q1 4 1 11q0 12 -6.5 18t-21.5 7q-39 -62 -99 -101.5t-118 -39.5q-53 0 -85.5 26.5t-32.5 70.5q0 56 34 90t90 34q40 0 66.5 -22.5t26.5 -58.5
q0 -34 -18 -61q70 31 104 132h71q38 0 58 -18t20 -51q0 -6 -2 -22l-4 -22q49 37 78 113h71q37 0 57.5 -18zM204.5 452.5q15.5 15.5 15.5 40.5q0 17 -11 27.5t-28 10.5q-25 0 -40.5 -15.5t-15.5 -40.5q0 -17 11 -27.5t28 -10.5q25 0 40.5 15.5z" />
    <glyph glyph-name="uni0E5B" unicode="&#xe5b;" horiz-adv-x="1020" 
d="M990 286l-9 -50h-109l-26 64l-65 -106h-44l-28 105l-65 -121h-57l-24 109q-18 -77 -61 -137.5t-103.5 -94t-129.5 -33.5q-56 0 -101 24.5t-71 69t-26 101.5q0 87 29.5 153.5t84 103t126.5 36.5q59 0 98.5 -37.5t39.5 -93.5q0 -89 -39.5 -143t-106.5 -54q-35 0 -58.5 21
t-23.5 55q0 45 27 71t71 26q20 0 35.5 -7.5t24.5 -19.5q5 25 5 44q0 32 -22 52t-57 20q-47 0 -83 -28t-56.5 -79t-20.5 -116q0 -61 36 -96.5t94 -35.5q57 0 105.5 29t82 81.5t45.5 119.5l15 86h82l26 -145l60 112h57l25 -99l56 86h50l29 -73h82zM337 242q13 13 13 34
q0 14 -9.5 23t-23.5 9q-21 0 -34.5 -13.5t-13.5 -34.5q0 -14 9.5 -22.5t24.5 -8.5q21 0 34 13z" />
    <glyph glyph-name="uni1E0C" unicode="&#x1e0c;" horiz-adv-x="623" 
d="M160 700h228q110 0 165.5 -59.5t55.5 -176.5q0 -147 -44 -251t-127.5 -158.5t-200.5 -54.5h-200zM260 76q76 0 134 48.5t90.5 135.5t32.5 200q0 83 -37.5 123.5t-114.5 40.5h-126l-97 -548h118zM193.5 -162.5q-12.5 11.5 -12.5 29.5q0 27 17 44t45 17q19 0 31.5 -11.5
t12.5 -29.5q0 -27 -17 -44t-45 -17q-19 0 -31.5 11.5z" />
    <glyph glyph-name="uni1E0D" unicode="&#x1e0d;" horiz-adv-x="542" 
d="M76.5 43.5q-47.5 53.5 -47.5 145.5q0 93 33 166t91.5 114t132.5 41q47 0 84 -20t57 -57h2l54 309h84l-108 -616q-2 -8 -4 -26q-12 -66 -16 -100h-78q5 42 12 79h-2q-30 -41 -74.5 -65t-91.5 -24q-81 0 -128.5 53.5zM331.5 96.5q44.5 38.5 55.5 103.5l16 91q3 20 3 36
q0 55 -30.5 86.5t-84.5 31.5q-49 0 -89.5 -33t-63.5 -90.5t-23 -127.5q0 -65 28 -100.5t80 -35.5q64 0 108.5 38.5zM168.5 -162.5q-12.5 11.5 -12.5 29.5q0 27 17 44t45 17q19 0 31.5 -11.5t12.5 -29.5q0 -27 -17 -44t-45 -17q-19 0 -31.5 11.5z" />
    <glyph glyph-name="uni1E0E" unicode="&#x1e0e;" horiz-adv-x="623" 
d="M160 700h228q110 0 165.5 -59.5t55.5 -176.5q0 -147 -44 -251t-127.5 -158.5t-200.5 -54.5h-200zM260 76q76 0 134 48.5t90.5 135.5t32.5 200q0 83 -37.5 123.5t-114.5 40.5h-126l-97 -548h118zM88 -64h312l-10 -59h-312z" />
    <glyph glyph-name="uni1E0F" unicode="&#x1e0f;" horiz-adv-x="542" 
d="M76.5 43.5q-47.5 53.5 -47.5 145.5q0 93 33 166t91.5 114t132.5 41q47 0 84 -20t57 -57h2l54 309h84l-108 -616q-2 -8 -4 -26q-12 -66 -16 -100h-78q5 42 12 79h-2q-30 -41 -74.5 -65t-91.5 -24q-81 0 -128.5 53.5zM331.5 96.5q44.5 38.5 55.5 103.5l16 91q3 20 3 36
q0 55 -30.5 86.5t-84.5 31.5q-49 0 -89.5 -33t-63.5 -90.5t-23 -127.5q0 -65 28 -100.5t80 -35.5q64 0 108.5 38.5zM63 -64h312l-10 -59h-312z" />
    <glyph glyph-name="uni1E20" unicode="&#x1e20;" horiz-adv-x="636" 
d="M336 362h258l-63 -362h-62l-8 43q-75 -53 -175 -53q-113 0 -178.5 71.5t-65.5 194.5q0 129 48 232.5t133 162.5t190 59q79 0 137 -29.5t76 -79.5l-60 -51q-20 41 -60.5 62.5t-99.5 21.5q-76 0 -137.5 -49t-97 -135t-35.5 -191q0 -95 43 -146t122 -51q45 0 86 13t72 38
l32 181h-167zM281 823h312l-10 -59h-312z" />
    <glyph glyph-name="uni1E21" unicode="&#x1e21;" horiz-adv-x="541" 
d="M524 500l-85 -484q-21 -121 -89 -182.5t-181 -61.5q-52 0 -99 12t-81 34l39 62q71 -36 146 -36q155 0 188 185l8 45q-25 -38 -68 -59.5t-94 -21.5q-83 0 -131 51t-48 140q0 94 32.5 168t90.5 116t132 42q52 0 91 -22t55 -60h2l22 72h70zM405 326q0 57 -29 88t-82 31
q-50 0 -91.5 -33t-65 -90.5t-23.5 -127.5q0 -64 29.5 -98.5t82.5 -34.5q64 0 107 39t55 107l13 76q4 20 4 43zM164 623h312l-10 -59h-312z" />
    <glyph glyph-name="uni1E24" unicode="&#x1e24;" horiz-adv-x="678" 
d="M159 700h92l-54 -308h334l54 308h92l-123 -700h-92l56 316h-334l-56 -316h-92zM232.5 -162.5q-12.5 11.5 -12.5 29.5q0 27 17 44t45 17q19 0 31.5 -11.5t12.5 -29.5q0 -27 -17 -44t-45 -17q-19 0 -31.5 11.5z" />
    <glyph glyph-name="uni1E25" unicode="&#x1e25;" horiz-adv-x="558" 
d="M148 742h85l-57 -320q23 39 72.5 63.5t104.5 24.5q75 0 115.5 -42.5t40.5 -120.5q0 -28 -6 -61l-50 -286h-85l51 287q5 32 5 52q0 52 -23.5 79t-68.5 27q-66 0 -117 -48.5t-65 -123.5l-48 -273h-85zM172.5 -162.5q-12.5 11.5 -12.5 29.5q0 27 17 44t45 17
q19 0 31.5 -11.5t12.5 -29.5q0 -27 -17 -44t-45 -17q-19 0 -31.5 11.5z" />
    <glyph glyph-name="uni1E2A" unicode="&#x1e2a;" horiz-adv-x="678" 
d="M159 700h92l-54 -308h334l54 308h92l-123 -700h-92l56 316h-334l-56 -316h-92zM167.5 -176.5q-32.5 27.5 -32.5 79.5q0 7 2 25h52q-4 -36 16.5 -56t61.5 -20q40 0 67.5 20t36.5 56h56q-13 -64 -56 -98t-110 -34q-61 0 -93.5 27.5z" />
    <glyph glyph-name="uni1E2B" unicode="&#x1e2b;" horiz-adv-x="558" 
d="M148 742h85l-57 -320q23 39 72.5 63.5t104.5 24.5q75 0 115.5 -42.5t40.5 -120.5q0 -28 -6 -61l-50 -286h-85l51 287q5 32 5 52q0 52 -23.5 79t-68.5 27q-66 0 -117 -48.5t-65 -123.5l-48 -273h-85zM107.5 -176.5q-32.5 27.5 -32.5 79.5q0 7 2 25h52q-4 -36 16.5 -56
t61.5 -20q40 0 67.5 20t36.5 56h56q-13 -64 -56 -98t-110 -34q-61 0 -93.5 27.5z" />
    <glyph glyph-name="uni1E36" unicode="&#x1e36;" horiz-adv-x="548" 
d="M159 700h92l-110 -624h338l-13 -76h-430zM186.5 -162.5q-12.5 11.5 -12.5 29.5q0 27 17 44t45 17q19 0 31.5 -11.5t12.5 -29.5q0 -27 -17 -44t-45 -17q-19 0 -31.5 11.5z" />
    <glyph glyph-name="uni1E37" unicode="&#x1e37;" horiz-adv-x="291" 
d="M66 12.5q-23 22.5 -23 65.5q0 16 3 35l111 629h85l-110 -624q-2 -10 -2 -25q0 -21 10 -30t32 -9t52 12l4 -51q-18 -12 -43 -18.5t-51 -6.5q-45 0 -68 22.5zM69.5 -162.5q-12.5 11.5 -12.5 29.5q0 27 17 44t45 17q19 0 31.5 -11.5t12.5 -29.5q0 -27 -17 -44t-45 -17
q-19 0 -31.5 11.5z" />
    <glyph glyph-name="uni1E38" unicode="&#x1e38;" horiz-adv-x="548" 
d="M159 700h92l-110 -624h338l-13 -76h-430zM186.5 -162.5q-12.5 11.5 -12.5 29.5q0 27 17 44t45 17q19 0 31.5 -11.5t12.5 -29.5q0 -27 -17 -44t-45 -17q-19 0 -31.5 11.5zM70 823h312l-10 -59h-312z" />
    <glyph glyph-name="uni1E39" unicode="&#x1e39;" horiz-adv-x="291" 
d="M66 12.5q-23 22.5 -23 65.5q0 16 3 35l111 629h85l-110 -624q-2 -10 -2 -25q0 -21 10 -30t32 -9t52 12l4 -51q-18 -12 -43 -18.5t-51 -6.5q-45 0 -68 22.5zM69.5 -162.5q-12.5 11.5 -12.5 29.5q0 27 17 44t45 17q19 0 31.5 -11.5t12.5 -29.5q0 -27 -17 -44t-45 -17
q-19 0 -31.5 11.5zM65 865h312l-10 -59h-312z" />
    <glyph glyph-name="uni1E3A" unicode="&#x1e3a;" horiz-adv-x="548" 
d="M159 700h92l-110 -624h338l-13 -76h-430zM81 -64h312l-10 -59h-312z" />
    <glyph glyph-name="uni1E3B" unicode="&#x1e3b;" horiz-adv-x="291" 
d="M66 12.5q-23 22.5 -23 65.5q0 16 3 35l111 629h85l-110 -624q-2 -10 -2 -25q0 -21 10 -30t32 -9t52 12l4 -51q-18 -12 -43 -18.5t-51 -6.5q-45 0 -68 22.5zM-36 -64h312l-10 -59h-312z" />
    <glyph glyph-name="uni1E42" unicode="&#x1e42;" horiz-adv-x="798" 
d="M796 700l-123 -700h-90l93 530l-289 -530h-64l-103 530l-93 -530h-90l123 700h104l109 -584l315 584h108zM292.5 -162.5q-12.5 11.5 -12.5 29.5q0 27 17 44t45 17q19 0 31.5 -11.5t12.5 -29.5q0 -27 -17 -44t-45 -17q-19 0 -31.5 11.5z" />
    <glyph glyph-name="uni1E43" unicode="&#x1e43;" horiz-adv-x="839" 
d="M83 374q16 105 17 126h76q-3 -43 -12 -89h3q26 46 71.5 72.5t99.5 26.5q55 0 90 -27.5t40 -74.5q32 52 74.5 77t98.5 25q71 0 110.5 -39.5t39.5 -110.5q0 -21 -5 -51l-54 -309h-84l53 302q4 21 4 43q0 47 -23 72t-67 25q-52 0 -93.5 -40t-52.5 -101l-53 -301h-84l53 298
q5 32 5 51q0 93 -85 93q-33 0 -65.5 -20t-55.5 -53t-30 -71l-53 -298h-84zM311.5 -162.5q-12.5 11.5 -12.5 29.5q0 27 17 44t45 17q19 0 31.5 -11.5t12.5 -29.5q0 -27 -17 -44t-45 -17q-19 0 -31.5 11.5z" />
    <glyph glyph-name="uni1E44" unicode="&#x1e44;" horiz-adv-x="682" 
d="M681 700l-123 -700h-91l-241 557l-98 -557h-92l123 700h97l236 -550l97 550h92zM398.5 765.5q-12.5 11.5 -12.5 29.5q0 27 17 44t45 17q19 0 31.5 -11.5t12.5 -29.5q0 -27 -17 -44t-45 -17q-19 0 -31.5 11.5z" />
    <glyph glyph-name="uni1E45" unicode="&#x1e45;" horiz-adv-x="549" 
d="M82 374q7 41 12 74t6 52h79q-2 -37 -12 -89h3q26 46 74.5 72.5t106.5 26.5q73 0 111 -40t38 -116q0 -35 -7 -71l-50 -283h-85l50 284q6 33 6 60q0 98 -87 98q-64 0 -114.5 -47.5t-63.5 -120.5l-48 -274h-85zM296.5 565.5q-12.5 11.5 -12.5 29.5q0 27 17 44t45 17
q19 0 31.5 -11.5t12.5 -29.5q0 -27 -17 -44t-45 -17q-19 0 -31.5 11.5z" />
    <glyph glyph-name="uni1E46" unicode="&#x1e46;" horiz-adv-x="682" 
d="M681 700l-123 -700h-91l-241 557l-98 -557h-92l123 700h97l236 -550l97 550h92zM234.5 -162.5q-12.5 11.5 -12.5 29.5q0 27 17 44t45 17q19 0 31.5 -11.5t12.5 -29.5q0 -27 -17 -44t-45 -17q-19 0 -31.5 11.5z" />
    <glyph glyph-name="uni1E47" unicode="&#x1e47;" horiz-adv-x="549" 
d="M82 374q7 41 12 74t6 52h79q-2 -37 -12 -89h3q26 46 74.5 72.5t106.5 26.5q73 0 111 -40t38 -116q0 -35 -7 -71l-50 -283h-85l50 284q6 33 6 60q0 98 -87 98q-64 0 -114.5 -47.5t-63.5 -120.5l-48 -274h-85zM167.5 -162.5q-12.5 11.5 -12.5 29.5q0 27 17 44t45 17
q19 0 31.5 -11.5t12.5 -29.5q0 -27 -17 -44t-45 -17q-19 0 -31.5 11.5z" />
    <glyph glyph-name="uni1E48" unicode="&#x1e48;" horiz-adv-x="682" 
d="M681 700l-123 -700h-91l-241 557l-98 -557h-92l123 700h97l236 -550l97 550h92zM129 -64h312l-10 -59h-312z" />
    <glyph glyph-name="uni1E49" unicode="&#x1e49;" horiz-adv-x="549" 
d="M82 374q7 41 12 74t6 52h79q-2 -37 -12 -89h3q26 46 74.5 72.5t106.5 26.5q73 0 111 -40t38 -116q0 -35 -7 -71l-50 -283h-85l50 284q6 33 6 60q0 98 -87 98q-64 0 -114.5 -47.5t-63.5 -120.5l-48 -274h-85zM62 -64h312l-10 -59h-312z" />
    <glyph glyph-name="uni1E5A" unicode="&#x1e5a;" horiz-adv-x="581" 
d="M160 700h209q98 0 151 -38.5t53 -109.5q0 -86 -44.5 -145t-124.5 -78v-2q19 -15 29 -30t15 -37l59 -260h-99l-48 226q-9 43 -30.5 58.5t-72.5 15.5h-75l-53 -300h-92zM313 375q78 0 123.5 43t45.5 117q0 89 -128 89h-115l-44 -249h118zM184.5 -162.5
q-12.5 11.5 -12.5 29.5q0 27 17 44t45 17q19 0 31.5 -11.5t12.5 -29.5q0 -27 -17 -44t-45 -17q-19 0 -31.5 11.5z" />
    <glyph glyph-name="uni1E5B" unicode="&#x1e5b;" horiz-adv-x="350" 
d="M90 378q15 87 18 122h79q-2 -41 -11 -88l-2 -10h3q55 108 179 108q16 0 28 -3l-12 -70q-14 3 -34 3q-42 0 -81.5 -25.5t-67.5 -69.5t-37 -96l-44 -249h-85zM4.5 -162.5q-12.5 11.5 -12.5 29.5q0 27 17 44t45 17q19 0 31.5 -11.5t12.5 -29.5q0 -27 -17 -44t-45 -17
q-19 0 -31.5 11.5z" />
    <glyph glyph-name="uni1E5C" unicode="&#x1e5c;" horiz-adv-x="581" 
d="M160 700h209q98 0 151 -38.5t53 -109.5q0 -86 -44.5 -145t-124.5 -78v-2q19 -15 29 -30t15 -37l59 -260h-99l-48 226q-9 43 -30.5 58.5t-72.5 15.5h-75l-53 -300h-92zM313 375q78 0 123.5 43t45.5 117q0 89 -128 89h-115l-44 -249h118zM184.5 -162.5
q-12.5 11.5 -12.5 29.5q0 27 17 44t45 17q19 0 31.5 -11.5t12.5 -29.5q0 -27 -17 -44t-45 -17q-19 0 -31.5 11.5zM235 823h312l-10 -59h-312z" />
    <glyph glyph-name="uni1E5D" unicode="&#x1e5d;" horiz-adv-x="350" 
d="M90 378q15 87 18 122h79q-2 -41 -11 -88l-2 -10h3q55 108 179 108q16 0 28 -3l-12 -70q-14 3 -34 3q-42 0 -81.5 -25.5t-67.5 -69.5t-37 -96l-44 -249h-85zM4.5 -162.5q-12.5 11.5 -12.5 29.5q0 27 17 44t45 17q19 0 31.5 -11.5t12.5 -29.5q0 -27 -17 -44t-45 -17
q-19 0 -31.5 11.5zM100 623h312l-10 -59h-312z" />
    <glyph glyph-name="uni1E5E" unicode="&#x1e5e;" horiz-adv-x="581" 
d="M160 700h209q98 0 151 -38.5t53 -109.5q0 -86 -44.5 -145t-124.5 -78v-2q19 -15 29 -30t15 -37l59 -260h-99l-48 226q-9 43 -30.5 58.5t-72.5 15.5h-75l-53 -300h-92zM313 375q78 0 123.5 43t45.5 117q0 89 -128 89h-115l-44 -249h118zM79 -64h312l-10 -59h-312z" />
    <glyph glyph-name="uni1E5F" unicode="&#x1e5f;" horiz-adv-x="350" 
d="M90 378q15 87 18 122h79q-2 -41 -11 -88l-2 -10h3q55 108 179 108q16 0 28 -3l-12 -70q-14 3 -34 3q-42 0 -81.5 -25.5t-67.5 -69.5t-37 -96l-44 -249h-85zM-19 -64h312l-10 -59h-312z" />
    <glyph glyph-name="uni1E60" unicode="&#x1e60;" horiz-adv-x="529" 
d="M95 20q-59 30 -84 79l66 56q24 -40 66.5 -64.5t88.5 -24.5q69 0 111.5 35.5t42.5 92.5q0 37 -28 68.5t-90 64.5q-160 85 -160 190q0 57 29 101t82.5 68t123.5 24q69 0 123.5 -30t71.5 -77l-68 -44q-18 35 -52.5 55t-76.5 20q-63 0 -101.5 -30.5t-38.5 -80.5q0 -31 29 -58
t107 -70q143 -77 143 -190q0 -64 -31.5 -112.5t-89 -75.5t-133.5 -27q-72 0 -131 30zM322.5 765.5q-12.5 11.5 -12.5 29.5q0 27 17 44t45 17q19 0 31.5 -11.5t12.5 -29.5q0 -27 -17 -44t-45 -17q-19 0 -31.5 11.5z" />
    <glyph glyph-name="uni1E61" unicode="&#x1e61;" horiz-adv-x="416" 
d="M60 14q-46 24 -57 60l62 38q12 -26 39.5 -41.5t62.5 -15.5q49 0 81 27t32 68q0 27 -18.5 44.5t-66.5 37.5q-67 27 -98.5 59t-31.5 74q0 67 49.5 106t133.5 39q51 0 92.5 -22t55.5 -57l-59 -38q-13 25 -36 38.5t-55 13.5q-42 0 -68.5 -19t-26.5 -49q0 -23 22 -41.5
t76 -40.5q60 -25 88.5 -57t28.5 -74q0 -51 -25 -90.5t-71 -61.5t-106 -22q-58 0 -104 24zM231.5 565.5q-12.5 11.5 -12.5 29.5q0 27 17 44t45 17q19 0 31.5 -11.5t12.5 -29.5q0 -27 -17 -44t-45 -17q-19 0 -31.5 11.5z" />
    <glyph glyph-name="uni1E62" unicode="&#x1e62;" horiz-adv-x="529" 
d="M95 20q-59 30 -84 79l66 56q24 -40 66.5 -64.5t88.5 -24.5q69 0 111.5 35.5t42.5 92.5q0 37 -28 68.5t-90 64.5q-160 85 -160 190q0 57 29 101t82.5 68t123.5 24q69 0 123.5 -30t71.5 -77l-68 -44q-18 35 -52.5 55t-76.5 20q-63 0 -101.5 -30.5t-38.5 -80.5q0 -31 29 -58
t107 -70q143 -77 143 -190q0 -64 -31.5 -112.5t-89 -75.5t-133.5 -27q-72 0 -131 30zM158.5 -162.5q-12.5 11.5 -12.5 29.5q0 27 17 44t45 17q19 0 31.5 -11.5t12.5 -29.5q0 -27 -17 -44t-45 -17q-19 0 -31.5 11.5z" />
    <glyph glyph-name="uni1E63" unicode="&#x1e63;" horiz-adv-x="416" 
d="M60 14q-46 24 -57 60l62 38q12 -26 39.5 -41.5t62.5 -15.5q49 0 81 27t32 68q0 27 -18.5 44.5t-66.5 37.5q-67 27 -98.5 59t-31.5 74q0 67 49.5 106t133.5 39q51 0 92.5 -22t55.5 -57l-59 -38q-13 25 -36 38.5t-55 13.5q-42 0 -68.5 -19t-26.5 -49q0 -23 22 -41.5
t76 -40.5q60 -25 88.5 -57t28.5 -74q0 -51 -25 -90.5t-71 -61.5t-106 -22q-58 0 -104 24zM102.5 -162.5q-12.5 11.5 -12.5 29.5q0 27 17 44t45 17q19 0 31.5 -11.5t12.5 -29.5q0 -27 -17 -44t-45 -17q-19 0 -31.5 11.5z" />
    <glyph glyph-name="uni1E6C" unicode="&#x1e6c;" horiz-adv-x="558" 
d="M300 628h-216l13 72h523l-13 -72h-215l-111 -628h-92zM172.5 -162.5q-12.5 11.5 -12.5 29.5q0 27 17 44t45 17q19 0 31.5 -11.5t12.5 -29.5q0 -27 -17 -44t-45 -17q-19 0 -31.5 11.5z" />
    <glyph glyph-name="uni1E6D" unicode="&#x1e6d;" horiz-adv-x="377" 
d="M111 21q-34 31 -34 87q0 11 4 37l52 289h-90l12 66h90l23 133l85 25h4l-27 -158h142l-12 -66h-142l-49 -276q-4 -26 -4 -35q0 -32 15.5 -48.5t49.5 -16.5q42 0 72 11l-5 -63q-36 -16 -94 -16t-92 31zM125.5 -162.5q-12.5 11.5 -12.5 29.5q0 27 17 44t45 17
q19 0 31.5 -11.5t12.5 -29.5q0 -27 -17 -44t-45 -17q-19 0 -31.5 11.5z" />
    <glyph glyph-name="uni1E6E" unicode="&#x1e6e;" horiz-adv-x="558" 
d="M300 628h-216l13 72h523l-13 -72h-215l-111 -628h-92zM67 -64h312l-10 -59h-312z" />
    <glyph glyph-name="uni1E6F" unicode="&#x1e6f;" horiz-adv-x="377" 
d="M111 21q-34 31 -34 87q0 11 4 37l52 289h-90l12 66h90l23 133l85 25h4l-27 -158h142l-12 -66h-142l-49 -276q-4 -26 -4 -35q0 -32 15.5 -48.5t49.5 -16.5q42 0 72 11l-5 -63q-36 -16 -94 -16t-92 31zM20 -64h312l-10 -59h-312z" />
    <glyph glyph-name="Wgrave" unicode="&#x1e80;" horiz-adv-x="831" 
d="M882 700l-268 -700h-89l-51 574l-252 -574h-93l-23 700h99l-1 -559l244 559h93l46 -557l196 557h99zM398 900h87l52 -146h-68z" />
    <glyph glyph-name="wgrave" unicode="&#x1e81;" horiz-adv-x="668" 
d="M701 500l-213 -500h-77l-49 409l-193 -409h-77l-37 500h87l13 -384l182 384h78l46 -384l149 384h91zM282 700h87l52 -146h-68z" />
    <glyph glyph-name="Wacute" unicode="&#x1e82;" horiz-adv-x="831" 
d="M882 700l-268 -700h-89l-51 574l-252 -574h-93l-23 700h99l-1 -559l244 559h93l46 -557l196 557h99zM578 900h87l-123 -146h-68z" />
    <glyph glyph-name="wacute" unicode="&#x1e83;" horiz-adv-x="668" 
d="M701 500l-213 -500h-77l-49 409l-193 -409h-77l-37 500h87l13 -384l182 384h78l46 -384l149 384h91zM462 700h87l-123 -146h-68z" />
    <glyph glyph-name="Wdieresis" unicode="&#x1e84;" horiz-adv-x="831" 
d="M882 700l-268 -700h-89l-51 574l-252 -574h-93l-23 700h99l-1 -559l244 559h93l46 -557l196 557h99zM372.5 765.5q-12.5 11.5 -12.5 29.5q0 27 17 44t45 17q19 0 31.5 -11.5t12.5 -29.5q0 -27 -17 -44t-45 -17q-19 0 -31.5 11.5zM572 765.5q-12 11.5 -12 30.5q0 26 17 43
t45 17q19 0 31.5 -11.5t12.5 -29.5q0 -27 -17 -44t-45 -17q-20 0 -32 11.5z" />
    <glyph glyph-name="wdieresis" unicode="&#x1e85;" horiz-adv-x="668" 
d="M701 500l-213 -500h-77l-49 409l-193 -409h-77l-37 500h87l13 -384l182 384h78l46 -384l149 384h91zM256.5 565.5q-12.5 11.5 -12.5 29.5q0 27 17 44t45 17q19 0 31.5 -11.5t12.5 -29.5q0 -27 -17 -44t-45 -17q-19 0 -31.5 11.5zM456 565.5q-12 11.5 -12 30.5q0 26 17 43
t45 17q19 0 31.5 -11.5t12.5 -29.5q0 -27 -17 -44t-45 -17q-20 0 -32 11.5z" />
    <glyph glyph-name="uni1E8E" unicode="&#x1e8e;" horiz-adv-x="573" 
d="M245 278l-149 422h100l108 -334l226 334h104l-296 -422l-49 -278h-93zM343.5 765.5q-12.5 11.5 -12.5 29.5q0 27 17 44t45 17q19 0 31.5 -11.5t12.5 -29.5q0 -27 -17 -44t-45 -17q-19 0 -31.5 11.5z" />
    <glyph glyph-name="uni1E8F" unicode="&#x1e8f;" horiz-adv-x="462" 
d="M496 500l-271 -509q-51 -96 -113.5 -144.5t-133.5 -48.5q-27 0 -55 7l11 65q18 -6 43 -6q51 0 93.5 37t91.5 125l-102 474h89l66 -383l187 383h94zM259.5 565.5q-12.5 11.5 -12.5 29.5q0 27 17 44t45 17q19 0 31.5 -11.5t12.5 -29.5q0 -27 -17 -44t-45 -17
q-19 0 -31.5 11.5z" />
    <glyph glyph-name="uni1E92" unicode="&#x1e92;" horiz-adv-x="567" 
d="M-1 51l472 573h-342l13 76h457l-9 -53l-470 -571h382l-13 -76h-499zM176.5 -162.5q-12.5 11.5 -12.5 29.5q0 27 17 44t45 17q19 0 31.5 -11.5t12.5 -29.5q0 -27 -17 -44t-45 -17q-19 0 -31.5 11.5z" />
    <glyph glyph-name="uni1E93" unicode="&#x1e93;" horiz-adv-x="451" 
d="M-10 48l356 386h-273l11 66h375l-8 -49l-351 -385h293l-12 -66h-399zM118.5 -162.5q-12.5 11.5 -12.5 29.5q0 27 17 44t45 17q19 0 31.5 -11.5t12.5 -29.5q0 -27 -17 -44t-45 -17q-19 0 -31.5 11.5z" />
    <glyph glyph-name="uni1E97" unicode="&#x1e97;" horiz-adv-x="377" 
d="M111 21q-34 31 -34 87q0 11 4 37l52 289h-90l12 66h90l23 133l85 25h4l-27 -158h142l-12 -66h-142l-49 -276q-4 -26 -4 -35q0 -32 15.5 -48.5t49.5 -16.5q42 0 72 11l-5 -63q-36 -16 -94 -16t-92 31zM93.5 723.5q-12.5 11.5 -12.5 29.5q0 27 17 44t45 17q19 0 31.5 -11.5
t12.5 -29.5q0 -27 -17 -44t-45 -17q-19 0 -31.5 11.5zM293 723.5q-12 11.5 -12 30.5q0 26 17 43t45 17q19 0 31.5 -11.5t12.5 -29.5q0 -27 -17 -44t-45 -17q-20 0 -32 11.5z" />
    <glyph glyph-name="uni1E9E" unicode="&#x1e9e;" horiz-adv-x="623" 
d="M255.5 12q-42.5 22 -61.5 64l60 37q36 -55 102 -55q59 0 94.5 40t35.5 104q0 55 -40.5 92t-137.5 52l8 44l158 234h-236l-110 -624h-92l123 700h424l-12 -69l-165 -237q81 -20 125 -69.5t44 -114.5t-27 -115t-76 -77.5t-114 -27.5q-60 0 -102.5 22z" />
    <glyph glyph-name="uni1EA0" unicode="&#x1ea0;" horiz-adv-x="596" 
d="M422 151h-271l-73 -151h-105l361 700h86l115 -700h-91zM411 226l-51 359l-173 -359h224zM191.5 -162.5q-12.5 11.5 -12.5 29.5q0 27 17 44t45 17q19 0 31.5 -11.5t12.5 -29.5q0 -27 -17 -44t-45 -17q-19 0 -31.5 11.5z" />
    <glyph glyph-name="uni1EA1" unicode="&#x1ea1;" horiz-adv-x="542" 
d="M76.5 43.5q-47.5 53.5 -47.5 145.5q0 93 32.5 166t91 114t132.5 41q52 0 91 -22t55 -60h2l22 72h70l-66 -374q-17 -91 -20 -126h-78q6 46 12 79h-2q-30 -41 -74.5 -65t-91.5 -24q-81 0 -128.5 53.5zM331.5 96.5q44.5 38.5 55.5 103.5l16 91q3 20 3 36q0 55 -30.5 86.5
t-84.5 31.5q-49 0 -89.5 -33t-63.5 -90.5t-23 -127.5q0 -65 28 -100.5t80 -35.5q64 0 108.5 38.5zM170.5 -162.5q-12.5 11.5 -12.5 29.5q0 27 17 44t45 17q19 0 31.5 -11.5t12.5 -29.5q0 -27 -17 -44t-45 -17q-19 0 -31.5 11.5z" />
    <glyph glyph-name="uni1EA2" unicode="&#x1ea2;" horiz-adv-x="596" 
d="M422 151h-271l-73 -151h-105l361 700h86l115 -700h-91zM411 226l-51 359l-173 -359h224zM372 796.5q14 16.5 37 33.5q20 15 29.5 26.5t9.5 28.5q0 13 -10 20.5t-26 7.5q-17 0 -37 -12.5t-34 -32.5l-32 34q15 28 46 45t65 17q46 0 69.5 -20.5t23.5 -50.5q0 -33 -14.5 -52
t-40.5 -38q-19 -13 -28.5 -23.5t-12.5 -25.5h-64q5 26 19 42.5z" />
    <glyph glyph-name="uni1EA3" unicode="&#x1ea3;" horiz-adv-x="542" 
d="M76.5 43.5q-47.5 53.5 -47.5 145.5q0 93 32.5 166t91 114t132.5 41q52 0 91 -22t55 -60h2l22 72h70l-66 -374q-17 -91 -20 -126h-78q6 46 12 79h-2q-30 -41 -74.5 -65t-91.5 -24q-81 0 -128.5 53.5zM331.5 96.5q44.5 38.5 55.5 103.5l16 91q3 20 3 36q0 55 -30.5 86.5
t-84.5 31.5q-49 0 -89.5 -33t-63.5 -90.5t-23 -127.5q0 -65 28 -100.5t80 -35.5q64 0 108.5 38.5zM293 596.5q14 16.5 37 33.5q20 15 29.5 26.5t9.5 28.5q0 13 -10 20.5t-26 7.5q-17 0 -37 -12.5t-34 -32.5l-32 34q15 28 46 45t65 17q46 0 69.5 -20.5t23.5 -50.5
q0 -33 -14.5 -52t-40.5 -38q-19 -13 -28.5 -23.5t-12.5 -25.5h-64q5 26 19 42.5z" />
    <glyph glyph-name="uni1EA4" unicode="&#x1ea4;" horiz-adv-x="596" 
d="M422 151h-271l-73 -151h-105l361 700h86l115 -700h-91zM411 226l-51 359l-173 -359h224zM562 973h71l-81 -103h-55zM383 897h58l87 -143h-71l-51 88l-83 -88h-77z" />
    <glyph glyph-name="uni1EA5" unicode="&#x1ea5;" horiz-adv-x="542" 
d="M76.5 43.5q-47.5 53.5 -47.5 145.5q0 93 32.5 166t91 114t132.5 41q52 0 91 -22t55 -60h2l22 72h70l-66 -374q-17 -91 -20 -126h-78q6 46 12 79h-2q-30 -41 -74.5 -65t-91.5 -24q-81 0 -128.5 53.5zM331.5 96.5q44.5 38.5 55.5 103.5l16 91q3 20 3 36q0 55 -30.5 86.5
t-84.5 31.5q-49 0 -89.5 -33t-63.5 -90.5t-23 -127.5q0 -65 28 -100.5t80 -35.5q64 0 108.5 38.5zM483 773h71l-81 -103h-55zM304 697h58l87 -143h-71l-51 88l-83 -88h-77z" />
    <glyph glyph-name="uni1EA6" unicode="&#x1ea6;" horiz-adv-x="596" 
d="M422 151h-271l-73 -151h-105l361 700h86l115 -700h-91zM411 226l-51 359l-173 -359h224zM485 973h71l29 -103h-55zM383 897h58l87 -143h-71l-51 88l-83 -88h-77z" />
    <glyph glyph-name="uni1EA7" unicode="&#x1ea7;" horiz-adv-x="542" 
d="M76.5 43.5q-47.5 53.5 -47.5 145.5q0 93 32.5 166t91 114t132.5 41q52 0 91 -22t55 -60h2l22 72h70l-66 -374q-17 -91 -20 -126h-78q6 46 12 79h-2q-30 -41 -74.5 -65t-91.5 -24q-81 0 -128.5 53.5zM331.5 96.5q44.5 38.5 55.5 103.5l16 91q3 20 3 36q0 55 -30.5 86.5
t-84.5 31.5q-49 0 -89.5 -33t-63.5 -90.5t-23 -127.5q0 -65 28 -100.5t80 -35.5q64 0 108.5 38.5zM406 773h71l29 -103h-55zM304 697h58l87 -143h-71l-51 88l-83 -88h-77z" />
    <glyph glyph-name="uni1EA8" unicode="&#x1ea8;" horiz-adv-x="596" 
d="M422 151h-271l-73 -151h-105l361 700h86l115 -700h-91zM411 226l-51 359l-173 -359h224zM540.5 897.5q11.5 12.5 31.5 26.5q16 11 24 19.5t8 22.5q0 9 -7.5 14.5t-20.5 5.5q-15 0 -30 -7.5t-27 -22.5l-25 27q14 20 38 32.5t52 12.5q29 0 49 -15t20 -40q0 -24 -10.5 -37.5
t-32.5 -28.5q-16 -10 -25 -20t-12 -24h-48q4 22 15.5 34.5zM383 897h58l87 -143h-71l-51 88l-83 -88h-77z" />
    <glyph glyph-name="uni1EA9" unicode="&#x1ea9;" horiz-adv-x="542" 
d="M76.5 43.5q-47.5 53.5 -47.5 145.5q0 93 32.5 166t91 114t132.5 41q52 0 91 -22t55 -60h2l22 72h70l-66 -374q-17 -91 -20 -126h-78q6 46 12 79h-2q-30 -41 -74.5 -65t-91.5 -24q-81 0 -128.5 53.5zM331.5 96.5q44.5 38.5 55.5 103.5l16 91q3 20 3 36q0 55 -30.5 86.5
t-84.5 31.5q-49 0 -89.5 -33t-63.5 -90.5t-23 -127.5q0 -65 28 -100.5t80 -35.5q64 0 108.5 38.5zM461.5 697.5q11.5 12.5 31.5 26.5q16 11 24 19.5t8 22.5q0 9 -7.5 14.5t-20.5 5.5q-15 0 -30 -7.5t-27 -22.5l-25 27q14 20 38 32.5t52 12.5q29 0 49 -15t20 -40
q0 -24 -10.5 -37.5t-32.5 -28.5q-16 -10 -25 -20t-12 -24h-48q4 22 15.5 34.5zM304 697h58l87 -143h-71l-51 88l-83 -88h-77z" />
    <glyph glyph-name="uni1EAA" unicode="&#x1eaa;" horiz-adv-x="596" 
d="M422 151h-271l-73 -151h-105l361 700h86l115 -700h-91zM411 226l-51 359l-173 -359h224zM444 934.5q-12 6.5 -30 18.5q-16 11 -25 15.5t-20 4.5q-26 0 -44 -40h-41q14 40 39 63t58 23q15 0 28 -5.5t32 -17.5q28 -19 45 -19q15 0 25.5 10t18.5 31h40q-9 -41 -36 -65.5
t-63 -24.5q-15 0 -27 6.5zM383 897h58l87 -143h-71l-51 88l-83 -88h-77z" />
    <glyph glyph-name="uni1EAB" unicode="&#x1eab;" horiz-adv-x="542" 
d="M76.5 43.5q-47.5 53.5 -47.5 145.5q0 93 32.5 166t91 114t132.5 41q52 0 91 -22t55 -60h2l22 72h70l-66 -374q-17 -91 -20 -126h-78q6 46 12 79h-2q-30 -41 -74.5 -65t-91.5 -24q-81 0 -128.5 53.5zM331.5 96.5q44.5 38.5 55.5 103.5l16 91q3 20 3 36q0 55 -30.5 86.5
t-84.5 31.5q-49 0 -89.5 -33t-63.5 -90.5t-23 -127.5q0 -65 28 -100.5t80 -35.5q64 0 108.5 38.5zM365 734.5q-12 6.5 -30 18.5q-16 11 -25 15.5t-20 4.5q-26 0 -44 -40h-41q14 40 39 63t58 23q15 0 28 -5.5t32 -17.5q28 -19 45 -19q15 0 25.5 10t18.5 31h40
q-9 -41 -36 -65.5t-63 -24.5q-15 0 -27 6.5zM304 697h58l87 -143h-71l-51 88l-83 -88h-77z" />
    <glyph glyph-name="uni1EAC" unicode="&#x1eac;" horiz-adv-x="596" 
d="M422 151h-271l-73 -151h-105l361 700h86l115 -700h-91zM411 226l-51 359l-173 -359h224zM191.5 -162.5q-12.5 11.5 -12.5 29.5q0 27 17 44t45 17q19 0 31.5 -11.5t12.5 -29.5q0 -27 -17 -44t-45 -17q-19 0 -31.5 11.5zM383 897h58l87 -143h-71l-51 88l-83 -88h-77z" />
    <glyph glyph-name="uni1EAD" unicode="&#x1ead;" horiz-adv-x="542" 
d="M76.5 43.5q-47.5 53.5 -47.5 145.5q0 93 32.5 166t91 114t132.5 41q52 0 91 -22t55 -60h2l22 72h70l-66 -374q-17 -91 -20 -126h-78q6 46 12 79h-2q-30 -41 -74.5 -65t-91.5 -24q-81 0 -128.5 53.5zM331.5 96.5q44.5 38.5 55.5 103.5l16 91q3 20 3 36q0 55 -30.5 86.5
t-84.5 31.5q-49 0 -89.5 -33t-63.5 -90.5t-23 -127.5q0 -65 28 -100.5t80 -35.5q64 0 108.5 38.5zM170.5 -162.5q-12.5 11.5 -12.5 29.5q0 27 17 44t45 17q19 0 31.5 -11.5t12.5 -29.5q0 -27 -17 -44t-45 -17q-19 0 -31.5 11.5zM304 697h58l87 -143h-71l-51 88l-83 -88h-77z
" />
    <glyph glyph-name="uni1EAE" unicode="&#x1eae;" horiz-adv-x="596" 
d="M422 151h-271l-73 -151h-105l361 700h86l115 -700h-91zM411 226l-51 359l-173 -359h224zM447 1013h73l-85 -108h-58zM298.5 781.5q-35.5 27.5 -35.5 81.5q0 8 2 24h52q-4 -35 15.5 -55.5t62.5 -20.5q39 0 67 19t37 57h56q-12 -63 -52.5 -98t-109.5 -35q-59 0 -94.5 27.5z
" />
    <glyph glyph-name="uni1EAF" unicode="&#x1eaf;" horiz-adv-x="542" 
d="M76.5 43.5q-47.5 53.5 -47.5 145.5q0 93 32.5 166t91 114t132.5 41q52 0 91 -22t55 -60h2l22 72h70l-66 -374q-17 -91 -20 -126h-78q6 46 12 79h-2q-30 -41 -74.5 -65t-91.5 -24q-81 0 -128.5 53.5zM331.5 96.5q44.5 38.5 55.5 103.5l16 91q3 20 3 36q0 55 -30.5 86.5
t-84.5 31.5q-49 0 -89.5 -33t-63.5 -90.5t-23 -127.5q0 -65 28 -100.5t80 -35.5q64 0 108.5 38.5zM368 813h73l-85 -108h-58zM219.5 581.5q-35.5 27.5 -35.5 81.5q0 8 2 24h52q-4 -35 15.5 -55.5t62.5 -20.5q39 0 67 19t37 57h56q-12 -63 -52.5 -98t-109.5 -35
q-59 0 -94.5 27.5z" />
    <glyph glyph-name="uni1EB0" unicode="&#x1eb0;" horiz-adv-x="596" 
d="M422 151h-271l-73 -151h-105l361 700h86l115 -700h-91zM411 226l-51 359l-173 -359h224zM336 1013h73l32 -108h-58zM298.5 781.5q-35.5 27.5 -35.5 81.5q0 8 2 24h52q-4 -35 15.5 -55.5t62.5 -20.5q39 0 67 19t37 57h56q-12 -63 -52.5 -98t-109.5 -35q-59 0 -94.5 27.5z
" />
    <glyph glyph-name="uni1EB1" unicode="&#x1eb1;" horiz-adv-x="542" 
d="M76.5 43.5q-47.5 53.5 -47.5 145.5q0 93 32.5 166t91 114t132.5 41q52 0 91 -22t55 -60h2l22 72h70l-66 -374q-17 -91 -20 -126h-78q6 46 12 79h-2q-30 -41 -74.5 -65t-91.5 -24q-81 0 -128.5 53.5zM331.5 96.5q44.5 38.5 55.5 103.5l16 91q3 20 3 36q0 55 -30.5 86.5
t-84.5 31.5q-49 0 -89.5 -33t-63.5 -90.5t-23 -127.5q0 -65 28 -100.5t80 -35.5q64 0 108.5 38.5zM257 813h73l32 -108h-58zM219.5 581.5q-35.5 27.5 -35.5 81.5q0 8 2 24h52q-4 -35 15.5 -55.5t62.5 -20.5q39 0 67 19t37 57h56q-12 -63 -52.5 -98t-109.5 -35
q-59 0 -94.5 27.5z" />
    <glyph glyph-name="uni1EB2" unicode="&#x1eb2;" horiz-adv-x="596" 
d="M422 151h-271l-73 -151h-105l361 700h86l115 -700h-91zM411 226l-51 359l-173 -359h224zM399 933.5q12 13.5 32 27.5q17 12 23.5 19.5t6.5 19.5q0 9 -7 15t-21 6t-29.5 -7.5t-26.5 -22.5l-24 25q30 46 89 46q29 0 48.5 -15.5t19.5 -39.5q0 -22 -10.5 -35.5t-31.5 -28.5
q-18 -14 -26.5 -23t-11.5 -24h-47q4 24 16 37.5zM298.5 781.5q-35.5 27.5 -35.5 81.5q0 8 2 24h52q-4 -35 15.5 -55.5t62.5 -20.5q39 0 67 19t37 57h56q-12 -63 -52.5 -98t-109.5 -35q-59 0 -94.5 27.5z" />
    </font>
</defs>
</svg>
